<svg class="chart4" version="1.1" id="Calque_1" xmlns="http://www.w3.org/2000/svg" xmlns:xlink="http://www.w3.org/1999/xlink" x="0px" y="0px"
	 viewBox="0 0 566.9 312.8" style="enable-background:new 0 0 566.9 312.8;" xml:space="preserve">
	<style type="text/css">
		.chart4 .st0{fill:#D3D3D3;}
		.chart4 .st1{fill:#CD6053;}
		.chart4 .st2{fill:#889595;}
		.chart4 .st3{fill:#6C7E7E;}
		.chart4 .st4{fill:#5F5F71;}
		.chart4 .st5{opacity:0.1;fill:#0D0E1C;enable-background:new    ;}
		.chart4 .st6{fill:#FFFFFF;}
		.chart4 .st7{fill:none;stroke:#2D2211;stroke-miterlimit:10;}
		.chart4 .st8{fill:#2D2211;}
		.chart4 .st9{fill:#96C491;}
		.chart4 .st10{fill:#88BD7F;}
		.chart4 .st11{fill:#5FA45E;}
		.chart4 .st12{fill:#E5D16C;}
		.chart4 .st13{fill:#D3A94E;}
		.chart4 .st14{fill:#6EA667;}
		.chart4 .st15{fill:#CB544E;}
		.chart4 .st16{fill:#CD5C53;}
		.chart4 .st17{fill:#D88E82;}
		.chart4 .st18{fill:#674C4B;}
		.chart4 .st19{fill:#90C06F;}
		.chart4 .st20{fill:#78A95C;}
		.chart4 .st21{fill:#D09D68;}
		.chart4 .st22{fill:#BA8A5F;}
		.chart4 .st23{fill:#E8C592;}
		.chart4 .st24{fill:#E0AD71;}
		.chart4 .st25{fill:#85B85E;}
		.chart4 .st26{fill:#5EAD66;}
		.chart4 .st27{fill:#CADEB2;}
		.chart4 .st28{fill:#A3C985;}
		.chart4 .st29{fill:#66AF62;}
		.chart4 .st30{fill:#CD5C56;}
		.chart4 .st31{fill:#C66E45;}
		.chart4 .st32{fill:#957EBA;}
		.chart4 .st33{fill:#AB7554;}
		.chart4 .st34{fill:#986E56;}
		.chart4 .st35{fill:#5DAC68;}
		.chart4 .st36{fill:#57AA64;}
		.chart4 .st37{fill:#7B60AA;}
		.chart4 .st38{fill:#6F53A3;}
		.chart4 .st39{fill:#664D9E;}
		.chart4 .st40{fill:#8771B3;}
		.chart4 .st41{fill:#AC9BCB;}
		.chart4 .st42{fill:#A18FC4;}
	</style>
	<g id="betterave_x5F_ombre">
		<ellipse class="st0" cx="52.7" cy="203.5" rx="16.8" ry="3.2"/>
	</g>
	<g id="cerise_x5F_ombre">
		<ellipse class="st0" cx="134.9" cy="203.5" rx="20.9" ry="4"/>
	</g>
	<g id="patate_x5F_ombre">
		<ellipse class="st0" cx="225" cy="203.5" rx="18.9" ry="3.6"/>
	</g>
	<g id="raisin_x5F_ombre">
		<ellipse class="st0" cx="337.4" cy="203.5" rx="21.3" ry="4.1"/>
	</g>
	<g id="pomme_x5F_ombre">
		<ellipse class="st0" cx="475.2" cy="203.5" rx="21.3" ry="4.1"/>
	</g>
	<g id="betterave_x5F_baril">
		<polygon class="st1" points="77.1,198.1 65.6,203 52.7,204.4 39.5,202.8 28.3,198.1 28.3,146 77.1,146 	"/>
		<path class="st1" d="M52.7,137.4c13.5,0,24.4,3.8,24.4,8.5s-10.9,8.5-24.4,8.5s-24.4-3.8-24.4-8.5
			C28.3,141.2,39.2,137.4,52.7,137.4z"/>
		<g>
			<path class="st2" d="M52.7,137.4c-13.5,0-24.4,3.8-24.4,8.5V198l11.2,4.7l13.2,1.6l12.9-1.4l11.5-4.9v-52
				C77.1,141.2,66.2,137.4,52.7,137.4z"/>
		</g>
		<g>
			<path class="st3" d="M28.3,146c0,4.7,10.9,8.5,24.4,8.5s24.4-3.8,24.4-8.5v4.7c0,4.7-10.9,8.5-24.4,8.5s-24.4-3.8-24.4-8.5
				C28.3,150.7,28.3,146,28.3,146z"/>
		</g>
		<g>
			<path class="st3" d="M28.3,193.4c0,4.7,10.9,8.5,24.4,8.5s24.4-3.8,24.4-8.5v4.7c0,4.7-10.9,8.5-24.4,8.5s-24.4-3.8-24.4-8.5
				C28.3,198.1,28.3,193.4,28.3,193.4z"/>
		</g>
		<path class="st3" d="M28.3,169.7c0,4.7,10.9,8.5,24.4,8.5s24.4-3.8,24.4-8.5v4.7c0,4.7-10.9,8.5-24.4,8.5s-24.4-3.8-24.4-8.5
			C28.3,174.4,28.3,169.7,28.3,169.7z"/>
		<path class="st4" d="M42.1,142.5c3.1,0,5.7,1.5,5.7,3.4s-2.5,3.4-5.7,3.4c-3.1,0-5.7-1.5-5.7-3.4C36.5,144.1,39,142.5,42.1,142.5z"
			/>
		<path class="st5" d="M34.5,198.1v-4.7v-19.1v-4.7v-19.1V146c0-0.2,0-0.4,0.1-0.7c0.1-0.4,0.2-0.7,0.4-1.1c0.1-0.2,0.3-0.4,0.4-0.6
			c0.2-0.2,0.3-0.4,0.6-0.6c0.1-0.1,0.1-0.1,0.2-0.2c0.1-0.1,0.3-0.3,0.5-0.4c0.2-0.1,0.3-0.3,0.5-0.4c0.4-0.2,0.8-0.5,1.2-0.7
			c0.1-0.1,0.2-0.1,0.3-0.2c0.7-0.3,1.4-0.7,2.2-1c0.5-0.2,1.1-0.4,1.7-0.6c0.4-0.1,0.9-0.3,1.3-0.4c0.2,0,0.3-0.1,0.5-0.1
			c0.3-0.1,0.6-0.2,1-0.2c0.2,0,0.3-0.1,0.5-0.1c0.3-0.1,0.7-0.1,1-0.2c0.3-0.1,0.7-0.1,1-0.2c0.7-0.1,1.4-0.2,2.2-0.3
			c0.4-0.1,0.7-0.1,1.1-0.1c0.4,0,0.7-0.1,1.1-0.1c1.2-0.1,2.4-0.2,3.6-0.3c-1,0-2.1-0.1-3.1-0.1c-2.3,0-4.6,0.1-6.7,0.3
			c-0.4,0-0.7,0.1-1.1,0.1c-0.4,0-0.8,0.1-1.1,0.1c-0.7,0.1-1.5,0.2-2.2,0.3c-0.4,0.1-0.7,0.1-1,0.2c-0.3,0.1-0.7,0.1-1,0.2
			c-0.2,0-0.3,0.1-0.5,0.1c-0.3,0.1-0.6,0.2-1,0.2c-0.2,0-0.3,0.1-0.5,0.1c-0.5,0.1-0.9,0.3-1.3,0.4c-0.6,0.2-1.1,0.4-1.7,0.6
			c-0.8,0.3-1.5,0.6-2.2,1c-0.1,0.1-0.2,0.1-0.3,0.2c-0.4,0.2-0.8,0.5-1.2,0.7c-0.2,0.1-0.3,0.2-0.5,0.4c-0.2,0.1-0.3,0.3-0.5,0.4
			c-0.1,0.1-0.1,0.1-0.2,0.2c-0.2,0.2-0.4,0.4-0.6,0.6c-0.2,0.2-0.3,0.4-0.4,0.6c-0.2,0.3-0.3,0.7-0.4,1.1c0,0.2-0.1,0.4-0.1,0.7v4.7
			v19.1v4.7v19.1v4.7c0,4.7,10.9,8.5,24.4,8.5c1.1,0,2.1,0,3.1-0.1C43.8,206.1,34.5,202.5,34.5,198.1z"/>
		<g>
			<g>
				<path class="st6" d="M36.5,169c0,2,0,3.9,0,5.9c0.4-0.1,1.2,0,1.9,0.2c2.7,0.7,3.7,2.4,3.7,5c0,1.9,0,3.9,0,5.8
					c0,2.7-1.4,4.4-4.9,3.4c-3.5-1.1-4.8-3.6-4.8-6.3c0-5.1,0-10.3,0-15.4c0-2.8,1.3-4,4.8-2.9c3.5,1,4.9,3.1,4.9,5.8
					c0,0.9,0,1.7,0,2.6c-1.4-0.3-2.8-0.6-4.2-1c0-0.9,0-1.8,0-2.6c0-0.6-0.3-0.9-0.7-1S36.5,168.5,36.5,169z M36.5,184.6
					c0,0.4,0.2,0.8,0.7,1c0.5,0.1,0.7-0.1,0.7-0.5c0-1.9,0-3.7,0-5.6c0-0.4-0.2-0.8-0.7-1c-0.5-0.1-0.7,0.1-0.7,0.5
					C36.5,180.8,36.5,182.7,36.5,184.6z"/>
				<path class="st6" d="M49.6,186.3c0.4-1.2,0.8-2.4,1.2-3.5c0.6,0,1.1,0,1.7,0c-0.5,1.4-1,2.7-1.6,4.1c0.6,1.5,1.2,3,1.7,4.5
					c-0.6,0-1.1,0-1.7,0c-0.4-1.3-0.9-2.6-1.3-3.9c0,1.3,0,2.5,0,3.8c-0.5,0-1-0.1-1.5-0.1c0-4.1,0-8.1,0-12.2c0.5,0,1,0.1,1.5,0.1
					C49.6,181.5,49.6,183.9,49.6,186.3z"/>
				<path class="st6" d="M55,189.9c0,0.3,0.2,0.4,0.6,0.4c1.8-0.1,2.3,0.6,2.3,1.7v0.1c0,1-0.6,2-2.3,2.1s-2.3-0.8-2.3-1.9v-0.1
					c0-0.7,0.2-1.3,0.9-1.7c-0.3-0.1-0.4-0.4-0.4-0.7s0.2-0.5,0.5-0.7c-0.6-0.3-0.8-0.9-0.8-1.7c0-0.9,0-1.9,0-2.8
					c0-1.2,0.5-2,2.1-2.1c0.3,0,0.6,0,0.8,0.1c0.2-0.7,0.6-1.1,1.3-1.1c0.2,0,0.3,0,0.5,0c0,0.4,0,0.8,0,1.1c-0.2-0.1-0.3-0.1-0.6,0
					c-0.2,0-0.4,0.1-0.5,0.2c0.5,0.3,0.7,0.9,0.7,1.6c0,0.9,0,1.9,0,2.8c0,1.2-0.5,2-2.1,2.1C55.2,189.5,55,189.6,55,189.9z
					M54.8,192.1C54.8,192.1,54.8,192.2,54.8,192.1c0,0.6,0.3,0.8,0.8,0.8s0.8-0.3,0.8-0.8c0,0,0,0,0-0.1c0-0.5-0.3-0.7-0.8-0.7
					S54.8,191.6,54.8,192.1z M55,184.8c0,0.9,0,1.7,0,2.6c0,0.6,0.1,0.9,0.6,0.9c0.4,0,0.6-0.3,0.6-0.9c0-0.9,0-1.7,0-2.6
					c0-0.6-0.1-0.9-0.6-0.9C55.1,183.9,55,184.2,55,184.8z"/>
				<path class="st6" d="M61.7,178.2c0.4-0.1,0.8-0.1,1.2-0.2c-0.9,4.5-1.8,9-2.8,13.5c-0.4,0.1-0.8,0.1-1.2,0.1
					C59.9,187.2,60.8,182.7,61.7,178.2z"/>
				<path class="st6" d="M64.2,190.2c0-4.1,0-8.1,0-12.2c0.5-0.1,1-0.2,1.5-0.3c0,1.3,0,2.6,0,3.9c0.2-0.3,0.6-0.6,1-0.7
					c1.2-0.3,1.6,0.2,1.6,1.5c0,2.2,0,4.5,0,6.7c-0.5,0.1-1,0.3-1.5,0.4c0-2.2,0-4.5,0-6.7c0-0.4-0.2-0.6-0.6-0.5s-0.5,0.4-0.5,0.8
					c0,2.3,0,4.5,0,6.8C65.2,190,64.7,190.1,64.2,190.2z"/>
				<path class="st6" d="M69.6,185.7c0-1.3,0.7-2.1,2.6-3.4c0-0.4,0-0.8,0-1.2s-0.1-0.6-0.5-0.5s-0.5,0.4-0.5,0.9c0,0.2,0,0.3,0,0.5
					c-0.5,0.2-1,0.3-1.5,0.5c0-0.2,0-0.3,0-0.5c0-1.2,0.5-2.1,2-2.6c1.5-0.6,2,0,2,1.2c0,2.3,0,4.5,0,6.8c-0.3,0.1-0.6,0.2-0.8,0.3
					c-0.1-0.1-0.2-0.2-0.3-0.3c-0.2,0.5-0.6,0.8-1.2,1.1c-1.2,0.4-1.7-0.1-1.7-1.4C69.6,186.5,69.6,186.1,69.6,185.7z M72.2,183.4
					c-0.8,0.7-1.1,1-1.1,1.8c0,0.3,0,0.7,0,1c0,0.4,0,0.9,0.5,0.7c0.4-0.2,0.5-0.5,0.5-0.9C72.2,185.2,72.2,184.3,72.2,183.4z"/>
			</g>
		</g>
	</g>
	<g id="betterave_x5F_leg">
		<g>
			<g>
				<line class="st7" x1="52.7" y1="253.9" x2="52.7" y2="205.9"/>
				<g>
					<path class="st8" d="M56.5,206.1c0-2.1-1.7-3.8-3.8-3.8s-3.8,1.7-3.8,3.8s1.7,3.8,3.8,3.8C54.8,209.9,56.5,208.2,56.5,206.1z"/>
				</g>
			</g>
		</g>
		<g>
			<path class="st3" d="M22.1,259.9h3.1c2.1,0,2.5,0.8,2.5,2.3v3.2c0,0.8-0.3,1.3-0.8,1.7c0.6,0.4,0.9,0.9,0.9,1.8v3.2
				c0,1.5-0.5,2.5-2.5,2.5h-3.2V259.9z M24.4,266.1h0.7c0.3,0,0.4-0.1,0.4-0.5v-3.2c0-0.3-0.1-0.4-0.4-0.4h-0.8L24.4,266.1
				L24.4,266.1z M24.4,272.5h0.8c0.3,0,0.4-0.1,0.4-0.4v-3.3c0-0.4-0.1-0.5-0.5-0.5h-0.7C24.4,268.3,24.4,272.5,24.4,272.5z"/>
			<path class="st3" d="M31.7,272.4c0,0.5,0.3,0.6,0.5,0.6s0.5-0.1,0.5-0.6v-1.6h2.1v1.5c0,1.5-0.5,2.5-2.6,2.5s-2.6-1-2.6-2.5v-5.9
				c0-1.5,0.6-2.5,2.6-2.5s2.6,1,2.6,2.5v3.3h-3L31.7,272.4L31.7,272.4z M31.7,268.1h1v-1.8c0-0.5-0.3-0.6-0.5-0.6s-0.5,0.1-0.5,0.6
				V268.1z"/>
			<path class="st3" d="M39,260.9v3.3h1.4v1.9H39v6.4c0,0.4,0.2,0.6,0.5,0.6s0.5,0,0.9-0.2v1.8c-0.2,0.1-0.7,0.2-1,0.2
				c-2.1,0-2.6-0.9-2.6-2.5V266h-1.1v-1.9h1.1v-2.7L39,260.9z"/>
			<path class="st3" d="M44.3,260.9v3.3h1.4v1.9h-1.4v6.4c0,0.4,0.2,0.6,0.5,0.6s0.5,0,0.9-0.2v1.8c-0.2,0.1-0.7,0.2-1,0.2
				c-2.1,0-2.6-0.9-2.6-2.5V266H41v-1.9h1.1v-2.7L44.3,260.9z"/>
			<path class="st3" d="M49.1,272.4c0,0.5,0.3,0.6,0.5,0.6s0.5-0.1,0.5-0.6v-1.6h2.1v1.5c0,1.5-0.5,2.5-2.6,2.5s-2.6-1-2.6-2.5v-5.9
				c0-1.5,0.6-2.5,2.6-2.5s2.6,1,2.6,2.5v3.3h-3L49.1,272.4L49.1,272.4z M49.1,268.1h1v-1.8c0-0.5-0.3-0.6-0.5-0.6s-0.5,0.1-0.5,0.6
				V268.1z"/>
			<path class="st3" d="M57.4,266c-1.1-0.2-1.5,0.3-1.5,1.2v7.4h-2.1v-10.5H55l0.4,0.5c0.5-0.6,1-0.9,2.1-0.9v2.3H57.4z"/>
			<path class="st3" d="M61.6,266.3c0-0.4-0.2-0.6-0.5-0.6s-0.4,0.2-0.4,0.6v0.8h-2.1v-0.9c0-1.4,0.7-2.4,2.5-2.4c2,0,2.6,1,2.6,2.4
				v8.3h-1.2l-0.4-0.5c-0.4,0.5-0.8,0.7-1.6,0.7c-1.5,0-2.1-0.8-2.1-2.5v-1.6c0-1.5,1-2.2,3.1-3v-1.3H61.6z M60.6,272.3
				c0,0.3,0.1,0.6,0.5,0.6c0.5,0,0.5-0.2,0.5-0.6v-3c-0.6,0.4-1,0.6-1,1.4V272.3z"/>
			<path class="st3" d="M69,274.6h-2.4l-1.7-10.5h2.2l0.7,7.7l0.7-7.7h2.2L69,274.6z"/>
			<path class="st3" d="M74,272.4c0,0.5,0.3,0.6,0.5,0.6s0.5-0.1,0.5-0.6v-1.6h2v1.5c0,1.5-0.5,2.5-2.6,2.5s-2.6-1-2.6-2.5v-5.9
				c0-1.5,0.6-2.5,2.6-2.5s2.6,1,2.6,2.5v3.3h-3V272.4z M74,268.1h1v-1.8c0-0.5-0.3-0.6-0.5-0.6s-0.5,0.1-0.5,0.6V268.1z"/>
			<path class="st3" d="M80.5,272.4c0,0.4,0.2,0.6,0.5,0.6s0.5-0.1,0.5-0.6v-0.8c0-2.2-3.1-1.7-3.1-4.8v-0.4c0-1.5,0.7-2.5,2.6-2.5
				c2,0,2.6,0.9,2.6,2.5v1h-2.1v-1c0-0.4-0.1-0.6-0.5-0.6c-0.3,0-0.5,0.2-0.5,0.6v0.4c0,2.1,3.1,1.6,3.1,4.7v0.9
				c0,1.5-0.7,2.4-2.6,2.4c-2,0-2.6-0.9-2.6-2.4v-1.2h2.1V272.4z"/>
			<path class="st3" d="M28.4,292.4c0,0.4,0.2,0.6,0.5,0.6s0.5-0.1,0.5-0.6v-0.8c0-2.2-3.1-1.7-3.1-4.8v-0.4c0-1.5,0.7-2.5,2.6-2.5
				c2,0,2.6,0.9,2.6,2.5v1h-2.1v-1c0-0.4-0.1-0.6-0.5-0.6c-0.3,0-0.5,0.2-0.5,0.6v0.4c0,2.1,3.1,1.6,3.1,4.7v0.9
				c0,1.5-0.7,2.4-2.6,2.4c-2,0-2.6-0.9-2.6-2.4v-1.2h2.1V292.4z"/>
			<path class="st3" d="M35.3,284.1v8.3c0,0.3,0.1,0.6,0.5,0.6c0.3,0,0.5-0.2,0.5-0.6v-8.3h2.1v10.5h-1.2l-0.4-0.5
				c-0.3,0.5-0.9,0.7-1.7,0.7c-1.5,0-2-0.8-2-2.4v-8.3L35.3,284.1L35.3,284.1z"/>
			<path class="st3" d="M45.3,290.8v1.6c0,1.5-0.5,2.5-2.6,2.5s-2.6-1-2.6-2.5v-6c0-1.5,0.6-2.5,2.6-2.5s2.6,1,2.6,2.5v1.4h-2.1v-1.4
				c0-0.5-0.3-0.6-0.5-0.6s-0.5,0.1-0.5,0.6v6.1c0,0.5,0.3,0.6,0.5,0.6s0.5-0.1,0.5-0.6v-1.6h2.1V290.8z"/>
			<path class="st3" d="M50.4,286c-1.1-0.2-1.5,0.3-1.5,1.2v7.4h-2.1v-10.5H48l0.4,0.5c0.5-0.6,1-0.9,2.1-0.9L50.4,286L50.4,286z"/>
			<path class="st3" d="M53.9,280.6v2.4h-2.1v-2.4H53.9z M53.9,284.1v10.5h-2.1v-10.5H53.9z"/>
			<path class="st3" d="M57.6,292.4c0,0.5,0.3,0.6,0.5,0.6s0.5-0.1,0.5-0.6v-1.6h2.1v1.5c0,1.5-0.5,2.5-2.6,2.5s-2.6-1-2.6-2.5v-5.9
				c0-1.5,0.6-2.5,2.6-2.5s2.6,1,2.6,2.5v3.3h-3L57.6,292.4L57.6,292.4z M58.4,280.2l0.4,2.8h-1.3l-1.2-2.8H58.4z M57.6,288.1h1v-1.8
				c0-0.5-0.3-0.6-0.5-0.6s-0.5,0.1-0.5,0.6V288.1z"/>
			<path class="st3" d="M65.9,286c-1.1-0.2-1.5,0.3-1.5,1.2v7.4h-2.1v-10.5h1.2l0.4,0.5c0.5-0.6,1-0.9,2.1-0.9v2.3H65.9z"/>
			<path class="st3" d="M69.3,292.4c0,0.5,0.3,0.6,0.5,0.6s0.5-0.1,0.5-0.6v-1.6h2.1v1.5c0,1.5-0.5,2.5-2.6,2.5s-2.6-1-2.6-2.5v-5.9
				c0-1.5,0.6-2.5,2.6-2.5s2.6,1,2.6,2.5v3.3h-3L69.3,292.4L69.3,292.4z M69.3,288.1h1v-1.8c0-0.5-0.3-0.6-0.5-0.6s-0.5,0.1-0.5,0.6
				V288.1z"/>
			<path class="st3" d="M75.9,292.4c0,0.4,0.2,0.6,0.5,0.6s0.5-0.1,0.5-0.6v-0.8c0-2.2-3.1-1.7-3.1-4.8v-0.4c0-1.5,0.7-2.5,2.6-2.5
				c2,0,2.6,0.9,2.6,2.5v1h-2.1v-1c0-0.4-0.1-0.6-0.5-0.6c-0.3,0-0.5,0.2-0.5,0.6v0.4c0,2.1,3.1,1.6,3.1,4.7v0.9
				c0,1.5-0.7,2.4-2.6,2.4c-2,0-2.6-0.9-2.6-2.4v-1.2h2.1V292.4z"/>
		</g>
		<line class="st7" x1="21.5" y1="253.9" x2="83.9" y2="253.9"/>
	</g>
	<g id="betterave_x5F_picto">
		<path class="st9" d="M55.9,95.9c2.8-0.6,2.7,3.3,2.7,3.3c3.7-0.8,2,4.4,2,4.4s1.9-0.4,2.3,1.4c0.8,3.7-3.2,7.5-2.2,12.2
			c-1-4.6-6.3-6.4-7.1-10.1c-0.4-1.9,1.4-2.3,1.4-2.3s-3.8-4-0.1-4.8C54.9,100.1,53.1,96.5,55.9,95.9z"/>
		<path class="st10" d="M55.9,95.9c-2.8,0.6-1,4.1-1,4.1c-3.7,0.8,0.1,4.8,0.1,4.8s-1.9,0.4-1.4,2.3c0.8,3.7,6.1,5.5,7.1,10.1
			L55.9,95.9z"/>
		<path class="st9" d="M88,120.1c-0.2-2.8-3.9-1.7-3.9-1.7c-0.2-3.8-4.8-0.7-4.8-0.7s-0.1-1.9-2-1.8c-3.8,0.2-6.3,5.2-11.1,5.5
			c4.7-0.3,7.9,4.3,11.7,4c1.9-0.1,1.8-2,1.8-2s4.9,2.5,4.7-1.2C84.3,122.2,88.1,122.9,88,120.1z"/>
		<path class="st10" d="M88,120.1c0.2,2.8-3.7,2.1-3.7,2.1c0.2,3.8-4.7,1.2-4.7,1.2s0.1,1.9-1.8,2c-3.8,0.2-6.9-4.3-11.7-4L88,120.1z
			"/>
		<path class="st9" d="M78,100c2.5,1.9-0.8,4.5-0.8,4.5c3.3,2.5-2.3,4.7-2.3,4.7s1.6,1.2,0.4,2.9c-2.5,3.3-8.5,2.7-11.5,6.8
			c3.1-4.1,0.8-9.7,3.3-13c1.2-1.6,2.9-0.4,2.9-0.4s0.6-6,3.9-3.5C73.8,102,75.5,98.1,78,100z"/>
		<path class="st10" d="M73.8,102c-3.3-2.5-3.9,3.5-3.9,3.5s-1.6-1.2-2.9,0.4c-2.5,3.3-0.2,8.9-3.3,13L78,100
			C75.5,98.1,73.8,102,73.8,102z"/>
		<path class="st11" d="M75.9,121c0-0.6-0.4-1-1-1c-1.7,0-9,0-13,1.2C62,117,60,110,59.5,108.4c-0.2-0.5-0.7-0.9-1.3-0.7
			c-0.5,0.2-0.9,0.7-0.7,1.3c1.4,4.6,2.9,11.8,2.1,13.6c-0.2,0.5-0.1,1,0.3,1.3c0.1,0,0.1,0.1,0.2,0.1c0.4,0.2,0.8,0.1,1.1-0.2l0,0
			c1.5-1.3,8.8-1.8,13.6-1.7C75.5,122.1,75.9,121.6,75.9,121z"/>
		<g>
			<path class="st12" d="M60.6,123c-6.4-4.8-14.1-5.3-18.6,0.8c-4.1,5.5,0.5,13,1.1,18.9c0.1,1.1-0.2,2.1-0.8,3l-0.5,0.6
				c-0.3,0.5-0.3,1.1,0.2,1.4c0.5,0.3,1.1,0.2,1.4-0.2l0.5-0.6c0.6-0.8,1.6-1.4,2.6-1.6c5.8-1,14.3,1.3,18.5-4.1
				C69.5,135.1,67,127.8,60.6,123z"/>
		</g>
		<path class="st13" d="M59.5,140.9c-0.2-0.1-0.3-0.3-0.4-0.4c-0.3-0.6-0.1-1.4,0.6-1.7c0.4-0.2,0.8-0.5,1-0.8c1-1.3,1.4-2.8,1.1-4.3
			c-0.1-0.7,0.3-1.4,1-1.5s1.4,0.3,1.5,1c0.4,2.2-0.1,4.4-1.6,6.3c-0.5,0.7-1.1,1.2-1.9,1.6C60.4,141.2,59.9,141.2,59.5,140.9z
			M60.3,130.3c-0.1-0.1-0.2-0.1-0.2-0.2c-0.2-0.3-0.5-0.6-0.8-0.9c-0.5-0.5-0.5-1.3,0.1-1.8c0.5-0.5,1.3-0.5,1.8,0.1
			c0.3,0.4,0.6,0.7,0.9,1.1c0.4,0.6,0.3,1.4-0.2,1.8C61.4,130.6,60.8,130.6,60.3,130.3z"/>
		<path class="st13" d="M45.5,144.5c0.8-4.8-1.1-10.2,3.1-15.7c2.4-3.2,5.1-5,7.6-5.6c0.6-0.2,1-0.7,1-1.3l0,0c0-0.5-0.3-1-0.8-1.2
			c-5.3-2.2-10.8-1.5-14.4,3.2c-4.1,5.5,0.5,13,1.1,18.9c0.1,1.1-0.2,2.1-0.8,2.9l-0.5,0.6c-0.3,0.5-0.3,1.1,0.2,1.4
			c0.5,0.3,1.1,0.2,1.4-0.2l0.5-0.6c0.1-0.2,0.3-0.4,0.5-0.5C44.9,145.9,45.4,145.2,45.5,144.5L45.5,144.5z"/>
		<path class="st14" d="M60,123.9c-0.5-0.3-0.5-1-0.2-1.4l8.7-11.5c0.3-0.5,1-0.5,1.4-0.2c0.5,0.3,0.5,1,0.2,1.4l-8.7,11.5
			C61.1,124.1,60.4,124.2,60,123.9z"/>
	</g>
	<g id="cerise_x5F_baril">
		<polygon class="st1" points="160.7,198.2 146.7,204.2 130.8,205.9 114.6,204 100.9,198.2 100.9,134.3 160.7,134.3 	"/>
		<path class="st1" d="M130.8,123.9c16.5,0,29.9,4.7,29.9,10.5c0,5.8-13.4,10.5-29.9,10.5s-29.9-4.7-29.9-10.5
			C100.9,128.5,114.3,123.9,130.8,123.9z"/>
		<g>
			<path class="st2" d="M130.8,123.9c-16.5,0-29.9,4.7-29.9,10.5v63.9l13.7,5.8l16.2,1.9l15.8-1.7l14.1-6v-63.9
				C160.7,128.5,147.3,123.9,130.8,123.9z"/>
		</g>
		<g>
			<path class="st3" d="M100.9,134.3c0,5.8,13.4,10.5,29.9,10.5s29.9-4.7,29.9-10.5v5.7c0,5.8-13.4,10.5-29.9,10.5
				s-29.9-4.7-29.9-10.5V134.3z"/>
		</g>
		<g>
			<path class="st3" d="M100.9,192.5c0,5.8,13.4,10.5,29.9,10.5s29.9-4.7,29.9-10.5v5.7c0,5.8-13.4,10.5-29.9,10.5
				s-29.9-4.7-29.9-10.5V192.5z"/>
		</g>
		<path class="st3" d="M100.9,163.4c0,5.8,13.4,10.5,29.9,10.5s29.9-4.7,29.9-10.5v5.7c0,5.8-13.4,10.5-29.9,10.5
			s-29.9-4.7-29.9-10.5V163.4z"/>
		<path class="st4" d="M117.9,130.1c3.8,0,6.9,1.9,6.9,4.2s-3.1,4.2-6.9,4.2s-6.9-1.9-6.9-4.2C110.9,132,114,130.1,117.9,130.1z"/>
		<path class="st5" d="M108.5,198.2v-5.7v-23.3v-5.7V140v-5.7c0-0.3,0-0.5,0.1-0.8c0.1-0.4,0.3-0.9,0.5-1.3c0.1-0.3,0.3-0.5,0.5-0.8
			c0.2-0.2,0.4-0.5,0.7-0.7c0.1-0.1,0.2-0.2,0.3-0.2c0.2-0.2,0.4-0.3,0.6-0.5s0.4-0.3,0.6-0.5c0.4-0.3,0.9-0.6,1.4-0.9
			c0.1-0.1,0.3-0.1,0.4-0.2c0.8-0.4,1.7-0.8,2.7-1.2c0.6-0.2,1.3-0.5,2-0.7c0.5-0.2,1.1-0.3,1.6-0.5c0.2-0.1,0.4-0.1,0.6-0.2
			c0.4-0.1,0.8-0.2,1.2-0.3c0.2,0,0.4-0.1,0.6-0.1c0.4-0.1,0.8-0.2,1.2-0.3c0.4-0.1,0.8-0.2,1.3-0.2c0.9-0.2,1.7-0.3,2.7-0.4
			c0.5-0.1,0.9-0.1,1.4-0.2c0.4-0.1,0.9-0.1,1.3-0.1c1.4-0.1,2.9-0.3,4.5-0.3c-1.3-0.1-2.5-0.1-3.8-0.1c-2.9,0-5.6,0.1-8.3,0.4
			c-0.4,0-0.9,0.1-1.3,0.1c-0.5,0.1-0.9,0.1-1.4,0.2c-0.9,0.1-1.8,0.3-2.6,0.4c-0.4,0.1-0.9,0.2-1.3,0.2c-0.4,0.1-0.8,0.2-1.2,0.3
			c-0.2,0-0.4,0.1-0.6,0.1c-0.4,0.1-0.8,0.2-1.2,0.3c-0.2,0.1-0.4,0.1-0.6,0.2c-0.6,0.2-1.1,0.3-1.6,0.5c-0.7,0.2-1.4,0.5-2,0.7
			c-1,0.4-1.9,0.8-2.7,1.2c-0.1,0.1-0.3,0.1-0.4,0.2c-0.5,0.3-1,0.6-1.4,0.9c-0.2,0.1-0.4,0.3-0.6,0.5s-0.4,0.3-0.6,0.5
			c-0.1,0.1-0.2,0.2-0.3,0.2c-0.2,0.2-0.5,0.5-0.7,0.7s-0.4,0.5-0.5,0.8c-0.2,0.4-0.4,0.9-0.5,1.3c-0.1,0.3-0.1,0.5-0.1,0.8v5.7v23.3
			v5.7v23.4v5.7c0,5.8,13.4,10.5,29.9,10.5c1.3,0,2.6,0,3.8-0.1C119.9,207.9,108.5,203.5,108.5,198.2z"/>
		<g>
			<g>
				<path class="st6" d="M113.3,181.4c0-2.4,0-4.9,0-7.3c-0.5,0.1-1.2,0-2-0.3c-3.1-1.1-4.5-3.5-4.5-6.6c0-2.2,0-4.3,0-6.5
					c0-3.3,1.5-4.7,5.7-3.4c4.1,1.2,5.8,3.7,5.8,7c0,6.1,0,12.2,0,18.3c0,3.2-1.6,5.2-5.8,4c-4.1-1.3-5.6-4.3-5.7-7.5
					c0-1.2,0-2.3,0-3.5c1.6,0.7,3.2,1.2,4.8,1.8c0,1.2,0,2.4,0,3.5c0,0.7,0.4,1,0.8,1.1C112.8,182.1,113.3,182,113.3,181.4z
					M113.3,162.9c0-0.5-0.3-1-0.8-1.1c-0.6-0.2-0.8,0.1-0.8,0.6c0,2.1,0,4.2,0,6.3c0,0.5,0.3,1,0.8,1.2c0.6,0.2,0.8-0.1,0.8-0.6
					C113.3,167.1,113.3,165,113.3,162.9z"/>
				<path class="st6" d="M127.2,182.9c0.5-1.4,0.9-2.8,1.4-4.2c0.7,0,1.3,0,2,0.1c-0.6,1.6-1.2,3.3-1.9,4.9c0.7,1.8,1.4,3.5,2.1,5.3
					c-0.7,0-1.3,0-2,0c-0.5-1.5-1-3-1.6-4.6c0,1.5,0,3,0,4.5c-0.6,0-1.2-0.1-1.8-0.1c0-4.8,0-9.6,0-14.4c0.6,0.1,1.2,0.1,1.8,0.1
					C127.2,177.2,127.2,180.1,127.2,182.9z"/>
				<path class="st6" d="M133.5,187.2c0,0.3,0.2,0.5,0.7,0.5c2.1-0.1,2.7,0.7,2.7,2.1v0.1c0,1.2-0.7,2.4-2.7,2.5s-2.7-0.9-2.7-2.2
					v-0.1c0-0.9,0.3-1.6,1.1-2c-0.4-0.2-0.5-0.5-0.5-0.8s0.2-0.7,0.6-0.8c-0.8-0.4-1-1.1-1-2.1c0-1.1,0-2.2,0-3.4
					c0-1.4,0.6-2.4,2.5-2.5c0.4,0,0.7,0,1,0.1c0.3-0.8,0.8-1.3,1.5-1.3c0.2,0,0.4,0,0.6,0c0,0.5,0,0.9,0,1.4
					c-0.2-0.1-0.4-0.1-0.7-0.1s-0.5,0.1-0.6,0.3c0.6,0.4,0.8,1,0.8,1.9c0,1.1,0,2.2,0,3.4c0,1.4-0.6,2.4-2.5,2.5
					C133.8,186.6,133.5,186.8,133.5,187.2z M133.3,189.8L133.3,189.8c0,0.7,0.4,1,0.9,1c0.6,0,0.9-0.3,0.9-1v-0.1
					c0-0.6-0.4-0.9-0.9-0.8C133.7,188.9,133.3,189.1,133.3,189.8z M133.6,181.1c0,1,0,2,0,3.1c0,0.8,0.1,1.1,0.7,1
					c0.5,0,0.7-0.3,0.7-1.1c0-1,0-2,0-3.1c0-0.8-0.2-1.1-0.7-1C133.7,180.1,133.6,180.4,133.6,181.1z"/>
				<path class="st6" d="M141.5,173.3c0.5-0.1,0.9-0.2,1.4-0.2c-1.1,5.3-2.2,10.7-3.3,16c-0.5,0.1-0.9,0.1-1.4,0.2
					C139.3,183.9,140.4,178.6,141.5,173.3z"/>
				<path class="st6" d="M144.4,187.5c0-4.8,0-9.6,0-14.4c0.6-0.1,1.2-0.3,1.8-0.4c0,1.5,0,3,0,4.6c0.3-0.4,0.7-0.7,1.2-0.8
					c1.4-0.4,1.9,0.2,1.9,1.8c0,2.7,0,5.3,0,8c-0.6,0.2-1.2,0.3-1.8,0.5c0-2.7,0-5.3,0-8c0-0.5-0.2-0.8-0.7-0.6
					c-0.5,0.1-0.6,0.5-0.6,1c0,2.7,0,5.3,0,8C145.6,187.3,145,187.4,144.4,187.5z"/>
				<path class="st6" d="M150.9,182.2c0-1.5,0.9-2.5,3-4.1c0-0.5,0-0.9,0-1.4s-0.2-0.7-0.6-0.6c-0.4,0.2-0.6,0.5-0.6,1
					c0,0.2,0,0.4,0,0.5c-0.6,0.2-1.1,0.4-1.7,0.6c0-0.2,0-0.4,0-0.6c0-1.4,0.6-2.5,2.3-3.1c1.8-0.7,2.3,0.1,2.3,1.4c0,2.7,0,5.3,0,8
					c-0.3,0.1-0.7,0.3-1,0.4c-0.1-0.1-0.2-0.3-0.3-0.4c-0.3,0.6-0.7,1-1.4,1.2c-1.4,0.5-2-0.1-2-1.7
					C150.9,183.2,150.9,182.7,150.9,182.2z M153.9,179.5c-0.9,0.8-1.3,1.2-1.3,2.1c0,0.4,0,0.8,0,1.2c0,0.5,0,1.1,0.6,0.9
					c0.5-0.2,0.6-0.6,0.7-1.1C153.9,181.5,153.9,180.5,153.9,179.5z"/>
			</g>
		</g>
	</g>
	<g id="cerise_x5F_leg">
		<g>
			<g>
				<line class="st7" x1="130.8" y1="253.9" x2="130.8" y2="208.1"/>
				<g>
					<path class="st8" d="M134.6,208.3c0-2.1-1.7-3.8-3.8-3.8s-3.8,1.7-3.8,3.8s1.7,3.8,3.8,3.8C132.9,212,134.6,210.3,134.6,208.3z"
						/>
				</g>
			</g>
		</g>
		<line class="st7" x1="115.2" y1="253.9" x2="146.4" y2="253.9"/>
		<g>
			<path class="st3" d="M115,274.6v-14.7h4.6v2.1h-2.3v4.1h2v2.1h-2v6.4H115z"/>
			<path class="st3" d="M124.6,266c-1.1-0.2-1.5,0.3-1.5,1.2v7.4H121v-10.5h1.2l0.4,0.5c0.5-0.6,1-0.9,2.1-0.9L124.6,266L124.6,266z"
				/>
			<path class="st3" d="M128.1,264.1v8.3c0,0.3,0.1,0.6,0.5,0.6c0.3,0,0.5-0.2,0.5-0.6v-8.3h2.1v10.5H130l-0.4-0.5
				c-0.3,0.5-0.9,0.7-1.7,0.7c-1.5,0-2-0.8-2-2.4v-8.3L128.1,264.1L128.1,264.1z"/>
			<path class="st3" d="M135.1,260.6v2.4H133v-2.4H135.1z M135.1,264.1v10.5H133v-10.5H135.1z"/>
			<path class="st3" d="M139.4,260.9v3.3h1.4v1.9h-1.4v6.4c0,0.4,0.2,0.6,0.5,0.6s0.5,0,0.9-0.2v1.8c-0.2,0.1-0.7,0.2-1,0.2
				c-2.1,0-2.6-0.9-2.6-2.5V266h-1.1v-1.9h1.1v-2.7L139.4,260.9z"/>
			<path class="st3" d="M143.9,272.4c0,0.4,0.2,0.6,0.5,0.6s0.5-0.1,0.5-0.6v-0.8c0-2.2-3.1-1.7-3.1-4.8v-0.4c0-1.5,0.7-2.5,2.6-2.5
				c2,0,2.6,0.9,2.6,2.5v1h-2.1v-1c0-0.4-0.1-0.6-0.5-0.6c-0.3,0-0.5,0.2-0.5,0.6v0.4c0,2.1,3.1,1.6,3.1,4.7v0.9
				c0,1.5-0.7,2.4-2.6,2.4c-2,0-2.6-0.9-2.6-2.4v-1.2h2.1V272.4z"/>
			<path class="st3" d="M112.4,286.3c0-0.4-0.2-0.6-0.5-0.6s-0.4,0.2-0.4,0.6v0.8h-2.1v-0.9c0-1.4,0.7-2.4,2.5-2.4c2,0,2.6,1,2.6,2.4
				v8.3h-1.2l-0.4-0.5c-0.4,0.5-0.8,0.7-1.6,0.7c-1.5,0-2.1-0.8-2.1-2.5v-1.6c0-1.5,1-2.2,3.1-3L112.4,286.3L112.4,286.3z
				M112.2,280.2l0.4,2.8h-1.3l-1.2-2.8H112.2z M111.5,292.3c0,0.3,0.1,0.6,0.5,0.6c0.5,0,0.5-0.2,0.5-0.6v-3c-0.6,0.4-1,0.6-1,1.4
				V292.3z"/>
			<path class="st3" d="M123,294.6v-8.3c0-0.3-0.1-0.6-0.5-0.6c-0.3,0-0.5,0.2-0.5,0.6v8.3h-2.1v-10.5h1.2l0.4,0.5
				c0.4-0.5,0.9-0.7,1.7-0.7c1.5,0,2,0.8,2,2.4v8.3L123,294.6L123,294.6z"/>
			<path class="st3" d="M126.8,292.3v-6c0-1.5,0.6-2.5,2.6-2.5c2,0,2.6,1,2.6,2.5v6c0,1.5-0.5,2.5-2.6,2.5S126.8,293.8,126.8,292.3z
				M130,292.4v-6.1c0-0.5-0.3-0.6-0.5-0.6s-0.5,0.1-0.5,0.6v6.1c0,0.5,0.3,0.6,0.5,0.6S130,292.9,130,292.4z"/>
			<path class="st3" d="M133.2,298v-1.9c0.3,0.1,0.5,0.2,0.9,0.2s0.7-0.2,0.8-0.9l0.1-0.8l-1.8-10.5h2.2l0.7,6.9l0.7-6.9h2.2
				l-1.9,11.4c-0.3,2-1,2.7-2.9,2.7C133.9,298.2,133.4,298.1,133.2,298z"/>
			<path class="st3" d="M142.9,286.3c0-0.4-0.2-0.6-0.5-0.6s-0.4,0.2-0.4,0.6v0.8h-2.1v-0.9c0-1.4,0.7-2.4,2.5-2.4c2,0,2.6,1,2.6,2.4
				v8.3h-1.2l-0.4-0.5c-0.4,0.5-0.8,0.7-1.6,0.7c-1.5,0-2.1-0.8-2.1-2.5v-1.6c0-1.5,1-2.2,3.1-3L142.9,286.3L142.9,286.3z
				M141.9,292.3c0,0.3,0.1,0.6,0.5,0.6c0.5,0,0.5-0.2,0.5-0.6v-3c-0.6,0.4-1,0.6-1,1.4V292.3z"/>
			<path class="st3" d="M148.9,284.1v8.3c0,0.3,0.1,0.6,0.5,0.6c0.3,0,0.5-0.2,0.5-0.6v-8.3h2.1v10.5h-1.2l-0.4-0.5
				c-0.3,0.5-0.9,0.7-1.7,0.7c-1.5,0-2-0.8-2-2.4v-8.3L148.9,284.1L148.9,284.1z"/>
		</g>
	</g>
	<g id="cerise_x5F_picto">
		<g>
			<path class="st15" d="M113,124.9c0-6.4,4.4-11.5,9.9-11.5h1.7c5.5,0,9.9,5.2,9.9,11.5c0,5.9-4.8,10.7-10.7,10.7
				C117.8,135.6,113,130.8,113,124.9z"/>
		</g>
		<path class="st16" d="M122,133c-0.1,0-0.1,0-0.2,0c-2.9-0.7-5.3-2.8-6.2-5.6c-0.1-0.4,0.1-0.9,0.5-1s0.9,0.1,1,0.5
			c0.7,2.2,2.7,4,5,4.5c0.4,0.1,0.7,0.5,0.6,1C122.7,132.7,122.4,133,122,133z"/>
		<path class="st16" d="M116.2,123.8c-0.1,0-0.1,0-0.2,0c-0.4-0.1-0.7-0.5-0.6-1c0.2-1.1,0.6-2.2,1.2-3.1c0.2-0.4,0.7-0.5,1.1-0.3
			s0.5,0.7,0.3,1.1c-0.5,0.8-0.8,1.7-1,2.6C116.9,123.5,116.6,123.8,116.2,123.8z"/>
		<g>
			<path class="st16" d="M134.4,130.7c0-6.4,4.4-11.5,9.9-11.5h1.6c5.5,0,9.9,5.2,9.9,11.5c0,5.9-4.8,10.7-10.7,10.7
				S134.4,136.6,134.4,130.7z"/>
		</g>
		<path class="st16" d="M130.3,121.6c-2.7,0-4.9-2.2-4.9-4.9c0-0.5,0.4-0.8,0.8-0.8c0.5,0,0.8,0.4,0.8,0.8c0,1.8,1.5,3.3,3.3,3.3
			c0.5,0,0.8,0.4,0.8,0.8C131.1,121.2,130.7,121.6,130.3,121.6z"/>
		<path class="st17" d="M150.1,127.4c-2.7,0-4.9-2.2-4.9-4.9c0-0.5,0.4-0.8,0.8-0.8c0.5,0,0.8,0.4,0.8,0.8c0,1.8,1.5,3.3,3.3,3.3
			c0.5,0,0.8,0.4,0.8,0.8C150.9,127,150.5,127.4,150.1,127.4z"/>
		<path class="st18" d="M148.4,124.1c-0.1,0-0.3,0-0.4-0.1c-0.4-0.2-0.5-0.7-0.3-1.1c3.5-6.3,2.9-11.6-2.4-20.2
			c-1.3,9.1-9.4,16.4-16.2,16.4c-0.5,0-0.8-0.4-0.8-0.8c0-0.5,0.4-0.8,0.8-0.8c6.5,0,14.7-8.1,14.7-17.3c0-0.4,0.2-0.7,0.6-0.8
			c0.3-0.1,0.7,0,0.9,0.3c5.9,8.9,8.4,15.6,3.8,23.9C149,123.9,148.7,124.1,148.4,124.1z"/>
		<path class="st19" d="M144.3,99.7c3.3,2.4,8.4,1.1,10.8-2.2C151.8,95.1,146.7,96.4,144.3,99.7z"/>
		<path class="st20" d="M135.2,94c0.6,4.1,5.1,6.7,9.2,6.1C143.8,96,139.3,93.4,135.2,94z"/>
		<path class="st17" d="M143.3,139c-0.1,0-0.1,0-0.2,0c-2.9-0.7-5.3-2.8-6.2-5.6c-0.1-0.4,0.1-0.9,0.5-1s0.9,0.1,1,0.5
			c0.7,2.2,2.7,4,5,4.5c0.4,0.1,0.7,0.5,0.6,1C144,138.8,143.7,139,143.3,139z"/>
	</g>
	<g id="patate_x5F_baril">
		<polygon class="st1" points="261.7,198.1 243.6,205.9 223.1,208.1 202.2,205.6 184.5,198.1 184.5,115.7 261.7,115.7 	"/>
		<path class="st1" d="M223.1,102.2c21.3,0,38.6,6.1,38.6,13.5c0,7.5-17.3,13.5-38.6,13.5s-38.6-6-38.6-13.5S201.8,102.2,223.1,102.2
			z"/>
		<g>
			<path class="st2" d="M223.1,102.2c-21.3,0-38.6,6.1-38.6,13.5v82.5l17.7,7.5l20.9,2.5l20.4-2.2l18.2-7.7v-82.5
				C261.7,108.2,244.5,102.2,223.1,102.2z"/>
		</g>
		<g>
			<path class="st3" d="M184.5,115.7c0,7.5,17.3,13.5,38.6,13.5s38.6-6,38.6-13.5v7.4c0,7.5-17.3,13.5-38.6,13.5s-38.6-6-38.6-13.5
				V115.7z"/>
		</g>
		<g>
			<path class="st3" d="M184.5,190.8c0,7.5,17.3,13.5,38.6,13.5s38.6-6.1,38.6-13.5v7.4c0,7.5-17.3,13.5-38.6,13.5
				s-38.6-6.1-38.6-13.5V190.8z"/>
		</g>
		<path class="st3" d="M184.5,153.2c0,7.5,17.3,13.5,38.6,13.5s38.6-6,38.6-13.5v7.4c0,7.5-17.3,13.5-38.6,13.5s-38.6-6.1-38.6-13.5
			V153.2z"/>
		<path class="st4" d="M206.4,110.2c4.9,0,8.9,2.4,8.9,5.4s-4,5.4-8.9,5.4s-8.9-2.4-8.9-5.4C197.5,112.7,201.5,110.2,206.4,110.2z"/>
		<path class="st5" d="M194.4,198.1v-7.4v-30.1v-7.4v-30.1v-7.4c0-0.4,0-0.7,0.1-1c0.1-0.6,0.3-1.1,0.7-1.7c0.2-0.3,0.4-0.7,0.7-1
			s0.6-0.6,0.9-0.9c0.1-0.1,0.2-0.2,0.3-0.3c0.2-0.2,0.5-0.4,0.7-0.6c0.3-0.2,0.5-0.4,0.8-0.6c0.6-0.4,1.2-0.8,1.9-1.1
			c0.2-0.1,0.3-0.2,0.5-0.3c1-0.5,2.2-1,3.4-1.5c0.8-0.3,1.7-0.6,2.6-0.9c0.7-0.2,1.4-0.4,2.1-0.6c0.2-0.1,0.5-0.1,0.7-0.2
			c0.5-0.1,1-0.3,1.5-0.4c0.3-0.1,0.5-0.1,0.8-0.2c0.5-0.1,1.1-0.2,1.6-0.3c0.5-0.1,1.1-0.2,1.6-0.3c1.1-0.2,2.3-0.4,3.4-0.5
			c0.6-0.1,1.2-0.2,1.8-0.2c0.6-0.1,1.1-0.1,1.7-0.2c1.9-0.2,3.8-0.3,5.8-0.4c-1.6-0.1-3.3-0.1-4.9-0.1c-3.7,0-7.3,0.2-10.7,0.5
			c-0.6,0.1-1.2,0.1-1.7,0.2c-0.6,0.1-1.2,0.1-1.8,0.2c-1.2,0.2-2.3,0.3-3.4,0.5c-0.6,0.1-1.1,0.2-1.6,0.3c-0.5,0.1-1.1,0.2-1.6,0.3
			c-0.3,0.1-0.5,0.1-0.8,0.2c-0.5,0.1-1,0.2-1.5,0.4c-0.2,0.1-0.5,0.1-0.7,0.2c-0.7,0.2-1.4,0.4-2.1,0.6c-0.9,0.3-1.8,0.6-2.6,0.9
			c-1.2,0.5-2.4,1-3.4,1.5c-0.2,0.1-0.3,0.2-0.5,0.3c-0.7,0.4-1.3,0.7-1.9,1.1c-0.3,0.2-0.6,0.4-0.8,0.6c-0.3,0.2-0.5,0.4-0.7,0.6
			c-0.1,0.1-0.2,0.2-0.3,0.3c-0.3,0.3-0.6,0.6-0.9,0.9c-0.3,0.3-0.5,0.6-0.7,1c-0.3,0.5-0.5,1.1-0.7,1.7c-0.1,0.3-0.1,0.7-0.1,1v7.4
			v30.1v7.4v30.1v7.4c0,7.5,17.3,13.5,38.6,13.5c1.7,0,3.3,0,4.9-0.1C209.1,210.7,194.4,205,194.4,198.1z"/>
		<g>
			<g>
				<path class="st6" d="M197.4,174.7c0.9,0.3,1.8,0.5,2.7,0.8c0,1.7,0,3.5,0,5.2c-3.6-1-7.2-2.2-10.8-3.7c0-1.7,0-3.5,0-5.2
					c0.9,0.4,1.8,0.7,2.7,1c0-6.5,0-12.9,0-19.4c-0.9-0.3-1.8-0.7-2.7-1c0-1.3,0-2.7,0-4c2.3,0.9,3.4,0,3.4-1.6
					c1.5,0.6,3.1,1.1,4.6,1.5C197.4,157.1,197.4,165.9,197.4,174.7z"/>
				<path class="st6" d="M210.2,168.6c0-0.4-0.3-0.8-0.8-0.9c-0.6-0.1-1.3,0.1-1.8,0.6c-1.5-0.3-3-0.6-4.4-0.9
					c0.3-5.8,0.6-11.5,0.9-17.3c3.7,0.8,7.5,1.4,11.3,1.8c0,1.7,0,3.5,0,5.2c-2.2-0.2-4.4-0.5-6.6-0.8c-0.1,2.4-0.2,4.9-0.4,7.3
					c0.5-0.2,1.6-0.2,2.3-0.1c3.7,0.5,5.1,2,5.1,5.8c0,2.9,0,5.8,0,8.7c0,3.4-1.5,6-6.5,5.2c-5.1-0.9-6.4-3.8-6.4-7.3
					c0-1.3,0-2.6,0-3.9c1.8,0.4,3.6,0.8,5.4,1.1c0,1.3,0,2.6,0,3.8c0,0.7,0.3,1.1,1,1.2c0.6,0.1,1-0.2,1-0.9
					C210.2,174.3,210.2,171.5,210.2,168.6z"/>
				<path class="st6" d="M225.6,177.2c0.5-1.6,1-3.2,1.5-4.8c0.7,0,1.5-0.1,2.2-0.1c-0.7,1.9-1.4,3.7-2.1,5.6
					c0.8,1.9,1.5,3.8,2.3,5.7c-0.7,0.1-1.5,0.1-2.2,0.1c-0.6-1.6-1.2-3.3-1.7-4.9c0,1.7,0,3.3,0,5c-0.7,0-1.3,0-2,0
					c0-5.3,0-10.7,0-16c0.7,0,1.3,0,2,0C225.6,170.9,225.6,174,225.6,177.2z"/>
				<path class="st6" d="M232.6,181.4c0,0.4,0.2,0.6,0.8,0.5c2.3-0.3,3,0.6,3,2.1v0.1c0,1.4-0.8,2.7-3,2.9s-3-0.8-3-2.2v-0.1
					c0-0.9,0.3-1.8,1.2-2.3c-0.4-0.2-0.6-0.5-0.6-0.8c0-0.4,0.2-0.7,0.6-1c-0.8-0.3-1.1-1.1-1.1-2.2c0-1.2,0-2.5,0-3.7
					c0-1.6,0.6-2.7,2.7-2.9c0.4,0,0.8,0,1.1,0c0.3-0.9,0.8-1.5,1.6-1.6c0.3,0,0.4,0,0.6,0c0,0.5,0,1,0,1.5c-0.3-0.1-0.4-0.1-0.8,0
					c-0.3,0-0.5,0.2-0.7,0.4c0.6,0.4,0.9,1.1,0.9,2c0,1.2,0,2.5,0,3.7c0,1.6-0.6,2.7-2.8,3C232.9,180.7,232.6,181,232.6,181.4z
					M232.4,184.2C232.4,184.3,232.4,184.3,232.4,184.2c0,0.8,0.4,1.1,1,1c0.7-0.1,1-0.4,1-1.2v-0.1c0-0.7-0.4-0.9-1-0.9
					C232.8,183.2,232.4,183.5,232.4,184.2z M232.7,174.7c0,1.1,0,2.3,0,3.4c0,0.8,0.1,1.2,0.7,1.1c0.6-0.1,0.8-0.4,0.8-1.3
					c0-1.1,0-2.3,0-3.4c0-0.8-0.2-1.2-0.8-1.1C232.8,173.5,232.7,173.8,232.7,174.7z"/>
				<path class="st6" d="M241.4,165.4c0.5-0.1,1-0.2,1.5-0.3c-1.2,6-2.4,11.9-3.6,17.9c-0.5,0.1-1,0.2-1.5,0.3
					C239,177.3,240.2,171.4,241.4,165.4z"/>
				<path class="st6" d="M244.7,181.1c0-5.3,0-10.7,0-16c0.7-0.2,1.3-0.3,2-0.5c0,1.7,0,3.4,0,5.1c0.3-0.4,0.8-0.8,1.3-0.9
					c1.6-0.5,2.1,0.2,2.1,2c0,3,0,5.9,0,8.9c-0.6,0.2-1.3,0.4-2,0.6c0-3,0-5.9,0-8.9c0-0.6-0.2-0.8-0.7-0.7s-0.7,0.5-0.7,1.1
					c0,3,0,5.9,0,8.9C246,180.8,245.3,181,244.7,181.1z"/>
				<path class="st6" d="M251.8,175c0-1.7,1-2.8,3.4-4.5c0-0.5,0-1,0-1.6s-0.2-0.8-0.7-0.6s-0.7,0.6-0.7,1.1c0,0.2,0,0.4,0,0.6
					c-0.6,0.2-1.3,0.5-1.9,0.7c0-0.2,0-0.4,0-0.7c0-1.5,0.7-2.8,2.6-3.5c2-0.8,2.6,0.1,2.6,1.6c0,3,0,5.9,0,8.9
					c-0.4,0.2-0.7,0.3-1.1,0.4c-0.1-0.1-0.2-0.3-0.4-0.4c-0.3,0.7-0.8,1.1-1.6,1.4c-1.5,0.6-2.2-0.1-2.2-1.9
					C251.8,176.1,251.8,175.5,251.8,175z M255.2,171.9c-1,0.9-1.4,1.4-1.4,2.3c0,0.5,0,0.9,0,1.4s0,1.2,0.7,1
					c0.6-0.2,0.7-0.6,0.7-1.2C255.2,174.2,255.2,173.1,255.2,171.9z"/>
			</g>
		</g>
	</g>
	<g id="patate_x5F_leg">
		<g>
			<g>
				<line class="st7" x1="223.1" y1="254.1" x2="223.1" y2="210.9"/>
				<g>
					<path class="st8" d="M226.9,211.1c0-2.1-1.7-3.8-3.8-3.8s-3.8,1.7-3.8,3.8s1.7,3.8,3.8,3.8S226.9,213.2,226.9,211.1z"/>
				</g>
			</g>
		</g>
		<line class="st7" x1="176.4" y1="253.9" x2="269.9" y2="253.9"/>
		<g>
			<path class="st3" d="M175.7,259.9h3.2c2,0,2.5,1,2.5,2.5v3.6c0,1.6-0.5,2.5-2.5,2.5H178v6.1h-2.3V259.9z M178,266.4h0.7
				c0.3,0,0.4-0.1,0.4-0.5v-3.4c0-0.4-0.2-0.5-0.5-0.5H178V266.4z"/>
			<path class="st3" d="M182.8,272.3v-6c0-1.5,0.6-2.5,2.6-2.5s2.6,1,2.6,2.5v6c0,1.5-0.5,2.5-2.6,2.5S182.8,273.8,182.8,272.3z
				M185.9,272.4v-6.1c0-0.5-0.3-0.6-0.5-0.6s-0.5,0.1-0.5,0.6v6.1c0,0.5,0.3,0.6,0.5,0.6S185.9,272.9,185.9,272.4z"/>
			<path class="st3" d="M192.8,274.6v-8.3c0-0.3-0.1-0.5-0.5-0.5c-0.3,0-0.5,0.2-0.5,0.5v8.3h-2.1v-10.5h1.2l0.4,0.5
				c0.4-0.5,1-0.7,1.7-0.7s1.2,0.2,1.5,0.6c0.4-0.4,0.9-0.6,1.6-0.6c1.5,0,2.1,0.8,2.1,2.4v8.3h-2.1v-8.3c0-0.3-0.1-0.6-0.5-0.6
				c-0.3,0-0.5,0.2-0.5,0.6v8.3L192.8,274.6L192.8,274.6z"/>
			<path class="st3" d="M202.7,274.6v-8.3c0-0.3-0.1-0.5-0.5-0.5c-0.3,0-0.5,0.2-0.5,0.5v8.3h-2.1v-10.5h1.2l0.4,0.5
				c0.4-0.5,1-0.7,1.7-0.7s1.2,0.2,1.5,0.6c0.4-0.4,0.9-0.6,1.6-0.6c1.5,0,2.1,0.8,2.1,2.4v8.3H206v-8.3c0-0.3-0.1-0.6-0.5-0.6
				c-0.3,0-0.5,0.2-0.5,0.6v8.3L202.7,274.6L202.7,274.6z"/>
			<path class="st3" d="M211.7,272.4c0,0.5,0.3,0.6,0.5,0.6s0.5-0.1,0.5-0.6v-1.6h2.1v1.5c0,1.5-0.5,2.5-2.6,2.5s-2.6-1-2.6-2.5v-5.9
				c0-1.5,0.6-2.5,2.6-2.5s2.6,1,2.6,2.5v3.3h-3v2.7H211.7z M211.7,268.1h1v-1.8c0-0.5-0.3-0.6-0.5-0.6s-0.5,0.1-0.5,0.6V268.1z"/>
			<path class="st3" d="M218.3,272.4c0,0.4,0.2,0.6,0.5,0.6s0.5-0.1,0.5-0.6v-0.8c0-2.2-3.1-1.7-3.1-4.8v-0.4c0-1.5,0.7-2.5,2.6-2.5
				c2,0,2.6,0.9,2.6,2.5v1h-2.1v-1c0-0.4-0.1-0.6-0.5-0.6c-0.3,0-0.5,0.2-0.5,0.6v0.4c0,2.1,3.1,1.6,3.1,4.7v0.9
				c0,1.5-0.7,2.4-2.6,2.4c-2,0-2.6-0.9-2.6-2.4v-1.2h2.1V272.4z"/>
			<path class="st3" d="M226.4,266.3c0-1.7,0.4-2.4,1.9-2.4c0.4,0,0.9,0.2,1.2,0.4v-4.6h2.1v14.9h-1.2l-0.4-0.5
				c-0.3,0.5-0.9,0.7-1.7,0.7c-1.5,0-2-0.8-2-2.4L226.4,266.3L226.4,266.3z M228.6,272.4c0,0.3,0.1,0.6,0.5,0.6
				c0.3,0,0.5-0.2,0.5-0.6v-6.1c0-0.4-0.2-0.5-0.5-0.5s-0.5,0.2-0.5,0.6V272.4z"/>
			<path class="st3" d="M235.4,272.4c0,0.5,0.3,0.6,0.5,0.6s0.5-0.1,0.5-0.6v-1.6h2.1v1.5c0,1.5-0.5,2.5-2.6,2.5s-2.6-1-2.6-2.5v-5.9
				c0-1.5,0.6-2.5,2.6-2.5s2.6,1,2.6,2.5v3.3h-3v2.7H235.4z M235.4,268.1h1v-1.8c0-0.5-0.3-0.6-0.5-0.6s-0.5,0.1-0.5,0.6V268.1z"/>
			<path class="st3" d="M246.4,260.9v3.3h1.4v1.9h-1.4v6.4c0,0.4,0.2,0.6,0.5,0.6s0.5,0,0.9-0.2v1.8c-0.2,0.1-0.7,0.2-1,0.2
				c-2.1,0-2.6-0.9-2.6-2.5V266h-1.1v-1.9h1.1v-2.7L246.4,260.9z"/>
			<path class="st3" d="M251.1,272.4c0,0.5,0.3,0.6,0.5,0.6s0.5-0.1,0.5-0.6v-1.6h2.1v1.5c0,1.5-0.5,2.5-2.6,2.5s-2.6-1-2.6-2.5v-5.9
				c0-1.5,0.6-2.5,2.6-2.5s2.6,1,2.6,2.5v3.3h-3v2.7H251.1z M251.1,268.1h1v-1.8c0-0.5-0.3-0.6-0.5-0.6s-0.5,0.1-0.5,0.6V268.1z"/>
			<path class="st3" d="M259.4,266c-1.1-0.2-1.5,0.3-1.5,1.2v7.4h-2.1v-10.5h1.2l0.4,0.5c0.5-0.6,1-0.9,2.1-0.9v2.3H259.4z"/>
			<path class="st3" d="M264.3,266c-1.1-0.2-1.5,0.3-1.5,1.2v7.4h-2.1v-10.5h1.2l0.4,0.5c0.5-0.6,1-0.9,2.1-0.9v2.3H264.3z"/>
			<path class="st3" d="M267.7,272.4c0,0.5,0.3,0.6,0.5,0.6s0.5-0.1,0.5-0.6v-1.6h2.1v1.5c0,1.5-0.5,2.5-2.6,2.5s-2.6-1-2.6-2.5v-5.9
				c0-1.5,0.6-2.5,2.6-2.5s2.6,1,2.6,2.5v3.3h-3v2.7H267.7z M267.7,268.1h1v-1.8c0-0.5-0.3-0.6-0.5-0.6s-0.5,0.1-0.5,0.6V268.1z"/>
		</g>
	</g>
	<g id="patate_x5F_picto">
		<g>
			<path class="st21" d="M234.1,108.9l-2-1c7.5-0.8-2.7,1.9-2.7,1.8c-0.9-1.8,0.3-2.4,7.6-6c1.7-0.8,0.4-6.2,2-6.8
				c-2.4-5.8-8.6-9.9-15.1-9.9c-8.3,0-24,6.7-24,15c0,12.9,15.8,15,24,15c2.2,0,4.3-0.5,6.3-1.3C227.2,114.3,235.9,111.8,234.1,108.9
				z"/>
		</g>
		<path class="st22" d="M201.8,102c0-6,7.9-11.3,15.6-14c-8.1,2.1-17.6,7.6-17.6,14c0,7.8,5.8,11.6,12.2,13.5
			C206.4,113.3,201.8,109.2,201.8,102z"/>
		<g>
			<path class="st21" d="M249.2,95.7l-26.5,13.5c4.1,6.5,12.8,9.8,19.7,6.4C249.4,112.1,252.1,103,249.2,95.7z"/>
		</g>
		<path class="st22" d="M244.4,114.2c-6.9,3.4-15.4,0.2-19.6-6.2l-2.2,1.1c4.1,6.5,12.8,9.8,19.7,6.4c0.9-0.4,1.7-1,2.4-1.6
			C244.7,114.1,244.6,114.2,244.4,114.2z"/>
		<path class="st23" d="M234.2,99.1c7.4-3.6,14.1-5.1,14.9-3.3c0.9,1.8-4.4,6.2-11.8,9.8c-7.4,3.6-14.1,5.1-14.9,3.3
			C221.5,107.1,226.8,102.7,234.2,99.1z"/>
		<path class="st24" d="M224.4,108.9c-0.9-1.8,4.4-6.2,11.8-9.8c4.6-2.3,9-3.7,11.8-4c-2.4-0.4-7.9,1.1-13.8,4
			c-7.4,3.6-12.6,8-11.8,9.8c0.3,0.7,1.5,0.9,3.2,0.7C225,109.5,224.5,109.2,224.4,108.9z"/>
		<path class="st24" d="M213.5,101.7c-0.4,0-0.8-0.3-0.8-0.8v-0.8c0-0.4,0.3-0.8,0.8-0.8c0.4,0,0.8,0.3,0.8,0.8v0.8
			C214.3,101.4,213.9,101.7,213.5,101.7z"/>
		<path class="st24" d="M221.1,101.7c-0.4,0-0.8-0.3-0.8-0.8v-0.8c0-0.4,0.3-0.8,0.8-0.8c0.4,0,0.8,0.3,0.8,0.8v0.8
			C221.9,101.4,221.5,101.7,221.1,101.7z"/>
		<path class="st24" d="M224.7,94.3c-0.4,0-0.8-0.3-0.8-0.8v-0.8c0-0.4,0.3-0.8,0.8-0.8c0.4,0,0.8,0.3,0.8,0.8v0.8
			C225.4,94,225.1,94.3,224.7,94.3z"/>
		<path class="st24" d="M210,110c-0.4,0-0.8-0.3-0.8-0.8v-0.8c0-0.4,0.3-0.8,0.8-0.8c0.4,0,0.8,0.3,0.8,0.8v0.8
			C210.7,109.7,210.4,110,210,110z"/>
		<path class="st24" d="M217.1,110c-0.4,0-0.8-0.3-0.8-0.8v-0.8c0-0.4,0.3-0.8,0.8-0.8c0.4,0,0.8,0.3,0.8,0.8v0.8
			C217.8,109.7,217.5,110,217.1,110z"/>
		<path class="st24" d="M217.1,94.3c-0.4,0-0.8-0.3-0.8-0.8v-0.8c0-0.4,0.3-0.8,0.8-0.8c0.4,0,0.8,0.3,0.8,0.8v0.8
			C217.8,94,217.5,94.3,217.1,94.3z"/>
		<path class="st23" d="M240.9,111l0.7-0.3c0.4-0.2,0.8,0,1,0.4s0,0.8-0.4,1l-0.7,0.3C240.6,112.8,240,111.4,240.9,111z"/>
		<path class="st23" d="M233.5,112c-0.2-0.4,0-0.8,0.4-1l0.7-0.3c0.4-0.2,0.8,0,1,0.4s0,0.8-0.4,1l-0.7,0.3
			C234.1,112.6,233.7,112.4,233.5,112z"/>
		<path class="st24" d="M206.6,101.7c-0.4,0-0.8-0.3-0.8-0.8v-0.8c0-0.4,0.3-0.8,0.8-0.8c0.4,0,0.8,0.3,0.8,0.8v0.8
			C207.4,101.4,207.1,101.7,206.6,101.7z"/>
	</g>
	<g id="pomme_x5F_baril">
		<polygon class="st1" points="537.4,197.9 508.2,210.3 475.2,213.9 441.4,209.9 412.9,197.9 412.9,64.9 537.4,64.9 	"/>
		<path class="st1" d="M475.2,43.1c34.4,0,62.2,9.8,62.2,21.8s-27.9,21.8-62.2,21.8c-34.4,0-62.2-9.8-62.2-21.8
			C412.9,52.9,440.8,43.1,475.2,43.1z"/>
		<g>
			<path class="st2" d="M475.2,43.1c-34.4,0-62.2,9.8-62.2,21.8v133l28.5,12.1l33.8,4l33-3.6l29.3-12.5v-133
				C537.4,52.9,509.6,43.1,475.2,43.1z"/>
		</g>
		<g>
			<path class="st3" d="M412.9,64.9c0,12,27.9,21.8,62.2,21.8c34.4,0,62.2-9.8,62.2-21.8v11.9c0,12-27.9,21.8-62.2,21.8
				c-34.4,0-62.2-9.8-62.2-21.8L412.9,64.9L412.9,64.9z"/>
		</g>
		<g>
			<path class="st3" d="M412.9,186c0,12,27.9,21.8,62.2,21.8c34.4,0,62.2-9.8,62.2-21.8v11.9c0,12-27.9,21.8-62.2,21.8
				c-34.4,0-62.2-9.8-62.2-21.8L412.9,186L412.9,186z"/>
		</g>
		<path class="st3" d="M412.9,125.4c0,12,27.9,21.8,62.2,21.8c34.4,0,62.2-9.8,62.2-21.8v11.9c0,12-27.9,21.8-62.2,21.8
			c-34.4,0-62.2-9.8-62.2-21.8L412.9,125.4L412.9,125.4z"/>
		<ellipse class="st4" cx="448.2" cy="64.9" rx="14.4" ry="8.8"/>
		<path class="st5" d="M428.8,197.9V186v-48.6v-11.9V76.8V64.9c0-0.6,0.1-1.1,0.2-1.7c0.2-0.9,0.6-1.8,1.1-2.7
			c0.3-0.5,0.7-1.1,1.1-1.6s0.9-1,1.4-1.5c0.2-0.2,0.4-0.3,0.5-0.5c0.4-0.3,0.8-0.7,1.2-1c0.4-0.3,0.9-0.6,1.3-0.9
			c0.9-0.6,1.9-1.2,3-1.8c0.3-0.1,0.5-0.3,0.8-0.4c1.7-0.9,3.5-1.7,5.5-2.5c1.3-0.5,2.7-1,4.2-1.5c1.1-0.4,2.2-0.7,3.4-1
			c0.4-0.1,0.8-0.2,1.2-0.3c0.8-0.2,1.6-0.4,2.4-0.6c0.4-0.1,0.8-0.2,1.3-0.3c0.8-0.2,1.7-0.4,2.6-0.5c0.9-0.2,1.8-0.3,2.6-0.5
			c1.8-0.3,3.6-0.6,5.5-0.9c0.9-0.1,1.9-0.3,2.9-0.4c0.9-0.1,1.8-0.2,2.8-0.3c3-0.3,6.1-0.5,9.3-0.7c-2.6-0.1-5.3-0.2-8-0.2
			c-6,0-11.7,0.3-17.2,0.8c-0.9,0.1-1.9,0.2-2.8,0.3c-1,0.1-1.9,0.2-2.9,0.4c-1.9,0.3-3.7,0.6-5.5,0.9c-0.9,0.2-1.8,0.3-2.6,0.5
			c-0.9,0.2-1.7,0.4-2.6,0.5c-0.4,0.1-0.8,0.2-1.3,0.3c-0.8,0.2-1.6,0.4-2.4,0.6c-0.4,0.1-0.8,0.2-1.2,0.3c-1.2,0.3-2.3,0.7-3.4,1
			c-1.5,0.5-2.9,1-4.2,1.5c-2,0.8-3.9,1.6-5.5,2.5c-0.3,0.1-0.6,0.3-0.8,0.4c-1.1,0.6-2.1,1.2-3,1.8c-0.5,0.3-0.9,0.6-1.3,1
			c-0.4,0.3-0.8,0.6-1.2,1c-0.2,0.2-0.4,0.3-0.5,0.5c-0.5,0.5-1,1-1.4,1.5s-0.8,1-1.1,1.6c-0.5,0.9-0.9,1.8-1.1,2.7
			c-0.1,0.6-0.2,1.1-0.2,1.7v11.9v48.6v11.9V186v11.9c0,12,27.9,21.8,62.2,21.8c2.7,0,5.3-0.1,7.9-0.2
			C452.5,218.1,428.8,209,428.8,197.9z"/>
		<g>
			<g>
				<path class="st6" d="M431.3,125.6c0-0.9-0.5-1.7-1.5-2s-1.5,0.1-1.5,1.1c0,1.8,0,3.6,0,5.5c-2.8-1-5.5-2-8.3-3.1
					c0-1.8,0-3.6,0-5.5c0-5.5,1.9-8.5,9.7-5.8c7.8,2.5,9.9,6.8,9.9,12.3c0,3.3,0,6.7,0,10c0,2.6-0.8,4.2-2.8,4.9c1.8,1.7,3,3.9,3,6.5
					c0,3.6,0,7.2,0,10.9c0,5.4-2.3,9-10,6.5c-7.8-2.7-9.7-7.6-9.7-13.1c0-2.1,0-4.1,0-6.2c2.7,1.1,5.5,2.2,8.3,3.1c0,2,0,4,0,6
					c0,1.1,0.5,1.9,1.5,2.2s1.5,0,1.5-1.2c0-3.7,0-7.4,0-11.1c0-0.7-0.3-1.2-1-1.5c-1.1-0.4-2.3-0.8-3.4-1.2c0-2.7,0-5.4,0-8.1
					c1.1,0.4,2.3,0.8,3.4,1.2c0.8,0.3,1,0,1-0.7C431.3,132.8,431.3,129.2,431.3,125.6z"/>
				<path class="st6" d="M457.2,163.6c0-4.3,0-8.5,0-12.8c-0.9,0.3-2.2,0.4-3.6,0.1c-5.7-0.9-8.1-4.6-8.1-10.1c0-3.8,0-7.6,0-11.4
					c0-5.8,2.8-8.9,10.2-7.8c7.4,1,10.3,4.9,10.3,10.6c0,10.7,0,21.3,0,32c0,5.6-2.9,9.4-10.3,8.4c-7.4-1.1-10.2-5.7-10.2-11.3
					c0-2,0-4.1,0-6.1c2.9,0.6,5.8,1.1,8.7,1.6c0,2.1,0,4.1,0,6.2c0,1.2,0.7,1.7,1.4,1.8C456.4,165.1,457.2,164.8,457.2,163.6z
					M457.2,131.4c0-0.9-0.5-1.6-1.5-1.8c-1-0.1-1.5,0.4-1.5,1.3c0,3.6,0,7.3,0,10.9c0,0.9,0.5,1.6,1.5,1.8c1,0.1,1.5-0.4,1.5-1.4
					C457.2,138.7,457.2,135.1,457.2,131.4z"/>
				<path class="st6" d="M481.8,163.1c0.8-2.5,1.6-5,2.4-7.6c1.2-0.1,2.3-0.1,3.5-0.2c-1.1,3-2.2,5.9-3.2,8.8c1.2,3,2.4,5.9,3.6,8.9
					c-1.2,0.1-2.3,0.2-3.5,0.3c-0.9-2.6-1.8-5.1-2.7-7.7c0,2.6,0,5.2,0,7.8c-1.1,0-2.1,0.1-3.2,0.1c0-8.4,0-16.8,0-25.2
					c1.1,0,2.1-0.1,3.2-0.1C481.8,153.2,481.8,158.2,481.8,163.1z"/>
				<path class="st6" d="M492.9,169.5c0,0.6,0.4,0.9,1.2,0.8c3.6-0.5,4.8,0.8,4.8,3.2c0,0.1,0,0.1,0,0.2c0,2.2-1.2,4.2-4.7,4.6
					c-3.5,0.4-4.7-1.2-4.7-3.5c0-0.1,0-0.1,0-0.2c0-1.5,0.5-2.8,1.9-3.6c-0.6-0.3-0.9-0.7-0.9-1.3s0.3-1.2,1-1.5
					c-1.3-0.5-1.7-1.8-1.7-3.4c0-2,0-3.9,0-5.9c0-2.5,1-4.3,4.3-4.7c0.6-0.1,1.2-0.1,1.7,0c0.5-1.4,1.3-2.3,2.6-2.5
					c0.4-0.1,0.7-0.1,1,0c0,0.8,0,1.6,0,2.4c-0.4-0.1-0.6-0.1-1.2,0c-0.5,0.1-0.9,0.3-1.1,0.6c1,0.6,1.4,1.7,1.4,3.2c0,2,0,3.9,0,5.9
					c0,2.5-1,4.3-4.3,4.7C493.3,168.6,492.9,168.9,492.9,169.5z M492.6,174.1v0.1c0,1.1,0.6,1.6,1.6,1.4c1-0.1,1.6-0.7,1.6-1.8v-0.1
					c0-1.1-0.6-1.5-1.6-1.3C493.2,172.5,492.6,173,492.6,174.1z M493,159c0,1.8,0,3.6,0,5.4c0,1.3,0.2,1.9,1.2,1.7
					c0.9-0.1,1.2-0.7,1.2-2c0-1.8,0-3.6,0-5.4c0-1.3-0.3-1.8-1.2-1.7C493.2,157.1,493,157.7,493,159z"/>
				<path class="st6" d="M506.8,144.3c0.8-0.2,1.6-0.4,2.4-0.5c-1.9,9.4-3.8,18.8-5.7,28.2c-0.8,0.2-1.6,0.3-2.4,0.5
					C503,163.1,504.9,153.7,506.8,144.3z"/>
				<path class="st6" d="M511.8,169c0-8.4,0-16.8,0-25.2c1-0.3,2.1-0.5,3.1-0.8c0,2.7,0,5.3,0,8c0.5-0.7,1.3-1.2,2-1.5
					c2.5-0.7,3.3,0.3,3.3,3.1c0,4.7,0,9.3,0,14c-1,0.3-2,0.6-3.1,1c0-4.7,0-9.3,0-14c0-0.9-0.3-1.3-1.2-1.1c-0.8,0.2-1.1,0.9-1.1,1.7
					c0,4.7,0,9.3,0,14C513.9,168.4,512.9,168.7,511.8,169z"/>
				<path class="st6" d="M523.1,159.3c0-2.6,1.5-4.3,5.3-7.1c0-0.8,0-1.6,0-2.4c0-0.9-0.3-1.3-1.1-1s-1,0.9-1,1.8c0,0.3,0,0.6,0,1
					c-1,0.4-2,0.7-3,1.1c0-0.3,0-0.7,0-1c0-2.4,1-4.4,4-5.5c3.1-1.2,4.1,0.1,4.1,2.5c0,4.7,0,9.3,0,14c-0.6,0.2-1.2,0.5-1.7,0.7
					c-0.2-0.2-0.4-0.4-0.6-0.7c-0.5,1.1-1.2,1.7-2.5,2.2c-2.4,0.9-3.5-0.1-3.5-2.9C523.1,161,523.1,160.1,523.1,159.3z M528.4,154.5
					c-1.6,1.4-2.2,2.2-2.2,3.7c0,0.7,0,1.4,0,2.1c0,0.9,0,1.9,1.1,1.5c0.9-0.4,1.1-1,1.1-1.9C528.4,158.1,528.4,156.3,528.4,154.5z"
					/>
			</g>
		</g>
	</g>
	<g id="pomme_x5F_leg">
		<g>
			<g>
				<line class="st7" x1="475.3" y1="253.5" x2="475.3" y2="218.6"/>
				<g>
					<path class="st8" d="M479.1,218.8c0-2.1-1.7-3.8-3.8-3.8c-2.1,0-3.8,1.7-3.8,3.8s1.7,3.8,3.8,3.8
						C477.4,222.5,479.1,220.8,479.1,218.8z"/>
				</g>
			</g>
		</g>
		<line class="st7" x1="432.7" y1="253.9" x2="517.7" y2="253.9"/>
		<g>
			<path class="st3" d="M433.4,274.6v-14.7h4.6v2.1h-2.3v4.1h2v2.1h-2v6.4H433.4z"/>
			<path class="st3" d="M442.9,266c-1.1-0.2-1.5,0.3-1.5,1.2v7.4h-2.1v-10.5h1.2l0.4,0.5c0.5-0.6,1-0.9,2.1-0.9v2.3H442.9z"/>
			<path class="st3" d="M446.5,264.1v8.3c0,0.3,0.1,0.6,0.5,0.6c0.3,0,0.5-0.2,0.5-0.6v-8.3h2.1v10.5h-1.2l-0.4-0.5
				c-0.3,0.5-0.9,0.7-1.7,0.7c-1.5,0-2-0.8-2-2.4v-8.3L446.5,264.1L446.5,264.1z"/>
			<path class="st3" d="M453.4,260.6v2.4h-2.1v-2.4H453.4z M453.4,264.1v10.5h-2.1v-10.5H453.4z"/>
			<path class="st3" d="M457.8,260.9v3.3h1.4v1.9h-1.4v6.4c0,0.4,0.2,0.6,0.5,0.6s0.5,0,0.9-0.2v1.8c-0.2,0.1-0.7,0.2-1,0.2
				c-2.1,0-2.6-0.9-2.6-2.5V266h-1.1v-1.9h1.1v-2.7L457.8,260.9z"/>
			<path class="st3" d="M462.2,272.4c0,0.4,0.2,0.6,0.5,0.6s0.5-0.1,0.5-0.6v-0.8c0-2.2-3.1-1.7-3.1-4.8v-0.4c0-1.5,0.7-2.5,2.6-2.5
				c2,0,2.6,0.9,2.6,2.5v1h-2.1v-1c0-0.4-0.1-0.6-0.5-0.6c-0.3,0-0.5,0.2-0.5,0.6v0.4c0,2.1,3.1,1.6,3.1,4.7v0.9
				c0,1.5-0.7,2.4-2.6,2.4c-2,0-2.6-0.9-2.6-2.4v-1.2h2.1V272.4z"/>
			<path class="st3" d="M473.3,266.3c0-0.4-0.2-0.6-0.5-0.6s-0.4,0.2-0.4,0.6v0.8h-2.1v-0.9c0-1.4,0.7-2.4,2.5-2.4c2,0,2.6,1,2.6,2.4
				v8.3h-1.2l-0.4-0.5c-0.4,0.5-0.8,0.7-1.6,0.7c-1.5,0-2.1-0.8-2.1-2.5v-1.6c0-1.5,1-2.2,3.1-3v-1.3H473.3z M473.1,260.2l0.4,2.8
				h-1.3l-1.2-2.8H473.1z M472.3,272.3c0,0.3,0.1,0.6,0.5,0.6c0.5,0,0.5-0.2,0.5-0.6v-3c-0.6,0.4-1,0.6-1,1.4V272.3z"/>
			<path class="st3" d="M486,272.4c0,1.7-0.5,2.4-2,2.4c-0.4,0-0.9-0.2-1.1-0.4v3.6h-2.1v-13.9h1.2l0.4,0.5c0.3-0.5,0.9-0.7,1.6-0.7
				c1.5,0,2.1,0.8,2.1,2.5v6H486z M483.8,266.3c0-0.3-0.1-0.6-0.5-0.6c-0.3,0-0.5,0.2-0.5,0.6v6.1c0,0.4,0.2,0.5,0.5,0.5
				s0.5-0.2,0.5-0.6V266.3z"/>
			<path class="st3" d="M489.8,272.4c0,0.5,0.3,0.6,0.5,0.6s0.5-0.1,0.5-0.6v-1.6h2.1v1.5c0,1.5-0.5,2.5-2.6,2.5s-2.6-1-2.6-2.5v-5.9
				c0-1.5,0.6-2.5,2.6-2.5s2.6,1,2.6,2.5v3.3h-3v2.7H489.8z M492.1,260.2l-1.2,2.8h-1.3l0.4-2.8H492.1z M489.8,268.1h1v-1.8
				c0-0.5-0.3-0.6-0.5-0.6s-0.5,0.1-0.5,0.6V268.1z"/>
			<path class="st3" d="M499.9,272.4c0,1.7-0.5,2.4-2,2.4c-0.4,0-0.9-0.2-1.1-0.4v3.6h-2.1v-13.9h1.2l0.4,0.5
				c0.3-0.5,0.9-0.7,1.6-0.7c1.5,0,2.1,0.8,2.1,2.5v6H499.9z M497.7,266.3c0-0.3-0.1-0.6-0.5-0.6c-0.3,0-0.5,0.2-0.5,0.6v6.1
				c0,0.4,0.2,0.5,0.5,0.5s0.5-0.2,0.5-0.6V266.3z"/>
			<path class="st3" d="M503.7,260.6v2.4h-2.1v-2.4H503.7z M503.7,264.1v10.5h-2.1v-10.5H503.7z"/>
			<path class="st3" d="M508.5,274.6v-8.3c0-0.3-0.1-0.6-0.5-0.6c-0.3,0-0.5,0.2-0.5,0.6v8.3h-2.1v-10.5h1.2l0.4,0.5
				c0.4-0.5,0.9-0.7,1.7-0.7c1.5,0,2,0.8,2,2.4v8.3L508.5,274.6L508.5,274.6z"/>
			<path class="st3" d="M514.3,272.4c0,0.4,0.2,0.6,0.5,0.6s0.5-0.1,0.5-0.6v-0.8c0-2.2-3.1-1.7-3.1-4.8v-0.4c0-1.5,0.7-2.5,2.6-2.5
				c2,0,2.6,0.9,2.6,2.5v1h-2.1v-1c0-0.4-0.1-0.6-0.5-0.6c-0.3,0-0.5,0.2-0.5,0.6v0.4c0,2.1,3.1,1.6,3.1,4.7v0.9
				c0,1.5-0.7,2.4-2.6,2.4c-2,0-2.6-0.9-2.6-2.4v-1.2h2.1V272.4z"/>
		</g>
	</g>
	<g id="pomme_x5F_picto">
		<g>
			<path class="st25" d="M498.7,45.4c0,6.5-4.2,15.4-9.3,20.3c-2.3,2.2-4.7,3.5-7,3.5c-1.5,0-2.9-0.2-4.2-0.6c-1.7-0.5-3.5-0.5-5.3,0
				c-1.3,0.4-2.7,0.6-4.2,0.6c-2.4,0-5-1.5-7.3-3.9c-4.9-4.9-9-13.6-9-19.9c0-9.3,5.6-15,10.8-16.3c2.5-0.7,5.4-0.2,7.8,0.4
				s5,0.7,7.4,0.3c0.5-0.1,1-0.2,1.5-0.3c2.4-0.6,5.3-1,7.8-0.4C493.1,30.5,498.7,36.1,498.7,45.4z"/>
		</g>
		<path class="st26" d="M489.4,65.7c-6.2,1.1-11,0.8-14.7-0.1c-5.9-1.4-10.3-6.4-11-12.4c-1.8-15.1,8-19.5,8-19.5
			c2.9,1.3,6.1,0.6,6.1,0.6c-2.1-2.1,0.7-4.5,0.7-4.5c-2.5,0.4-5,0.3-7.4-0.3c-2.4-0.6-5.3-1-7.8-0.4c-5.2,1.4-10.8,7-10.8,16.3
			s8.8,23.8,16.3,23.8c1.5,0,2.9-0.2,4.2-0.6c1.7-0.5,3.5-0.5,5.3,0c1.3,0.4,2.7,0.6,4.2,0.6C484.7,69.2,487.1,67.8,489.4,65.7
			L489.4,65.7z"/>
		<path class="st27" d="M500.9,16.1c0,0-1.3,9-8.1,11.7c-6.5,2.5-12.3-4.3-14.7-3.7c-0.1,0-0.2,0.1-0.3,0.1l0,0l0,0
			c0.1-0.2,2.7-8,9.4-8.5C494,15.1,497.7,18.2,500.9,16.1z"/>
		<path class="st28" d="M500.9,16.1c0,0-4.1,5.1-10,5.1c-5.1,0-11.4,2.3-12.9,2.9c-0.2,0.1-0.3,0.1-0.3,0.1l0,0l0,0
			c0.1-0.2,2.7-8,9.4-8.5C494,15.1,497.7,18.2,500.9,16.1z"/>
		<path class="st29" d="M488.2,41.8c-0.3-2.6,0.9-4.8,2.5-4.9c1.7-0.2,3.2,1.8,3.5,4.3c0.3,2.6-0.9,4.8-2.5,4.9
			C490,46.3,488.5,44.3,488.2,41.8z"/>
		<path class="st30" d="M480.4,33c0,1.1-1.7,1.9-3.9,2.1c-0.3,0-0.6,0-1,0c-0.3,0-0.7,0-1,0c-2.2-0.2-3.8-1.1-3.8-2.1H480.4z"/>
		<path class="st31" d="M479.3,24l-3.5,5.4c0.3,1.1,0.5,2.3,0.6,3.6c0.1,0.7,0.1,1.4,0.2,2.1c-0.3,0-0.6,0-1,0c-0.3,0-0.7,0-1,0
			c0-0.7-0.1-1.4-0.2-2.1c-0.6-5-2.6-8.7-2.6-8.8c-0.3-0.5-0.1-1.1,0.4-1.3c0.5-0.3,1.1-0.1,1.3,0.4c0.1,0.1,0.8,1.5,1.5,3.6l2.6-4
			c0.3-0.4,0.9-0.6,1.3-0.3C479.5,23,479.6,23.6,479.3,24z"/>
	</g>
	<g id="raisin_x5F_baril">
		<polygon class="st1" points="389.1,198.5 364.8,208.9 337.3,211.9 309.3,208.6 285.5,198.5 285.5,87.9 389.1,87.9 	"/>
		<path class="st1" d="M337.3,69.8c28.6,0,51.8,8.1,51.8,18.1S365.9,106,337.3,106c-28.6,0-51.8-8.1-51.8-18.1S308.7,69.8,337.3,69.8
			z"/>
		<g>
			<path class="st2" d="M337.3,69.8c-28.6,0-51.8,8.1-51.8,18.1v110.6l23.7,10l28.1,3.3l27.4-3l24.4-10.4V87.9
				C389.1,77.9,365.9,69.8,337.3,69.8z"/>
		</g>
		<g>
			<path class="st3" d="M285.5,87.9c0,10,23.2,18.1,51.8,18.1c28.6,0,51.8-8.1,51.8-18.1v9.9c0,10-23.2,18.1-51.8,18.1
				c-28.6,0-51.8-8.1-51.8-18.1V87.9z"/>
		</g>
		<g>
			<path class="st3" d="M285.5,188.6c0,10,23.2,18.1,51.8,18.1c28.6,0,51.8-8.1,51.8-18.1v9.9c0,10-23.2,18.1-51.8,18.1
				c-28.6,0-51.8-8.1-51.8-18.1V188.6z"/>
		</g>
		<path class="st3" d="M285.5,138.3c0,10,23.2,18.1,51.8,18.1c28.6,0,51.8-8.1,51.8-18.1v9.9c0,10-23.2,18.1-51.8,18.1
			c-28.6,0-51.8-8.1-51.8-18.1V138.3z"/>
		<path class="st4" d="M314.9,80.6c6.6,0,12,3.3,12,7.3s-5.4,7.3-12,7.3s-12-3.3-12-7.3S308.3,80.6,314.9,80.6z"/>
		<path class="st5" d="M298.8,198.5v-9.9v-40.4v-9.9V97.8v-9.9c0-0.5,0.1-0.9,0.2-1.4c0.2-0.8,0.5-1.5,0.9-2.3
			c0.3-0.4,0.6-0.9,0.9-1.3s0.7-0.9,1.2-1.3c0.1-0.1,0.3-0.3,0.4-0.4c0.3-0.3,0.6-0.5,1-0.8c0.3-0.3,0.7-0.5,1.1-0.8
			c0.8-0.5,1.6-1,2.5-1.5c0.2-0.1,0.5-0.2,0.7-0.4c1.4-0.7,2.9-1.4,4.6-2.1c1.1-0.4,2.3-0.8,3.5-1.2c0.9-0.3,1.9-0.6,2.9-0.8
			c0.3-0.1,0.7-0.2,1-0.3c0.7-0.2,1.3-0.3,2-0.5c0.3-0.1,0.7-0.2,1-0.2c0.7-0.2,1.4-0.3,2.1-0.5c0.7-0.1,1.5-0.3,2.2-0.4
			c1.5-0.3,3-0.5,4.6-0.7c0.8-0.1,1.6-0.2,2.4-0.3c0.8-0.1,1.5-0.2,2.3-0.2c2.5-0.3,5.1-0.4,7.7-0.6c-2.2-0.1-4.4-0.1-6.6-0.1
			c-5,0-9.8,0.2-14.3,0.7c-0.8,0.1-1.5,0.2-2.3,0.2c-0.8,0.1-1.6,0.2-2.4,0.3c-1.6,0.2-3.1,0.5-4.6,0.7c-0.7,0.1-1.5,0.3-2.2,0.4
			s-1.4,0.3-2.1,0.5c-0.4,0.1-0.7,0.2-1,0.2c-0.7,0.2-1.4,0.3-2,0.5c-0.3,0.1-0.7,0.2-1,0.3c-1,0.3-1.9,0.6-2.8,0.8
			c-1.2,0.4-2.4,0.8-3.5,1.2c-1.7,0.6-3.2,1.3-4.6,2.1c-0.2,0.1-0.5,0.2-0.7,0.4c-0.9,0.5-1.7,1-2.5,1.5c-0.4,0.3-0.7,0.5-1.1,0.8
			c-0.3,0.3-0.7,0.5-1,0.8c-0.2,0.1-0.3,0.3-0.5,0.4c-0.4,0.4-0.8,0.8-1.2,1.3c-0.3,0.4-0.7,0.9-0.9,1.3c-0.4,0.7-0.7,1.5-0.9,2.3
			c-0.1,0.5-0.2,0.9-0.2,1.4v9.9v40.4v9.9v40.4v9.9c0,10,23.2,18.1,51.8,18.1c2.2,0,4.4-0.1,6.6-0.1
			C318.5,215.4,298.8,207.8,298.8,198.5z"/>
		<g>
			<g>
				<path class="st6" d="M308.5,144.1c0,13.7-9.8,9.7-9.8,21.2c0,0.1,0,0.2,0,0.3c3.3,1.1,6.7,2.1,10,2.9c0,2.4,0,4.9,0,7.3
					c-5.9-1.4-11.8-3.4-17.5-5.7c0-2.3,0-4.6,0-6.9c0-15.8,9.6-10.5,9.7-21.1c0-1.6,0-3.2,0-4.8c0-0.8-0.4-1.5-1.3-1.8
					s-1.3,0.1-1.3,1c0,1.6,0,3.2,0,4.8c-2.5-0.8-4.9-1.8-7.3-2.8c0-1.6,0-3.2,0-4.8c0-4.9,1.7-7.5,8.6-5.2c6.9,2.2,8.9,6,8.9,10.9
					C308.5,141,308.5,142.5,308.5,144.1z"/>
				<path class="st6" d="M314.9,177.1c0-13.5,1.8-24.5,5.8-35.8c-3.1-0.4-6.3-1-9.4-1.7c0-2.4,0-4.9,0-7.3c5.5,1.2,11.1,2.1,16.7,2.5
					c0,2.1,0,4.1,0,6.2c-3.7,13.7-4.5,18.3-4.5,37.4C320.5,178.1,317.7,177.7,314.9,177.1z"/>
				<path class="st6" d="M340.3,170.1c0.7-2.2,1.4-4.4,2.2-6.7c1,0,2.1-0.1,3.1-0.2c-1,2.6-1.9,5.2-2.9,7.8c1.1,2.7,2.1,5.3,3.2,7.9
					c-1,0.1-2.1,0.1-3.1,0.2c-0.8-2.3-1.6-4.6-2.4-6.9c0,2.3,0,4.6,0,7c-0.9,0-1.9,0-2.8,0c0-7.4,0-14.9,0-22.3c0.9,0,1.9,0,2.8,0
					C340.3,161.3,340.3,165.7,340.3,170.1z"/>
				<path class="st6" d="M350.2,176c0,0.5,0.3,0.8,1.1,0.7c3.2-0.4,4.2,0.8,4.2,2.9c0,0.1,0,0.1,0,0.2c0,1.9-1,3.7-4.1,4.1
					c-3.1,0.3-4.2-1.1-4.2-3.1c0-0.1,0-0.1,0-0.2c0-1.3,0.4-2.5,1.7-3.2c-0.5-0.2-0.8-0.7-0.8-1.2s0.3-1,0.9-1.3
					c-1.2-0.5-1.5-1.6-1.5-3.1c0-1.7,0-3.5,0-5.2c0-2.2,0.9-3.8,3.8-4.1c0.6-0.1,1.1-0.1,1.5,0c0.4-1.3,1.2-2,2.3-2.2
					c0.4-0.1,0.6-0.1,0.9,0c0,0.7,0,1.4,0,2.1c-0.4-0.1-0.5-0.1-1.1,0c-0.4,0.1-0.8,0.3-1,0.5c0.9,0.5,1.2,1.5,1.2,2.8
					c0,1.7,0,3.5,0,5.2c0,2.2-0.9,3.8-3.9,4.1C350.5,175.1,350.2,175.4,350.2,176z M349.9,180v0.1c0,1,0.5,1.4,1.4,1.3
					c0.9-0.1,1.4-0.6,1.4-1.6v-0.1c0-1-0.5-1.3-1.4-1.2S349.9,179,349.9,180z M350.3,166.6c0,1.6,0,3.2,0,4.8c0,1.2,0.2,1.7,1,1.6
					c0.8-0.1,1.1-0.6,1.1-1.8c0-1.6,0-3.2,0-4.8c0-1.2-0.3-1.6-1.1-1.5C350.4,164.9,350.3,165.5,350.3,166.6z"/>
				<path class="st6" d="M362.5,153.7c0.7-0.1,1.4-0.3,2.1-0.5c-1.7,8.4-3.4,16.7-5.1,25c-0.7,0.1-1.4,0.3-2.2,0.4
					C359.1,170.3,360.8,162.1,362.5,153.7z"/>
				<path class="st6" d="M367,175.7c0-7.4,0-14.9,0-22.3c0.9-0.2,1.8-0.5,2.8-0.7c0,2.4,0,4.7,0,7.1c0.4-0.6,1.1-1.1,1.8-1.3
					c2.2-0.6,2.9,0.3,2.9,2.8c0,4.1,0,8.3,0,12.4c-0.9,0.3-1.8,0.6-2.7,0.8c0-4.1,0-8.3,0-12.4c0-0.8-0.3-1.2-1-1s-1,0.7-1,1.5
					c0,4.1,0,8.3,0,12.4C368.8,175.2,367.9,175.5,367,175.7z"/>
				<path class="st6" d="M377,167.1c0-2.3,1.3-3.9,4.7-6.3c0-0.7,0-1.4,0-2.2s-0.3-1.1-0.9-0.9c-0.7,0.3-0.9,0.8-0.9,1.6
					c0,0.3,0,0.6,0,0.8c-0.9,0.3-1.8,0.6-2.7,0.9c0-0.3,0-0.6,0-0.9c0-2.1,0.9-3.9,3.6-4.9c2.8-1.1,3.6,0.1,3.6,2.2
					c0,4.1,0,8.3,0,12.4c-0.5,0.2-1,0.4-1.5,0.6c-0.2-0.2-0.3-0.4-0.5-0.6c-0.5,0.9-1.1,1.5-2.2,2c-2.1,0.8-3.1-0.1-3.1-2.6
					C377,168.6,377,167.9,377,167.1z M381.7,162.9c-1.4,1.2-2,1.9-2,3.3c0,0.6,0,1.3,0,1.9c0,0.8,0,1.7,1,1.3c0.8-0.3,1-0.9,1-1.7
					C381.7,166.1,381.7,164.5,381.7,162.9z"/>
			</g>
		</g>
	</g>
	<g id="raisin_x5F_leg">
		<g>
			<g>
				<line class="st7" x1="337.3" y1="253.6" x2="337.3" y2="215.4"/>
				<g>
					<path class="st8" d="M341.1,215.6c0-2.1-1.7-3.8-3.8-3.8s-3.8,1.7-3.8,3.8s1.7,3.8,3.8,3.8S341.1,217.7,341.1,215.6z"/>
				</g>
			</g>
		</g>
		<line class="st7" x1="319.7" y1="253.9" x2="355" y2="253.9"/>
		<g>
			<path class="st3" d="M323.3,274.6h-2.8l-1.8-14.7h2.3l0.5,6.3l0.3,5.4l0.3-5.4l0.5-6.3h2.3L323.3,274.6z"/>
			<path class="st3" d="M328.4,260.6v2.4h-2.1v-2.4H328.4z M328.4,264.1v10.5h-2.1v-10.5H328.4z"/>
			<path class="st3" d="M331.8,272.8c0,0.4,0.2,0.5,0.7,0.5c2.2,0,2.8,0.9,2.8,2.3v0.1c0,1.3-0.7,2.4-2.8,2.4c-2.1,0-2.8-1-2.8-2.4
				v-0.1c0-0.8,0.3-1.6,1-2c-0.3-0.2-0.5-0.5-0.5-0.9s0.2-0.7,0.6-0.9c-0.7-0.4-1-1.1-1-2.1v-3.5c0-1.5,0.6-2.5,2.6-2.5
				c0.4,0,0.7,0,1,0.1c0.3-0.8,0.8-1.3,1.5-1.3c0.3,0,0.4,0,0.6,0.1v1.6c-0.3-0.1-0.4-0.1-0.8-0.1c-0.2,0-0.4,0.1-0.5,0.1
				c0.5,0.4,0.8,1.1,0.8,2v3.5c0,1.5-0.6,2.4-2.6,2.4C332,272.3,331.8,272.5,331.8,272.8z M331.8,275.4L331.8,275.4
				c0,0.6,0.3,0.8,0.7,0.8s0.7-0.2,0.7-0.8l0,0c0-0.5-0.3-0.7-0.7-0.7C332.1,274.7,331.8,274.8,331.8,275.4z M332,266.4v3.8
				c0,0.5,0.2,0.6,0.5,0.6s0.5-0.2,0.5-0.6v-3.8c0-0.5-0.2-0.6-0.5-0.6S332,265.9,332,266.4z"/>
			<path class="st3" d="M339.9,274.6v-8.3c0-0.3-0.1-0.6-0.5-0.6c-0.3,0-0.5,0.2-0.5,0.6v8.3h-2.1v-10.5h1.2l0.4,0.5
				c0.4-0.5,0.9-0.7,1.7-0.7c1.5,0,2,0.8,2,2.4v8.3L339.9,274.6L339.9,274.6z"/>
			<path class="st3" d="M345.9,272.4c0,0.5,0.3,0.6,0.5,0.6s0.5-0.1,0.5-0.6v-1.6h2.1v1.5c0,1.5-0.5,2.5-2.6,2.5s-2.6-1-2.6-2.5v-5.9
				c0-1.5,0.6-2.5,2.6-2.5s2.6,1,2.6,2.5v3.3h-3v2.7H345.9z M345.9,268.1h1v-1.8c0-0.5-0.3-0.6-0.5-0.6s-0.5,0.1-0.5,0.6V268.1z"/>
			<path class="st3" d="M352.5,272.4c0,0.4,0.2,0.6,0.5,0.6s0.5-0.1,0.5-0.6v-0.8c0-2.2-3.1-1.7-3.1-4.8v-0.4c0-1.5,0.7-2.5,2.6-2.5
				c2,0,2.6,0.9,2.6,2.5v1h-2.1v-1c0-0.4-0.1-0.6-0.5-0.6c-0.3,0-0.5,0.2-0.5,0.6v0.4c0,2.1,3.1,1.6,3.1,4.7v0.9
				c0,1.5-0.7,2.4-2.6,2.4c-2,0-2.6-0.9-2.6-2.4v-1.2h2.1V272.4z"/>
		</g>
	</g>
	<g id="raisin_x5F_picto">
		<g>
			<path class="st32" d="M355.2,80.6c0.5-0.9,0.8-2,0.8-3.1c0-3.6-2.9-6.5-6.5-6.5s-6.5,2.9-6.5,6.5c0,0.7,0.1,1.4,0.4,2.1
				c-0.1,0-0.1,0-0.2,0c-3.6,0-6.5,2.9-6.5,6.5s2.9,6.5,6.5,6.5c2,0,3.7-0.9,4.9-2.3c1.1,1.9,3.2,3.2,5.6,3.2c3.6,0,6.5-2.9,6.5-6.5
				C360.3,83.9,358.1,81.3,355.2,80.6z"/>
		</g>
		<g>
			<path class="st32" d="M346,68.5c0-2-0.9-3.8-2.4-5c0.7-1,1.1-2.3,1.1-3.7c0-3.6-2.9-6.5-6.5-6.5s-6.5,2.9-6.5,6.5
				c0,2.1,1,3.9,2.4,5.1c-0.7,1-1.1,2.3-1.1,3.6c0,3.6,2.9,6.5,6.5,6.5S346,72.1,346,68.5z"/>
		</g>
		<g>
			<path class="st32" d="M331,74.5c-2.5,0-4.7,1.4-5.8,3.5c0-0.2,0-0.5,0-0.7c0-3.6-2.9-6.5-6.5-6.5s-6.5,2.9-6.5,6.5
				s2.9,6.5,6.5,6.5c2.5,0,4.7-1.4,5.8-3.5c0,0.2,0,0.5,0,0.7c0,3.6,2.9,6.5,6.5,6.5s6.5-2.9,6.5-6.5C337.6,77.5,334.6,74.5,331,74.5
				z"/>
		</g>
		<path class="st33" d="M323.6,60.8c0.2,0,0.3,0.1,0.5,0.1c0.1-0.3,0.1-0.5,0.2-0.8c-6.6-7.5-14.7-10.2-17.7-10.9
			c-0.6-0.2-1.2,0.3-1.3,0.9l-0.3,4c0,0.5,0.4,1,1,0.9c6.8-0.8,13.1,2.7,17.1,5.6C323.2,60.8,323.4,60.8,323.6,60.8z"/>
		<path class="st34" d="M321.1,56.9c-3.9-2.5-9.3-4.9-15.1-4.2c-0.3,0-0.6-0.1-0.8-0.4l-0.1,1.9c0,0.5,0.4,1,1,0.9
			c6.8-0.8,13.1,2.7,17.1,5.6c0.2,0,0.4,0.1,0.5,0.1c0.2,0,0.3,0.1,0.5,0.1c0.1-0.3,0.1-0.5,0.2-0.8C323.3,59,322.2,57.9,321.1,56.9z
			"/>
		<g>
			<path class="st35" d="M314,72.2c0.8-1,2-1.8,3.2-2.1c0.2,0.2-1.3-1.9-0.5-5.5c0.6-2.5,4.6-3.3,6.9-3.8c-3.4-2.6-10.4-2.5-15,0.3
				c-0.4,0.2-0.5,0.8-0.2,1.1c0.6,0.7,1.8,1.8,3.4,2.7c0.4,0.2,0.5,0.8,0.1,1.1c-1.3,1.2-2.5,2.7-3.5,4.7c-0.2,0.4,0,0.9,0.5,1
				C309.9,72.1,312,72.4,314,72.2z"/>
		</g>
		<path class="st36" d="M311.3,71.8c-0.5-0.1-0.7-0.6-0.5-1c1-2,2.2-3.6,3.5-4.7c0.4-0.3,0.3-0.9-0.1-1.1c-1.6-0.9-2.7-2-3.4-2.7
			c-0.3-0.3-0.2-0.9,0.2-1.1c2.2-1.4,4.4-2,6.5-2.2c-2.6-0.2-5.7,0.2-8.8,2.2c-0.4,0.2-0.5,0.8-0.2,1.1c0.6,0.7,1.8,1.8,3.4,2.7
			c0.4,0.2,0.5,0.8,0.1,1.1c-1.3,1.2-2.5,2.7-3.5,4.7c-0.2,0.4,0,0.9,0.5,1c1,0.3,3,0.6,5,0.4C312.9,72.2,311.9,72,311.3,71.8z"/>
		<path class="st35" d="M331.9,56.1c0.4,0.1,0.7,0.2,1.1,0.3c0.8-1.3,2.1-2.2,3.5-2.7c0.4-2.6-0.4-5.2-0.8-6.4
			c-0.1-0.4-0.7-0.6-1.1-0.4c-2,1.1-3.4,2.4-4.5,3.8c-0.3,0.4-0.9,0.4-1.1,0c-1-1.5-2.2-2.6-2.9-3.2c-0.4-0.3-0.9-0.2-1.1,0.2
			c-2.5,4.8-1.9,9.2-0.6,12.2C325.5,57.1,328.7,55.4,331.9,56.1z"/>
		<path class="st36" d="M326.9,48.2c-0.3-0.3-0.6-0.6-0.9-0.8c-0.4-0.3-0.9-0.2-1.1,0.2c-2.5,4.8-1.9,9.2-0.6,12.2
			c0.4-0.9,0.9-1.6,1.5-2.2C325.2,55.1,325.2,51.8,326.9,48.2z"/>
		<path class="st37" d="M331.8,87.4c-3.5-0.8-5.7-4.3-4.9-7.8c0.6-2.6,2.7-4.5,5.2-5c-3.4-0.6-6.7,1.6-7.5,5c-0.8,3.5,1.4,7,4.9,7.8
			c0.9,0.2,1.8,0.2,2.6,0.1C332,87.5,331.9,87.5,331.8,87.4z"/>
		<path class="st37" d="M319.5,83.7c-3.5-0.8-5.7-4.3-4.9-7.8c0.6-2.6,2.7-4.5,5.2-5c-3.4-0.6-6.7,1.6-7.5,5c-0.8,3.5,1.4,7,4.9,7.8
			c0.9,0.2,1.8,0.2,2.6,0.1C319.8,83.7,319.6,83.7,319.5,83.7z"/>
		<path class="st38" d="M330.2,55.6c3.6,0,6.5,2.9,6.5,6.5s-2.9,6.5-6.5,6.5s-6.5-2.9-6.5-6.5C323.7,58.6,326.6,55.6,330.2,55.6z"/>
		<path class="st39" d="M330.9,68.5c-3.5-0.8-5.7-4.3-4.9-7.8c0.6-2.6,2.7-4.5,5.2-5c-3.4-0.6-6.7,1.6-7.5,5c-0.8,3.5,1.4,7,4.9,7.8
			c0.9,0.2,1.8,0.2,2.6,0.1C331.2,68.6,331.1,68.6,330.9,68.5z"/>
		<path class="st40" d="M340.3,74.9c-3.5-0.8-5.7-4.3-4.8-7.8c0.6-2.6,2.7-4.5,5.2-4.9c-3.4-0.6-6.6,1.6-7.4,4.9
			c-0.8,3.5,1.4,7,4.8,7.8c0.9,0.2,1.8,0.2,2.6,0.1C340.5,74.9,340.4,74.9,340.3,74.9z"/>
		<path class="st40" d="M350.3,83.9c-3.5-0.8-5.7-4.3-4.8-7.8c0.6-2.6,2.7-4.5,5.2-4.9c-3.4-0.6-6.6,1.6-7.4,4.9
			c-0.8,3.5,1.4,7,4.8,7.8c0.9,0.2,1.8,0.2,2.6,0.1C350.5,83.9,350.4,83.9,350.3,83.9z"/>
		<path class="st40" d="M344,92.5c-3.5-0.8-5.7-4.3-4.8-7.8c0.6-2.6,2.7-4.5,5.2-4.9c-3.4-0.6-6.6,1.6-7.4,4.9
			c-0.8,3.5,1.4,7,4.8,7.8c0.9,0.2,1.8,0.2,2.6,0.1C344.2,92.5,344.1,92.5,344,92.5z"/>
		<path class="st32" d="M321.9,60.4c3.6,0,6.5,2.9,6.5,6.5s-2.9,6.5-6.5,6.5s-6.5-2.9-6.5-6.5C315.4,63.3,318.3,60.4,321.9,60.4z"/>
		<path class="st40" d="M322.7,73.2c-3.5-0.8-5.7-4.3-4.8-7.8c0.6-2.6,2.7-4.5,5.2-4.9c-3.4-0.6-6.6,1.6-7.4,4.9
			c-0.8,3.5,1.4,7,4.8,7.8c0.9,0.2,1.8,0.2,2.6,0.1C322.9,73.3,322.8,73.3,322.7,73.2z"/>
		<path class="st41" d="M329.7,66.8c3.6,0,6.5,2.9,6.5,6.5s-2.9,6.5-6.5,6.5s-6.5-2.9-6.5-6.5C323.3,69.7,326.2,66.8,329.7,66.8z"/>
		<path class="st42" d="M330.5,79.6c-3.5-0.8-5.7-4.3-4.8-7.8c0.6-2.6,2.7-4.5,5.2-4.9c-3.4-0.6-6.6,1.6-7.4,4.9
			c-0.8,3.5,1.4,7,4.8,7.8c0.9,0.2,1.8,0.2,2.6,0.1C330.7,79.7,330.6,79.7,330.5,79.6z"/>
		<path class="st38" d="M339.9,71.1c3.6,0,6.5,2.9,6.5,6.5s-2.9,6.5-6.5,6.5s-6.5-2.9-6.5-6.5S336.3,71.1,339.9,71.1z"/>
		<path class="st39" d="M340.6,83.9c-3.5-0.8-5.7-4.3-4.8-7.8c0.6-2.6,2.7-4.5,5.2-4.9c-3.4-0.6-6.6,1.6-7.4,4.9
			c-0.8,3.5,1.4,7,4.8,7.8c0.9,0.2,1.8,0.2,2.6,0.1C340.8,83.9,340.7,83.9,340.6,83.9z"/>
		<path class="st37" d="M354.5,93.4c-3.5-0.8-5.7-4.3-4.9-7.8c0.6-2.6,2.7-4.5,5.2-5c-3.4-0.6-6.7,1.6-7.5,5c-0.8,3.5,1.4,7,4.9,7.8
			c0.9,0.2,1.8,0.2,2.6,0.1C354.8,93.4,354.6,93.4,354.5,93.4z"/>
	</g>
</svg>
