<svg version="1.1" xmlns="http://www.w3.org/2000/svg" xmlns:xlink="http://www.w3.org/1999/xlink" x="0px" y="0px"
	 viewBox="0 0 274.5 263.5" style="enable-background:new 0 0 274.5 263.5;" xml:space="preserve">
	<style type="text/css">
		.st0{fill:#939075;stroke:#FFFFFF;stroke-miterlimit:10;}
		.st1{fill-rule:evenodd;clip-rule:evenodd;fill:#EDD048;stroke:#FFFFFF;stroke-miterlimit:10;}
		.st2{fill-rule:evenodd;clip-rule:evenodd;fill:#C56F4B;stroke:#FFFFFF;stroke-miterlimit:10;}
		.st3{fill-rule:evenodd;clip-rule:evenodd;fill:#AF4E9D;stroke:#FFFFFF;stroke-miterlimit:10;}
		.st4{fill-rule:evenodd;clip-rule:evenodd;fill:#397735;stroke:#FFFFFF;stroke-miterlimit:10;}
		.st5{fill-rule:evenodd;clip-rule:evenodd;fill:#5E508F;stroke:#FFFFFF;stroke-miterlimit:10;}
		.st6{fill:#FFFFFF;}
		.st7{fill:#2C2110;}
		.st8{fill:#6C7E7E;}
		.st9{fill:#EDD2CA;}
		.st10{fill:#587082;}
		.st11{fill:#4B5B68;}
		.st12{fill:#D9927C;}
		.st13{fill:none;}
		.st14{fill:none;stroke:#2D2211;stroke-miterlimit:10;}
		.st15{fill:#2D2211;}
		.st16{fill:#A0633B;}
		.st17{fill:#D3A565;}
		.st18{fill:#C0D156;}
		.st19{fill:#B5C653;}
		.st20{fill:#93A848;}
		.st21{fill:#7D8F44;}
		.st22{fill:none;stroke:#2D2211;stroke-dasharray:1.5,1.5;}
		.st23{fill:#E0AB72;}
		.st24{fill:#E5BA86;}
		.st25{fill:#706E76;}
		.st26{fill:#EAC89A;}
		.st27{fill:#D7924B;}
		.st28{fill:#BC793F;}
		.st29{fill:#805426;}
		.st30{fill:#4B4A50;}
		.st31{fill:#908F94;}
		.st32{opacity:0.61;fill:#5C5A61;enable-background:new    ;}
		.st33{fill:#C6C5C9;}
		.st34{fill:#EBCC65;}
		.st35{fill:#E0BC4A;}
		.st36{opacity:0.42;fill:#5C5A61;enable-background:new    ;}
		.st37{fill:#8FC073;}
		.st38{fill:#6FB162;}
		.st39{fill:#F5E5CA;}
		.st40{fill:#EBCCA2;}
		.st41{fill:#C78B45;}
		.st42{fill:#AF7138;}
	</style>
	<g id="donut_x5F_chart">
		<path class="st0" d="M137.9,128.8l-13-61c4.2-0.9,8.6-1.4,13-1.4V128.8z"/>
		<path class="st1" d="M137.9,128.8l-17.2-60c1.6-0.5,2.6-0.7,4.2-1.1L137.9,128.8z"/>
		<path class="st2" d="M137.9,128.8l-24.4-57.4c2.4-1,4.6-1.8,7.2-2.5L137.9,128.8z"/>
		<path class="st3" d="M137.9,128.8L76,121.2c2.8-22.9,16.3-40.8,37.5-49.8L137.9,128.8z"/>
		<path class="st4" d="M137.9,128.8l8.7,61.8c-34.1,4.8-65.6-19-70.4-53.1c-0.8-5.4-0.8-10.9-0.1-16.3L137.9,128.8z"/>
		<path class="st5" d="M137.9,128.8V66.5c34.4,0,62.4,27.9,62.4,62.4c0,31.7-22.3,57.3-53.7,61.8L137.9,128.8z"/>
		<g>
			<path class="st6" d="M186.2,128.5c0,26.7-21.6,48.3-48.3,48.3s-48.3-21.6-48.3-48.3c0-26.7,21.6-48.3,48.3-48.3
				S186.2,101.9,186.2,128.5z"/>
		</g>
	</g>
	<g id="donut_x5F_leg">
		<g>
			<path class="st7" d="M117.2,104.9c0,6.7-4.8,6.1-4.8,11.8v0.2h5v3.6h-8.8V117c0-7.8,4.9-6.9,4.9-12.1v-2.3c0-0.4-0.2-0.7-0.6-0.7
				s-0.6,0.3-0.6,0.7v2.4h-3.7v-2.4c0-2.4,0.9-4.1,4.3-4.1c3.4,0,4.4,1.7,4.4,4.1V104.9z"/>
			<path class="st7" d="M127.5,104.9c0,6.7-4.8,6.1-4.8,11.8v0.2h5v3.6h-8.8V117c0-7.8,4.9-6.9,4.9-12.1v-2.3c0-0.4-0.2-0.7-0.6-0.7
				s-0.6,0.3-0.6,0.7v2.4h-3.7v-2.4c0-2.4,0.9-4.1,4.3-4.1c3.4,0,4.4,1.7,4.4,4.1V104.9z"/>
			<path class="st7" d="M137.7,104.9c0,6.7-4.8,6.1-4.8,11.8v0.2h5v3.6h-8.8V117c0-7.8,4.9-6.9,4.9-12.1v-2.3c0-0.4-0.2-0.7-0.6-0.7
				s-0.6,0.3-0.6,0.7v2.4H129v-2.4c0-2.4,0.9-4.1,4.3-4.1c3.4,0,4.4,1.7,4.4,4.1V104.9z"/>
			<path class="st7" d="M144.4,110.7c0-0.3-0.2-0.5-0.5-0.5c-0.4,0-0.9,0.2-1.2,0.6h-3l0.6-12h7.6v3.6h-4.4l-0.2,5.1
				c0.4-0.2,1.1-0.3,1.6-0.3c2.5,0,3.4,1,3.4,3.5v6c0,2.4-1,4.1-4.4,4.1c-3.5,0-4.3-1.7-4.3-4.1v-2.7h3.7v2.6c0,0.5,0.2,0.7,0.6,0.7
				s0.6-0.2,0.6-0.7V110.7z"/>
			<path class="st7" d="M153.2,117l-1.2,5.7h-2V117H153.2z"/>
			<path class="st7" d="M163.4,104.9c0,6.7-4.8,6.1-4.8,11.8v0.2h5v3.6h-8.8V117c0-7.8,4.9-6.9,4.9-12.1v-2.3c0-0.4-0.2-0.7-0.6-0.7
				s-0.6,0.3-0.6,0.7v2.4h-3.7v-2.4c0-2.4,0.9-4.1,4.3-4.1c3.4,0,4.4,1.7,4.4,4.1V104.9z"/>
			<path class="st7" d="M104.5,127.4h-1v2.1c0,0.5,0.1,0.6,0.6,0.6c0.2,0,0.4,0,0.6,0l-0.1,0.9c-0.2,0.1-0.6,0.1-1,0.1
				c-0.9,0-1.2-0.4-1.2-1.4v-2.3h-0.5l0-0.9h0.5v-0.7l1.2-0.2v1h1.2L104.5,127.4z"/>
			<path class="st7" d="M108.6,130.6c-0.3,0.3-0.8,0.4-1.5,0.4c-0.7,0-1.2-0.2-1.5-0.5c-0.3-0.3-0.5-0.8-0.5-1.8c0-1,0.3-1.6,0.6-2
				c0.3-0.3,0.8-0.5,1.5-0.5c0.8,0,1.2,0.2,1.5,0.5c0.3,0.3,0.5,0.8,0.5,1.8C109.2,129.6,109,130.3,108.6,130.6z M107.8,129.9
				c0.1-0.2,0.2-0.6,0.2-1.2c0-0.7-0.1-1-0.2-1.2c-0.1-0.2-0.3-0.2-0.6-0.2c-0.3,0-0.5,0.1-0.6,0.2c-0.1,0.2-0.2,0.6-0.2,1.2
				c0,0.6,0.1,1,0.2,1.2c0.1,0.2,0.3,0.2,0.6,0.2C107.5,130.1,107.7,130.1,107.8,129.9z"/>
			<path class="st7" d="M112.8,131v-2.8c0-0.3,0-0.5-0.2-0.6c-0.1-0.1-0.3-0.1-0.5-0.1c-0.3,0-0.5,0-0.7,0.1v3.5h-1.2v-4.5h0.9
				l0.2,0.6h0.1c0,0,0.4-0.5,0.5-0.5c0.1-0.1,0.5-0.2,0.9-0.2c0.4,0,0.7,0.1,0.9,0.3c0.2,0.2,0.3,0.6,0.3,1.1v3.1H112.8z"/>
			<path class="st7" d="M117.7,131v-2.8c0-0.3,0-0.5-0.2-0.6c-0.1-0.1-0.3-0.1-0.5-0.1c-0.3,0-0.5,0-0.7,0.1v3.5h-1.2v-4.5h0.9
				l0.2,0.6h0.1c0,0,0.4-0.5,0.5-0.5c0.1-0.1,0.5-0.2,0.9-0.2c0.4,0,0.7,0.1,0.9,0.3c0.2,0.2,0.3,0.6,0.3,1.1v3.1H117.7z"/>
			<path class="st7" d="M121.9,126.4c1.3,0,1.7,0.6,1.7,1.9v0.7h-2.5c0,0.8,0.3,1.1,1.1,1.1c0.5,0,0.9-0.1,1.2-0.1l-0.1,0.8
				c-0.4,0.1-0.8,0.3-1.5,0.3c-1.4,0-1.9-0.7-1.9-2.2C119.9,127.1,120.5,126.4,121.9,126.4z M121.1,128.2h1.3v-0.1
				c0-0.6-0.1-0.8-0.6-0.8C121.3,127.3,121.1,127.5,121.1,128.2z"/>
			<path class="st7" d="M125.6,131.1c-0.5,0-1-0.1-1.3-0.2v-0.8c0.2,0,0.7,0.1,1.1,0.1c0.6,0,0.7-0.1,0.7-0.4c0-0.2,0-0.2-0.1-0.3
				c-0.1-0.1-0.3-0.2-0.6-0.3c-0.4-0.2-0.7-0.3-0.9-0.6c-0.1-0.2-0.2-0.4-0.2-0.8c0-0.9,0.5-1.4,1.6-1.4c0.5,0,0.9,0.1,1.1,0.1v0.9
				c-0.2,0-0.6-0.1-1-0.1c-0.5,0-0.7,0.1-0.7,0.4c0,0.1,0,0.2,0.1,0.3c0.1,0.1,0.2,0.2,0.6,0.3c0.4,0.2,0.8,0.3,0.9,0.5
				c0.1,0.2,0.2,0.4,0.2,0.8C127.2,130.6,126.7,131.1,125.6,131.1z"/>
			<path class="st7" d="M132.4,124.6h1.2v6.4h-1l-0.2-0.6h-0.1c-0.1,0.2-0.4,0.5-0.5,0.5c-0.1,0.1-0.4,0.1-0.8,0.1
				c-0.4,0-0.7-0.1-1-0.4c-0.3-0.3-0.4-0.8-0.4-1.8c0-1,0.3-1.7,0.7-2.1c0.3-0.3,0.8-0.4,1.2-0.4c0.4,0,0.6,0.1,0.8,0.1V124.6z
				M131.1,129.9c0.1,0.1,0.4,0.2,0.6,0.2c0.3,0,0.5,0,0.7-0.1v-2.6c-0.1,0-0.3,0-0.6,0c-0.3,0-0.5,0.1-0.6,0.2
				c-0.2,0.2-0.3,0.5-0.3,1.2C130.9,129.4,130.9,129.8,131.1,129.9z"/>
			<path class="st7" d="M136.6,126.4c1.3,0,1.7,0.6,1.7,1.9v0.7h-2.5c0,0.8,0.3,1.1,1.1,1.1c0.5,0,0.9-0.1,1.2-0.1l-0.1,0.8
				c-0.4,0.1-0.8,0.3-1.5,0.3c-1.4,0-1.9-0.7-1.9-2.2C134.5,127.1,135.2,126.4,136.6,126.4z M135.8,128.2h1.3v-0.1
				c0-0.6-0.1-0.8-0.6-0.8C136,127.3,135.8,127.5,135.8,128.2z"/>
			<path class="st7" d="M142.1,133.1H141v-6.6h1l0.2,0.6h0.1c0.1-0.2,0.4-0.5,0.5-0.5c0.1-0.1,0.4-0.2,0.8-0.2c0.4,0,0.7,0.1,1,0.3
				c0.3,0.3,0.5,0.8,0.5,1.8c0,1-0.3,1.7-0.7,2.1c-0.3,0.3-0.7,0.4-1.2,0.4c-0.3,0-0.6,0-0.8-0.1V133.1z M143.4,127.5
				c-0.1-0.1-0.4-0.2-0.6-0.2c-0.3,0-0.5,0.1-0.7,0.1v2.7c0.1,0,0.3,0,0.5,0c0.3,0,0.5-0.1,0.7-0.2c0.2-0.2,0.3-0.5,0.3-1.2
				C143.6,128.1,143.6,127.7,143.4,127.5z"/>
			<path class="st7" d="M146.8,126.5l0.2,0.7h0l0.4-0.6c0.2-0.1,0.4-0.2,0.7-0.2c0.1,0,0.2,0,0.3,0v1.1c-0.2,0-0.4-0.1-0.7-0.1
				c-0.3,0-0.6,0.1-0.8,0.1v3.3h-1.2v-4.5H146.8z"/>
			<path class="st7" d="M152.4,130.6c-0.3,0.3-0.8,0.4-1.5,0.4c-0.7,0-1.2-0.2-1.5-0.5c-0.3-0.3-0.5-0.8-0.5-1.8c0-1,0.3-1.6,0.6-2
				c0.3-0.3,0.8-0.5,1.5-0.5c0.8,0,1.2,0.2,1.5,0.5c0.3,0.3,0.5,0.8,0.5,1.8C153,129.6,152.8,130.3,152.4,130.6z M151.6,129.9
				c0.1-0.2,0.2-0.6,0.2-1.2c0-0.7-0.1-1-0.2-1.2c-0.1-0.2-0.3-0.2-0.6-0.2c-0.3,0-0.5,0.1-0.6,0.2c-0.1,0.2-0.2,0.6-0.2,1.2
				c0,0.6,0.1,1,0.2,1.2c0.1,0.2,0.3,0.2,0.6,0.2C151.2,130.1,151.5,130.1,151.6,129.9z"/>
			<path class="st7" d="M156.5,124.6h1.2v6.4h-1l-0.2-0.6h-0.1c-0.1,0.2-0.4,0.5-0.5,0.5c-0.1,0.1-0.4,0.1-0.8,0.1
				c-0.4,0-0.7-0.1-1-0.4c-0.3-0.3-0.4-0.8-0.4-1.8c0-1,0.3-1.7,0.7-2.1c0.3-0.3,0.8-0.4,1.2-0.4c0.4,0,0.6,0.1,0.8,0.1V124.6z
				M155.2,129.9c0.1,0.1,0.4,0.2,0.6,0.2c0.3,0,0.5,0,0.7-0.1v-2.6c-0.1,0-0.3,0-0.6,0c-0.3,0-0.5,0.1-0.6,0.2
				c-0.2,0.2-0.3,0.5-0.3,1.2C155,129.4,155.1,129.8,155.2,129.9z"/>
			<path class="st7" d="M161.7,131l-0.2-0.6h-0.1l-0.5,0.5c-0.2,0.1-0.5,0.1-0.9,0.1c-0.4,0-0.7-0.1-0.9-0.3
				c-0.2-0.2-0.3-0.6-0.3-1.1v-3.1h1.2v2.8c0,0.3,0,0.5,0.2,0.6c0.1,0.1,0.3,0.2,0.5,0.2c0.3,0,0.5,0,0.7-0.1v-3.5h1.2v4.5H161.7z"/>
			<path class="st7" d="M164.9,125.6c-0.1,0.1-0.3,0.1-0.5,0.1c-0.3,0-0.4,0-0.5-0.1c-0.1-0.1-0.1-0.3-0.1-0.5c0-0.3,0.1-0.4,0.2-0.5
				c0.1,0,0.2-0.1,0.5-0.1c0.2,0,0.4,0,0.5,0.1c0.1,0.1,0.2,0.3,0.2,0.5C165.1,125.3,165,125.5,164.9,125.6z M163.8,131v-4.5h1.2v4.5
				H163.8z"/>
			<path class="st7" d="M168.5,127.4h-1v2.1c0,0.5,0.1,0.6,0.6,0.6c0.2,0,0.4,0,0.6,0l-0.1,0.9c-0.2,0.1-0.6,0.1-1,0.1
				c-0.9,0-1.2-0.4-1.2-1.4v-2.3h-0.5l0-0.9h0.5v-0.7l1.2-0.2v1h1.2L168.5,127.4z"/>
			<path class="st7" d="M170.4,131.1c-0.5,0-1-0.1-1.3-0.2v-0.8c0.2,0,0.7,0.1,1.1,0.1c0.6,0,0.7-0.1,0.7-0.4c0-0.2,0-0.2-0.1-0.3
				c-0.1-0.1-0.3-0.2-0.6-0.3c-0.4-0.2-0.7-0.3-0.9-0.6c-0.1-0.2-0.2-0.4-0.2-0.8c0-0.9,0.5-1.4,1.6-1.4c0.5,0,0.9,0.1,1.1,0.1v0.9
				c-0.2,0-0.6-0.1-1-0.1c-0.5,0-0.7,0.1-0.7,0.4c0,0.1,0,0.2,0.1,0.3c0.1,0.1,0.2,0.2,0.6,0.3c0.4,0.2,0.8,0.3,0.9,0.5
				c0.1,0.2,0.2,0.4,0.2,0.8C172.1,130.6,171.6,131.1,170.4,131.1z"/>
			<path class="st7" d="M109.3,142.7h-1.2v-6.6h1l0.2,0.6h0.1c0.1-0.2,0.4-0.5,0.5-0.5c0.1-0.1,0.4-0.2,0.8-0.2c0.4,0,0.7,0.1,1,0.3
				c0.3,0.3,0.5,0.8,0.5,1.8c0,1-0.3,1.7-0.7,2.1c-0.3,0.3-0.7,0.4-1.2,0.4c-0.3,0-0.6,0-0.8-0.1V142.7z M110.5,137.1
				c-0.1-0.1-0.4-0.2-0.6-0.2c-0.3,0-0.5,0.1-0.7,0.1v2.7c0.1,0,0.3,0,0.5,0c0.3,0,0.5-0.1,0.7-0.2c0.2-0.2,0.3-0.5,0.3-1.2
				C110.8,137.7,110.7,137.3,110.5,137.1z"/>
			<path class="st7" d="M115.5,140.6v-2.7c0-0.3,0-0.6-0.1-0.7c-0.1-0.1-0.3-0.2-0.6-0.2c-0.3,0-0.5,0-0.7,0.1v3.5H113v-6.4h1.2v2.6
				h0c0,0,0.4-0.5,0.4-0.5c0.2-0.1,0.5-0.2,0.9-0.2c0.4,0,0.7,0.1,0.9,0.3c0.2,0.2,0.3,0.6,0.3,1.2v3H115.5z"/>
			<path class="st7" d="M119.7,142.8h-1.2l0.7-2.2h-0.7l-1.1-4.5h1.3l0.7,3.4h0.1l0.8-3.4h1.2L119.7,142.8z"/>
			<path class="st7" d="M124.6,137h-1v2.1c0,0.5,0.1,0.6,0.6,0.6c0.2,0,0.4,0,0.6,0l-0.1,0.9c-0.2,0.1-0.6,0.1-1,0.1
				c-0.9,0-1.2-0.4-1.2-1.4V137h-0.5l0-0.9h0.5v-0.7l1.2-0.2v1h1.2L124.6,137z"/>
			<path class="st7" d="M128.7,140.2c-0.3,0.3-0.8,0.4-1.5,0.4c-0.7,0-1.2-0.2-1.5-0.5c-0.3-0.3-0.5-0.8-0.5-1.8c0-1,0.3-1.6,0.6-2
				c0.3-0.3,0.8-0.5,1.5-0.5c0.8,0,1.2,0.2,1.5,0.5c0.3,0.3,0.5,0.8,0.5,1.8C129.3,139.2,129.1,139.9,128.7,140.2z M127.8,139.5
				c0.1-0.2,0.2-0.6,0.2-1.2c0-0.7-0.1-1-0.2-1.2c-0.1-0.2-0.3-0.2-0.6-0.2c-0.3,0-0.5,0.1-0.6,0.2c-0.1,0.2-0.2,0.6-0.2,1.2
				c0,0.6,0.1,1,0.2,1.2c0.1,0.2,0.3,0.2,0.6,0.2C127.5,139.7,127.7,139.7,127.8,139.5z"/>
			<path class="st7" d="M131.3,140.7c-0.5,0-1-0.1-1.3-0.2v-0.8c0.2,0,0.7,0.1,1.1,0.1c0.6,0,0.7-0.1,0.7-0.4c0-0.2,0-0.2-0.1-0.3
				c-0.1-0.1-0.3-0.2-0.6-0.3c-0.4-0.2-0.7-0.3-0.9-0.6c-0.1-0.2-0.2-0.4-0.2-0.8c0-0.9,0.5-1.4,1.6-1.4c0.5,0,0.9,0.1,1.1,0.1v0.9
				c-0.2,0-0.6-0.1-1-0.1c-0.5,0-0.7,0.1-0.7,0.4c0,0.1,0,0.2,0.1,0.3c0.1,0.1,0.2,0.2,0.6,0.3c0.4,0.2,0.8,0.3,0.9,0.5
				c0.1,0.2,0.2,0.4,0.2,0.8C132.9,140.2,132.5,140.7,131.3,140.7z"/>
			<path class="st7" d="M136.2,140.6L136,140h0c-0.1,0.2-0.4,0.5-0.4,0.5c-0.1,0.1-0.5,0.1-0.8,0.1c-0.4,0-0.7-0.1-0.9-0.3
				c-0.2-0.2-0.3-0.6-0.3-0.9c0-0.6,0.2-0.9,0.4-1.1c0.3-0.2,1-0.4,1.9-0.5c0-0.3,0-0.5-0.1-0.6c-0.1-0.1-0.4-0.2-0.7-0.2
				c-0.4,0-1,0.1-1.3,0.1v-0.8c0.4-0.1,1-0.3,1.7-0.3c0.6,0,1,0.1,1.2,0.4c0.2,0.2,0.3,0.6,0.3,1.3v3H136.2z M136,138.6
				c-0.4,0-1,0.1-1.1,0.2c-0.1,0.1-0.1,0.2-0.1,0.5s0,0.4,0.1,0.5c0.1,0.1,0.2,0.1,0.5,0.1c0.2,0,0.5,0,0.6-0.1V138.6z"/>
			<path class="st7" d="M140.9,140.6v-2.8c0-0.3,0-0.5-0.2-0.6c-0.1-0.1-0.3-0.1-0.5-0.1c-0.3,0-0.5,0-0.7,0.1v3.5h-1.2v-4.5h0.9
				l0.2,0.6h0.1c0,0,0.4-0.5,0.5-0.5c0.1-0.1,0.5-0.2,0.9-0.2c0.4,0,0.7,0.1,0.9,0.3c0.2,0.2,0.3,0.6,0.3,1.1v3.1H140.9z"/>
			<path class="st7" d="M144.4,135.2c-0.1,0.1-0.3,0.1-0.5,0.1c-0.3,0-0.4,0-0.5-0.1c-0.1-0.1-0.1-0.3-0.1-0.5c0-0.3,0.1-0.4,0.2-0.5
				c0.1,0,0.2-0.1,0.5-0.1c0.2,0,0.4,0,0.5,0.1c0.1,0.1,0.2,0.3,0.2,0.5C144.6,134.9,144.5,135.1,144.4,135.2z M143.3,140.6v-4.5h1.2
				v4.5H143.3z"/>
			<path class="st7" d="M148,137h-1v2.1c0,0.5,0.1,0.6,0.6,0.6c0.2,0,0.4,0,0.6,0l-0.1,0.9c-0.2,0.1-0.6,0.1-1,0.1
				c-0.9,0-1.2-0.4-1.2-1.4V137h-0.5l0-0.9h0.5v-0.7l1.2-0.2v1h1.2L148,137z"/>
			<path class="st7" d="M151.2,140.6L151,140h0c-0.1,0.2-0.4,0.5-0.4,0.5c-0.1,0.1-0.5,0.1-0.8,0.1c-0.4,0-0.7-0.1-0.9-0.3
				c-0.2-0.2-0.3-0.6-0.3-0.9c0-0.6,0.2-0.9,0.4-1.1c0.3-0.2,1-0.4,1.9-0.5c0-0.3,0-0.5-0.1-0.6c-0.1-0.1-0.4-0.2-0.7-0.2
				c-0.4,0-1,0.1-1.3,0.1v-0.8c0.4-0.1,1-0.3,1.7-0.3c0.6,0,1,0.1,1.2,0.4c0.2,0.2,0.3,0.6,0.3,1.3v3H151.2z M151,138.6
				c-0.4,0-1,0.1-1.1,0.2c-0.1,0.1-0.1,0.2-0.1,0.5s0,0.4,0.1,0.5c0.1,0.1,0.2,0.1,0.5,0.1c0.2,0,0.5,0,0.6-0.1V138.6z"/>
			<path class="st7" d="M154.5,135.2c-0.1,0.1-0.3,0.1-0.5,0.1c-0.3,0-0.4,0-0.5-0.1c-0.1-0.1-0.1-0.3-0.1-0.5c0-0.3,0.1-0.4,0.2-0.5
				c0.1,0,0.2-0.1,0.5-0.1c0.2,0,0.4,0,0.5,0.1c0.1,0.1,0.2,0.3,0.2,0.5C154.6,134.9,154.6,135.1,154.5,135.2z M153.4,140.6v-4.5h1.2
				v4.5H153.4z"/>
			<path class="st7" d="M156.6,136.1l0.2,0.7h0l0.4-0.6c0.2-0.1,0.4-0.2,0.7-0.2c0.1,0,0.2,0,0.3,0v1.1c-0.2,0-0.4-0.1-0.7-0.1
				c-0.3,0-0.6,0.1-0.8,0.1v3.3h-1.2v-4.5H156.6z"/>
			<path class="st7" d="M160.9,136c1.3,0,1.7,0.6,1.7,1.9v0.7h-2.5c0,0.8,0.3,1.1,1.1,1.1c0.5,0,0.9-0.1,1.2-0.1l-0.1,0.8
				c-0.4,0.1-0.8,0.3-1.5,0.3c-1.4,0-1.9-0.7-1.9-2.2C158.9,136.7,159.5,136,160.9,136z M160.1,137.8h1.3v-0.1c0-0.6-0.1-0.8-0.6-0.8
				C160.4,136.9,160.1,137.1,160.1,137.8z"/>
			<path class="st7" d="M164.6,140.7c-0.5,0-1-0.1-1.3-0.2v-0.8c0.2,0,0.7,0.1,1.1,0.1c0.6,0,0.7-0.1,0.7-0.4c0-0.2,0-0.2-0.1-0.3
				c-0.1-0.1-0.3-0.2-0.6-0.3c-0.4-0.2-0.7-0.3-0.9-0.6c-0.1-0.2-0.2-0.4-0.2-0.8c0-0.9,0.5-1.4,1.6-1.4c0.5,0,0.9,0.1,1.1,0.1v0.9
				c-0.2,0-0.6-0.1-1-0.1c-0.5,0-0.7,0.1-0.7,0.4c0,0.1,0,0.2,0.1,0.3c0.1,0.1,0.2,0.2,0.6,0.3c0.4,0.2,0.8,0.3,0.9,0.5
				c0.1,0.2,0.2,0.4,0.2,0.8C166.2,140.2,165.7,140.7,164.6,140.7z"/>
			<path class="st7" d="M108.4,150.2h-1.8l-1.2-4.5h1.3l0.7,3.4h0.1l0.8-3.4h1.2L108.4,150.2z"/>
			<path class="st7" d="M112.2,145.6c1.3,0,1.7,0.6,1.7,1.9v0.7h-2.5c0,0.8,0.3,1.1,1.1,1.1c0.5,0,0.9-0.1,1.2-0.1l-0.1,0.8
				c-0.4,0.1-0.8,0.3-1.5,0.3c-1.4,0-1.9-0.7-1.9-2.2C110.1,146.3,110.8,145.6,112.2,145.6z M111.4,147.4h1.3v-0.1
				c0-0.6-0.1-0.8-0.6-0.8C111.6,146.5,111.4,146.7,111.4,147.4z"/>
			<path class="st7" d="M117.3,150.2v-2.8c0-0.3,0-0.5-0.2-0.6c-0.1-0.1-0.3-0.1-0.5-0.1c-0.3,0-0.5,0-0.7,0.1v3.5h-1.2v-4.5h0.9
				l0.2,0.6h0.1c0,0,0.4-0.5,0.5-0.5c0.1-0.1,0.5-0.2,0.9-0.2c0.4,0,0.7,0.1,0.9,0.3c0.2,0.2,0.3,0.6,0.3,1.1v3.1H117.3z"/>
			<path class="st7" d="M122.2,143.8h1.2v6.4h-1l-0.2-0.6h-0.1c-0.1,0.2-0.4,0.5-0.5,0.5c-0.1,0.1-0.4,0.1-0.8,0.1
				c-0.4,0-0.7-0.1-1-0.4c-0.3-0.3-0.4-0.8-0.4-1.8c0-1,0.3-1.7,0.7-2.1c0.3-0.3,0.8-0.4,1.2-0.4c0.4,0,0.6,0.1,0.8,0.1V143.8z
				M121,149.1c0.1,0.1,0.4,0.2,0.6,0.2c0.3,0,0.5,0,0.7-0.1v-2.6c-0.1,0-0.3,0-0.6,0c-0.3,0-0.5,0.1-0.6,0.2
				c-0.2,0.2-0.3,0.5-0.3,1.2C120.7,148.6,120.8,149,121,149.1z"/>
			<path class="st7" d="M127.4,150.2l-0.2-0.6h-0.1l-0.5,0.5c-0.2,0.1-0.5,0.1-0.9,0.1c-0.4,0-0.7-0.1-0.9-0.3
				c-0.2-0.2-0.3-0.6-0.3-1.1v-3.1h1.2v2.8c0,0.3,0,0.5,0.2,0.6c0.1,0.1,0.3,0.2,0.5,0.2c0.3,0,0.5,0,0.7-0.1v-3.5h1.2v4.5H127.4z"/>
			<path class="st7" d="M130.6,150.3c-0.5,0-1-0.1-1.3-0.2v-0.8c0.2,0,0.7,0.1,1.1,0.1c0.6,0,0.7-0.1,0.7-0.4c0-0.2,0-0.2-0.1-0.3
				c-0.1-0.1-0.3-0.2-0.6-0.3c-0.4-0.2-0.7-0.3-0.9-0.6c-0.1-0.2-0.2-0.4-0.2-0.8c0-0.9,0.5-1.4,1.6-1.4c0.5,0,0.9,0.1,1.1,0.1v0.9
				c-0.2,0-0.6-0.1-1-0.1c-0.5,0-0.7,0.1-0.7,0.4c0,0.1,0,0.2,0.1,0.3c0.1,0.1,0.2,0.2,0.6,0.3c0.4,0.2,0.8,0.3,0.9,0.5
				c0.1,0.2,0.2,0.4,0.2,0.8C132.2,149.8,131.7,150.3,130.6,150.3z"/>
			<path class="st7" d="M136.7,145.6c1.3,0,1.7,0.6,1.7,1.9v0.7h-2.5c0,0.8,0.3,1.1,1.1,1.1c0.5,0,0.9-0.1,1.2-0.1l-0.1,0.8
				c-0.4,0.1-0.8,0.3-1.5,0.3c-1.4,0-1.9-0.7-1.9-2.2C134.7,146.3,135.3,145.6,136.7,145.6z M135.9,147.4h1.3v-0.1
				c0-0.6-0.1-0.8-0.6-0.8C136.1,146.5,135.9,146.7,135.9,147.4z"/>
			<path class="st7" d="M141.9,150.2v-2.8c0-0.3,0-0.5-0.2-0.6c-0.1-0.1-0.3-0.1-0.5-0.1c-0.3,0-0.5,0-0.7,0.1v3.5h-1.2v-4.5h0.9
				l0.2,0.6h0.1c0,0,0.4-0.5,0.5-0.5c0.1-0.1,0.5-0.2,0.9-0.2c0.4,0,0.7,0.1,0.9,0.3c0.2,0.2,0.3,0.6,0.3,1.1v3.1H141.9z"/>
			<path class="st7" d="M148.9,149.9c-0.3,0.3-0.8,0.4-1.6,0.4c-0.6,0-1.2-0.1-1.5-0.2v-0.9c0.3,0,0.9,0.1,1.4,0.1
				c0.4,0,0.7,0,0.8-0.2c0.1-0.1,0.2-0.3,0.2-0.5c0-0.2-0.1-0.4-0.2-0.5c-0.4-0.3-1.5-0.7-1.9-1.2c-0.2-0.3-0.3-0.6-0.3-1.1
				c0-0.6,0.2-1.1,0.5-1.3c0.3-0.3,0.7-0.4,1.6-0.4c0.5,0,1,0.1,1.4,0.2v1c-0.3,0-0.7-0.1-1.2-0.1c-0.4,0-0.7,0.1-0.8,0.2
				c-0.1,0.1-0.1,0.3-0.1,0.5c0,0.2,0,0.4,0.1,0.5c0.3,0.3,1.6,0.8,2,1.3c0.2,0.2,0.2,0.5,0.2,1.1
				C149.4,149.2,149.2,149.6,148.9,149.9z"/>
			<path class="st7" d="M153.2,150.2l-0.2-0.6h-0.1l-0.5,0.5c-0.2,0.1-0.5,0.1-0.9,0.1c-0.4,0-0.7-0.1-0.9-0.3
				c-0.2-0.2-0.3-0.6-0.3-1.1v-3.1h1.2v2.8c0,0.3,0,0.5,0.2,0.6c0.1,0.1,0.3,0.2,0.5,0.2c0.3,0,0.5,0,0.7-0.1v-3.5h1.2v4.5H153.2z"/>
			<path class="st7" d="M156.4,144.8c-0.1,0.1-0.3,0.1-0.5,0.1c-0.3,0-0.4,0-0.5-0.1c-0.1-0.1-0.1-0.3-0.1-0.5c0-0.3,0.1-0.4,0.2-0.5
				c0.1,0,0.2-0.1,0.5-0.1c0.2,0,0.4,0,0.5,0.1c0.1,0.1,0.2,0.3,0.2,0.5C156.6,144.5,156.5,144.7,156.4,144.8z M155.3,150.2v-4.5h1.2
				v4.5H155.3z"/>
			<path class="st7" d="M158.7,150.3c-0.5,0-1-0.1-1.3-0.2v-0.8c0.2,0,0.7,0.1,1.1,0.1c0.6,0,0.7-0.1,0.7-0.4c0-0.2,0-0.2-0.1-0.3
				c-0.1-0.1-0.3-0.2-0.6-0.3c-0.4-0.2-0.7-0.3-0.9-0.6c-0.1-0.2-0.2-0.4-0.2-0.8c0-0.9,0.5-1.4,1.6-1.4c0.5,0,0.9,0.1,1.1,0.1v0.9
				c-0.2,0-0.6-0.1-1-0.1c-0.5,0-0.7,0.1-0.7,0.4c0,0.1,0,0.2,0.1,0.3c0.1,0.1,0.2,0.2,0.6,0.3c0.4,0.2,0.8,0.3,0.9,0.5
				c0.1,0.2,0.2,0.4,0.2,0.8C160.3,149.8,159.9,150.3,158.7,150.3z"/>
			<path class="st7" d="M162.2,150.3c-0.5,0-1-0.1-1.3-0.2v-0.8c0.2,0,0.7,0.1,1.1,0.1c0.6,0,0.7-0.1,0.7-0.4c0-0.2,0-0.2-0.1-0.3
				c-0.1-0.1-0.3-0.2-0.6-0.3c-0.4-0.2-0.7-0.3-0.9-0.6c-0.1-0.2-0.2-0.4-0.2-0.8c0-0.9,0.5-1.4,1.6-1.4c0.5,0,0.9,0.1,1.1,0.1v0.9
				c-0.2,0-0.6-0.1-1-0.1c-0.5,0-0.7,0.1-0.7,0.4c0,0.1,0,0.2,0.1,0.3c0.1,0.1,0.2,0.2,0.6,0.3c0.4,0.2,0.8,0.3,0.9,0.5
				c0.1,0.2,0.2,0.4,0.2,0.8C163.9,149.8,163.4,150.3,162.2,150.3z"/>
			<path class="st7" d="M166.6,145.6c1.3,0,1.7,0.6,1.7,1.9v0.7h-2.5c0,0.8,0.3,1.1,1.1,1.1c0.5,0,0.9-0.1,1.2-0.1L168,150
				c-0.4,0.1-0.8,0.3-1.5,0.3c-1.4,0-1.9-0.7-1.9-2.2C164.6,146.3,165.2,145.6,166.6,145.6z M165.8,147.4h1.3v-0.1
				c0-0.6-0.1-0.8-0.6-0.8C166,146.5,165.8,146.7,165.8,147.4z"/>
			<path class="st7" d="M125.5,155.2c1.3,0,1.7,0.6,1.7,1.9v0.7h-2.5c0,0.8,0.3,1.1,1.1,1.1c0.5,0,0.9-0.1,1.2-0.1l-0.1,0.8
				c-0.4,0.1-0.8,0.3-1.5,0.3c-1.4,0-1.9-0.7-1.9-2.2C123.4,155.9,124.1,155.2,125.5,155.2z M124.6,157h1.3v-0.1
				c0-0.6-0.1-0.8-0.6-0.8C124.9,156.1,124.7,156.3,124.6,157z"/>
			<path class="st7" d="M130.6,159.8V157c0-0.3,0-0.5-0.2-0.6c-0.1-0.1-0.3-0.1-0.5-0.1c-0.3,0-0.5,0-0.7,0.1v3.5h-1.2v-4.5h0.9
				l0.2,0.6h0.1c0,0,0.4-0.5,0.5-0.5c0.1-0.1,0.5-0.2,0.9-0.2c0.4,0,0.7,0.1,0.9,0.3c0.2,0.2,0.3,0.6,0.3,1.1v3.1H130.6z"/>
			<path class="st7" d="M138.2,159.8h-3.6v-0.7c0.1-1,0.4-1.4,1.5-2.2c0.6-0.4,0.8-0.6,0.9-0.8c0.1-0.2,0.1-0.4,0.1-0.6
				c0-0.6-0.2-0.8-0.9-0.8c-0.5,0-1,0.1-1.3,0.2V154c0.4-0.1,1-0.3,1.7-0.3c1.3,0,1.8,0.4,1.8,1.6c0,0.6-0.1,1-0.3,1.3
				c-0.2,0.3-0.5,0.6-1.2,1c-0.8,0.5-1,0.8-1,1h2.7L138.2,159.8z"/>
			<path class="st7" d="M142.7,154.4c0.3,0.4,0.4,1.1,0.4,2.4c0,1.2-0.2,2.1-0.6,2.6c-0.3,0.4-0.9,0.6-1.5,0.6
				c-0.8,0-1.2-0.2-1.5-0.6c-0.3-0.4-0.5-1.1-0.5-2.4c0-1.3,0.3-2.1,0.6-2.6c0.3-0.4,0.8-0.6,1.5-0.6
				C142,153.7,142.4,154,142.7,154.4z M141.7,158.6c0.1-0.2,0.3-0.9,0.3-1.8c0-1-0.1-1.5-0.2-1.8c-0.1-0.2-0.3-0.3-0.6-0.3
				c-0.3,0-0.5,0.1-0.6,0.3c-0.2,0.2-0.3,0.9-0.3,1.8c0,1,0.1,1.5,0.2,1.8c0.1,0.2,0.4,0.3,0.6,0.3
				C141.4,158.9,141.6,158.8,141.7,158.6z"/>
			<path class="st7" d="M144.1,159.8v-0.9h1.2v-4l-1.2,0.3v-0.9l2.4-0.5v5.2h1.1v0.9H144.1z"/>
			<path class="st7" d="M149.6,156.7L149.6,156.7l0.5-0.5c0.2-0.1,0.5-0.2,0.9-0.2c1,0,1.4,0.6,1.4,1.7c0,1.3-0.6,2-1.9,2
				c-1.4,0-2-0.9-2-2.8c0-1.1,0.2-1.9,0.7-2.5c0.5-0.5,1.2-0.9,2.6-0.9l0.3,1c-1.3,0-1.7,0.3-2,0.6
				C149.8,155.6,149.7,156.1,149.6,156.7z M150.4,157c-0.3,0-0.6,0.1-0.8,0.1c0,1.3,0.3,1.8,0.8,1.8c0.5,0,0.7-0.3,0.7-0.9
				C151.2,157.3,151,157,150.4,157z"/>
		</g>
	</g>
	<g id="autre_x5F_leg">
		<g>
			<path class="st8" d="M166.4,46.2h-1.3l-0.2-2h-1.1l-0.2,2h-1.3l1.2-9.8h1.7L166.4,46.2z M163.9,43h0.8c-0.2-1.6-0.3-3.4-0.4-5
				C164.2,39.6,164.1,41.4,163.9,43z"/>
			<path class="st8" d="M170.7,39.2v7H170l-0.3-0.4c-0.2,0.3-0.6,0.5-1.1,0.5c-1,0-1.4-0.5-1.4-1.6v-5.5h1.2v5.5
				c0,0.3,0.1,0.5,0.5,0.5c0.3,0,0.4-0.2,0.4-0.5v-5.5H170.7z"/>
			<path class="st8" d="M171.5,39.2h0.7v-1.8l1.2-0.3v2.1h1v1.1h-1v4.4c0,0.4,0.1,0.6,0.5,0.6c0.2,0,0.3,0,0.5-0.1v1.1
				c-0.1,0.1-0.4,0.1-0.6,0.1c-1.3,0-1.6-0.6-1.6-1.6v-4.4h-0.7V39.2z"/>
			<path class="st8" d="M177.7,40.3c-0.1,0-0.2,0-0.2,0c-0.6,0-0.8,0.4-0.8,0.9v5h-1.2v-7h0.8l0.2,0.4c0.3-0.4,0.6-0.6,1.2-0.6V40.3z
				"/>
			<path class="st8" d="M181.9,43.8v0.9c0,1-0.3,1.7-1.7,1.7c-1.3,0-1.7-0.7-1.7-1.7v-4c0-1,0.4-1.7,1.7-1.7c1.3,0,1.7,0.7,1.7,1.7
				v2.1h-2.1v1.9c0,0.4,0.2,0.5,0.5,0.5c0.3,0,0.4-0.2,0.4-0.5v-0.9H181.9z M180.7,40.7c0-0.4-0.2-0.6-0.4-0.6
				c-0.3,0-0.5,0.2-0.5,0.6v1.2h0.9V40.7z"/>
			<path class="st8" d="M182.9,40.7c0-1,0.4-1.6,1.6-1.6c1.3,0,1.7,0.6,1.7,1.6v0.7H185v-0.7c0-0.4-0.2-0.6-0.4-0.6s-0.4,0.2-0.4,0.5
				v0.3c0,1.5,2.1,1.1,2.1,3.2v0.6c0,1-0.4,1.6-1.7,1.6s-1.6-0.6-1.6-1.6v-0.9h1.2v0.9c0,0.4,0.2,0.5,0.4,0.5c0.3,0,0.4-0.1,0.4-0.5
				v-0.5c0-1.6-2.1-1.1-2.1-3.3V40.7z"/>
			<path class="st8" d="M191.1,46.6c-0.8-1.7-1.3-3.4-1.3-5.3c0-1.9,0.5-3.6,1.3-5.3h0.9c-0.7,1.8-1.2,3.5-1.2,5.3
				c0,1.8,0.4,3.5,1.2,5.3H191.1z"/>
			<path class="st8" d="M195.6,40.3c-0.1,0-0.2,0-0.2,0c-0.6,0-0.8,0.4-0.8,0.9v5h-1.2v-7h0.8l0.2,0.4c0.3-0.4,0.6-0.6,1.2-0.6V40.3z
				"/>
			<path class="st8" d="M196.4,44.7v-4c0-1,0.4-1.6,1.7-1.6s1.7,0.7,1.7,1.6v4c0,1-0.4,1.6-1.7,1.6C196.8,46.4,196.4,45.7,196.4,44.7
				z M198.6,44.7v-4c0-0.4-0.2-0.6-0.4-0.6s-0.5,0.2-0.5,0.6v4c0,0.4,0.2,0.5,0.5,0.5S198.6,45.1,198.6,44.7z"/>
			<path class="st8" d="M203.6,46.2l-0.3-0.4c-0.2,0.3-0.6,0.5-1.1,0.5c-1,0-1.3-0.5-1.3-1.6v-4c0-1.1,0.3-1.6,1.3-1.6
				c0.3,0,0.6,0.1,0.8,0.4v-3.2h1.2v9.9H203.6z M203.1,40.7c0-0.3-0.1-0.5-0.5-0.5s-0.4,0.2-0.4,0.6v4c0,0.3,0.1,0.5,0.4,0.5
				c0.3,0,0.5-0.2,0.5-0.5V40.7z"/>
			<path class="st8" d="M208.8,43.8v0.9c0,1-0.3,1.7-1.7,1.7c-1.3,0-1.7-0.7-1.7-1.7v-4c0-1,0.4-1.7,1.7-1.7c1.3,0,1.7,0.7,1.7,1.7
				v2.1h-2.1v1.9c0,0.4,0.2,0.5,0.5,0.5c0.3,0,0.4-0.2,0.4-0.5v-0.9H208.8z M207.6,40.7c0-0.4-0.2-0.6-0.4-0.6
				c-0.3,0-0.5,0.2-0.5,0.6v1.2h0.9V40.7z"/>
			<path class="st8" d="M210,46.2v-7h0.7l0.3,0.4c0.2-0.3,0.6-0.5,1.1-0.5c1,0,1.3,0.5,1.3,1.6v5.5h-1.2v-5.5c0-0.3-0.1-0.6-0.4-0.6
				c-0.3,0-0.5,0.2-0.5,0.6v5.5H210z"/>
			<path class="st8" d="M214.2,39.2h0.7v-1.8l1.2-0.3v2.1h1v1.1h-1v4.4c0,0.4,0.1,0.6,0.5,0.6c0.2,0,0.3,0,0.5-0.1v1.1
				c-0.1,0.1-0.4,0.1-0.6,0.1c-1.3,0-1.6-0.6-1.6-1.6v-4.4h-0.7V39.2z"/>
			<path class="st8" d="M219.4,36.9v1.4h-1.2v-1.4H219.4z M219.4,39.2v7h-1.2v-7H219.4z"/>
			<path class="st8" d="M223.9,43.7v1c0,1-0.3,1.6-1.7,1.6c-1.3,0-1.7-0.7-1.7-1.6v-4c0-1,0.4-1.6,1.7-1.6c1.3,0,1.7,0.7,1.7,1.6v0.8
				h-1.2v-0.9c0-0.4-0.2-0.6-0.4-0.6c-0.3,0-0.5,0.2-0.5,0.6v4c0,0.4,0.2,0.5,0.5,0.5c0.3,0,0.4-0.2,0.4-0.5v-1H223.9z"/>
			<path class="st8" d="M226.3,36.9v1.4h-1.2v-1.4H226.3z M226.3,39.2v7h-1.2v-7H226.3z"/>
			<path class="st8" d="M230.2,46.2l-0.3-0.4c-0.2,0.3-0.6,0.5-1.1,0.5c-1,0-1.3-0.5-1.3-1.6v-4c0-1.1,0.3-1.6,1.3-1.6
				c0.3,0,0.6,0.1,0.8,0.4v-3.2h1.2v9.9H230.2z M229.7,40.7c0-0.3-0.1-0.5-0.5-0.5s-0.4,0.2-0.4,0.6v4c0,0.3,0.1,0.5,0.4,0.5
				c0.3,0,0.5-0.2,0.5-0.5V40.7z"/>
			<path class="st8" d="M235.4,43.8v0.9c0,1-0.3,1.7-1.7,1.7c-1.3,0-1.7-0.7-1.7-1.7v-4c0-1,0.4-1.7,1.7-1.7c1.3,0,1.7,0.7,1.7,1.7
				v2.1h-2.1v1.9c0,0.4,0.2,0.5,0.5,0.5c0.3,0,0.4-0.2,0.4-0.5v-0.9H235.4z M234.2,40.7c0-0.4-0.2-0.6-0.4-0.6
				c-0.3,0-0.5,0.2-0.5,0.6v1.2h0.9V40.7z"/>
			<path class="st8" d="M236.5,40.7c0-1,0.4-1.6,1.6-1.6c1.3,0,1.7,0.6,1.7,1.6v0.7h-1.2v-0.7c0-0.4-0.2-0.6-0.4-0.6
				c-0.3,0-0.4,0.2-0.4,0.5v0.3c0,1.5,2.1,1.1,2.1,3.2v0.6c0,1-0.4,1.6-1.7,1.6c-1.3,0-1.6-0.6-1.6-1.6v-0.9h1.2v0.9
				c0,0.4,0.2,0.5,0.4,0.5c0.3,0,0.4-0.1,0.4-0.5v-0.5c0-1.6-2.1-1.1-2.1-3.3V40.7z"/>
			<path class="st8" d="M242.3,44.8l-0.6,2.6H241v-2.6H242.3z"/>
			<path class="st8" d="M249.2,43.8v0.9c0,1-0.3,1.7-1.7,1.7c-1.3,0-1.7-0.7-1.7-1.7v-4c0-1,0.4-1.7,1.7-1.7c1.3,0,1.7,0.7,1.7,1.7
				v2.1h-2.1v1.9c0,0.4,0.2,0.5,0.5,0.5c0.3,0,0.4-0.2,0.4-0.5v-0.9H249.2z M248,40.7c0-0.4-0.2-0.6-0.4-0.6c-0.3,0-0.5,0.2-0.5,0.6
				v1.2h0.9V40.7z"/>
			<path class="st8" d="M250,39.2h0.7v-1.8l1.2-0.3v2.1h1v1.1h-1v4.4c0,0.4,0.1,0.6,0.5,0.6c0.2,0,0.3,0,0.5-0.1v1.1
				c-0.1,0.1-0.4,0.1-0.6,0.1c-1.3,0-1.6-0.6-1.6-1.6v-4.4H250V39.2z"/>
			<path class="st8" d="M257.2,43.7v1c0,1-0.3,1.6-1.7,1.6c-1.3,0-1.7-0.7-1.7-1.6v-4c0-1,0.4-1.6,1.7-1.6c1.3,0,1.7,0.7,1.7,1.6v0.8
				H256v-0.9c0-0.4-0.2-0.6-0.4-0.6c-0.3,0-0.5,0.2-0.5,0.6v4c0,0.4,0.2,0.5,0.5,0.5c0.3,0,0.4-0.2,0.4-0.5v-1H257.2z"/>
			<path class="st8" d="M259.7,44.8v1.4h-1.3v-1.4H259.7z"/>
			<path class="st8" d="M261.1,46.6c0.8-1.8,1.2-3.6,1.2-5.3c0-1.8-0.4-3.6-1.2-5.3h0.9c0.8,1.7,1.3,3.4,1.3,5.3
				c0,1.9-0.5,3.6-1.3,5.3H261.1z"/>
			<path class="st7" d="M192.7,52v2.8c0.2-0.1,0.6-0.2,0.9-0.2c1.3,0,1.7,0.7,1.7,1.9v2.7c0,1.3-0.6,2.2-2.3,2.2
				c-1.6,0-2.3-0.9-2.3-2.2V52c0-1.3,0.6-2.1,2.3-2.1c1.6,0,2.3,0.9,2.3,2.1v1.2h-2V52c0-0.3-0.2-0.4-0.3-0.4
				C192.9,51.6,192.7,51.7,192.7,52z M192.7,59.2c0,0.2,0.1,0.4,0.3,0.4c0.2,0,0.3-0.1,0.3-0.4v-2.6c0-0.2-0.1-0.4-0.3-0.4
				c-0.2,0-0.3,0.1-0.3,0.4V59.2z"/>
			<path class="st7" d="M196.6,59.2v-2.4c0-0.6,0.3-1,0.7-1.3c-0.4-0.3-0.6-0.7-0.6-1.3V52c0-1.2,0.5-2.1,2.3-2.1
				c1.8,0,2.3,0.9,2.3,2.1v2.3c0,0.6-0.2,1-0.6,1.3c0.4,0.3,0.7,0.7,0.7,1.3v2.4c0,1.2-0.5,2.1-2.3,2.1
				C197.1,61.4,196.6,60.5,196.6,59.2z M198.6,54.4c0,0.2,0.1,0.4,0.3,0.4c0.2,0,0.3-0.1,0.3-0.4V52c0-0.2-0.1-0.4-0.3-0.4
				c-0.2,0-0.3,0.1-0.3,0.4V54.4z M198.6,59.2c0,0.2,0.1,0.4,0.3,0.4c0.2,0,0.3-0.1,0.3-0.4v-2.6c0-0.2-0.1-0.4-0.3-0.4
				c-0.2,0-0.3,0.1-0.3,0.4V59.2z"/>
			<path class="st7" d="M204.4,59.2l-0.8,3.5h-1.2v-3.5H204.4z"/>
			<path class="st7" d="M208.2,59.4h1v1.9h-3.9v-1.9h1v-6.9h-1v-1.4c0.8,0,1.3-0.5,1.3-1h1.7V59.4z"/>
			<path class="st7" d="M212,54.7h0.6v-1.7l1.1-0.3v2h0.9v1h-0.9v4.1c0,0.4,0.1,0.5,0.4,0.5c0.2,0,0.3,0,0.5-0.1v1
				c-0.1,0.1-0.4,0.1-0.6,0.1c-1.2,0-1.5-0.6-1.5-1.5v-4.1H212V54.7z"/>
			<path class="st7" d="M215.6,59.8v-3.7c0-0.9,0.4-1.5,1.6-1.5s1.6,0.6,1.6,1.5v3.7c0,0.9-0.3,1.5-1.6,1.5
				C215.9,61.3,215.6,60.7,215.6,59.8z M217.6,59.8v-3.8c0-0.4-0.2-0.5-0.4-0.5c-0.3,0-0.4,0.1-0.4,0.5v3.8c0,0.4,0.2,0.5,0.4,0.5
				C217.4,60.4,217.6,60.2,217.6,59.8z"/>
			<path class="st7" d="M219.8,61.2v-6.5h0.7l0.2,0.3c0.2-0.3,0.5-0.5,1-0.5c0.9,0,1.2,0.5,1.2,1.5v5.1h-1.1v-5.1
				c0-0.3-0.1-0.5-0.4-0.5c-0.3,0-0.4,0.2-0.4,0.5v5.1H219.8z"/>
			<path class="st7" d="M224.1,61.2v-6.5h0.7l0.2,0.3c0.2-0.3,0.5-0.5,1-0.5c0.9,0,1.2,0.5,1.2,1.5v5.1h-1.1v-5.1
				c0-0.3-0.1-0.5-0.4-0.5c-0.3,0-0.4,0.2-0.4,0.5v5.1H224.1z"/>
			<path class="st7" d="M231.5,59v0.8c0,0.9-0.3,1.5-1.5,1.5c-1.2,0-1.6-0.6-1.6-1.5v-3.7c0-0.9,0.4-1.5,1.6-1.5
				c1.2,0,1.5,0.6,1.5,1.5v2h-2v1.7c0,0.4,0.2,0.5,0.4,0.5c0.2,0,0.4-0.1,0.4-0.5V59H231.5z M230.3,56.1c0-0.4-0.2-0.5-0.4-0.5
				c-0.3,0-0.4,0.2-0.4,0.5v1.2h0.8V56.1z"/>
			<path class="st7" d="M232.4,56.1c0-0.9,0.4-1.5,1.5-1.5c1.2,0,1.5,0.6,1.5,1.5v0.7h-1.1v-0.7c0-0.3-0.2-0.5-0.4-0.5
				s-0.4,0.1-0.4,0.5v0.2c0,1.4,1.9,1.1,1.9,3v0.5c0,0.9-0.4,1.5-1.5,1.5s-1.5-0.6-1.5-1.5V59h1.1v0.8c0,0.4,0.2,0.5,0.4,0.5
				c0.3,0,0.4-0.1,0.4-0.5v-0.5c0-1.4-1.9-1-1.9-3V56.1z"/>
		</g>
		<path class="st9" d="M201.1,33h-1.3c-3.2,0-5.9-2.6-5.9-5.9v-3.4c0-5.8,4.7-10.5,10.5-10.5h12.9c0.5,0,0.9,0.4,0.9,0.9
			c0,0.5-0.4,0.9-0.9,0.9h-12.9c-4.8,0-8.7,3.9-8.7,8.7v3.4c0,2.3,1.9,4.1,4.1,4.1h1.3c0.5,0,0.9,0.4,0.9,0.9
			C202,32.6,201.6,33,201.1,33z"/>
		<path class="st10" d="M229.6,24.8c-0.1,0.4-0.3,0.7-0.6,0.8c-0.7,0.5-1.7,0.2-2-0.6c-0.1-0.3-0.2-0.6-0.1-1
			c0.1-0.2,0.2-0.5,0.4-0.8c0.7-1.2,2.5-0.6,2.4,0.7C229.7,24.3,229.7,24.6,229.6,24.8z"/>
		<path class="st10" d="M232.1,31.1L232.1,31.1c0,1.1-0.8,1.9-1.8,1.9H200c-1.7,0-3.1-1.6-2.7-3.3c1.3-7,7-11.8,14.8-11.8
			c8.9,0,13.2,6.8,13.2,6.8h0.3c1.9,0,3.7,1,4.7,2.6l0.9,1.4l0.5,0.8C232,29.9,232.1,30.5,232.1,31.1z"/>
		<path class="st11" d="M199.3,29.7c1.3-6.7,6.5-11.4,13.7-11.8c-0.3,0-0.6,0-1,0c-7.8,0-13.4,4.8-14.8,11.8c-0.3,1.7,1,3.3,2.7,3.3
			h2C200.3,33,199,31.4,199.3,29.7z"/>
		<path class="st9" d="M232.1,31.1L232.1,31.1c0,1.1-0.8,1.9-1.8,1.9h-0.9c-0.5-2.4,0.8-3.7,1.7-4.4l0.5,0.8
			C232,29.9,232.1,30.5,232.1,31.1z"/>
		<path class="st11" d="M212.5,30.9V33h-2v-2.1c0-1.9-1.2-3.5-2.9-4.1l0,0c-0.2-0.1-0.1-0.4,0.1-0.4l1.2,0.2c2,0.4,3.5,2.1,3.6,4.1
			C212.5,30.8,212.5,30.9,212.5,30.9z"/>
		<path class="st11" d="M226.7,33h-2.2c0-1.6-1-2.9-2.4-3.5l-0.5-0.2c-0.2-0.1-0.1-0.3,0.1-0.3l2.6,0.5c0.7,0.3,1.3,0.7,1.8,1.3
			C226.4,31.5,226.7,32.2,226.7,33z"/>
		<path class="st11" d="M227.4,27.3c0.3,0,0.5,0.2,0.5,0.6c0,0.3-0.2,0.6-0.5,0.6c-0.3,0-0.6-0.2-0.6-0.6
			C226.9,27.5,227.1,27.3,227.4,27.3z"/>
		<path class="st9" d="M212.5,32.5v0.2c0,0.2-0.1,0.3-0.3,0.3h-5.5c-0.2,0-0.3-0.1-0.3-0.3v-0.2c0-1,0.8-1.9,1.9-1.9h2.4
			C211.6,30.6,212.5,31.4,212.5,32.5z"/>
		<path class="st9" d="M226.3,32.5v0.2c0,0.2-0.1,0.3-0.3,0.3h-5.5c-0.2,0-0.3-0.1-0.3-0.3v-0.2c0-1,0.8-1.9,1.9-1.9h2.4
			C225.4,30.6,226.3,31.4,226.3,32.5z"/>
		<path class="st10" d="M227.4,23.8c0.1,0.5,0,0.8-0.2,1.2c-0.4,0.9-1.6,1.1-2.3,0.5c-0.3-0.2-0.5-0.6-0.6-1c-0.1-0.3-0.1-0.6-0.1-1
			c0.1-1.5,2.1-1.9,2.8-0.6C227.2,23.3,227.4,23.6,227.4,23.8z"/>
		<path class="st9" d="M226.9,24.1c0.1,0.3,0,0.5-0.1,0.7c-0.3,0.6-1,0.7-1.5,0.3c-0.2-0.2-0.3-0.4-0.4-0.6c0-0.2,0-0.4,0-0.6
			c0.1-1,1.4-1.2,1.8-0.4C226.8,23.7,226.9,23.9,226.9,24.1z"/>
		<path class="st12" d="M209.2,32.1V33H208v-0.9c0-0.3,0.3-0.6,0.6-0.6C208.9,31.5,209.2,31.7,209.2,32.1z"/>
		<path class="st12" d="M210.9,32.1V33h-1.2v-0.9c0-0.3,0.3-0.6,0.6-0.6C210.6,31.5,210.9,31.7,210.9,32.1z"/>
		<path class="st12" d="M221.8,33v-0.9c0-0.3,0.3-0.6,0.6-0.6c0.3,0,0.6,0.3,0.6,0.6V33H221.8z"/>
		<path class="st12" d="M224.7,32.1V33h-1.2v-0.9c0-0.3,0.3-0.6,0.6-0.6C224.4,31.5,224.7,31.7,224.7,32.1z"/>
		<g>
			<path class="st13" d="M231.6,29.4l-0.5-0.8l-0.9-1.4c-0.4-0.6-0.9-1.1-1.4-1.5c0.1,0,0.1-0.1,0.2-0.1c0.3-0.2,0.5-0.5,0.6-0.8
				c0.1-0.2,0.1-0.5,0.1-0.8c0-1.4-1.7-1.9-2.4-0.7c0,0,0,0,0,0.1c0-0.1-0.1-0.2-0.2-0.4c-0.7-1.3-2.7-1-2.8,0.5
				c-1.6-1.9-5.4-5.2-11.3-5.5c0,0,0,0,0,0c0,0,0,0,0,0c-0.3,0-0.6,0-0.9,0c-7.8,0-13.4,4.8-14.8,11.8c0,0.2-0.1,0.4,0,0.6
				c0,0,0,0,0,0c-0.9-0.8-1.6-1.9-1.6-3.2v-3.4c0-4.8,3.9-8.7,8.7-8.7h12.9c0.5,0,0.9-0.4,0.9-0.9c0-0.5-0.4-0.9-0.9-0.9h-12.9
				c-5.8,0-10.5,4.7-10.5,10.5v3.4c0,3.3,2.6,5.9,5.9,5.9h0.2c0,0,0,0,0,0h2h4.6h1.3h1.2h0.5h0.9h0.3h1.3h0.3h7.9h1.3h1.2h0.5h1.1
				h0.2h1.3h0.7h2.7h0.9c1,0,1.8-0.8,1.8-1.8v0C232.1,30.5,232,29.9,231.6,29.4z"/>
		</g>
		<g>
			<g>
				<polyline class="st14" points="186.9,57.7 131.9,57.7 131.9,66.1 			"/>
				<g>
					<path class="st15" d="M128.1,65.9c0,2.1,1.7,3.8,3.8,3.8c2.1,0,3.8-1.7,3.8-3.8c0-2.1-1.7-3.8-3.8-3.8
						C129.8,62.1,128.1,63.8,128.1,65.9z"/>
				</g>
			</g>
		</g>
	</g>
	<g id="regulateur_x5F_leg">
		<g>
			<path class="st8" d="M25.3,36.4h2c1.3,0,1.7,0.7,1.7,1.7v2.3c0,0.8-0.2,1.4-0.9,1.6c0.5,1.4,0.9,2.8,1.4,4.2h-1.4
				c-0.4-1.4-0.8-2.8-1.2-4.1h-0.2v4.1h-1.3V36.4z M27.2,40.9c0.3,0,0.5-0.2,0.5-0.5v-2.2c0-0.3-0.1-0.5-0.5-0.5h-0.5v3.2H27.2z"/>
			<path class="st8" d="M33.5,43.8v0.9c0,1-0.3,1.7-1.7,1.7c-1.3,0-1.7-0.7-1.7-1.7v-4c0-1,0.4-1.7,1.7-1.7c1.3,0,1.7,0.7,1.7,1.7
				v2.1h-2.1v1.9c0,0.4,0.2,0.5,0.5,0.5c0.3,0,0.4-0.2,0.4-0.5v-0.9H33.5z M32.3,40.7c0-0.4-0.2-0.6-0.4-0.6c-0.3,0-0.5,0.2-0.5,0.6
				v1.2h0.9V40.7z M33,36.7l-0.8,1.8h-0.8l0.4-1.8H33z"/>
			<path class="st8" d="M35.8,45c0,0.2,0.1,0.4,0.5,0.4c1.4,0,1.9,0.6,1.9,1.6V47c0,0.9-0.5,1.6-1.8,1.6c-1.3,0-1.8-0.7-1.8-1.6V47
				c0-0.6,0.2-1.1,0.8-1.4c-0.2-0.1-0.4-0.3-0.4-0.6c0-0.2,0.1-0.4,0.4-0.6c-0.5-0.3-0.7-0.8-0.7-1.4v-2.3c0-1,0.4-1.7,1.7-1.7
				c0.3,0,0.5,0,0.7,0.1c0.2-0.5,0.5-0.8,1-0.8c0.2,0,0.3,0,0.4,0.1v0.9c-0.2-0.1-0.2-0.1-0.5-0.1c-0.2,0-0.3,0.1-0.4,0.2
				c0.4,0.3,0.5,0.8,0.5,1.3V43c0,1-0.4,1.6-1.7,1.6C36,44.7,35.8,44.8,35.8,45z M35.7,46.8L35.7,46.8c0,0.5,0.2,0.7,0.6,0.7
				c0.4,0,0.6-0.2,0.6-0.6v-0.1c0-0.4-0.2-0.6-0.6-0.6S35.7,46.4,35.7,46.8z M35.9,40.9V43c0,0.5,0.1,0.7,0.4,0.7
				c0.3,0,0.5-0.2,0.5-0.7v-2.1c0-0.5-0.1-0.7-0.5-0.7C35.9,40.1,35.9,40.4,35.9,40.9z"/>
			<path class="st8" d="M42.6,39.2v7h-0.7l-0.3-0.4c-0.2,0.3-0.6,0.5-1.1,0.5c-1,0-1.4-0.5-1.4-1.6v-5.5h1.2v5.5
				c0,0.3,0.1,0.5,0.5,0.5c0.3,0,0.4-0.2,0.4-0.5v-5.5H42.6z"/>
			<path class="st8" d="M45.1,36.3v9.9h-1.2v-9.9H45.1z"/>
			<path class="st8" d="M46.2,43.7c0-1,0.6-1.5,2.1-2.1v-1c0-0.4-0.1-0.5-0.4-0.5s-0.4,0.2-0.4,0.6v0.4h-1.2v-0.4
				c0-0.9,0.4-1.6,1.6-1.6c1.3,0,1.7,0.7,1.7,1.6v5.5h-0.7l-0.2-0.4c-0.2,0.3-0.5,0.5-1,0.5c-1,0-1.4-0.5-1.4-1.6V43.7z M48.3,42.6
				c-0.7,0.3-0.9,0.5-0.9,1.1v0.8c0,0.3,0,0.8,0.4,0.8c0.4,0,0.5-0.2,0.5-0.6V42.6z"/>
			<path class="st8" d="M50.3,39.2H51v-1.8l1.2-0.3v2.1h1v1.1h-1v4.4c0,0.4,0.1,0.6,0.5,0.6c0.2,0,0.3,0,0.5-0.1v1.1
				c-0.1,0.1-0.4,0.1-0.6,0.1c-1.3,0-1.6-0.6-1.6-1.6v-4.4h-0.7V39.2z"/>
			<path class="st8" d="M57.5,43.8v0.9c0,1-0.3,1.7-1.7,1.7c-1.3,0-1.7-0.7-1.7-1.7v-4c0-1,0.4-1.7,1.7-1.7c1.3,0,1.7,0.7,1.7,1.7
				v2.1h-2.1v1.9c0,0.4,0.2,0.5,0.5,0.5c0.3,0,0.4-0.2,0.4-0.5v-0.9H57.5z M56.3,40.7c0-0.4-0.2-0.6-0.4-0.6c-0.3,0-0.5,0.2-0.5,0.6
				v1.2h0.9V40.7z"/>
			<path class="st8" d="M62.1,39.2v7h-0.7l-0.3-0.4c-0.2,0.3-0.6,0.5-1.1,0.5c-1,0-1.4-0.5-1.4-1.6v-5.5H60v5.5
				c0,0.3,0.1,0.5,0.5,0.5c0.3,0,0.4-0.2,0.4-0.5v-5.5H62.1z"/>
			<path class="st8" d="M65.6,40.3c-0.1,0-0.2,0-0.2,0c-0.6,0-0.8,0.4-0.8,0.9v5h-1.2v-7h0.8l0.2,0.4c0.3-0.4,0.6-0.6,1.2-0.6V40.3z"
				/>
			<path class="st8" d="M66.4,40.7c0-1,0.4-1.6,1.6-1.6c1.3,0,1.7,0.6,1.7,1.6v0.7h-1.2v-0.7c0-0.4-0.2-0.6-0.4-0.6s-0.4,0.2-0.4,0.5
				v0.3c0,1.5,2.1,1.1,2.1,3.2v0.6c0,1-0.4,1.6-1.7,1.6s-1.6-0.6-1.6-1.6v-0.9h1.2v0.9c0,0.4,0.2,0.5,0.4,0.5c0.3,0,0.4-0.1,0.4-0.5
				v-0.5c0-1.6-2.1-1.1-2.1-3.3V40.7z"/>
			<path class="st8" d="M75.8,46.2l-0.3-0.4c-0.2,0.3-0.6,0.5-1.1,0.5c-1,0-1.3-0.5-1.3-1.6v-4c0-1.1,0.3-1.6,1.3-1.6
				c0.3,0,0.6,0.1,0.8,0.4v-3.2h1.2v9.9H75.8z M75.2,40.7c0-0.3-0.1-0.5-0.5-0.5s-0.4,0.2-0.4,0.6v4c0,0.3,0.1,0.5,0.4,0.5
				c0.3,0,0.5-0.2,0.5-0.5V40.7z"/>
			<path class="st8" d="M81,43.8v0.9c0,1-0.3,1.7-1.7,1.7c-1.3,0-1.7-0.7-1.7-1.7v-4c0-1,0.4-1.7,1.7-1.7c1.3,0,1.7,0.7,1.7,1.7v2.1
				h-2.1v1.9c0,0.4,0.2,0.5,0.5,0.5c0.3,0,0.4-0.2,0.4-0.5v-0.9H81z M79.8,40.7c0-0.4-0.2-0.6-0.4-0.6c-0.3,0-0.5,0.2-0.5,0.6v1.2
				h0.9V40.7z"/>
			<path class="st8" d="M87.8,43.7v1c0,1-0.3,1.6-1.7,1.6c-1.3,0-1.7-0.7-1.7-1.6v-4c0-1,0.4-1.6,1.7-1.6c1.3,0,1.7,0.7,1.7,1.6v0.8
				h-1.2v-0.9c0-0.4-0.2-0.6-0.4-0.6c-0.3,0-0.5,0.2-0.5,0.6v4c0,0.4,0.2,0.5,0.5,0.5c0.3,0,0.4-0.2,0.4-0.5v-1H87.8z"/>
			<path class="st8" d="M91.3,40.3c-0.1,0-0.2,0-0.2,0c-0.6,0-0.8,0.4-0.8,0.9v5H89v-7h0.8l0.2,0.4c0.3-0.4,0.6-0.6,1.2-0.6V40.3z"/>
			<path class="st8" d="M92.1,44.7v-4c0-1,0.4-1.6,1.7-1.6s1.7,0.7,1.7,1.6v4c0,1-0.4,1.6-1.7,1.6C92.5,46.4,92.1,45.7,92.1,44.7z
				M94.3,44.7v-4c0-0.4-0.2-0.6-0.4-0.6s-0.5,0.2-0.5,0.6v4c0,0.4,0.2,0.5,0.5,0.5S94.3,45.1,94.3,44.7z"/>
			<path class="st8" d="M97.9,36.9v1.4h-1.2v-1.4H97.9z M97.9,39.2v7h-1.2v-7H97.9z"/>
			<path class="st8" d="M99,40.7c0-1,0.4-1.6,1.6-1.6c1.3,0,1.7,0.6,1.7,1.6v0.7h-1.2v-0.7c0-0.4-0.2-0.6-0.4-0.6s-0.4,0.2-0.4,0.5
				v0.3c0,1.5,2.1,1.1,2.1,3.2v0.6c0,1-0.4,1.6-1.7,1.6S99,45.7,99,44.7v-0.9h1.2v0.9c0,0.4,0.2,0.5,0.4,0.5c0.3,0,0.4-0.1,0.4-0.5
				v-0.5c0-1.6-2.1-1.1-2.1-3.3V40.7z"/>
			<path class="st8" d="M103.3,40.7c0-1,0.4-1.6,1.6-1.6c1.3,0,1.7,0.6,1.7,1.6v0.7h-1.2v-0.7c0-0.4-0.2-0.6-0.4-0.6
				s-0.4,0.2-0.4,0.5v0.3c0,1.5,2.1,1.1,2.1,3.2v0.6c0,1-0.4,1.6-1.7,1.6s-1.6-0.6-1.6-1.6v-0.9h1.2v0.9c0,0.4,0.2,0.5,0.4,0.5
				c0.3,0,0.4-0.1,0.4-0.5v-0.5c0-1.6-2.1-1.1-2.1-3.3V40.7z"/>
			<path class="st8" d="M107.6,43.7c0-1,0.6-1.5,2.1-2.1v-1c0-0.4-0.1-0.5-0.4-0.5s-0.4,0.2-0.4,0.6v0.4h-1.2v-0.4
				c0-0.9,0.4-1.6,1.6-1.6c1.3,0,1.7,0.7,1.7,1.6v5.5h-0.7l-0.2-0.4c-0.2,0.3-0.5,0.5-1,0.5c-1,0-1.4-0.5-1.4-1.6V43.7z M109.7,42.6
				c-0.7,0.3-0.9,0.5-0.9,1.1v0.8c0,0.3,0,0.8,0.4,0.8c0.4,0,0.5-0.2,0.5-0.6V42.6z"/>
			<path class="st8" d="M112.1,46.2v-7h0.7l0.3,0.4c0.2-0.3,0.6-0.5,1.1-0.5c1,0,1.3,0.5,1.3,1.6v5.5h-1.2v-5.5
				c0-0.3-0.1-0.6-0.4-0.6c-0.3,0-0.5,0.2-0.5,0.6v5.5H112.1z"/>
			<path class="st8" d="M120,43.7v1c0,1-0.3,1.6-1.7,1.6c-1.3,0-1.7-0.7-1.7-1.6v-4c0-1,0.4-1.6,1.7-1.6c1.3,0,1.7,0.7,1.7,1.6v0.8
				h-1.2v-0.9c0-0.4-0.2-0.6-0.4-0.6c-0.3,0-0.5,0.2-0.5,0.6v4c0,0.4,0.2,0.5,0.5,0.5c0.3,0,0.4-0.2,0.4-0.5v-1H120z"/>
			<path class="st8" d="M124.5,43.8v0.9c0,1-0.3,1.7-1.7,1.7c-1.3,0-1.7-0.7-1.7-1.7v-4c0-1,0.4-1.7,1.7-1.7c1.3,0,1.7,0.7,1.7,1.7
				v2.1h-2.1v1.9c0,0.4,0.2,0.5,0.5,0.5c0.3,0,0.4-0.2,0.4-0.5v-0.9H124.5z M123.3,40.7c0-0.4-0.2-0.6-0.4-0.6
				c-0.3,0-0.5,0.2-0.5,0.6v1.2h0.9V40.7z"/>
			<path class="st7" d="M61.1,53.2c0,3.5-2.5,3.2-2.5,6.1v0.1h2.6v1.9h-4.5v-1.8c0-4,2.5-3.6,2.5-6.3V52c0-0.2-0.1-0.4-0.3-0.4
				c-0.2,0-0.3,0.1-0.3,0.4v1.2h-1.9V52c0-1.2,0.5-2.1,2.3-2.1c1.8,0,2.3,0.9,2.3,2.1V53.2z"/>
			<path class="st7" d="M64.1,52v2.8c0.2-0.1,0.6-0.2,0.9-0.2c1.3,0,1.7,0.7,1.7,1.9v2.7c0,1.3-0.6,2.2-2.3,2.2
				c-1.6,0-2.3-0.9-2.3-2.2V52c0-1.3,0.6-2.1,2.3-2.1c1.6,0,2.3,0.9,2.3,2.1v1.2h-2V52c0-0.3-0.2-0.4-0.3-0.4
				C64.3,51.6,64.1,51.7,64.1,52z M64.1,59.2c0,0.2,0.1,0.4,0.3,0.4c0.2,0,0.3-0.1,0.3-0.4v-2.6c0-0.2-0.1-0.4-0.3-0.4
				c-0.2,0-0.3,0.1-0.3,0.4V59.2z"/>
			<path class="st7" d="M69.7,54.7h0.6v-1.7l1.1-0.3v2h0.9v1h-0.9v4.1c0,0.4,0.1,0.5,0.4,0.5c0.2,0,0.3,0,0.5-0.1v1
				c-0.1,0.1-0.4,0.1-0.6,0.1c-1.2,0-1.5-0.6-1.5-1.5v-4.1h-0.6V54.7z"/>
			<path class="st7" d="M73.2,59.8v-3.7c0-0.9,0.4-1.5,1.6-1.5s1.6,0.6,1.6,1.5v3.7c0,0.9-0.3,1.5-1.6,1.5
				C73.6,61.3,73.2,60.7,73.2,59.8z M75.2,59.8v-3.8c0-0.4-0.2-0.5-0.4-0.5c-0.3,0-0.4,0.1-0.4,0.5v3.8c0,0.4,0.2,0.5,0.4,0.5
				C75.1,60.4,75.2,60.2,75.2,59.8z"/>
			<path class="st7" d="M77.5,61.2v-6.5h0.7l0.2,0.3c0.2-0.3,0.5-0.5,1-0.5c0.9,0,1.2,0.5,1.2,1.5v5.1h-1.1v-5.1
				c0-0.3-0.1-0.5-0.4-0.5c-0.3,0-0.4,0.2-0.4,0.5v5.1H77.5z"/>
			<path class="st7" d="M81.8,61.2v-6.5h0.7l0.2,0.3c0.2-0.3,0.5-0.5,1-0.5c0.9,0,1.2,0.5,1.2,1.5v5.1h-1.1v-5.1
				c0-0.3-0.1-0.5-0.4-0.5c-0.3,0-0.4,0.2-0.4,0.5v5.1H81.8z"/>
			<path class="st7" d="M89.1,59v0.8c0,0.9-0.3,1.5-1.5,1.5c-1.2,0-1.6-0.6-1.6-1.5v-3.7c0-0.9,0.4-1.5,1.6-1.5
				c1.2,0,1.5,0.6,1.5,1.5v2h-2v1.7c0,0.4,0.2,0.5,0.4,0.5c0.2,0,0.4-0.1,0.4-0.5V59H89.1z M88,56.1c0-0.4-0.2-0.5-0.4-0.5
				c-0.3,0-0.4,0.2-0.4,0.5v1.2H88V56.1z"/>
			<path class="st7" d="M90.1,56.1c0-0.9,0.4-1.5,1.5-1.5c1.2,0,1.5,0.6,1.5,1.5v0.7H92v-0.7c0-0.3-0.2-0.5-0.4-0.5
				c-0.3,0-0.4,0.1-0.4,0.5v0.2c0,1.4,1.9,1.1,1.9,3v0.5c0,0.9-0.4,1.5-1.5,1.5c-1.2,0-1.5-0.6-1.5-1.5V59h1.1v0.8
				c0,0.4,0.2,0.5,0.4,0.5c0.3,0,0.4-0.1,0.4-0.5v-0.5c0-1.4-1.9-1-1.9-3V56.1z"/>
		</g>
		<path class="st16" d="M88.3,26.3v3.7c0,1.7-4.8,3.1-10.7,3.1c-5.9,0-10.7-1.4-10.7-3.1v-3.7H88.3z"/>
		<path class="st17" d="M77.6,30.2c-5.9,0-10.7-1.7-10.7-3.9c0-2.2,4.8-3.9,10.7-3.9c5.9,0,10.7,1.7,10.7,3.9
			C88.3,28.4,83.5,30.2,77.6,30.2z"/>
		<path class="st18" d="M77.5,16.9c-0.3,0-0.7,0.1-1,0.1c-5.3,0-9.6-4.3-9.6-9.6c0-0.7,0.1-1.4,0.2-2.1c0.3,0,0.7-0.1,1-0.1
			c5.3,0,9.6,4.3,9.6,9.6C77.7,15.5,77.7,16.2,77.5,16.9L77.5,16.9z"/>
		<path class="st19" d="M77.5,16.9c0.2-0.7,0.2-1.4,0.2-2.1c0-1.2-0.2-2.4-0.6-3.4c-0.9,1.5-1.4,3.2-1.4,5c0,0.2,0,0.3,0,0.5
			c0.3,0,0.5,0,0.8,0C76.8,17,77.2,17,77.5,16.9z"/>
		<path class="st20" d="M87.8,5.3C87.9,6,88,6.7,88,7.4c0,5.3-4.3,9.6-9.6,9.6c-0.3,0-0.7,0-1-0.1c-0.2-0.7-0.2-1.4-0.2-2.1
			c0-5.3,4.3-9.6,9.6-9.6C87.1,5.2,87.4,5.3,87.8,5.3L87.8,5.3z"/>
		<path class="st21" d="M83.2,11.2l-5,5.9V26c0,0.3-0.2,0.5-0.5,0.5c-0.3,0-0.5-0.2-0.5-0.5v-8.8l-5.3-5.9c-0.2-0.2-0.2-0.6,0-0.8
			c0.2-0.2,0.6-0.2,0.8,0l5.1,5.6l4.8-5.6c0.2-0.2,0.5-0.3,0.8-0.1C83.3,10.7,83.4,11,83.2,11.2z"/>
		<path class="st16" d="M75.4,26.8c0.3-0.9,1.2-1.6,2.2-1.6c1,0,1.9,0.7,2.2,1.6c0,0-0.6,0.5-2.2,0.5C76,27.3,75.4,26.8,75.4,26.8z"
			/>
		<g>
			<g>
				<line class="st22" x1="61.3" y1="30" x2="61.3" y2="11.8"/>
				<g>
					<polygon class="st15" points="66.3,13.3 61.3,4.7 56.4,13.3 				"/>
				</g>
			</g>
		</g>
		<g>
			<path class="st13" d="M78.1,22.4v-5.3l0.1-0.1c0,0,0.1,0,0.1,0c5.3,0,9.6-4.3,9.6-9.6c0-0.7-0.1-1.4-0.2-2.1c-0.3,0-0.7-0.1-1-0.1
				c-4.5,0-8.2,3-9.3,7.1c0,0,0-0.1,0-0.1c0,0,0-0.1,0-0.1c-0.1-0.2-0.2-0.5-0.2-0.7c0,0,0,0,0,0h0c-1.4-3.6-4.9-6.2-9-6.2
				c-0.3,0-0.7,0-1,0.1C67,6,66.9,6.7,66.9,7.4c0,5,3.9,9.1,8.8,9.5v0c0,0,0,0,0.1,0c0.2,0,0.5,0,0.7,0c0.1,0,0.3,0,0.4,0l0.1,0.1
				v5.3c-5.7,0.1-10.2,1.8-10.2,3.9v3.7c0,1.7,4.8,3.1,10.7,3.1c5.9,0,10.7-1.4,10.7-3.1v-3.7C88.3,24.2,83.8,22.5,78.1,22.4z"/>
		</g>
		<g>
			<g>
				<polyline class="st14" points="96.4,57.7 122.6,57.7 122.6,67.6 			"/>
				<g>
					<path class="st15" d="M118.8,67.4c0,2.1,1.7,3.8,3.8,3.8s3.8-1.7,3.8-3.8c0-2.1-1.7-3.8-3.8-3.8S118.8,65.3,118.8,67.4z"/>
				</g>
			</g>
		</g>
	</g>
	<g id="molluscicide_x5F_leg">
		<g>
			<path class="st8" d="M9,135.9l-1.2-7.5l0.2,5.5v2H6.7v-9.8h1.6l1.1,7.2l1.1-7.2h1.6v9.8h-1.2v-2l0.2-5.5l-1.2,7.5H9z"/>
			<path class="st8" d="M13.5,134.4v-4c0-1,0.4-1.6,1.7-1.6s1.7,0.7,1.7,1.6v4c0,1-0.4,1.6-1.7,1.6C13.8,136,13.5,135.4,13.5,134.4z
				M15.6,134.4v-4c0-0.4-0.2-0.6-0.4-0.6s-0.5,0.2-0.5,0.6v4c0,0.4,0.2,0.5,0.5,0.5S15.6,134.8,15.6,134.4z"/>
			<path class="st8" d="M19.3,125.9v9.9H18v-9.9H19.3z"/>
			<path class="st8" d="M21.7,125.9v9.9h-1.2v-9.9H21.7z"/>
			<path class="st8" d="M26.4,128.9v7h-0.7l-0.3-0.4c-0.2,0.3-0.6,0.5-1.1,0.5c-1,0-1.4-0.5-1.4-1.6v-5.5h1.2v5.5
				c0,0.3,0.1,0.5,0.5,0.5c0.3,0,0.4-0.2,0.4-0.5v-5.5H26.4z"/>
			<path class="st8" d="M27.5,130.4c0-1,0.4-1.6,1.6-1.6c1.3,0,1.7,0.6,1.7,1.6v0.7h-1.2v-0.7c0-0.4-0.2-0.6-0.4-0.6
				s-0.4,0.2-0.4,0.5v0.3c0,1.5,2.1,1.1,2.1,3.2v0.6c0,1-0.4,1.6-1.7,1.6s-1.6-0.6-1.6-1.6v-0.9h1.2v0.9c0,0.4,0.2,0.5,0.4,0.5
				c0.3,0,0.4-0.1,0.4-0.5v-0.5c0-1.6-2.1-1.1-2.1-3.3V130.4z"/>
			<path class="st8" d="M35.2,133.4v1c0,1-0.3,1.6-1.7,1.6c-1.3,0-1.7-0.7-1.7-1.6v-4c0-1,0.4-1.6,1.7-1.6c1.3,0,1.7,0.7,1.7,1.6v0.8
				H34v-0.9c0-0.4-0.2-0.6-0.4-0.6c-0.3,0-0.5,0.2-0.5,0.6v4c0,0.4,0.2,0.5,0.5,0.5c0.3,0,0.4-0.2,0.4-0.5v-1H35.2z"/>
			<path class="st8" d="M37.6,126.6v1.4h-1.2v-1.4H37.6z M37.6,128.9v7h-1.2v-7H37.6z"/>
			<path class="st8" d="M42.1,133.4v1c0,1-0.3,1.6-1.7,1.6c-1.3,0-1.7-0.7-1.7-1.6v-4c0-1,0.4-1.6,1.7-1.6c1.3,0,1.7,0.7,1.7,1.6v0.8
				h-1.2v-0.9c0-0.4-0.2-0.6-0.4-0.6c-0.3,0-0.5,0.2-0.5,0.6v4c0,0.4,0.2,0.5,0.5,0.5c0.3,0,0.4-0.2,0.4-0.5v-1H42.1z"/>
			<path class="st8" d="M44.6,126.6v1.4h-1.2v-1.4H44.6z M44.6,128.9v7h-1.2v-7H44.6z"/>
			<path class="st8" d="M48.4,135.9l-0.3-0.4c-0.2,0.3-0.6,0.5-1.1,0.5c-1,0-1.3-0.5-1.3-1.6v-4c0-1.1,0.3-1.6,1.3-1.6
				c0.3,0,0.6,0.1,0.8,0.3v-3.2h1.2v9.9H48.4z M47.9,130.4c0-0.3-0.1-0.5-0.5-0.5S47,130,47,130.4v4c0,0.3,0.1,0.5,0.4,0.5
				c0.3,0,0.5-0.2,0.5-0.5V130.4z"/>
			<path class="st8" d="M53.7,133.5v0.9c0,1-0.3,1.7-1.7,1.7c-1.3,0-1.7-0.7-1.7-1.7v-4c0-1,0.4-1.7,1.7-1.7c1.3,0,1.7,0.7,1.7,1.7
				v2.1h-2.1v1.9c0,0.4,0.2,0.5,0.5,0.5c0.3,0,0.4-0.2,0.4-0.5v-0.9H53.7z M52.5,130.4c0-0.4-0.2-0.6-0.4-0.6c-0.3,0-0.5,0.2-0.5,0.6
				v1.2h0.9V130.4z"/>
			<path class="st8" d="M54.7,130.4c0-1,0.4-1.6,1.6-1.6c1.3,0,1.7,0.6,1.7,1.6v0.7h-1.2v-0.7c0-0.4-0.2-0.6-0.4-0.6
				s-0.4,0.2-0.4,0.5v0.3c0,1.5,2.1,1.1,2.1,3.2v0.6c0,1-0.4,1.6-1.7,1.6s-1.6-0.6-1.6-1.6v-0.9h1.2v0.9c0,0.4,0.2,0.5,0.4,0.5
				c0.3,0,0.4-0.1,0.4-0.5v-0.5c0-1.6-2.1-1.1-2.1-3.3V130.4z"/>
			<path class="st7" d="M12.2,148.7H9.7v-1.8l1.7-7.2h2.7v7.3h0.7v1.7h-0.7v2.1h-1.9V148.7z M12.2,147v-1.8c0-1.1,0-1.9,0.1-3.2
				l-0.9,5H12.2z"/>
			<path class="st7" d="M18.3,149h1v1.9h-3.9V149h1v-6.9h-1v-1.4c0.8,0,1.3-0.5,1.3-1h1.7V149z"/>
			<path class="st7" d="M22.3,148.8l-0.8,3.5h-1.2v-3.5H22.3z"/>
			<path class="st7" d="M26,148.9V146c-0.2,0.1-0.5,0.1-0.8,0.1c-1.3,0-1.8-0.7-1.8-1.9v-2.6c0-1.3,0.6-2.2,2.3-2.2
				c1.6,0,2.3,0.9,2.3,2.2v7.2c0,1.3-0.6,2.1-2.3,2.1c-1.6,0-2.3-0.9-2.3-2.1v-1.4h2v1.4c0,0.3,0.2,0.4,0.3,0.4
				C25.8,149.3,26,149.2,26,148.9z M26,141.7c0-0.2-0.1-0.4-0.3-0.4c-0.2,0-0.3,0.1-0.3,0.4v2.5c0,0.2,0.1,0.4,0.3,0.4
				c0.2,0,0.3-0.1,0.3-0.4V141.7z"/>
			<path class="st7" d="M31,144.4h0.6v-1.7l1.1-0.3v2h0.9v1h-0.9v4.1c0,0.4,0.1,0.5,0.4,0.5c0.2,0,0.3,0,0.5-0.1v1
				c-0.1,0.1-0.4,0.1-0.6,0.1c-1.2,0-1.5-0.6-1.5-1.5v-4.1H31V144.4z"/>
			<path class="st7" d="M34.6,149.5v-3.7c0-0.9,0.4-1.5,1.6-1.5s1.6,0.6,1.6,1.5v3.7c0,0.9-0.3,1.5-1.6,1.5
				C34.9,151,34.6,150.4,34.6,149.5z M36.6,149.5v-3.8c0-0.4-0.2-0.5-0.4-0.5c-0.3,0-0.4,0.1-0.4,0.5v3.8c0,0.4,0.2,0.5,0.4,0.5
				C36.4,150,36.6,149.9,36.6,149.5z"/>
			<path class="st7" d="M38.8,150.9v-6.5h0.7l0.2,0.3c0.2-0.3,0.5-0.5,1-0.5c0.9,0,1.2,0.5,1.2,1.5v5.1h-1.1v-5.1
				c0-0.3-0.1-0.5-0.4-0.5c-0.3,0-0.4,0.2-0.4,0.5v5.1H38.8z"/>
			<path class="st7" d="M43.1,150.9v-6.5h0.7l0.2,0.3c0.2-0.3,0.5-0.5,1-0.5c0.9,0,1.2,0.5,1.2,1.5v5.1h-1.1v-5.1
				c0-0.3-0.1-0.5-0.4-0.5c-0.3,0-0.4,0.2-0.4,0.5v5.1H43.1z"/>
			<path class="st7" d="M50.5,148.7v0.8c0,0.9-0.3,1.5-1.5,1.5c-1.2,0-1.6-0.6-1.6-1.5v-3.7c0-0.9,0.4-1.5,1.6-1.5
				c1.2,0,1.5,0.6,1.5,1.5v2h-2v1.7c0,0.4,0.2,0.5,0.4,0.5c0.2,0,0.4-0.1,0.4-0.5v-0.9H50.5z M49.3,145.8c0-0.4-0.2-0.5-0.4-0.5
				c-0.3,0-0.4,0.2-0.4,0.5v1.2h0.8V145.8z"/>
			<path class="st7" d="M51.4,145.8c0-0.9,0.4-1.5,1.5-1.5c1.2,0,1.5,0.6,1.5,1.5v0.7h-1.1v-0.7c0-0.3-0.2-0.5-0.4-0.5
				c-0.3,0-0.4,0.1-0.4,0.5v0.2c0,1.4,1.9,1.1,1.9,3v0.5c0,0.9-0.4,1.5-1.5,1.5c-1.2,0-1.5-0.6-1.5-1.5v-0.8h1.1v0.8
				c0,0.4,0.2,0.5,0.4,0.5c0.3,0,0.4-0.1,0.4-0.5V149c0-1.4-1.9-1-1.9-3V145.8z"/>
		</g>
		<polygon class="st23" points="43.7,102.6 40.8,94.2 41.8,93.9 44.8,102.2 	"/>
		<polygon class="st23" points="45.7,102.6 44.6,102.2 47.6,93.9 48.6,94.2 	"/>
		<path class="st24" d="M41.3,92.1c1.1,0,1.9,0.9,1.9,1.9c0,1.1-0.9,1.9-1.9,1.9c-1.1,0-1.9-0.9-1.9-1.9C39.4,93,40.2,92.1,41.3,92.1
			z"/>
		<path class="st6" d="M41.3,95.3c-0.7,0-1.2-0.5-1.2-1.2c0-0.7,0.5-1.2,1.2-1.2c0.7,0,1.2,0.5,1.2,1.2
			C42.5,94.7,41.9,95.3,41.3,95.3z"/>
		<path class="st25" d="M41.3,94.5c-0.3,0-0.5-0.2-0.5-0.5c0-0.3,0.2-0.5,0.5-0.5c0.3,0,0.5,0.2,0.5,0.5
			C41.7,94.3,41.5,94.5,41.3,94.5z"/>
		<path class="st24" d="M48.1,92.1c1.1,0,1.9,0.9,1.9,1.9c0,1.1-0.9,1.9-1.9,1.9c-1.1,0-1.9-0.9-1.9-1.9C46.2,93,47,92.1,48.1,92.1z"
			/>
		<path class="st6" d="M48.1,95.3c-0.7,0-1.2-0.5-1.2-1.2c0-0.7,0.5-1.2,1.2-1.2c0.7,0,1.2,0.5,1.2,1.2
			C49.3,94.7,48.8,95.3,48.1,95.3z"/>
		<path class="st25" d="M48.1,94.5c-0.3,0-0.5-0.2-0.5-0.5c0-0.3,0.2-0.5,0.5-0.5c0.3,0,0.5,0.2,0.5,0.5
			C48.6,94.3,48.4,94.5,48.1,94.5z"/>
		<path class="st26" d="M48.5,107.6c0-2.9-0.5-5.2-1.4-6.7c0-0.1-0.1-0.1-0.1-0.2c-0.1-0.2-0.8-1-2.1-1c-0.5,0-1.3,0.2-2.1,1
			c-0.6,0.7-1.1,1.6-1.2,2.8c-0.4,5.7-5.1,5.4-9.4,7.7c-7.7,4.1-17,7.5-17,7.5c-0.5,0.3-0.8,0.9-0.7,1.5c0.1,0.6,0.5,1.1,1.1,1.2
			c0.3,0.1,6.3,1.3,13.1,1.3h0c5,0,9.2-0.7,12.3-2.1c2-0.9,3.6-2,4.8-3.5c1.4-1.6,2.2-3.5,2.4-5.8C48.3,111.3,48.5,109.6,48.5,107.6z
			"/>
		<path class="st24" d="M48.3,104.9L48.3,104.9c-0.2,2.2-0.5,3.8-0.6,4c-0.5,2.4-1.6,4.5-3.3,6.1c-1.5,1.4-3.4,2.5-5.7,3.3
			c-3.6,1.2-8.2,1.5-13.8,1c0,0,0,0,0,0c-2.9-0.3-5.7-0.8-8-1.2c-1.1,0.4-1.8,0.7-1.8,0.7c-0.5,0.3-0.8,0.9-0.7,1.5
			c0.1,0.6,0.5,1.1,1.1,1.2c0.3,0.1,6.3,1.3,13.1,1.3c0,0,0,0,0,0c5,0,9.2-0.7,12.3-2.1c2-0.9,3.6-2,4.8-3.5c1.4-1.6,2.2-3.5,2.4-5.8
			c0-0.1,0.2-1.8,0.2-3.8C48.5,106.6,48.4,105.7,48.3,104.9z"/>
		<path class="st27" d="M16.7,110.2c-1.3-5.6,2.1-11.3,7.8-12.7c7.1-1.7,14.1,2.7,15.8,9.7c0,0-2.5,5.1-8.6,4.6
			c-0.7,2.2-2.5,4-4.9,4.5C22.3,117.5,17.8,114.7,16.7,110.2z"/>
		<path class="st28" d="M27.1,99.4c3.3-0.8,6.7-0.2,9.4,1.3c-3.1-2.9-7.6-4.3-12-3.2c-5.6,1.4-9.1,7-7.8,12.7
			c0.6,2.6,2.4,4.6,4.6,5.7c-1-1-1.7-2.3-2-3.8C18,106.4,21.4,100.7,27.1,99.4z"/>
		<path class="st29" d="M21.1,109.7c-0.3-1.4-0.1-2.8,0.6-4c0.7-1.2,1.9-2,3.3-2.4c3.5-0.8,7,1.3,7.8,4.8c0.3,1.2,0.3,2.5,0,3.8
			c-0.4,0-0.7,0-1.1,0c0.3-1.1,0.4-2.3,0.1-3.5c-0.7-2.9-3.6-4.7-6.5-4c-1.1,0.3-2,0.9-2.6,1.9c-0.6,1-0.8,2.1-0.5,3.2
			c0.4,1.7,2.2,2.8,3.9,2.4c0.3-0.1,0.6,0.1,0.7,0.4c0.1,0.3-0.1,0.6-0.4,0.7C24,113.5,21.7,112,21.1,109.7z"/>
		<path class="st28" d="M37.2,108.3c-0.3,0-0.5-0.2-0.5-0.5c-0.2-1.5-0.9-2.9-2-4.1c-0.2-0.2-0.2-0.6,0-0.8c0.2-0.2,0.6-0.2,0.8,0
			c1.3,1.3,2,2.9,2.3,4.7C37.8,108,37.6,108.3,37.2,108.3C37.3,108.3,37.2,108.3,37.2,108.3z"/>
		<path class="st28" d="M33.5,102.6c-0.1,0-0.2,0-0.3-0.1c-1-0.7-1.9-1-1.9-1c-0.3-0.1-0.4-0.4-0.3-0.7c0.1-0.3,0.4-0.4,0.7-0.3
			c0,0,1,0.4,2.2,1.2c0.2,0.2,0.3,0.5,0.1,0.8C33.8,102.5,33.7,102.6,33.5,102.6z"/>
		<g>
			<path class="st13" d="M48.1,96c1.1,0,1.9-0.9,1.9-1.9c0-1.1-0.9-1.9-1.9-1.9c-1.1,0-1.9,0.9-1.9,1.9c0,0.6,0.3,1.2,0.8,1.6
				l-1.5,4.1c-0.2-0.1-0.4-0.1-0.6-0.1c-0.3,0-0.6,0-1,0.2l-1.5-4.3c0.5-0.3,0.8-0.9,0.8-1.5c0-1.1-0.9-1.9-1.9-1.9
				c-1.1,0-1.9,0.9-1.9,1.9c0,1.1,0.9,1.9,1.9,1.9c0,0,0.1,0,0.1,0l1.6,4.5c-0.1,0.1-0.1,0.1-0.2,0.2c-0.6,0.7-1.1,1.6-1.2,2.8
				c-0.1,1.7-0.6,2.8-1.3,3.7c-0.6-2.6-2-4.8-3.8-6.5c0,0,0,0,0,0c0,0,0,0,0,0c-0.4-0.3-0.8-0.7-1.2-1c0,0-0.1-0.1-0.1-0.1
				c-0.2-0.1-0.3-0.2-0.5-0.3c-0.1,0-0.1-0.1-0.2-0.1c-0.2-0.1-0.3-0.2-0.5-0.3c0,0-0.1,0-0.1-0.1c-0.2-0.1-0.4-0.2-0.7-0.3
				c0,0,0,0-0.1,0c-0.2-0.1-0.4-0.2-0.6-0.3c-0.1,0-0.1-0.1-0.2-0.1c-0.2-0.1-0.3-0.1-0.5-0.2c-0.1,0-0.1,0-0.2-0.1
				c-0.2-0.1-0.4-0.1-0.6-0.2c0,0-0.1,0-0.1,0c-0.2-0.1-0.5-0.1-0.7-0.2c0,0-0.1,0-0.2,0c-0.2,0-0.4-0.1-0.6-0.1c-0.1,0-0.2,0-0.2,0
				c-0.2,0-0.4,0-0.5-0.1c-0.1,0-0.1,0-0.2,0c-0.2,0-0.4,0-0.7,0c0,0-0.1,0-0.1,0c-0.3,0-0.5,0-0.8,0c-0.1,0-0.1,0-0.2,0
				c-0.2,0-0.4,0-0.6,0c-0.1,0-0.2,0-0.3,0c-0.2,0-0.4,0-0.5,0.1c-0.1,0-0.2,0-0.2,0c-0.3,0-0.5,0.1-0.8,0.2c-5.6,1.4-9.1,7-7.8,12.7
				c0.1,0.3,0.2,0.6,0.3,0.9c0,0.1,0.1,0.2,0.1,0.3c0.1,0.2,0.2,0.4,0.2,0.6c0,0.1,0.1,0.2,0.2,0.3c0.1,0.2,0.2,0.3,0.3,0.5
				c0.1,0.1,0.1,0.2,0.2,0.3c0.1,0.1,0.2,0.3,0.3,0.4c0.1,0.1,0.1,0.2,0.2,0.3c0.1,0.1,0.3,0.3,0.4,0.4c0.1,0.1,0.1,0.2,0.2,0.2
				c0.2,0.1,0.3,0.3,0.5,0.4c0.1,0,0.1,0.1,0.2,0.1c0.2,0.2,0.5,0.3,0.7,0.5c0,0,0.1,0,0.1,0c0.2,0.1,0.4,0.3,0.7,0.4c0,0,0,0,0.1,0
				c0,0,0,0,0,0c0.2,0.1,0.3,0.2,0.5,0.2c-2,0.8-3.7,1.5-4.9,2c-1.1,0.4-1.8,0.7-1.8,0.7c-0.5,0.3-0.8,0.9-0.7,1.5
				c0.1,0.6,0.5,1.1,1.1,1.2c0,0,0.1,0,0.2,0c1.2,0.2,6.7,1.3,12.9,1.3h0h0c1.3,0,2.5,0,3.6-0.1c3.4-0.3,6.4-0.9,8.7-1.9
				c2-0.9,3.6-2,4.8-3.5c1-1.2,1.7-2.6,2.1-4.2c0.1-0.5,0.2-1.1,0.3-1.6c0-0.1,0.2-1.8,0.2-3.8c0-0.4,0-0.9-0.1-1.3
				c0-0.1,0-0.2,0-0.3c0-0.3-0.1-0.6-0.1-0.9c0-0.1,0-0.1,0-0.2c0,0,0,0,0,0c-0.2-1.6-0.6-3-1.2-4c0-0.1-0.1-0.1-0.1-0.2
				c-0.1-0.1-0.2-0.3-0.5-0.5L48.1,96C48,96,48.1,96,48.1,96z"/>
		</g>
		<g>
			<g>
				<polyline class="st14" points="113.8,71 32.3,71 32.3,94.7 			"/>
				<g>
					<path class="st15" d="M113.6,67.2c2.1,0,3.8,1.7,3.8,3.8c0,2.1-1.7,3.8-3.8,3.8c-2.1,0-3.8-1.7-3.8-3.8
						C109.8,68.9,111.5,67.2,113.6,67.2z"/>
				</g>
			</g>
		</g>
	</g>
	<g id="insecticide_x5F_leg">
		<g>
			<path class="st8" d="M42.1,202.2h1.3v9.8h-1.3V202.2z"/>
			<path class="st8" d="M44.9,212v-7h0.7l0.3,0.4c0.2-0.3,0.6-0.5,1.1-0.5c1,0,1.3,0.5,1.3,1.6v5.5H47v-5.5c0-0.3-0.1-0.6-0.4-0.6
				c-0.3,0-0.5,0.2-0.5,0.6v5.5H44.9z"/>
			<path class="st8" d="M49.3,206.5c0-1,0.4-1.6,1.6-1.6c1.3,0,1.7,0.6,1.7,1.6v0.7h-1.2v-0.7c0-0.4-0.2-0.6-0.4-0.6
				s-0.4,0.2-0.4,0.5v0.3c0,1.5,2.1,1.1,2.1,3.2v0.6c0,1-0.4,1.6-1.7,1.6s-1.6-0.6-1.6-1.6v-0.9h1.2v0.9c0,0.4,0.2,0.5,0.4,0.5
				c0.3,0,0.4-0.1,0.4-0.5V210c0-1.6-2.1-1.1-2.1-3.3V206.5z"/>
			<path class="st8" d="M57,209.6v0.9c0,1-0.3,1.7-1.7,1.7c-1.3,0-1.7-0.7-1.7-1.7v-4c0-1,0.4-1.7,1.7-1.7c1.3,0,1.7,0.7,1.7,1.7v2.1
				h-2.1v1.9c0,0.4,0.2,0.5,0.5,0.5c0.3,0,0.4-0.2,0.4-0.5v-0.9H57z M55.8,206.5c0-0.4-0.2-0.6-0.4-0.6c-0.3,0-0.5,0.2-0.5,0.6v1.2
				h0.9V206.5z"/>
			<path class="st8" d="M61.5,209.5v1c0,1-0.3,1.6-1.7,1.6c-1.3,0-1.7-0.7-1.7-1.6v-4c0-1,0.4-1.6,1.7-1.6c1.3,0,1.7,0.7,1.7,1.6v0.8
				h-1.2v-0.9c0-0.4-0.2-0.6-0.4-0.6c-0.3,0-0.5,0.2-0.5,0.6v4c0,0.4,0.2,0.5,0.5,0.5c0.3,0,0.4-0.2,0.4-0.5v-1H61.5z"/>
			<path class="st8" d="M62.3,205H63v-1.8l1.2-0.3v2.1h1v1.1h-1v4.4c0,0.4,0.1,0.6,0.5,0.6c0.2,0,0.3,0,0.5-0.1v1
				c-0.1,0.1-0.4,0.1-0.6,0.1c-1.3,0-1.6-0.6-1.6-1.6v-4.4h-0.7V205z"/>
			<path class="st8" d="M67.4,202.7v1.4h-1.2v-1.4H67.4z M67.4,205v7h-1.2v-7H67.4z"/>
			<path class="st8" d="M72,209.5v1c0,1-0.3,1.6-1.7,1.6c-1.3,0-1.7-0.7-1.7-1.6v-4c0-1,0.4-1.6,1.7-1.6c1.3,0,1.7,0.7,1.7,1.6v0.8
				h-1.2v-0.9c0-0.4-0.2-0.6-0.4-0.6c-0.3,0-0.5,0.2-0.5,0.6v4c0,0.4,0.2,0.5,0.5,0.5c0.3,0,0.4-0.2,0.4-0.5v-1H72z"/>
			<path class="st8" d="M74.4,202.7v1.4h-1.2v-1.4H74.4z M74.4,205v7h-1.2v-7H74.4z"/>
			<path class="st8" d="M78.2,212l-0.3-0.4c-0.2,0.3-0.6,0.5-1.1,0.5c-1,0-1.3-0.5-1.3-1.6v-4c0-1.1,0.3-1.6,1.3-1.6
				c0.3,0,0.6,0.1,0.8,0.3V202h1.2v9.9H78.2z M77.7,206.4c0-0.3-0.1-0.5-0.5-0.5s-0.4,0.2-0.4,0.6v4c0,0.3,0.1,0.5,0.4,0.5
				c0.3,0,0.5-0.2,0.5-0.5V206.4z"/>
			<path class="st8" d="M83.5,209.6v0.9c0,1-0.3,1.7-1.7,1.7c-1.3,0-1.7-0.7-1.7-1.7v-4c0-1,0.4-1.7,1.7-1.7c1.3,0,1.7,0.7,1.7,1.7
				v2.1h-2.1v1.9c0,0.4,0.2,0.5,0.5,0.5c0.3,0,0.4-0.2,0.4-0.5v-0.9H83.5z M82.3,206.5c0-0.4-0.2-0.6-0.4-0.6c-0.3,0-0.5,0.2-0.5,0.6
				v1.2h0.9V206.5z"/>
			<path class="st8" d="M84.5,206.5c0-1,0.4-1.6,1.6-1.6c1.3,0,1.7,0.6,1.7,1.6v0.7h-1.2v-0.7c0-0.4-0.2-0.6-0.4-0.6
				s-0.4,0.2-0.4,0.5v0.3c0,1.5,2.1,1.1,2.1,3.2v0.6c0,1-0.4,1.6-1.7,1.6s-1.6-0.6-1.6-1.6v-0.9h1.2v0.9c0,0.4,0.2,0.5,0.4,0.5
				c0.3,0,0.4-0.1,0.4-0.5V210c0-1.6-2.1-1.1-2.1-3.3V206.5z"/>
			<path class="st7" d="M42.4,217.7c0-0.2-0.1-0.4-0.3-0.4c-0.2,0-0.3,0.1-0.3,0.4v1.2h-1.9v-1.2c0-1.2,0.5-2.1,2.3-2.1
				c1.8,0,2.3,0.9,2.3,2.1v2.3c0,0.6-0.2,1-0.6,1.3c0.4,0.3,0.7,0.7,0.7,1.3v2.4c0,1.2-0.5,2.1-2.3,2.1c-1.8,0-2.3-0.9-2.3-2.1v-1.4
				h1.9v1.4c0,0.3,0.1,0.4,0.3,0.4c0.2,0,0.3-0.1,0.3-0.4v-2.5c0-0.2-0.1-0.3-0.2-0.3h-0.8v-1.8h0.8c0.2,0,0.2-0.1,0.2-0.2V217.7z"/>
			<path class="st7" d="M47.6,217.7v2.8c0.2-0.1,0.6-0.2,0.9-0.2c1.3,0,1.7,0.7,1.7,1.9v2.7c0,1.3-0.6,2.2-2.3,2.2
				c-1.6,0-2.3-0.9-2.3-2.2v-7.2c0-1.3,0.6-2.1,2.3-2.1c1.6,0,2.3,0.9,2.3,2.1v1.2h-2v-1.2c0-0.3-0.2-0.4-0.3-0.4
				C47.7,217.4,47.6,217.5,47.6,217.7z M47.6,225c0,0.2,0.1,0.4,0.3,0.4c0.2,0,0.3-0.1,0.3-0.4v-2.6c0-0.2-0.1-0.4-0.3-0.4
				c-0.2,0-0.3,0.1-0.3,0.4V225z"/>
			<path class="st7" d="M54.2,225.1h1v1.9h-3.9v-1.9h1v-6.9h-1v-1.4c0.8,0,1.3-0.5,1.3-1h1.7V225.1z"/>
			<path class="st7" d="M58.1,224.9l-0.8,3.5h-1.2v-3.5H58.1z"/>
			<path class="st7" d="M63.6,218.9c0,3.5-2.5,3.2-2.5,6.1v0.1h2.6v1.9h-4.5v-1.8c0-4,2.5-3.6,2.5-6.3v-1.2c0-0.2-0.1-0.4-0.3-0.4
				c-0.2,0-0.3,0.1-0.3,0.4v1.2h-1.9v-1.2c0-1.2,0.5-2.1,2.3-2.1c1.8,0,2.3,0.9,2.3,2.1V218.9z"/>
			<path class="st7" d="M66.5,220.5h0.6v-1.7l1.1-0.3v2h0.9v1h-0.9v4.1c0,0.4,0.1,0.5,0.4,0.5c0.2,0,0.3,0,0.5-0.1v1
				c-0.1,0.1-0.4,0.1-0.6,0.1c-1.2,0-1.5-0.6-1.5-1.5v-4.1h-0.6V220.5z"/>
			<path class="st7" d="M70.1,225.6v-3.7c0-0.9,0.4-1.5,1.6-1.5s1.6,0.6,1.6,1.5v3.7c0,0.9-0.3,1.5-1.6,1.5
				C70.4,227.1,70.1,226.5,70.1,225.6z M72.1,225.6v-3.8c0-0.4-0.2-0.5-0.4-0.5c-0.3,0-0.4,0.1-0.4,0.5v3.8c0,0.4,0.2,0.5,0.4,0.5
				C71.9,226.1,72.1,226,72.1,225.6z"/>
			<path class="st7" d="M74.3,227v-6.5H75l0.2,0.3c0.2-0.3,0.5-0.5,1-0.5c0.9,0,1.2,0.5,1.2,1.5v5.1h-1.1v-5.1c0-0.3-0.1-0.5-0.4-0.5
				c-0.3,0-0.4,0.2-0.4,0.5v5.1H74.3z"/>
			<path class="st7" d="M78.6,227v-6.5h0.7l0.2,0.3c0.2-0.3,0.5-0.5,1-0.5c0.9,0,1.2,0.5,1.2,1.5v5.1h-1.1v-5.1
				c0-0.3-0.1-0.5-0.4-0.5c-0.3,0-0.4,0.2-0.4,0.5v5.1H78.6z"/>
			<path class="st7" d="M86,224.7v0.8c0,0.9-0.3,1.5-1.5,1.5c-1.2,0-1.6-0.6-1.6-1.5v-3.7c0-0.9,0.4-1.5,1.6-1.5
				c1.2,0,1.5,0.6,1.5,1.5v2h-2v1.7c0,0.4,0.2,0.5,0.4,0.5c0.2,0,0.4-0.1,0.4-0.5v-0.9H86z M84.8,221.8c0-0.4-0.2-0.5-0.4-0.5
				c-0.3,0-0.4,0.2-0.4,0.5v1.2h0.8V221.8z"/>
			<path class="st7" d="M86.9,221.9c0-0.9,0.4-1.5,1.5-1.5c1.2,0,1.5,0.6,1.5,1.5v0.7h-1.1v-0.7c0-0.3-0.2-0.5-0.4-0.5
				c-0.3,0-0.4,0.1-0.4,0.5v0.2c0,1.4,1.9,1.1,1.9,3v0.5c0,0.9-0.4,1.5-1.5,1.5c-1.2,0-1.5-0.6-1.5-1.5v-0.8h1.1v0.8
				c0,0.4,0.2,0.5,0.4,0.5c0.3,0,0.4-0.1,0.4-0.5v-0.5c0-1.4-1.9-1-1.9-3V221.9z"/>
		</g>
		<g>
			<path class="st30" d="M57,194.5h-1.9c-0.3,0-0.5-0.2-0.5-0.5c0-0.3,0.2-0.5,0.5-0.5h1.4v-3.8c0-0.2,0.1-0.4,0.3-0.4l3.3-1.7
				c0.2-0.1,0.5,0,0.7,0.2c0.1,0.2,0,0.5-0.2,0.7l-3.1,1.6v4C57.5,194.2,57.3,194.5,57,194.5z"/>
		</g>
		<g>
			<path class="st30" d="M72.7,198.8h-1.9c-0.3,0-0.5-0.2-0.5-0.5v-4l-3.1-1.6c-0.2-0.1-0.3-0.4-0.2-0.7c0.1-0.2,0.4-0.3,0.7-0.2
				l3.3,1.7c0.2,0.1,0.3,0.3,0.3,0.4v3.8h1.4c0.3,0,0.5,0.2,0.5,0.5C73.2,198.5,72.9,198.8,72.7,198.8z"/>
		</g>
		<path class="st30" d="M59,198.8h-1.9c-0.3,0-0.5-0.2-0.5-0.5c0-0.3,0.2-0.5,0.5-0.5h1.4V194c0-0.2,0.1-0.4,0.3-0.4l3.3-1.7
			c0.2-0.1,0.5,0,0.7,0.2c0.1,0.2,0,0.5-0.2,0.7l-3.1,1.6v4C59.5,198.5,59.3,198.8,59,198.8z"/>
		<polygon class="st31" points="62.8,176.8 64.9,165.9 67,176.8 	"/>
		<polygon class="st32" points="63.3,174.4 62.8,176.8 67,176.8 66.5,174.4 	"/>
		<path class="st33" d="M66.8,183.5c1.3,0.8,2.7,2.1,2.7,3.5c0,2.5-2.1,6.5-4.6,6.5c-2.5,0-4.6-4-4.6-6.5c0-1.4,1.4-2.6,2.6-3.5
			L66.8,183.5z"/>
		<path class="st30" d="M74.7,194.5h-1.9c-0.3,0-0.5-0.2-0.5-0.5v-4l-3.1-1.6c-0.2-0.1-0.3-0.4-0.2-0.7c0.1-0.2,0.4-0.3,0.7-0.2
			l3.3,1.7c0.2,0.1,0.3,0.3,0.3,0.4v3.8h1.4c0.3,0,0.5,0.2,0.5,0.5C75.2,194.2,75,194.5,74.7,194.5z"/>
		<path class="st30" d="M69.1,178.7c-0.2,0-0.4-0.1-0.4-0.3c-0.1-0.2,0-0.6,0.2-0.7l3.4-1.8v-4c0-0.3,0.2-0.5,0.5-0.5h1.9
			c0.3,0,0.5,0.2,0.5,0.5c0,0.3-0.2,0.5-0.5,0.5h-1.4v3.8c0,0.2-0.1,0.4-0.3,0.4l-3.7,1.9C69.2,178.7,69.2,178.7,69.1,178.7z"/>
		<path class="st30" d="M60.7,178.7c-0.1,0-0.2,0-0.2-0.1l-3.7-1.9c-0.2-0.1-0.3-0.3-0.3-0.4v-3.8h-1.4c-0.3,0-0.5-0.2-0.5-0.5
			c0-0.3,0.2-0.5,0.5-0.5H57c0.3,0,0.5,0.2,0.5,0.5v4l3.4,1.8c0.2,0.1,0.3,0.4,0.2,0.7C61,178.6,60.9,178.7,60.7,178.7z"/>
		<path class="st34" d="M75.8,188.8c-1.4-1.4-7-10.9-7-10.9s9.5,5.6,10.9,7c1.4,1.4,1.7,3.5,0.7,4.5
			C79.2,190.6,77.2,190.3,75.8,188.8z"/>
		<path class="st35" d="M79.7,185c0.5,1.1,0.4,2.3-0.3,3c-1.1,1.1-3.1,0.8-4.5-0.7c-0.3-0.3-0.7-0.9-1.3-1.7c0.9,1.5,1.8,2.7,2.2,3.1
			c1.4,1.4,3.5,1.7,4.5,0.7C81.4,188.5,81.1,186.5,79.7,185z"/>
		<path class="st34" d="M53.9,188.8c1.4-1.4,7-10.9,7-10.9s-9.5,5.6-10.9,7c-1.4,1.4-1.7,3.5-0.7,4.5
			C50.5,190.6,52.5,190.3,53.9,188.8z"/>
		<path class="st31" d="M60.2,180c0-2.5,2.1-4.6,4.6-4.6c2.5,0,4.6,2.1,4.6,4.6c0,2.5-4.6,4.6-4.6,4.6S60.2,182.5,60.2,180z"/>
		<path class="st36" d="M66.8,183.5c1.3-0.8,2.6-2.1,2.6-3.5c0-2.5-2.1-4.6-4.6-4.6c0,0,0,0,0,0c1.6,0.7,2.8,2.3,2.8,4.2
			c0,1.4-0.4,3.6-1.6,4.4c1.3,0.4,1.6,1.1,1.6,2.5c0,2.4-1.8,6-4.2,6.5c0.5,0.3,0.9,0.4,1.4,0.4c2.5,0,4.6-4,4.6-6.5
			C69.4,185.6,68.1,184.3,66.8,183.5z"/>
		<path class="st34" d="M66.8,173.1c0.7,0,1.3,0.6,1.3,1.3c0,0.7-0.6,1.3-1.3,1.3c-0.7,0-1.3-0.6-1.3-1.3
			C65.5,173.7,66.1,173.1,66.8,173.1z"/>
		<path class="st34" d="M62.8,173.1c0.7,0,1.3,0.6,1.3,1.3c0,0.7-0.6,1.3-1.3,1.3c-0.7,0-1.3-0.6-1.3-1.3
			C61.5,173.7,62.1,173.1,62.8,173.1z"/>
		<path class="st35" d="M50,185c-0.5,1.1-0.4,2.3,0.3,3c1.1,1.1,3.1,0.8,4.5-0.7c0.3-0.3,0.7-0.9,1.3-1.7c-0.9,1.5-1.8,2.7-2.2,3.1
			c-1.4,1.4-3.5,1.7-4.5,0.7C48.3,188.5,48.6,186.5,50,185z"/>
		<g>
			<path class="st13" d="M80.5,189.2c0,0,0.1-0.1,0.1-0.1c0,0,0-0.1,0.1-0.1c0,0,0-0.1,0.1-0.1c0-0.1,0-0.1,0.1-0.1c0,0,0-0.1,0-0.1
				c0-0.1,0-0.1,0-0.2c0,0,0-0.1,0-0.1c0-0.1,0-0.1,0-0.2c0,0,0-0.1,0-0.1c0-0.1,0-0.1,0-0.2c0,0,0-0.1,0-0.1c0-0.1,0-0.2,0-0.2
				c0,0,0,0,0-0.1c0-0.1,0-0.2,0-0.2c0,0,0,0,0-0.1c0-0.1,0-0.2-0.1-0.2c0,0,0,0,0-0.1c0-0.1-0.1-0.2-0.1-0.3c0,0,0,0,0-0.1
				c0-0.1-0.1-0.2-0.1-0.3c0,0,0,0,0-0.1c0-0.1-0.1-0.2-0.1-0.2c0,0,0,0,0-0.1c0-0.1-0.1-0.2-0.2-0.2c0,0,0,0,0-0.1
				c-0.1-0.1-0.1-0.1-0.2-0.2c0,0,0,0-0.1-0.1c-0.1-0.1-0.1-0.1-0.2-0.2c0,0,0,0-0.1-0.1c0,0,0,0,0,0c0,0,0,0-0.1-0.1
				c-1.2-1.2-7.6-5.1-10-6.5l3.4-1.8c0.2-0.1,0.3-0.3,0.3-0.4v-3.8h1.4c0.3,0,0.5-0.2,0.5-0.5c0-0.3-0.2-0.5-0.5-0.5h-1.9
				c-0.3,0-0.5,0.2-0.5,0.5v4l-3.4,1.8c-0.5-0.8-1.2-1.5-2.1-1.9l0-0.1c0,0,0,0,0,0c0.7,0,1.3-0.6,1.3-1.3c0-0.7-0.6-1.3-1.3-1.3
				c-0.2,0-0.3,0-0.5,0.1l-1.4-7.4l-1.4,7.4c-0.2-0.1-0.4-0.2-0.6-0.2c-0.7,0-1.3,0.6-1.3,1.3c0,0.7,0.6,1.3,1.3,1.3
				c0.1,0,0.1,0,0.2,0l0,0.1c-0.9,0.4-1.7,1.1-2.1,1.9l-3.4-1.8v-4c0-0.3-0.2-0.5-0.5-0.5h-1.9c-0.3,0-0.5,0.2-0.5,0.5
				c0,0.3,0.2,0.5,0.5,0.5h1.4v3.8c0,0.2,0.1,0.4,0.3,0.4l3.4,1.8c-2.3,1.4-8.9,5.3-10,6.5c0,0,0,0-0.1,0.1c0,0,0,0,0,0
				c0,0,0,0-0.1,0.1c-0.1,0.1-0.1,0.1-0.2,0.2c0,0,0,0.1-0.1,0.1c-0.1,0.1-0.1,0.1-0.2,0.2c0,0,0,0.1-0.1,0.1c0,0.1-0.1,0.1-0.1,0.2
				c0,0,0,0.1-0.1,0.1c0,0.1-0.1,0.1-0.1,0.2c0,0,0,0.1,0,0.1c0,0.1-0.1,0.1-0.1,0.2c0,0,0,0.1,0,0.1c0,0.1,0,0.1-0.1,0.2
				c0,0,0,0.1,0,0.1c0,0.1,0,0.1,0,0.2c0,0.1,0,0.1,0,0.2c0,0.1,0,0.1,0,0.1c0,0.1,0,0.1,0,0.2c0,0,0,0.1,0,0.1c0,0.1,0,0.1,0,0.2
				c0,0,0,0.1,0,0.1c0,0.1,0,0.2,0,0.2c0,0,0,0,0,0.1c0,0.1,0,0.2,0.1,0.3c0,0,0,0,0,0c0.1,0.4,0.3,0.7,0.5,1
				c0.4,0.4,0.9,0.6,1.5,0.6c1,0,2.1-0.4,3-1.3c0.1-0.1,0.1-0.1,0.2-0.2c0,0,0,0,0-0.1c0.1-0.1,0.1-0.1,0.2-0.2c0,0,0,0,0-0.1
				c0.1-0.1,0.1-0.2,0.2-0.3c0,0,0,0,0,0c1.5-2.1,4.5-7,5.8-9.1c-0.1,0.3-0.1,0.7-0.1,1c0,1.4,1.4,2.7,2.7,3.5h0
				c-1.2,0.8-2.6,2.1-2.6,3.5c0,0.1,0,0.3,0,0.5c-0.1,0-0.1,0-0.2,0l-3.3,1.7c-0.2,0.1-0.3,0.3-0.3,0.4v3.8h-1.4
				c-0.3,0-0.5,0.2-0.5,0.5c0,0.3,0.2,0.5,0.5,0.5H57c0.3,0,0.5-0.2,0.5-0.5v-4l2.9-1.5c0.3,1.2,0.9,2.4,1.6,3.4l-3.3,1.7
				c-0.2,0.1-0.3,0.3-0.3,0.4v3.8h-1.4c-0.3,0-0.5,0.2-0.5,0.5c0,0.3,0.2,0.5,0.5,0.5H59c0.3,0,0.5-0.2,0.5-0.5v-4l3.1-1.6
				c0.1,0,0.1-0.1,0.1-0.1c0.2,0.2,0.4,0.4,0.7,0.5c0,0,0,0,0,0c0.2,0.1,0.3,0.2,0.5,0.2c0,0,0,0,0,0c0.1,0,0.3,0.1,0.4,0.1
				c0,0,0,0,0.1,0c0.1,0,0.3,0,0.4,0c0,0,0,0,0,0c0,0,0,0,0,0c0.8,0,1.5-0.4,2.2-1c0,0.1,0.1,0.1,0.2,0.2l3.1,1.6v4
				c0,0.3,0.2,0.5,0.5,0.5h1.9c0.3,0,0.5-0.2,0.5-0.5c0-0.3-0.2-0.5-0.5-0.5h-1.4V194c0-0.2-0.1-0.4-0.3-0.4l-3.3-1.7
				c0.8-1,1.3-2.2,1.6-3.4l3,1.5v4c0,0.3,0.2,0.5,0.5,0.5h1.9c0.3,0,0.5-0.2,0.5-0.5c0-0.3-0.2-0.5-0.5-0.5h-1.4v-3.8
				c0-0.2-0.1-0.4-0.3-0.4l-3.3-1.7c-0.1,0-0.2,0-0.3,0c0-0.2,0-0.3,0-0.5c0-1.4-1.4-2.6-2.6-3.5c1.2-0.8,2.4-1.9,2.6-3.2
				c0,0,0,0,0,0c0-0.1,0-0.2,0-0.2c0-0.4,0-0.7-0.1-1c1.3,2.1,4.2,7,5.8,9.1c0,0,0,0,0,0c0.1,0.1,0.1,0.2,0.2,0.3c0,0,0,0,0,0.1
				c0.1,0.1,0.1,0.1,0.2,0.2c0,0,0,0,0,0.1c0.1,0.1,0.1,0.1,0.2,0.2c0.9,0.9,2,1.4,3,1.3c0.5,0,0.9-0.2,1.3-0.5
				c0.1-0.1,0.1-0.1,0.2-0.2C80.4,189.5,80.4,189.4,80.5,189.2C80.5,189.3,80.5,189.3,80.5,189.2z"/>
		</g>
		<g>
			<g>
				<polyline class="st14" points="65,163.7 65,96.8 85.4,96.8 			"/>
				<g>
					<path class="st15" d="M85.2,100.5c2.1,0,3.8-1.7,3.8-3.8c0-2.1-1.7-3.8-3.8-3.8c-2.1,0-3.8,1.7-3.8,3.8
						C81.4,98.9,83.1,100.5,85.2,100.5z"/>
				</g>
			</g>
		</g>
	</g>
	<g id="herbicide_x5F_leg">
		<g>
			<g>
				<line class="st14" x1="137.9" y1="213.7" x2="137.9" y2="190.4"/>
				<g>
					<path class="st15" d="M141.7,190.6c0-2.1-1.7-3.8-3.8-3.8s-3.8,1.7-3.8,3.8c0,2.1,1.7,3.8,3.8,3.8S141.7,192.7,141.7,190.6z"/>
				</g>
			</g>
		</g>
		<path class="st37" d="M146.5,204.7c-4.4,3.9-7.2,9.9-8.8,15.1c1.7,5.8,2.1,10.6,2.1,10.6h2.9c0-12.8,3-21.2,4.6-25
			C147.7,204.8,147,204.3,146.5,204.7z"/>
		<path class="st38" d="M138.5,217.8c-0.2,0.7-0.5,1.4-0.7,2.1c1.7,5.8,2.1,10.6,2.1,10.6h1.4C141.3,230.4,140.8,224.4,138.5,217.8z"
			/>
		<path class="st37" d="M142.7,230.4c0,0,1.1-12.9,8-19.1c0.3-0.3,0.9,0.1,0.7,0.5c-1.3,2.8-3.4,9.1-3.4,18.6H142.7L142.7,230.4z"/>
		<path class="st38" d="M151.3,211.8c0.2-0.4-0.3-0.8-0.7-0.5c-6.9,6.2-8,19.1-8,19.1h1.5c0,0,1-11.6,6.9-18.1
			C151.2,212.2,151.3,212,151.3,211.8z"/>
		<path class="st37" d="M148.1,230.4c0,0,0.7-8.6,5.3-12.7c0.2-0.2,0.6,0,0.5,0.3c-0.8,1.9-2.3,6-2.3,12.4H148.1z"/>
		<path class="st38" d="M153.9,218.1c0.1-0.3-0.2-0.5-0.5-0.3c-4.6,4.1-5.3,12.7-5.3,12.7h1.3c0,0,0.6-7,4.1-11.4
			C153.6,218.7,153.7,218.4,153.9,218.1z"/>
		<path class="st37" d="M140.1,230.4c0,0-1.4-17.4-10.8-25.7c-0.5-0.4-1.2,0.1-0.9,0.7c1.7,3.8,4.6,12.2,4.6,25H140.1L140.1,230.4z"
			/>
		<path class="st38" d="M129.7,205.1c-0.1-0.1-0.3-0.2-0.4-0.4c-0.5-0.4-1.2,0.1-0.9,0.7c1.7,3.8,4.6,12.2,4.6,25h1.4
			c0-12.8-3-21.2-4.6-25C129.7,205.3,129.7,205.2,129.7,205.1z"/>
		<path class="st37" d="M133.2,230.4c0,0-1.1-12.9-8-19.1c-0.3-0.3-0.9,0.1-0.7,0.5c1.3,2.8,3.4,9.1,3.4,18.6H133.2L133.2,230.4z"/>
		<path class="st38" d="M125.2,211.3c-0.3-0.3-0.9,0.1-0.7,0.5c1.3,2.8,3.4,9.1,3.4,18.6h1.3c0-9.3-2.1-15.5-3.3-18.4
			C125.7,211.8,125.4,211.6,125.2,211.3z"/>
		<path class="st37" d="M127.7,230.4c0,0-0.7-8.6-5.3-12.7c-0.2-0.2-0.6,0-0.5,0.3c0.8,1.9,2.3,6,2.3,12.4H127.7z"/>
		<path class="st38" d="M122.4,217.8c-0.2-0.2-0.6,0-0.5,0.3c0.8,1.9,2.3,6,2.3,12.4h1.3c0-5.3-1-9.2-1.9-11.3
			C123.3,218.6,122.9,218.2,122.4,217.8z"/>
		<path class="st38" d="M153,230.9h-30.1c-0.3,0-0.5-0.2-0.5-0.5c0-0.3,0.2-0.5,0.5-0.5H153c0.3,0,0.5,0.2,0.5,0.5
			C153.5,230.7,153.3,230.9,153,230.9z"/>
		<g>
			<path class="st13" d="M153.6,218.7c0-0.1,0.1-0.1,0.1-0.2c0.1-0.1,0.1-0.3,0.2-0.4c0.1-0.3-0.2-0.5-0.5-0.3
				c-3.9,3.5-5,10.3-5.3,12.2h-0.2c0.1-8.7,2-14.6,3.2-17.6c0,0,0,0,0,0c0.1-0.2,0.2-0.4,0.2-0.5c0.2-0.4-0.3-0.8-0.7-0.5
				c-5.5,4.9-7.3,14-7.8,17.6c0.2-11.9,3-19.9,4.6-23.5c0.3-0.6-0.5-1.1-0.9-0.7c-3.8,3.4-6.4,8.4-8.1,13l0,0c0,0,0,0,0,0
				c-0.1,0.3-0.2,0.6-0.3,0.9c0,0,0,0.1,0,0.1c-0.1,0.3-0.2,0.5-0.3,0.8c-1.5-5-4-10.6-8.2-14.5c0,0,0,0,0,0
				c-0.1-0.1-0.3-0.2-0.4-0.4c-0.5-0.4-1.2,0.1-0.9,0.7c1.6,3.6,4.4,11.6,4.6,23.5c-0.5-3.4-2.2-11.8-7-16.8c0,0,0,0,0,0
				c0,0,0,0-0.1-0.1c-0.2-0.2-0.5-0.5-0.7-0.7c-0.3-0.3-0.9,0.1-0.7,0.5c1.2,2.8,3.4,8.9,3.4,18.1h-0.2c-0.2-1.6-1.1-7.1-4-10.8
				c0,0,0,0,0,0c0,0,0,0,0,0c-0.2-0.2-0.4-0.4-0.5-0.6c0,0-0.1-0.1-0.1-0.1c-0.2-0.2-0.4-0.4-0.6-0.6c-0.2-0.2-0.6,0-0.5,0.3
				c0.8,1.8,2.2,5.8,2.3,11.9h-1.4c-0.3,0-0.5,0.2-0.5,0.5c0,0.3,0.2,0.5,0.5,0.5H153c0.3,0,0.5-0.2,0.5-0.5c0-0.3-0.2-0.5-0.5-0.5
				h-1.4c0.1-5.2,1.1-8.9,1.9-11C153.5,218.9,153.6,218.8,153.6,218.7z"/>
		</g>
		<g>
			<path class="st8" d="M119.9,244.1h-1.3v-9.8h1.3v4.2h1.1v-4.2h1.3v9.8H121v-4.4h-1.1V244.1z"/>
			<path class="st8" d="M126.9,241.7v0.9c0,1-0.3,1.7-1.7,1.7c-1.3,0-1.7-0.7-1.7-1.7v-4c0-1,0.4-1.7,1.7-1.7c1.3,0,1.7,0.7,1.7,1.7
				v2.1h-2.1v1.9c0,0.4,0.2,0.5,0.5,0.5c0.3,0,0.4-0.2,0.4-0.5v-0.9H126.9z M125.7,238.6c0-0.4-0.2-0.6-0.4-0.6
				c-0.3,0-0.5,0.2-0.5,0.6v1.2h0.9V238.6z"/>
			<path class="st8" d="M130.4,238.2c-0.1,0-0.2,0-0.2,0c-0.6,0-0.8,0.4-0.8,0.9v5h-1.2v-7h0.8l0.2,0.4c0.3-0.4,0.6-0.6,1.2-0.6
				V238.2z"/>
			<path class="st8" d="M131.3,244.1v-9.9h1.2v3.2c0.2-0.2,0.5-0.3,0.8-0.3c1,0,1.3,0.5,1.3,1.6v4c0,1.1-0.4,1.6-1.4,1.6
				c-0.5,0-0.9-0.2-1.1-0.5l-0.3,0.4H131.3z M132.5,242.7c0,0.3,0.1,0.5,0.5,0.5c0.4,0,0.4-0.2,0.4-0.5v-4c0-0.4-0.1-0.6-0.4-0.6
				s-0.5,0.2-0.5,0.5V242.7z"/>
			<path class="st8" d="M137.1,234.8v1.4h-1.2v-1.4H137.1z M137.1,237.1v7h-1.2v-7H137.1z"/>
			<path class="st8" d="M141.6,241.6v1c0,1-0.3,1.6-1.7,1.6c-1.3,0-1.7-0.7-1.7-1.6v-4c0-1,0.4-1.6,1.7-1.6c1.3,0,1.7,0.7,1.7,1.6
				v0.8h-1.2v-0.9c0-0.4-0.2-0.6-0.4-0.6c-0.3,0-0.5,0.2-0.5,0.6v4c0,0.4,0.2,0.5,0.5,0.5c0.3,0,0.4-0.2,0.4-0.5v-1H141.6z"/>
			<path class="st8" d="M144,234.8v1.4h-1.2v-1.4H144z M144,237.1v7h-1.2v-7H144z"/>
			<path class="st8" d="M147.9,244.1l-0.3-0.4c-0.2,0.3-0.6,0.5-1.1,0.5c-1,0-1.3-0.5-1.3-1.6v-4c0-1.1,0.3-1.6,1.3-1.6
				c0.3,0,0.6,0.1,0.8,0.3v-3.2h1.2v9.9H147.9z M147.4,238.6c0-0.3-0.1-0.5-0.5-0.5s-0.4,0.2-0.4,0.6v4c0,0.3,0.1,0.5,0.4,0.5
				c0.3,0,0.5-0.2,0.5-0.5V238.6z"/>
			<path class="st8" d="M153.1,241.7v0.9c0,1-0.3,1.7-1.7,1.7c-1.3,0-1.7-0.7-1.7-1.7v-4c0-1,0.4-1.7,1.7-1.7c1.3,0,1.7,0.7,1.7,1.7
				v2.1H151v1.9c0,0.4,0.2,0.5,0.5,0.5c0.3,0,0.4-0.2,0.4-0.5v-0.9H153.1z M151.9,238.6c0-0.4-0.2-0.6-0.4-0.6
				c-0.3,0-0.5,0.2-0.5,0.6v1.2h0.9V238.6z"/>
			<path class="st8" d="M154.2,238.6c0-1,0.4-1.6,1.6-1.6c1.3,0,1.7,0.6,1.7,1.6v0.7h-1.2v-0.7c0-0.4-0.2-0.6-0.4-0.6
				s-0.4,0.2-0.4,0.5v0.3c0,1.5,2.1,1.1,2.1,3.2v0.6c0,1-0.4,1.6-1.7,1.6s-1.6-0.6-1.6-1.6v-0.9h1.2v0.9c0,0.4,0.2,0.5,0.4,0.5
				c0.3,0,0.4-0.1,0.4-0.5v-0.5c0-1.6-2.1-1.1-2.1-3.3V238.6z"/>
			<path class="st7" d="M115,249.9v2.8c0.2-0.1,0.6-0.2,0.9-0.2c1.3,0,1.7,0.7,1.7,1.9v2.7c0,1.3-0.6,2.2-2.3,2.2
				c-1.6,0-2.3-0.9-2.3-2.2v-7.2c0-1.3,0.6-2.1,2.3-2.1c1.6,0,2.3,0.9,2.3,2.1v1.2h-2v-1.2c0-0.3-0.2-0.4-0.3-0.4
				C115.2,249.5,115,249.6,115,249.9z M115,257.2c0,0.2,0.1,0.4,0.3,0.4c0.2,0,0.3-0.1,0.3-0.4v-2.6c0-0.2-0.1-0.4-0.3-0.4
				c-0.2,0-0.3,0.1-0.3,0.4V257.2z"/>
			<path class="st7" d="M123.3,251.1c0,3.5-2.5,3.2-2.5,6.1v0.1h2.6v1.9h-4.5v-1.8c0-4,2.5-3.6,2.5-6.3v-1.2c0-0.2-0.1-0.4-0.3-0.4
				c-0.2,0-0.3,0.1-0.3,0.4v1.2h-1.9v-1.2c0-1.2,0.5-2.1,2.3-2.1c1.8,0,2.3,0.9,2.3,2.1V251.1z"/>
			<path class="st7" d="M126.4,257H124v-1.8l1.7-7.2h2.7v7.3h0.7v1.7h-0.7v2.1h-1.9V257z M126.4,255.2v-1.8c0-1.1,0-1.9,0.1-3.2
				l-0.9,5H126.4z"/>
			<path class="st7" d="M131.8,257.1l-0.8,3.5h-1.2v-3.5H131.8z"/>
			<path class="st7" d="M135.7,257.3h1v1.9h-3.9v-1.9h1v-6.9h-1V249c0.8,0,1.3-0.5,1.3-1h1.7V257.3z"/>
			<path class="st7" d="M139.4,252.6h0.6V251l1.1-0.3v2h0.9v1h-0.9v4.1c0,0.4,0.1,0.5,0.4,0.5c0.2,0,0.3,0,0.5-0.1v1
				c-0.1,0.1-0.4,0.1-0.6,0.1c-1.2,0-1.5-0.6-1.5-1.5v-4.1h-0.6V252.6z"/>
			<path class="st7" d="M143,257.7V254c0-0.9,0.4-1.5,1.6-1.5s1.6,0.6,1.6,1.5v3.7c0,0.9-0.3,1.5-1.6,1.5
				C143.3,259.3,143,258.6,143,257.7z M145,257.8V254c0-0.4-0.2-0.5-0.4-0.5c-0.3,0-0.4,0.1-0.4,0.5v3.8c0,0.4,0.2,0.5,0.4,0.5
				C144.8,258.3,145,258.1,145,257.8z"/>
			<path class="st7" d="M147.2,259.1v-6.5h0.7l0.2,0.3c0.2-0.3,0.5-0.5,1-0.5c0.9,0,1.2,0.5,1.2,1.5v5.1h-1.1V254
				c0-0.3-0.1-0.5-0.4-0.5c-0.3,0-0.4,0.2-0.4,0.5v5.1H147.2z"/>
			<path class="st7" d="M151.5,259.1v-6.5h0.7l0.2,0.3c0.2-0.3,0.5-0.5,1-0.5c0.9,0,1.2,0.5,1.2,1.5v5.1h-1.1V254
				c0-0.3-0.1-0.5-0.4-0.5c-0.3,0-0.4,0.2-0.4,0.5v5.1H151.5z"/>
			<path class="st7" d="M158.9,256.9v0.8c0,0.9-0.3,1.5-1.5,1.5c-1.2,0-1.6-0.6-1.6-1.5V254c0-0.9,0.4-1.5,1.6-1.5
				c1.2,0,1.5,0.6,1.5,1.5v2h-2v1.7c0,0.4,0.2,0.5,0.4,0.5c0.2,0,0.4-0.1,0.4-0.5v-0.9H158.9z M157.8,254c0-0.4-0.2-0.5-0.4-0.5
				c-0.3,0-0.4,0.2-0.4,0.5v1.2h0.8V254z"/>
			<path class="st7" d="M159.9,254c0-0.9,0.4-1.5,1.5-1.5c1.2,0,1.5,0.6,1.5,1.5v0.7h-1.1V254c0-0.3-0.2-0.5-0.4-0.5
				c-0.3,0-0.4,0.1-0.4,0.5v0.2c0,1.4,1.9,1.1,1.9,3v0.5c0,0.9-0.4,1.5-1.5,1.5c-1.2,0-1.5-0.6-1.5-1.5v-0.8h1.1v0.8
				c0,0.4,0.2,0.5,0.4,0.5c0.3,0,0.4-0.1,0.4-0.5v-0.5c0-1.4-1.9-1-1.9-3V254z"/>
		</g>
	</g>
	<g id="fongicide_x5F_leg">
		<g>
			<path class="st8" d="M224.7,134.3v-9.8h2.9v1.2H226v3h1.4v1.2H226v4.4H224.7z"/>
			<path class="st8" d="M228.6,132.8v-4c0-1,0.4-1.6,1.7-1.6s1.7,0.7,1.7,1.6v4c0,1-0.4,1.6-1.7,1.6
				C229,134.5,228.6,133.8,228.6,132.8z M230.8,132.9v-4c0-0.4-0.2-0.6-0.4-0.6s-0.5,0.2-0.5,0.6v4c0,0.4,0.2,0.5,0.5,0.5
				S230.8,133.3,230.8,132.9z"/>
			<path class="st8" d="M233.2,134.3v-7h0.7l0.3,0.4c0.2-0.3,0.6-0.5,1.1-0.5c1,0,1.3,0.5,1.3,1.6v5.5h-1.2v-5.5
				c0-0.3-0.1-0.6-0.4-0.6c-0.3,0-0.5,0.2-0.5,0.6v5.5H233.2z"/>
			<path class="st8" d="M238.9,133.2c0,0.2,0.1,0.4,0.5,0.4c1.4,0,1.9,0.6,1.9,1.6v0.1c0,0.9-0.5,1.6-1.8,1.6c-1.3,0-1.8-0.7-1.8-1.6
				v-0.1c0-0.6,0.2-1.1,0.8-1.4c-0.2-0.1-0.4-0.3-0.4-0.6s0.1-0.4,0.4-0.6c-0.5-0.3-0.7-0.8-0.7-1.4v-2.3c0-1,0.4-1.7,1.7-1.7
				c0.3,0,0.5,0,0.7,0.1c0.2-0.5,0.5-0.8,1-0.8c0.2,0,0.3,0,0.4,0.1v0.9c-0.2-0.1-0.2-0.1-0.5-0.1c-0.2,0-0.3,0.1-0.4,0.2
				c0.4,0.3,0.5,0.8,0.5,1.3v2.3c0,1-0.4,1.6-1.7,1.6C239.1,132.8,238.9,132.9,238.9,133.2z M238.8,134.9L238.8,134.9
				c0,0.5,0.2,0.7,0.6,0.7c0.4,0,0.6-0.2,0.6-0.6v-0.1c0-0.4-0.2-0.6-0.6-0.6S238.8,134.5,238.8,134.9z M239,129v2.1
				c0,0.5,0.1,0.7,0.4,0.7c0.3,0,0.5-0.2,0.5-0.7V129c0-0.5-0.1-0.7-0.5-0.7C239.1,128.3,239,128.5,239,129z"/>
			<path class="st8" d="M243.6,125v1.4h-1.2V125H243.6z M243.6,127.3v7h-1.2v-7H243.6z"/>
			<path class="st8" d="M248.1,131.9v1c0,1-0.3,1.6-1.7,1.6c-1.3,0-1.7-0.7-1.7-1.6v-4c0-1,0.4-1.6,1.7-1.6c1.3,0,1.7,0.7,1.7,1.6
				v0.8h-1.2v-0.9c0-0.4-0.2-0.6-0.4-0.6c-0.3,0-0.5,0.2-0.5,0.6v4c0,0.4,0.2,0.5,0.5,0.5c0.3,0,0.4-0.2,0.4-0.5v-1H248.1z"/>
			<path class="st8" d="M250.5,125v1.4h-1.2V125H250.5z M250.5,127.3v7h-1.2v-7H250.5z"/>
			<path class="st8" d="M254.4,134.3l-0.3-0.4c-0.2,0.3-0.6,0.5-1.1,0.5c-1,0-1.3-0.5-1.3-1.6v-4c0-1.1,0.3-1.6,1.3-1.6
				c0.3,0,0.6,0.1,0.8,0.3v-3.2h1.2v9.9H254.4z M253.9,128.8c0-0.3-0.1-0.5-0.5-0.5s-0.4,0.2-0.4,0.6v4c0,0.3,0.1,0.5,0.4,0.5
				c0.3,0,0.5-0.2,0.5-0.5V128.8z"/>
			<path class="st8" d="M259.6,131.9v0.9c0,1-0.3,1.7-1.7,1.7c-1.3,0-1.7-0.7-1.7-1.7v-4c0-1,0.4-1.7,1.7-1.7c1.3,0,1.7,0.7,1.7,1.7
				v2.1h-2.1v1.9c0,0.4,0.2,0.5,0.5,0.5c0.3,0,0.4-0.2,0.4-0.5v-0.9H259.6z M258.4,128.8c0-0.4-0.2-0.6-0.4-0.6
				c-0.3,0-0.5,0.2-0.5,0.6v1.2h0.9V128.8z"/>
			<path class="st8" d="M260.7,128.8c0-1,0.4-1.6,1.6-1.6c1.3,0,1.7,0.6,1.7,1.6v0.7h-1.2v-0.7c0-0.4-0.2-0.6-0.4-0.6
				s-0.4,0.2-0.4,0.5v0.3c0,1.5,2.1,1.1,2.1,3.2v0.6c0,1-0.4,1.6-1.7,1.6s-1.6-0.6-1.6-1.6V132h1.2v0.9c0,0.4,0.2,0.5,0.4,0.5
				c0.3,0,0.4-0.1,0.4-0.5v-0.5c0-1.6-2.1-1.1-2.1-3.3V128.8z"/>
			<path class="st7" d="M218.9,147.5h1v1.9H216v-1.9h1v-6.9h-1v-1.4c0.8,0,1.3-0.5,1.3-1h1.7V147.5z"/>
			<path class="st7" d="M220.9,147.3v-7.2c0-1.2,0.5-2.2,2.3-2.2c1.8,0,2.3,0.9,2.3,2.2v7.2c0,1.2-0.5,2.2-2.3,2.2
				C221.4,149.5,220.9,148.6,220.9,147.3z M223.5,147.3v-7.2c0-0.2-0.1-0.4-0.3-0.4c-0.2,0-0.3,0.2-0.3,0.4v7.2
				c0,0.3,0.1,0.4,0.3,0.4C223.4,147.7,223.5,147.6,223.5,147.3z"/>
			<path class="st7" d="M229.3,140.1c0-0.2-0.1-0.4-0.3-0.4c-0.2,0-0.3,0.1-0.3,0.4v1.2h-1.9v-1.2c0-1.2,0.5-2.1,2.3-2.1
				s2.3,0.9,2.3,2.1v2.3c0,0.6-0.2,1-0.6,1.3c0.4,0.3,0.7,0.7,0.7,1.3v2.4c0,1.2-0.5,2.1-2.3,2.1c-1.8,0-2.3-0.9-2.3-2.1V146h1.9v1.4
				c0,0.3,0.1,0.4,0.3,0.4c0.2,0,0.3-0.1,0.3-0.4v-2.5c0-0.2-0.1-0.3-0.2-0.3h-0.8v-1.8h0.8c0.2,0,0.2-0.1,0.2-0.2V140.1z"/>
			<path class="st7" d="M235,144.3c0-0.1-0.1-0.3-0.3-0.3c-0.2,0-0.4,0.1-0.6,0.3h-1.6l0.3-6.2h4v1.9h-2.3l-0.1,2.6
				c0.2-0.1,0.6-0.2,0.8-0.2c1.3,0,1.8,0.5,1.8,1.8v3.1c0,1.2-0.5,2.1-2.3,2.1c-1.8,0-2.3-0.9-2.3-2.1V146h1.9v1.4
				c0,0.3,0.1,0.4,0.3,0.4c0.2,0,0.3-0.1,0.3-0.4V144.3z"/>
			<path class="st7" d="M240.1,147.3l-0.8,3.5h-1.2v-3.5H240.1z"/>
			<path class="st7" d="M241.2,147.4v-2.4c0-0.6,0.3-1,0.7-1.3c-0.4-0.3-0.6-0.7-0.6-1.3v-2.3c0-1.2,0.5-2.1,2.3-2.1
				c1.8,0,2.3,0.9,2.3,2.1v2.3c0,0.6-0.2,1-0.6,1.3c0.4,0.3,0.7,0.7,0.7,1.3v2.4c0,1.2-0.5,2.1-2.3,2.1
				C241.8,149.5,241.2,148.6,241.2,147.4z M243.2,142.5c0,0.2,0.1,0.4,0.3,0.4c0.2,0,0.3-0.1,0.3-0.4v-2.4c0-0.2-0.1-0.4-0.3-0.4
				c-0.2,0-0.3,0.1-0.3,0.4V142.5z M243.2,147.4c0,0.2,0.1,0.4,0.3,0.4c0.2,0,0.3-0.1,0.3-0.4v-2.6c0-0.2-0.1-0.4-0.3-0.4
				c-0.2,0-0.3,0.1-0.3,0.4V147.4z"/>
			<path class="st7" d="M248.9,142.8h0.6v-1.7l1.1-0.3v2h0.9v1h-0.9v4.1c0,0.4,0.1,0.5,0.4,0.5c0.2,0,0.3,0,0.5-0.1v1
				c-0.1,0.1-0.4,0.1-0.6,0.1c-1.2,0-1.5-0.6-1.5-1.5v-4.1h-0.6V142.8z"/>
			<path class="st7" d="M252.4,147.9v-3.7c0-0.9,0.4-1.5,1.6-1.5s1.6,0.6,1.6,1.5v3.7c0,0.9-0.3,1.5-1.6,1.5
				C252.8,149.5,252.4,148.9,252.4,147.9z M254.4,148v-3.8c0-0.4-0.2-0.5-0.4-0.5c-0.3,0-0.4,0.1-0.4,0.5v3.8c0,0.4,0.2,0.5,0.4,0.5
				C254.3,148.5,254.4,148.3,254.4,148z"/>
			<path class="st7" d="M256.7,149.3v-6.5h0.7l0.2,0.3c0.2-0.3,0.5-0.5,1-0.5c0.9,0,1.2,0.5,1.2,1.5v5.1h-1.1v-5.1
				c0-0.3-0.1-0.5-0.4-0.5c-0.3,0-0.4,0.2-0.4,0.5v5.1H256.7z"/>
			<path class="st7" d="M261,149.3v-6.5h0.7l0.2,0.3c0.2-0.3,0.5-0.5,1-0.5c0.9,0,1.2,0.5,1.2,1.5v5.1H263v-5.1
				c0-0.3-0.1-0.5-0.4-0.5c-0.3,0-0.4,0.2-0.4,0.5v5.1H261z"/>
			<path class="st7" d="M268.3,147.1v0.8c0,0.9-0.3,1.5-1.5,1.5c-1.2,0-1.6-0.6-1.6-1.5v-3.7c0-0.9,0.4-1.5,1.6-1.5
				c1.2,0,1.5,0.6,1.5,1.5v2h-2v1.7c0,0.4,0.2,0.5,0.4,0.5c0.2,0,0.4-0.1,0.4-0.5v-0.9H268.3z M267.2,144.2c0-0.4-0.2-0.5-0.4-0.5
				c-0.3,0-0.4,0.2-0.4,0.5v1.2h0.8V144.2z"/>
			<path class="st7" d="M269.3,144.2c0-0.9,0.4-1.5,1.5-1.5c1.2,0,1.5,0.6,1.5,1.5v0.7h-1.1v-0.7c0-0.3-0.2-0.5-0.4-0.5
				c-0.3,0-0.4,0.1-0.4,0.5v0.2c0,1.4,1.9,1.1,1.9,3v0.5c0,0.9-0.4,1.5-1.5,1.5c-1.2,0-1.5-0.6-1.5-1.5v-0.8h1.1v0.8
				c0,0.4,0.2,0.5,0.4,0.5c0.3,0,0.4-0.1,0.4-0.5v-0.5c0-1.4-1.9-1-1.9-3V144.2z"/>
		</g>
		<path class="st39" d="M252.3,117.5l-0.3-3.9l-0.2-2l0-0.1c-0.9,0.1-10.5-5-9.9-5.8c-1,0-2-0.1-3-0.2l0,0.2l-0.2,2.2l-0.5,6.3
			c0,0.2,0,0.4,0,0.5c0,2.6,2.1,4.7,4.8,4.7c1.1,0,2.1-0.4,2.9-1c0.3,1.5,1.6,2.6,3.2,2.6C251,121.1,252.5,119.4,252.3,117.5z"/>
		<path class="st40" d="M240.4,114.7c0-0.2,0-0.4,0-0.5l0.5-6.1c0,0,0,0,0,0c0-0.8,3.6-0.9,4.2-1.7c-0.3,0-3.3-1.6-3.5-1.6
			c0,0-0.5-0.1-0.7-0.1c0,0-1.8-0.1-2,0.8l0,0.2l-0.2,2.2l-0.5,6.3c0,0.2,0,0.4,0,0.5c0,2.6,2.1,4.7,4.8,4.7c0.4,0,0.8,0,1.1-0.1
			C242,118.8,240.4,116.9,240.4,114.7z"/>
		<path class="st40" d="M248,113.8c0.3,0,0.7,0,1,0c1,0,1.9,0,2.8-0.1c0.1,0,0.1,0,0.2,0l-0.2-2l0-0.1c-0.5-0.8-2.4-1.7-2.4-1.7
			c-0.3,0-2.3,0.6-3.1,1.7l0,0.1l-0.2,2l-0.3,3.9c0,0.1,0,0.2,0,0.4c0,0.2,0,0.4,0.1,0.6c0.3,1.5,1.6,2.6,3.2,2.6c0.3,0,0.7,0,1-0.1
			c-1.2-0.4-2-1.3-2.3-2.5c0-0.2-0.1-0.4-0.1-0.6c0-0.1,0-0.2,0-0.4L248,113.8z"/>
		<path class="st41" d="M253.5,103.4c0.8-0.7,1.3-1.6,1.3-2.7c0-3.8-5.3-8.6-11.8-8.6c-6.5,0-11.8,4.8-11.8,8.6c0,3,3.2,4.4,7.7,4.9
			c0.9,0.1,1.9,0.2,3,0.2c-0.6,0.8-0.9,1.7-0.9,2.5c0,2,2.2,3,5.3,3.4c0.9,0.1,1.8,0.1,2.8,0.1c1,0,1.9,0,2.8-0.1
			c3.1-0.3,5.3-1.3,5.3-3.4C257.2,106.5,255.7,104.6,253.5,103.4z"/>
		<path class="st42" d="M243.9,108.2c0-0.8,0.3-1.7,0.9-2.5c1.1-1.6,3.2-2.9,5.7-3.3c-0.5-0.1-1-0.1-1.5-0.1c-3,0-5.6,1.5-7,3.2l0,0
			c-4.2-0.5-7.2-2-7.2-4.8c0-3.4,4.3-7.7,9.9-8.5c-0.6-0.1-1.2-0.1-1.9-0.1c-6.5,0-11.8,4.8-11.8,8.6c0,3,3.2,4.4,7.7,4.9
			c0.9,0.1,1.9,0.2,3,0.2c0,0,0.1-0.1,0.1-0.1c0,0-0.1,0.1-0.1,0.1c-0.6,0.8-0.9,1.7-0.9,2.5c0,2,2.2,3,5.3,3.4
			c0.9,0.1,1.8,0.1,2.8,0.1c0.5,0,1,0,1.5,0c-0.4,0-0.9-0.1-1.3-0.1C246.1,111.2,243.9,110.2,243.9,108.2z"/>
		<g>
			<path class="st13" d="M257.2,108.2c0-1.7-1.5-3.6-3.7-4.8c0.8-0.7,1.3-1.6,1.3-2.7c0-3.4-4.3-7.7-9.9-8.5h0c0,0,0,0,0,0
				c-0.3,0-0.5-0.1-0.8-0.1c-0.1,0-0.1,0-0.2,0c-0.3,0-0.6,0-0.8,0c-6.5,0-11.8,4.8-11.8,8.6c0,3,3.2,4.4,7.7,4.9l0,0.2l-0.2,2.2
				l-0.5,6.3c0,0.2,0,0.4,0,0.5c0,2.6,2.1,4.7,4.8,4.7c0.2,0,0.3,0,0.5,0c0,0,0.1,0,0.1,0c0.1,0,0.3,0,0.4-0.1c0,0,0,0,0.1,0
				c0,0,0,0,0,0c0.7-0.2,1.3-0.5,1.8-0.9c0.3,1.5,1.6,2.6,3.2,2.6c0.2,0,0.3,0,0.4,0c0,0,0.1,0,0.1,0c0.1,0,0.2,0,0.4-0.1
				c0,0,0,0,0,0c0,0,0,0,0,0c1.5-0.4,2.5-1.9,2.3-3.5l-0.3-3.9l-0.2-2l0-0.1C254.9,111.2,257.2,110.2,257.2,108.2z"/>
		</g>
		<g>
			<g>
				<line class="st14" x1="220.6" y1="128.8" x2="198.9" y2="128.8"/>
				<g>
					<path class="st15" d="M199.1,125.1c-2.1,0-3.8,1.7-3.8,3.8s1.7,3.8,3.8,3.8c2.1,0,3.8-1.7,3.8-3.8S201.2,125.1,199.1,125.1z"/>
				</g>
			</g>
		</g>
	</g>
</svg>
