<?xml version="1.0" encoding="utf-8"?>
<!-- Generator: Adobe Illustrator 22.0.0, SVG Export Plug-In . SVG Version: 6.00 Build 0)  -->
<svg version="1.1" xmlns="http://www.w3.org/2000/svg" xmlns:xlink="http://www.w3.org/1999/xlink" x="0px" y="0px"
	 viewBox="0 0 700 700" style="enable-background:new 0 0 700 700;" xml:space="preserve">
<style type="text/css">
	.st0{fill:#EBF9FF;}
	.st1{fill:#B9C1C7;}
	.st2{fill:#9DA8B2;}
	.st3{fill:#D4D9DC;}
	.st4{fill:#E9EEF0;}
	.st5{fill:#FAFFFF;}
	.st6{fill:#D8E0E4;}
	.st7{fill:#62B5B9;}
	.st8{fill:#4A9AA2;}
	.st9{fill:#3C7C7F;}
	.st10{fill:#93B871;}
	.st11{fill:#703D21;}
	.st12{fill:#2B6060;}
	.st13{fill:#986A3C;}
	.st14{fill:#A5D080;}
	.st15{fill:#9A9E6A;}
	.st16{fill:none;stroke:#A5D080;stroke-width:0.75;stroke-miterlimit:10;}
	.st17{fill:#FBFFFF;}
	.st18{fill:#F9F8DC;}
	.st19{fill:#D1E7F8;}
	.st20{fill-rule:evenodd;clip-rule:evenodd;fill:#2B6060;}
	.st21{fill:none;stroke:#6D717F;stroke-width:3;stroke-miterlimit:10;}
	.st22{fill:#6D717F;}
	.st23{fill:#CDB461;}
	.st24{fill:#753137;}
	.st25{fill:#DD7979;}
	.st26{fill:#C0656D;}
	.st27{fill:#EDCDAC;}
	.st28{fill:#A9CBF0;}
	.st29{fill:#998585;}
	.st30{fill:#C7E7FA;}
	.st31{fill:#8092D6;}
	.st32{fill:#AC9696;}
	.st33{fill:#81716C;}
	.st34{fill:none;stroke:#6D717F;stroke-width:3;stroke-linecap:round;stroke-miterlimit:10;}
	.st35{fill:none;stroke:#6D717F;stroke-linecap:round;stroke-miterlimit:10;}
	.st36{fill:none;stroke:#CDB461;stroke-width:2;stroke-miterlimit:10;}
	.st37{opacity:0.5;fill:#BFAAA9;}
	.st38{fill:#C7757C;}
	.st39{fill:#FFFFFF;}
</style>
<g id="bg">
	<rect x="-38.2" y="-3.5" class="st0" width="744.8" height="724.2"/>
	<g>
		<polygon class="st1" points="60.5,392.1 18.5,492.2 111.2,492.2 82.1,430.9 78.7,430.2 		"/>
		<polygon class="st2" points="9,492.2 33.4,491.9 40.7,463.7 48.5,455.8 60.3,392.4 38.7,437.4 32.8,440.7 		"/>
		<polygon class="st3" points="82.1,430.9 78.7,430.2 71,413.5 74,453.5 74.8,464.3 89.1,492.2 115.3,492.2 		"/>
		<polygon class="st4" points="60.5,392.1 49.1,415.4 55.8,411.8 71.5,419.5 73.7,418.9 		"/>
		<polygon class="st5" points="71.5,419.5 73.7,418.9 71,413.5 		"/>
		<polygon class="st6" points="49.7,414.3 49.1,415.4 56.6,412.3 60.3,392.4 		"/>
	</g>
	<g>
		<polygon class="st1" points="221.7,425 193.6,492.2 255.8,492.2 236.2,451.1 234,450.6 		"/>
		<polygon class="st2" points="187.2,492.2 203.5,492 208.4,473.1 213.7,467.8 221.6,425.2 207.1,455.4 203.2,457.7 		"/>
		<polygon class="st3" points="236.2,451.1 234,450.6 228.8,439.4 230.8,466.2 231.3,473.5 240.9,492.2 258.5,492.2 		"/>
		<polygon class="st4" points="221.7,425 214.1,440.7 218.6,438.3 229.1,443.4 230.6,443 		"/>
		<polygon class="st5" points="229.1,443.4 230.6,443 228.8,439.4 		"/>
		<polygon class="st6" points="214.5,439.9 214.1,440.7 219.1,438.5 221.6,425.2 		"/>
	</g>
	<g>
		<polygon class="st1" points="122.3,357.8 66,492.2 190.3,492.2 151.3,410 146.8,409 		"/>
		<polygon class="st2" points="53.2,492.2 85.9,491.8 95.7,453.9 106.2,443.4 122,358.3 93,418.6 85.1,423.1 		"/>
		<polygon class="st3" points="151.3,410 146.8,409 136.4,386.6 140.4,440.2 141.5,454.8 160.7,492.2 195.9,492.2 		"/>
		<polygon class="st4" points="122.3,357.8 107,389.1 115.9,384.3 137.1,394.6 140,393.9 		"/>
		<polygon class="st5" points="137.1,394.6 140,393.9 136.4,386.6 		"/>
		<polygon class="st6" points="107.8,387.6 107,389.1 117.1,384.9 122,358.3 		"/>
	</g>
	<g>
		<polygon class="st1" points="620,367.7 561.4,507.6 690.8,507.6 650.1,422 645.4,421 		"/>
		<polygon class="st2" points="548.1,507.6 582.1,507.2 592.3,467.7 603.2,456.8 619.7,368.2 589.5,431 581.3,435.7 		"/>
		<polygon class="st3" points="650.1,422 645.4,421 634.7,397.7 638.8,453.5 640,468.7 659.9,507.6 696.5,507.6 		"/>
		<polygon class="st4" points="620,367.7 604,400.3 613.4,395.3 635.4,406 638.4,405.3 		"/>
		<polygon class="st5" points="635.4,406 638.4,405.3 634.7,397.7 		"/>
		<polygon class="st6" points="604.9,398.7 604,400.3 614.6,395.9 619.7,368.2 		"/>
	</g>
	<g>
		<polygon class="st1" points="531.4,297.3 443.3,507.6 637.9,507.6 576.7,378.9 569.7,377.4 		"/>
		<polygon class="st2" points="423.3,507.6 474.4,506.9 489.7,447.7 506.2,431.2 530.9,298 485.6,392.4 473.3,399.5 		"/>
		<polygon class="st3" points="576.7,378.9 569.7,377.4 553.5,342.4 559.7,426.2 561.4,449 591.4,507.6 646.5,507.6 		"/>
		<polygon class="st4" points="531.4,297.3 507.4,346.3 521.4,338.8 554.6,354.8 559,353.7 		"/>
		<polygon class="st5" points="554.6,354.8 559,353.7 553.5,342.3 		"/>
		<polygon class="st6" points="508.7,343.9 507.4,346.3 523.2,339.7 530.9,298 		"/>
	</g>
	<path class="st7" d="M1035.1,505.3c-1.5,0.3-3.1,0.2-4.7-0.3c-1.8-0.5-3.1-1.4-3.9-1.9c-1.9-1.6-4-2.6-6.1-3
		c-0.7-0.1-1.3-0.2-2-0.2c-1.2,0-2.4,0.2-3.6,0.5c-2.5,0.7-4.3,2.1-5,2.6c0,0-0.1,0.1-0.1,0.1c-1.8,1.6-3.8,2.6-5.8,2.8h-2.5
		c-0.5-0.1-1.1-0.2-1.6-0.4c-2.7-0.8-4.6-2.5-4.6-2.5c0,0,0,0-0.1-0.1c0,0-0.1-0.1-0.1-0.1c-1.5-1.3-3.1-2.3-4.7-2.8
		c-0.6-0.2-1.1-0.3-1.7-0.4c-0.7-0.1-1.3-0.2-2-0.2c-1.2,0-2.4,0.2-3.6,0.5c-2.5,0.7-4.3,2.1-5,2.6c0,0-0.1,0.1-0.1,0.1
		c-3,2.7-6.4,3.5-10,2.5c-1.8-0.5-3.1-1.4-3.9-1.9c-1.9-1.6-4-2.7-6.1-3c-0.7-0.1-1.3-0.2-2-0.2c-1.2,0-2.4,0.2-3.6,0.5
		c-2.5,0.7-4.3,2.1-5,2.6c0,0-0.1,0.1-0.1,0.1c-1.4,1.3-2.9,2.1-4.5,2.6h-5.2c-0.1,0-0.2,0-0.3-0.1c-2.7-0.8-4.6-2.5-4.6-2.5
		c0,0,0,0-0.1-0.1c0,0-0.1-0.1-0.1-0.1c-2-1.7-4.1-2.8-6.4-3.2c-0.7-0.1-1.3-0.2-2-0.2c-1.2,0-2.4,0.2-3.6,0.5
		c-1.4,0.4-2.6,1-3.5,1.6c-0.2,0-0.3,0.1-0.4,0.2c-0.1,0.1-0.2,0.2-0.3,0.2c-0.5,0.4-0.9,0.7-1,0.8c-2.7,1.9-5.6,2.4-8.7,1.5
		c-2.7-0.8-4.6-2.5-4.6-2.5c0,0-0.1,0-0.1-0.1c-1.9-1.6-4-2.6-6.1-3c-0.7-0.1-1.3-0.2-2-0.2c-1.2,0-2.4,0.2-3.6,0.5
		c-1.7,0.5-3.2,1.3-4.1,2c-0.1,0-1.2,0.9-1.3,1c-2.8,2.1-5.8,2.6-9,1.7c-2.7-0.8-4.6-2.5-4.6-2.5c0,0-0.1,0-0.1-0.1
		c-1.9-1.6-4-2.6-6.1-3c-0.7-0.1-1.3-0.2-2-0.2c-1.2,0-2.4,0.2-3.6,0.5c-3.2,0.9-5.2,2.8-5.3,2.9c0,0,0,0,0,0c0,0-0.1,0.1-0.1,0.1
		c-1.2,1.1-2.5,1.9-3.9,2.4c-1.9,0.7-4,0.7-6.1,0.1c-2.7-0.8-4.6-2.5-4.6-2.5c-0.1-0.1-0.2-0.1-0.2-0.2c-1.9-1.6-3.9-2.5-6-2.9
		c-0.7-0.1-1.3-0.2-2-0.2c-1.2,0-2.4,0.2-3.6,0.5c-1.7,0.5-3.2,1.3-4.1,2c-0.1,0-1.2,0.9-1.3,1c-2.8,2.1-5.8,2.6-9,1.7
		c-2.7-0.8-4.6-2.5-4.6-2.5c0,0-0.1,0-0.1-0.1c-1.9-1.6-4-2.6-6.1-3c-0.7-0.1-1.3-0.2-2-0.2c-1.2,0-2.4,0.2-3.6,0.5
		c-3.2,0.9-5.2,2.8-5.3,2.9c0,0,0,0-0.1,0.1c0,0,0,0-0.1,0c-3,2.7-6.4,3.5-10,2.5c-2.7-0.8-4.6-2.5-4.6-2.5c0,0-0.1-0.1-0.1-0.1
		c0,0,0,0,0,0c-2-1.7-4.1-2.8-6.4-3.2c-0.7-0.1-1.3-0.2-2-0.2c-1.2,0-2.4,0.2-3.6,0.5c-2.5,0.7-4.3,2.1-5,2.6c0,0-0.1,0.1-0.1,0.1
		c-3.1,2.7-6.4,3.5-10,2.5c-1.8-0.5-3.1-1.4-3.9-1.9c-1.9-1.6-4-2.7-6.1-3c-0.7-0.1-1.3-0.2-2-0.2c-1.2,0-2.4,0.2-3.6,0.5
		c-2.5,0.7-4.3,2.1-5,2.6c0,0-0.1,0.1-0.1,0.1c-3.1,2.7-6.4,3.5-10,2.5c-2.7-0.8-4.6-2.5-4.6-2.5c0,0,0,0-0.1-0.1
		c0,0-0.1-0.1-0.1-0.1c-1.5-1.3-3.1-2.3-4.7-2.8c-0.6-0.2-1.1-0.3-1.7-0.4c-0.7-0.1-1.3-0.2-2-0.2c-1.2,0-2.4,0.2-3.6,0.5
		c-2.5,0.7-4.3,2.1-5,2.6c0,0-0.1,0.1-0.1,0.1c-3,2.7-6.4,3.5-10,2.5c-1.8-0.5-3.1-1.4-3.9-1.9c-1.9-1.6-4-2.7-6.1-3
		c-0.7-0.1-1.3-0.2-2-0.2c-1.2,0-2.4,0.2-3.6,0.5c-2.5,0.7-4.3,2.1-5,2.6c0,0-0.1,0.1-0.1,0.1c-3.1,2.7-6.4,3.5-10,2.5
		c-2.7-0.8-4.6-2.5-4.6-2.5c0,0,0,0-0.1-0.1c0,0-0.1-0.1-0.1-0.1c-2-1.7-4.1-2.8-6.4-3.2c-0.7-0.1-1.3-0.2-2-0.2
		c-1.2,0-2.4,0.2-3.6,0.5c-1.6,0.5-2.9,1.2-3.8,1.8c0,0-0.1,0-0.1,0.1c-0.9,0.6-1.4,1-1.4,1.1c0,0-0.1,0.1-0.1,0.1
		c-2.6,1.8-5.5,2.2-8.5,1.3c-2.7-0.8-4.6-2.5-4.6-2.5c0,0-0.1-0.1-0.1-0.1c-1.9-1.6-4-2.6-6.1-3c-0.7-0.1-1.3-0.2-2-0.2
		c-1.2,0-2.4,0.2-3.6,0.5c-1.7,0.5-3.2,1.3-4.1,2c-0.1,0-1.2,0.9-1.3,1c-2.8,2.1-5.8,2.6-9,1.7c-2.7-0.8-4.6-2.5-4.6-2.5
		c0,0-0.1,0-0.1-0.1c-1.9-1.6-4-2.6-6.1-3c-0.7-0.1-1.3-0.2-2-0.2c-1.2,0-2.4,0.2-3.6,0.5c-3.2,0.9-5.2,2.8-5.3,2.9c0,0,0,0,0,0
		c0,0-0.1,0.1-0.1,0.1c-1.2,1.1-2.5,1.9-3.9,2.4c-1.9,0.7-4,0.7-6.1,0.1c-2.7-0.8-4.6-2.5-4.6-2.5c-0.1-0.1-0.2-0.1-0.2-0.2
		c-1.9-1.6-3.9-2.5-6-2.9c-0.7-0.1-1.3-0.2-2-0.2c-1.2,0-2.4,0.2-3.6,0.5c-1.7,0.5-3.2,1.3-4.1,2c-0.1,0-1.2,0.9-1.3,1
		c-2.8,2.1-5.8,2.6-9,1.7c-2.7-0.8-4.6-2.5-4.6-2.5c0,0-0.1,0-0.1-0.1c-1.9-1.6-4-2.6-6.1-3c-0.7-0.1-1.3-0.2-2-0.2
		c-1.2,0-2.4,0.2-3.6,0.5c-3.2,0.9-5.2,2.8-5.3,2.9c0,0,0,0-0.1,0.1c0,0,0,0-0.1,0c-3.1,2.7-6.4,3.5-10,2.5
		c-2.7-0.8-4.6-2.5-4.6-2.5c0,0-0.1-0.1-0.1-0.1c0,0,0,0,0,0c-2-1.7-4.1-2.8-6.4-3.2c-0.7-0.1-1.3-0.2-2-0.2c-1.2,0-2.4,0.2-3.6,0.5
		c-2.5,0.7-4.3,2.1-5,2.6c0,0-0.1,0.1-0.1,0.1c-3.1,2.7-6.4,3.5-10,2.5c-1.8-0.5-3.1-1.4-3.9-1.9c-1.9-1.6-4-2.6-6.1-3
		c-0.7-0.1-1.3-0.2-2-0.2c-1.2,0-2.4,0.2-3.6,0.5c-2.5,0.7-4.3,2.1-5,2.6c0,0-0.1,0.1-0.1,0.1c-3.1,2.7-6.4,3.5-10,2.5
		c-2.7-0.8-4.6-2.5-4.6-2.5c0,0,0,0-0.1-0.1c0,0-0.1-0.1-0.1-0.1c-1.5-1.3-3.1-2.3-4.7-2.8c-0.6-0.2-1.1-0.3-1.7-0.4
		c-0.7-0.1-1.3-0.2-2-0.2c-1.2,0-2.4,0.2-3.6,0.5c-2.5,0.7-4.3,2.1-5,2.6c0,0-0.1,0.1-0.1,0.1c-3,2.7-6.4,3.5-10,2.5
		c-1.8-0.5-3.1-1.4-3.9-1.9c-1.9-1.6-4-2.7-6.1-3c-0.7-0.1-1.3-0.2-2-0.2c-1.2,0-2.4,0.2-3.6,0.5c-2.5,0.7-4.3,2.1-5,2.6
		c0,0-0.1,0.1-0.1,0.1c-2.3,2-4.7,3-7.3,2.9v204.3h656.8V505.3z"/>
	<path class="st8" d="M1035.1,523.5c-1.5,0.3-3.1,0.2-4.7-0.3c-1.8-0.5-3.1-1.4-3.9-1.9c-1.9-1.6-4-2.6-6.1-3
		c-0.7-0.1-1.3-0.2-2-0.2c-1.2,0-2.4,0.2-3.6,0.5c-2.5,0.7-4.3,2.1-5,2.6c0,0-0.1,0.1-0.1,0.1c-1.8,1.6-3.8,2.6-5.8,2.8h-2.5
		c-0.5-0.1-1.1-0.2-1.6-0.4c-2.7-0.8-4.6-2.5-4.6-2.5c0,0,0,0-0.1-0.1c0,0-0.1-0.1-0.1-0.1c-1.5-1.3-3.1-2.3-4.7-2.8
		c-0.6-0.2-1.1-0.3-1.7-0.4c-0.7-0.1-1.3-0.2-2-0.2c-1.2,0-2.4,0.2-3.6,0.5c-2.5,0.7-4.3,2.1-5,2.6c0,0-0.1,0.1-0.1,0.1
		c-3,2.7-6.4,3.5-10,2.5c-1.8-0.5-3.1-1.4-3.9-1.9c-1.9-1.6-4-2.7-6.1-3c-0.7-0.1-1.3-0.2-2-0.2c-1.2,0-2.4,0.2-3.6,0.5
		c-2.5,0.7-4.3,2.1-5,2.6c0,0-0.1,0.1-0.1,0.1c-1.4,1.3-2.9,2.1-4.5,2.6h-5.2c-0.1,0-0.2,0-0.3-0.1c-2.7-0.8-4.6-2.5-4.6-2.5
		c0,0,0,0-0.1-0.1c0,0-0.1-0.1-0.1-0.1c-2-1.7-4.1-2.8-6.4-3.2c-0.7-0.1-1.3-0.2-2-0.2c-1.2,0-2.4,0.2-3.6,0.5
		c-1.4,0.4-2.6,1-3.5,1.6c-0.2,0-0.3,0.1-0.4,0.2c-0.1,0.1-0.2,0.2-0.3,0.2c-0.5,0.4-0.9,0.7-1,0.8c-2.7,1.9-5.6,2.4-8.7,1.5
		c-2.7-0.8-4.6-2.5-4.6-2.5c0,0-0.1,0-0.1-0.1c-1.9-1.6-4-2.6-6.1-3c-0.7-0.1-1.3-0.2-2-0.2c-1.2,0-2.4,0.2-3.6,0.5
		c-1.7,0.5-3.2,1.3-4.1,2c-0.1,0-1.2,0.9-1.3,1c-2.8,2.1-5.8,2.6-9,1.7c-2.7-0.8-4.6-2.5-4.6-2.5c0,0-0.1,0-0.1-0.1
		c-1.9-1.6-4-2.6-6.1-3c-0.7-0.1-1.3-0.2-2-0.2c-1.2,0-2.4,0.2-3.6,0.5c-3.2,0.9-5.2,2.8-5.3,2.9c0,0,0,0,0,0c0,0-0.1,0.1-0.1,0.1
		c-1.2,1.1-2.5,1.9-3.9,2.4c-1.9,0.7-4,0.7-6.1,0.1c-2.7-0.8-4.6-2.5-4.6-2.5c-0.1-0.1-0.2-0.1-0.2-0.2c-1.9-1.6-3.9-2.5-6-2.9
		c-0.7-0.1-1.3-0.2-2-0.2c-1.2,0-2.4,0.2-3.6,0.5c-1.7,0.5-3.2,1.3-4.1,2c-0.1,0-1.2,0.9-1.3,1c-2.8,2.1-5.8,2.6-9,1.7
		c-2.7-0.8-4.6-2.5-4.6-2.5c0,0-0.1,0-0.1-0.1c-1.9-1.6-4-2.6-6.1-3c-0.7-0.1-1.3-0.2-2-0.2c-1.2,0-2.4,0.2-3.6,0.5
		c-3.2,0.9-5.2,2.8-5.3,2.9c0,0,0,0-0.1,0.1c0,0,0,0-0.1,0c-3,2.7-6.4,3.5-10,2.5c-2.7-0.8-4.6-2.5-4.6-2.5c0,0-0.1-0.1-0.1-0.1
		c0,0,0,0,0,0c-2-1.7-4.1-2.8-6.4-3.2c-0.7-0.1-1.3-0.2-2-0.2c-1.2,0-2.4,0.2-3.6,0.5c-2.5,0.7-4.3,2.1-5,2.6c0,0-0.1,0.1-0.1,0.1
		c-3.1,2.7-6.4,3.5-10,2.5c-1.8-0.5-3.1-1.4-3.9-1.9c-1.9-1.6-4-2.7-6.1-3c-0.7-0.1-1.3-0.2-2-0.2c-1.2,0-2.4,0.2-3.6,0.5
		c-2.5,0.7-4.3,2.1-5,2.6c0,0-0.1,0.1-0.1,0.1c-3.1,2.7-6.4,3.5-10,2.5c-2.7-0.8-4.6-2.5-4.6-2.5c0,0,0,0-0.1-0.1
		c0,0-0.1-0.1-0.1-0.1c-1.5-1.3-3.1-2.3-4.7-2.8c-0.6-0.2-1.1-0.3-1.7-0.4c-0.7-0.1-1.3-0.2-2-0.2c-1.2,0-2.4,0.2-3.6,0.5
		c-2.5,0.7-4.3,2.1-5,2.6c0,0-0.1,0.1-0.1,0.1c-3,2.7-6.4,3.5-10,2.5c-1.8-0.5-3.1-1.4-3.9-1.9c-1.9-1.6-4-2.7-6.1-3
		c-0.7-0.1-1.3-0.2-2-0.2c-1.2,0-2.4,0.2-3.6,0.5c-2.5,0.7-4.3,2.1-5,2.6c0,0-0.1,0.1-0.1,0.1c-3.1,2.7-6.4,3.5-10,2.5
		c-2.7-0.8-4.6-2.5-4.6-2.5c0,0,0,0-0.1-0.1c0,0-0.1-0.1-0.1-0.1c-2-1.7-4.1-2.8-6.4-3.2c-0.7-0.1-1.3-0.2-2-0.2
		c-1.2,0-2.4,0.2-3.6,0.5c-1.6,0.5-2.9,1.2-3.8,1.8c0,0-0.1,0-0.1,0.1c-0.9,0.6-1.4,1-1.4,1.1c0,0-0.1,0.1-0.1,0.1
		c-2.6,1.8-5.5,2.2-8.5,1.3c-2.7-0.8-4.6-2.5-4.6-2.5c0,0-0.1-0.1-0.1-0.1c-1.9-1.6-4-2.6-6.1-3c-0.7-0.1-1.3-0.2-2-0.2
		c-1.2,0-2.4,0.2-3.6,0.5c-1.7,0.5-3.2,1.3-4.1,2c-0.1,0-1.2,0.9-1.3,1c-2.8,2.1-5.8,2.6-9,1.7c-2.7-0.8-4.6-2.5-4.6-2.5
		c0,0-0.1,0-0.1-0.1c-1.9-1.6-4-2.6-6.1-3c-0.7-0.1-1.3-0.2-2-0.2c-1.2,0-2.4,0.2-3.6,0.5c-3.2,0.9-5.2,2.8-5.3,2.9c0,0,0,0,0,0
		c0,0-0.1,0.1-0.1,0.1c-1.2,1.1-2.5,1.9-3.9,2.4c-1.9,0.7-4,0.7-6.1,0.1c-2.7-0.8-4.6-2.5-4.6-2.5c-0.1-0.1-0.2-0.1-0.2-0.2
		c-1.9-1.6-3.9-2.5-6-2.9c-0.7-0.1-1.3-0.2-2-0.2c-1.2,0-2.4,0.2-3.6,0.5c-1.7,0.5-3.2,1.3-4.1,2c-0.1,0-1.2,0.9-1.3,1
		c-2.8,2.1-5.8,2.6-9,1.7c-2.7-0.8-4.6-2.5-4.6-2.5c0,0-0.1,0-0.1-0.1c-1.9-1.6-4-2.6-6.1-3c-0.7-0.1-1.3-0.2-2-0.2
		c-1.2,0-2.4,0.2-3.6,0.5c-3.2,0.9-5.2,2.8-5.3,2.9c0,0,0,0-0.1,0.1c0,0,0,0-0.1,0c-3.1,2.7-6.4,3.5-10,2.5
		c-2.7-0.8-4.6-2.5-4.6-2.5c0,0-0.1-0.1-0.1-0.1c0,0,0,0,0,0c-2-1.7-4.1-2.8-6.4-3.2c-0.7-0.1-1.3-0.2-2-0.2c-1.2,0-2.4,0.2-3.6,0.5
		c-2.5,0.7-4.3,2.1-5,2.6c0,0-0.1,0.1-0.1,0.1c-3.1,2.7-6.4,3.5-10,2.5c-1.8-0.5-3.1-1.4-3.9-1.9c-1.9-1.6-4-2.7-6.1-3
		c-0.7-0.1-1.3-0.2-2-0.2c-1.2,0-2.4,0.2-3.6,0.5c-2.5,0.7-4.3,2.1-5,2.6c0,0-0.1,0.1-0.1,0.1c-3.1,2.7-6.4,3.5-10,2.5
		c-2.7-0.8-4.6-2.5-4.6-2.5c0,0,0,0-0.1-0.1c0,0-0.1-0.1-0.1-0.1c-1.5-1.3-3.1-2.3-4.7-2.8c-0.6-0.2-1.1-0.3-1.7-0.4
		c-0.7-0.1-1.3-0.2-2-0.2c-1.2,0-2.4,0.2-3.6,0.5c-2.5,0.7-4.3,2.1-5,2.6c0,0-0.1,0.1-0.1,0.1c-3,2.7-6.4,3.5-10,2.5
		c-1.8-0.5-3.1-1.4-3.9-1.9c-1.9-1.6-4-2.7-6.1-3c-0.7-0.1-1.3-0.2-2-0.2c-1.2,0-2.4,0.2-3.6,0.5c-2.5,0.7-4.3,2.1-5,2.6
		c0,0-0.1,0.1-0.1,0.1c-2.3,2-4.7,3-7.3,2.9v131h656.8V523.5z"/>
	<path class="st9" d="M1035.1,541.3c-1.5,0.3-3.1,0.2-4.7-0.3c-1.8-0.5-3.1-1.4-3.9-1.9c-1.9-1.6-4-2.6-6.1-3
		c-0.7-0.1-1.3-0.2-2-0.2c-1.2,0-2.4,0.2-3.6,0.5c-2.5,0.7-4.3,2.1-5,2.6c0,0-0.1,0.1-0.1,0.1c-1.8,1.6-3.8,2.6-5.8,2.8h-2.5
		c-0.5-0.1-1.1-0.2-1.6-0.4c-2.7-0.8-4.6-2.5-4.6-2.5c0,0,0,0-0.1-0.1c0,0-0.1-0.1-0.1-0.1c-1.5-1.3-3.1-2.3-4.7-2.8
		c-0.6-0.2-1.1-0.3-1.7-0.4c-0.7-0.1-1.3-0.2-2-0.2c-1.2,0-2.4,0.2-3.6,0.5c-2.5,0.7-4.3,2.1-5,2.6c0,0-0.1,0.1-0.1,0.1
		c-3,2.7-6.4,3.5-10,2.5c-1.8-0.5-3.1-1.4-3.9-1.9c-1.9-1.6-4-2.7-6.1-3c-0.7-0.1-1.3-0.2-2-0.2c-1.2,0-2.4,0.2-3.6,0.5
		c-2.5,0.7-4.3,2.1-5,2.6c0,0-0.1,0.1-0.1,0.1c-1.4,1.3-2.9,2.1-4.5,2.6h-5.2c-0.1,0-0.2,0-0.3-0.1c-2.7-0.8-4.6-2.5-4.6-2.5
		c0,0,0,0-0.1-0.1c0,0-0.1-0.1-0.1-0.1c-2-1.7-4.1-2.8-6.4-3.2c-0.7-0.1-1.3-0.2-2-0.2c-1.2,0-2.4,0.2-3.6,0.5
		c-1.4,0.4-2.6,1-3.5,1.6c-0.2,0-0.3,0.1-0.4,0.2c-0.1,0.1-0.2,0.2-0.3,0.2c-0.5,0.4-0.9,0.7-1,0.8c-2.7,1.9-5.6,2.4-8.7,1.5
		c-2.7-0.8-4.6-2.5-4.6-2.5c0,0-0.1,0-0.1-0.1c-1.9-1.6-4-2.6-6.1-3c-0.7-0.1-1.3-0.2-2-0.2c-1.2,0-2.4,0.2-3.6,0.5
		c-1.7,0.5-3.2,1.3-4.1,2c-0.1,0-1.2,0.9-1.3,1c-2.8,2.1-5.8,2.6-9,1.7c-2.7-0.8-4.6-2.5-4.6-2.5c0,0-0.1,0-0.1-0.1
		c-1.9-1.6-4-2.6-6.1-3c-0.7-0.1-1.3-0.2-2-0.2c-1.2,0-2.4,0.2-3.6,0.5c-3.2,0.9-5.2,2.8-5.3,2.9c0,0,0,0,0,0c0,0-0.1,0.1-0.1,0.1
		c-1.2,1.1-2.5,1.9-3.9,2.4c-1.9,0.7-4,0.7-6.1,0.1c-2.7-0.8-4.6-2.5-4.6-2.5c-0.1-0.1-0.2-0.1-0.2-0.2c-1.9-1.6-3.9-2.5-6-2.9
		c-0.7-0.1-1.3-0.2-2-0.2c-1.2,0-2.4,0.2-3.6,0.5c-1.7,0.5-3.2,1.3-4.1,2c-0.1,0-1.2,0.9-1.3,1c-2.8,2.1-5.8,2.6-9,1.7
		c-2.7-0.8-4.6-2.5-4.6-2.5c0,0-0.1,0-0.1-0.1c-1.9-1.6-4-2.6-6.1-3c-0.7-0.1-1.3-0.2-2-0.2c-1.2,0-2.4,0.2-3.6,0.5
		c-3.2,0.9-5.2,2.8-5.3,2.9c0,0,0,0-0.1,0.1c0,0,0,0-0.1,0c-3,2.7-6.4,3.5-10,2.5c-2.7-0.8-4.6-2.5-4.6-2.5c0,0-0.1-0.1-0.1-0.1
		c0,0,0,0,0,0c-2-1.7-4.1-2.8-6.4-3.2c-0.7-0.1-1.3-0.2-2-0.2c-1.2,0-2.4,0.2-3.6,0.5c-2.5,0.7-4.3,2.1-5,2.6c0,0-0.1,0.1-0.1,0.1
		c-3.1,2.7-6.4,3.5-10,2.5c-1.8-0.5-3.1-1.4-3.9-1.9c-1.9-1.6-4-2.7-6.1-3c-0.7-0.1-1.3-0.2-2-0.2c-1.2,0-2.4,0.2-3.6,0.5
		c-2.5,0.7-4.3,2.1-5,2.6c0,0-0.1,0.1-0.1,0.1c-3.1,2.7-6.4,3.5-10,2.5c-2.7-0.8-4.6-2.5-4.6-2.5c0,0,0,0-0.1-0.1
		c0,0-0.1-0.1-0.1-0.1c-1.5-1.3-3.1-2.3-4.7-2.8c-0.6-0.2-1.1-0.3-1.7-0.4c-0.7-0.1-1.3-0.2-2-0.2c-1.2,0-2.4,0.2-3.6,0.5
		c-2.5,0.7-4.3,2.1-5,2.6c0,0-0.1,0.1-0.1,0.1c-3,2.7-6.4,3.5-10,2.5c-1.8-0.5-3.1-1.4-3.9-1.9c-1.9-1.6-4-2.7-6.1-3
		c-0.7-0.1-1.3-0.2-2-0.2c-1.2,0-2.4,0.2-3.6,0.5c-2.5,0.7-4.3,2.1-5,2.6c0,0-0.1,0.1-0.1,0.1c-3.1,2.7-6.4,3.5-10,2.5
		c-2.7-0.8-4.6-2.5-4.6-2.5c0,0,0,0-0.1-0.1c0,0-0.1-0.1-0.1-0.1c-2-1.7-4.1-2.8-6.4-3.2c-0.7-0.1-1.3-0.2-2-0.2
		c-1.2,0-2.4,0.2-3.6,0.5c-1.6,0.5-2.9,1.2-3.8,1.8c0,0-0.1,0-0.1,0.1c-0.9,0.6-1.4,1-1.4,1.1c0,0-0.1,0.1-0.1,0.1
		c-2.6,1.8-5.5,2.2-8.5,1.3c-2.7-0.8-4.6-2.5-4.6-2.5c0,0-0.1-0.1-0.1-0.1c-1.9-1.6-4-2.6-6.1-3c-0.7-0.1-1.3-0.2-2-0.2
		c-1.2,0-2.4,0.2-3.6,0.5c-1.7,0.5-3.2,1.3-4.1,2c-0.1,0-1.2,0.9-1.3,1c-2.8,2.1-5.8,2.6-9,1.7c-2.7-0.8-4.6-2.5-4.6-2.5
		c0,0-0.1,0-0.1-0.1c-1.9-1.6-4-2.6-6.1-3c-0.7-0.1-1.3-0.2-2-0.2c-1.2,0-2.4,0.2-3.6,0.5c-3.2,0.9-5.2,2.8-5.3,2.9c0,0,0,0,0,0
		c0,0-0.1,0.1-0.1,0.1c-1.2,1.1-2.5,1.9-3.9,2.4c-1.9,0.7-4,0.7-6.1,0.1c-2.7-0.8-4.6-2.5-4.6-2.5c-0.1-0.1-0.2-0.1-0.2-0.2
		c-1.9-1.6-3.9-2.5-6-2.9c-0.7-0.1-1.3-0.2-2-0.2c-1.2,0-2.4,0.2-3.6,0.5c-1.7,0.5-3.2,1.3-4.1,2c-0.1,0-1.2,0.9-1.3,1
		c-2.8,2.1-5.8,2.6-9,1.7c-2.7-0.8-4.6-2.5-4.6-2.5c0,0-0.1,0-0.1-0.1c-1.9-1.6-4-2.6-6.1-3c-0.7-0.1-1.3-0.2-2-0.2
		c-1.2,0-2.4,0.2-3.6,0.5c-3.2,0.9-5.2,2.8-5.3,2.9c0,0,0,0-0.1,0.1c0,0,0,0-0.1,0c-3.1,2.7-6.4,3.5-10,2.5
		c-2.7-0.8-4.6-2.5-4.6-2.5c0,0-0.1-0.1-0.1-0.1c0,0,0,0,0,0c-2-1.7-4.1-2.8-6.4-3.2c-0.7-0.1-1.3-0.2-2-0.2c-1.2,0-2.4,0.2-3.6,0.5
		c-2.5,0.7-4.3,2.1-5,2.6c0,0-0.1,0.1-0.1,0.1c-3.1,2.7-6.4,3.5-10,2.5c-1.8-0.5-3.1-1.4-3.9-1.9c-1.9-1.6-4-2.7-6.1-3
		c-0.7-0.1-1.3-0.2-2-0.2c-1.2,0-2.4,0.2-3.6,0.5c-2.5,0.7-4.3,2.1-5,2.6c0,0-0.1,0.1-0.1,0.1c-3.1,2.7-6.4,3.5-10,2.5
		c-2.7-0.8-4.6-2.5-4.6-2.5c0,0,0,0-0.1-0.1c0,0-0.1-0.1-0.1-0.1c-1.5-1.3-3.1-2.3-4.7-2.8c-0.6-0.2-1.1-0.3-1.7-0.4
		c-0.7-0.1-1.3-0.2-2-0.2c-1.2,0-2.4,0.2-3.6,0.5c-2.5,0.7-4.3,2.1-5,2.6c0,0-0.1,0.1-0.1,0.1c-3,2.7-6.4,3.5-10,2.5
		c-1.8-0.5-3.1-1.4-3.9-1.9c-1.9-1.6-4-2.7-6.1-3c-0.7-0.1-1.3-0.2-2-0.2c-1.2,0-2.4,0.2-3.6,0.5c-2.5,0.7-4.3,2.1-5,2.6
		c0,0-0.1,0.1-0.1,0.1c-2.3,2-4.7,3-7.3,2.9v172.3h656.8V541.3z"/>
	<polygon class="st10" points="478.9,489 -56.1,489 -56.1,504 490.5,504 	"/>
	<polygon class="st11" points="490.5,504 -56.1,504 -56.1,527 508.3,527 	"/>
	<path class="st11" d="M396.4,507c0,18.9-22.2,19.3-49.7,19.3c-27.4,0-49.7-0.3-49.7-19.3c0-18.9,22.2-34.3,49.7-34.3
		C374.2,472.8,396.4,488.1,396.4,507z"/>
	<g>
		<path class="st12" d="M495.6,680.3c-43.5-1.1-85.6-15-129.1-17.1c-64.6-3.1-128.4,20.3-192.9,15.5c-45.1-3.3-88.9-20.4-134-17.4
			c-32.5,2.2-63.9,14.6-95.7,19V744h794v-60c-18.6-4.1-37.6-11.2-56.1-14.9C620.7,656.7,558.1,681.8,495.6,680.3z"/>
		<path class="st13" d="M563.9,599l-55.6-72H-56.1v153.4c31.8-4.4,63.3-16.8,95.7-19c45.1-3,89,14,134,17.4
			c64.5,4.8,128.3-18.6,192.9-15.5c43.5,2.1,85.6,16,129.1,17.1c62.5,1.5,125.1-23.6,186.2-11.3c18.5,3.8,37.5,10.9,56.1,14.9v-85
			H563.9z"/>
	</g>
	<g>
		<g>
			<path class="st10" d="M346.2,330.6c-1.8,2.2-1.8,3.6,0,3.9c0,0,2-1.1,7.8-6.8C353.9,327.7,348.2,328.1,346.2,330.6z"/>
			<path class="st14" d="M346.1,334.5c0,0,0,2.7,3.5,0.4c3.5-2.2,3.3-5.5,4.3-7.2C348.1,333.4,346.1,334.5,346.1,334.5z"/>
		</g>
		<g>
			<path class="st10" d="M339.3,343c2.5,1.8,4.1,1.7,4.5-0.3c0,0-1.3-2.1-7.7-8.1C336.1,334.5,336.5,340.9,339.3,343z"/>
			<path class="st14" d="M343.8,342.7c0,0,3.1-0.2,0.6-3.9c-2.5-3.7-6.2-3.2-8.2-4.2C342.5,340.5,343.8,342.7,343.8,342.7z"/>
		</g>
		<g>
			<path class="st10" d="M340.1,324.6c2.5,1.8,4.1,1.7,4.5-0.3c0,0-1.3-2.1-7.7-8.1C336.9,316.1,337.3,322.5,340.1,324.6z"/>
			<path class="st14" d="M344.6,324.2c0,0,3.1-0.2,0.6-3.9c-2.5-3.7-6.2-3.2-8.2-4.2C343.3,322.1,344.6,324.2,344.6,324.2z"/>
		</g>
		<path class="st15" d="M341.5,481.9l-7.1,8.8l-22.7,18.6c0,0-6.5,6.8-7.3,7.1s-6,4.1-6,4.1l-6.7,0.8l-13.5,6.3l-10.6,5.7l13-5.2
			l11.1-5.1l3.4-0.2l-1.9,3.2l-2.6,7.3l-0.4,6.6l2.3-7.6l4.1-8.5l10.1-6.9l-3.1,5.7l-2.9,12.2l-2.4,8.1l-7.8,10.7l-8,4.7l-9.9,4.1
			l8-1.4l5.1-2l-1.2,4.6l-1.9,6.6l4.1-7.3l1.7-5.1l5.4-4.2l7.1-10.8l1.9-4.6l-0.9,25.2l-3.3,8.8l6-10.5l0.2-27.4l2.6-8.6l4.5-10.8
			l28.1-23.8l-5.2,23l-5.5,9.8l-5.5,5.4l-6.7,3.7l8.5-3.2l7.4-7.4l5.3-10.1l-2.5,15.6l-8.2,18.6l-12,11l-1,5.6l2.5-5.6l10.5-7.3
			l-2,16.1l2-1.4l1.6-14.5l9,21l-6.4-22.7l0.2-7.1c0,0,5.7-12.8,6.1-13.4c0.4-0.5,0.8-5.7,0.9-5.1c0.2,0.7,10.5,16.6,10.5,16.6
			l2.8,8.8v10.5l2.1,4.7v-9.5v-6.8l-3.6-8.8l7.4,5.4l9.9,10.3l4.1,8.3l-2.8-10.1l-12.7-13l-7.1-4.2l-8.6-16.9l-0.9-13l6.4-20.6
			l25.7,33v21.5l-2.8,7.4l4.1-5.7l1.4-17.8l12.2,20.1l1.3,10l-0.4,6.4l-3.7,14.2l5.8-11.5l1.3-8.5l8.3,12.3l2,9.6l0.3-11.8
			l-9.8-14.5l-14.7-29.6l16.2,12.8l14,11l5.9,9.6l-4.6-10.8l-8.1-6.8l7.2,3.9l10.3-0.8l-9.5-1.4l-31.5-21l-13-14.5l16,8.1l11.6,2.9
			l1.6,5.6l3.1,5.9l5.2,4.5l-3.9-5.5l-1.2-2.4l6.9,2.2l8.8,4.2l-3.6-3.2l-8.1-3.9l-4.9-1.4l-2-5.2l11.7,2.5l9.8,1l-6.6-2.4
			l-14.9-3.2l-26.1-11l-9.7-5.9l-11.6-14.7L341.5,481.9z"/>
		<path class="st14" d="M346.2,324.5c0-1-0.6-1.9-1.4-1.9s-1.4,0.8-1.4,1.9l-2.8,156.2c0,3.1,1.9,2.7,4.3,2.7s4.3,0.5,4.3-2.7
			L346.2,324.5z"/>
		<path class="st14" d="M408.4,389.3c0.4,0.2,0.8,0.1,0.9-0.2c0.1-0.3-0.2-0.6-0.6-0.8c-5-1.9-10.1-3.5-15.3-5
			c-5.2-1.4-10.5-2.6-15.8-3.4c-5.4-0.7-11-0.7-16.3,0.3c-5.4,1-10.6,2.6-15.6,4.9c-1.3,0.6-2,1.7-1.6,2.5c0.4,0.7,1.6,0.8,2.8,0.2
			c9.4-4.5,20-7.2,30.5-5.9C387.9,383.1,398.3,385.9,408.4,389.3z"/>
		<g>
			<path class="st10" d="M374.9,436.6c-1.1-1.8-2.3-2.1-3.3-1c0,0,0.1,1.7,2.4,7.2C374,442.8,376.1,438.6,374.9,436.6z"/>
			<path class="st14" d="M371.6,435.6c0,0-2.3-0.6-1.9,2.4c0.4,3,3.2,3.6,4.3,4.8C371.7,437.3,371.6,435.6,371.6,435.6z"/>
		</g>
		<g>
			<path class="st10" d="M369.2,432.2c0.2,2.1,1.1,2.9,2.6,2.3c0,0,0.6-1.6,1-7.5C372.7,427.1,369,429.9,369.2,432.2z"/>
			<path class="st14" d="M371.7,434.5c0,0,1.8,1.6,2.7-1.3c1-2.9-1.3-4.7-1.7-6.2C372.4,433,371.7,434.5,371.7,434.5z"/>
		</g>
		<g>
			<path class="st10" d="M395.8,430.9c0.2,2.1,1.1,2.9,2.6,2.3c0,0,0.6-1.6,1-7.5C399.4,425.7,395.6,428.5,395.8,430.9z"/>
			<path class="st14" d="M398.4,433.2c0,0,1.8,1.6,2.7-1.3c1-2.9-1.3-4.7-1.7-6.2C399,431.7,398.4,433.2,398.4,433.2z"/>
		</g>
		<g>
			<path class="st10" d="M400.7,434.8c-1.1-1.8-2.3-2.1-3.3-1c0,0,0.1,1.7,2.4,7.2C399.8,441,401.9,436.8,400.7,434.8z"/>
			<path class="st14" d="M397.4,433.8c0,0-2.3-0.6-1.9,2.4c0.4,3,3.2,3.6,4.3,4.8C397.5,435.5,397.4,433.8,397.4,433.8z"/>
		</g>
		<path class="st14" d="M416.9,434.8c0.5,0.1,0.9-0.1,1-0.3s-0.3-0.6-0.8-0.7c-3-0.5-6-0.6-9-0.8c-3-0.2-6-0.3-9-0.3
			c-6-0.1-12-0.2-18,0.1c-1.5,0.1-3,0.1-4.5,0.3c-1.5,0.1-3.2,0.4-4.6,0.9c-2.9,1-5.7,2.2-8.4,3.3c-5.5,2.4-10.9,4.9-16.3,7.5
			c-1.4,0.7-2.2,1.8-1.8,2.6c0.4,0.7,1.8,0.8,3.1,0.1c5.3-2.7,10.6-5.4,16-7.9c2.7-1.2,5.4-2.5,8.1-3.5c1.3-0.5,2.6-0.7,4.1-0.9
			c1.5-0.2,2.9-0.3,4.4-0.4c5.9-0.4,11.9-0.5,17.8-0.6c3,0,6,0,8.9,0.1C411,434.4,414,434.4,416.9,434.8z"/>
		<g>
			<path class="st10" d="M365.7,355.6c0.9,1.6,2.2,1.9,3.6,1c0,0,0.2-1.4-1.3-6.1C368,350.6,364.8,353.9,365.7,355.6z"/>
			<path class="st14" d="M369.3,356.6c0,0,2.5,0.7,2.6-1.8c0.2-2.5-3-3.2-3.9-4.2C369.5,355.2,369.3,356.6,369.3,356.6z"/>
		</g>
		<g>
			<path class="st10" d="M347.5,364.6c0.9,1.6,2.2,1.9,3.6,1c0,0,0.2-1.4-1.3-6.1C349.9,359.5,346.6,362.8,347.5,364.6z"/>
			<path class="st14" d="M351.1,365.6c0,0,2.5,0.7,2.6-1.8c0.2-2.5-3-3.2-3.9-4.2C351.3,364.2,351.1,365.6,351.1,365.6z"/>
		</g>
		<path class="st14" d="M382,354.2c0.3-0.1,0.4-0.4,0.4-0.6c-0.1-0.3-0.4-0.4-0.6-0.3c-6.4,1.6-12.7,3.8-18.8,6.5
			c-6.1,2.7-12,5.9-17.3,10.2c-0.7,0.6-0.7,1.6-0.2,2.2c0.6,0.6,1.5,0.6,2.1,0.1c4.8-4.2,10.4-7.7,16.2-10.6
			C369.6,358.6,375.7,356.1,382,354.2z"/>
		<g>
			<path class="st10" d="M277.3,392.6c6.9,1.1,9.9-0.7,8.5-4.9c0,0-4.8-2.9-23.9-8.4C262,379.3,269.7,391.3,277.3,392.6z"/>
			<path class="st14" d="M285.9,387.6c0,0,5.8-3.4-3.2-8.2c-8.9-4.7-15.7-0.1-20.7-0.2C281.1,384.8,285.9,387.6,285.9,387.6z"/>
		</g>
		<g>
			<path class="st10" d="M298.2,391.3c-0.6-1.9-1.7-2.5-3.2-1.7c0,0-0.4,1.5,0.3,6.9C295.3,396.5,298.9,393.4,298.2,391.3z"/>
			<path class="st14" d="M295,389.6c0,0-2.2-1.2-2.7,1.6c-0.5,2.7,2.3,4,3,5.3C294.6,391.1,295,389.6,295,389.6z"/>
		</g>
		<g>
			<path class="st10" d="M300.6,437.8c-0.6-1.9-1.7-2.5-3.2-1.7c0,0-0.4,1.5,0.3,6.9C297.7,442.9,301.2,439.9,300.6,437.8z"/>
			<path class="st14" d="M297.4,436.1c0,0-2.2-1.2-2.7,1.6c-0.5,2.7,2.3,4,3,5.3C297,437.6,297.4,436.1,297.4,436.1z"/>
		</g>
		<g>
			<path class="st10" d="M289.9,387.6c1.1,1.6,2.4,1.9,3.6,0.7c0,0,0-1.5-2.2-6.5C291.2,381.8,288.6,385.8,289.9,387.6z"/>
			<path class="st14" d="M293.4,388.3c0,0,2.4,0.5,2.2-2.3c-0.3-2.8-3.3-3.2-4.4-4.2C293.4,386.8,293.4,388.3,293.4,388.3z"/>
		</g>
		<g>
			<path class="st10" d="M293.4,434.6c1.1,1.6,2.4,1.9,3.6,0.7c0,0,0-1.5-2.2-6.5C294.7,428.8,292.2,432.8,293.4,434.6z"/>
			<path class="st14" d="M297,435.3c0,0,2.4,0.5,2.2-2.3c-0.3-2.8-3.3-3.2-4.4-4.2C296.9,433.7,297,435.3,297,435.3z"/>
		</g>
		<g>
			<path class="st10" d="M311.9,382.1c1.1,1.6,2.4,1.9,3.6,0.7c0,0,0-1.5-2.2-6.5C313.2,376.3,310.7,380.3,311.9,382.1z"/>
			<path class="st14" d="M315.5,382.8c0,0,2.4,0.5,2.2-2.3c-0.3-2.8-3.3-3.2-4.4-4.2C315.4,381.2,315.5,382.8,315.5,382.8z"/>
		</g>
		<g>
			<path class="st10" d="M318.7,373.9c-0.2,3.7,1.6,5.6,4.9,5.4c0,0,1.8-2.3,4.1-12.3C327.7,367,318.9,369.8,318.7,373.9z"/>
			<path class="st14" d="M323.6,379.3c0,0,3.3,3.6,6.2-0.8c2.8-4.4-1.6-8.7-2.1-11.5C325.3,376.9,323.6,379.3,323.6,379.3z"/>
		</g>
		<g>
			<path class="st10" d="M318.2,425.2c-0.2,3.7,1.6,5.6,4.9,5.4c0,0,1.8-2.3,4.1-12.3C327.1,418.3,318.4,421.1,318.2,425.2z"/>
			<path class="st14" d="M323,430.5c0,0,3.3,3.6,6.2-0.8c2.8-4.4-1.6-8.7-2.1-11.5C324.8,428.2,323,430.5,323,430.5z"/>
		</g>
		<path class="st14" d="M279.4,392.6c-0.4,0.1-0.7,0.4-0.6,0.7c0.1,0.3,0.5,0.4,0.9,0.3c10.2-2.8,20.4-5.3,30.8-7.5
			c5.2-1.1,10.3-2,15.5-2.5c5.2-0.5,10.4-0.7,15.6-0.3c1.3,0.1,2.4-0.5,2.5-1.3c0.1-0.8-0.9-1.6-2.3-1.7
			c-10.8-0.5-21.5,1.3-31.7,3.9C299.7,386.6,289.5,389.5,279.4,392.6z"/>
		<g>
			<path class="st10" d="M320.6,343.5c0.9,2.8,2.9,3.7,5.4,2.7c0,0,0.7-2.2-0.3-10.1C325.8,336.1,319.6,340.4,320.6,343.5z"/>
			<path class="st14" d="M326.1,346.2c0,0,3.7,1.8,4.7-2.2c1-4-3.8-6-5-7.9C326.8,344,326.1,346.2,326.1,346.2z"/>
		</g>
		<g>
			<path class="st10" d="M301.8,346.1c1.2,0.8,2.2,0.6,2.7-0.5c0,0-0.4-1.1-3.2-3.9C301.3,341.7,300.5,345.2,301.8,346.1z"/>
			<path class="st14" d="M304.5,345.6c0,0,1.9-0.3,1-2.2c-0.9-1.8-3.2-1.3-4.2-1.7C304.1,344.5,304.5,345.6,304.5,345.6z"/>
		</g>
		<g>
			<path class="st14" d="M306.9,347.7c-0.4-1.4-1.2-1.9-2.4-1.4c0,0-0.4,1.1,0,5.1C304.5,351.4,307.4,349.3,306.9,347.7z"/>
			<path class="st10" d="M304.5,346.3c0,0-1.7-0.9-2.2,1c-0.5,2,1.6,3,2.1,4C304.2,347.4,304.5,346.3,304.5,346.3z"/>
		</g>
		<path class="st14" d="M300.6,345.9c-0.3,0-0.6,0.3-0.5,0.6c0,0.3,0.3,0.5,0.7,0.4c3.8-0.4,7.7-0.5,11.6-0.2
			c1.9,0.1,3.8,0.3,5.7,0.6c1.8,0.3,3.6,0.8,5.4,1.6c3.5,1.4,6.9,3.3,10.2,5.4c3.3,2,6.5,4.2,9.6,6.5c0.8,0.6,1.8,0.5,2.3-0.2
			c0.5-0.7,0.2-1.7-0.6-2.3c-3.3-2.2-6.6-4.3-10-6.3c-3.4-1.9-7-3.7-10.7-5.1c-1.9-0.7-3.9-1.2-5.9-1.5c-2-0.2-3.9-0.3-5.9-0.4
			C308.4,345.1,304.5,345.3,300.6,345.9z"/>
		<path class="st14" d="M282.1,440.8c-0.4,0.2-0.6,0.5-0.5,0.8c0.1,0.2,0.5,0.3,0.9,0.1c4.8-2,9.7-3.6,14.6-4.9
			c5-1.3,10-2.3,15.1-2.6c10.1-0.6,20.3,2.5,29,7.5c1.1,0.6,2.3,0.6,2.8-0.1c0.5-0.7-0.1-1.9-1.3-2.5c-4.7-2.5-9.7-4.4-14.8-5.6
			c-2.6-0.6-5.2-1.1-7.8-1.2c-2.6-0.2-5.3-0.2-7.9,0c-5.3,0.5-10.4,1.6-15.4,3.1C291.7,436.9,286.9,438.7,282.1,440.8z"/>
		<g>
			<path class="st10" d="M372.6,391.3c0-3.9-1.9-5.8-5.5-5.6c0,0-1.8,2.4-4,12.8C363.2,398.5,372.6,395.6,372.6,391.3z"/>
			<path class="st14" d="M367.1,385.7c0,0-3.8-3.8-6.7,0.8c-2.9,4.6,2,9.1,2.7,12C365.3,388.1,367.1,385.7,367.1,385.7z"/>
		</g>
		<g>
			<path class="st10" d="M353.3,429.3c0.2,4.6,2.4,6.6,5.9,5.6c0,0,1.7-3.3,3.2-16.1C362.4,418.8,353.1,424.2,353.3,429.3z"/>
			<path class="st14" d="M359.3,434.9c0,0,4.1,3.8,6.7-2.3c2.6-6-2.7-10.5-3.5-13.8C360.9,431.6,359.3,434.9,359.3,434.9z"/>
		</g>
		<g>
			<path class="st10" d="M369,442.9c-4-2.3-6.8-1.6-7.9,2c0,0,1.8,3.2,11.8,11.3C372.9,456.2,373.5,445.5,369,442.9z"/>
			<path class="st14" d="M361.1,444.9c0,0-5.4,1.4-1.7,6.9c3.7,5.5,10.3,3.4,13.5,4.5C362.9,448.1,361.1,444.9,361.1,444.9z"/>
		</g>
		<g>
			<path class="st10" d="M396.5,441.9c-4.6-4.9-8.9-5-12.1-0.6c0,0,1.1,5.2,11.4,20.7C395.8,462,401.6,447.3,396.5,441.9z"/>
			<path class="st14" d="M384.4,441.3c0,0-8.3-0.3-5.6,8.8c2.6,9.2,12.9,9,17,11.9C385.5,446.5,384.4,441.3,384.4,441.3z"/>
		</g>
		<g>
			<path class="st10" d="M420.8,443c-5.4-6.7-10-7.3-12.9-2.2c0,0,1.8,6.6,14.5,27.3C422.5,468.1,426.8,450.4,420.8,443z"/>
			<path class="st14" d="M408,440.9c0,0-8.8-1.4-4.9,10.4c3.9,11.8,14.7,12.8,19.4,16.9C409.8,447.5,408,440.9,408,440.9z"/>
		</g>
		<g>
			<path class="st10" d="M376.6,420.5c-0.5,5.9,1.9,8.7,6.6,8.1c0,0,2.7-3.8,6.7-19.7C389.9,408.9,377.1,414,376.6,420.5z"/>
			<path class="st14" d="M383.2,428.6c0,0,4.6,5.5,8.9-1.6c4.4-7.1-1.7-13.7-2.2-18.1C385.9,424.8,383.2,428.6,383.2,428.6z"/>
		</g>
		<g>
			<path class="st10" d="M408.9,415.8c-4.1,6.7-3.4,10.7,1.7,11.3c0,0,5.1-3.7,19-21.2C429.6,405.9,413.4,408.3,408.9,415.8z"/>
			<path class="st14" d="M410.6,427.1c0,0,1.2,7.7,10.1,0.5c8.9-7.2,6.8-16.4,8.9-21.7C415.6,423.4,410.6,427.1,410.6,427.1z"/>
		</g>
		<g>
			<path class="st10" d="M426.5,424.8c-9.4,1.1-12.5,4.4-9.2,9.3c0,0,7.4,1.8,34.2,1.7C451.6,435.8,437,423.6,426.5,424.8z"/>
			<path class="st14" d="M417.4,434.1c0,0-6.1,6.4,7.3,9c13.4,2.7,20.4-5.5,26.9-7.3C424.8,435.9,417.4,434.1,417.4,434.1z"/>
		</g>
		<g>
			<path class="st10" d="M360.7,376.9c2.5,2.1,4.9,1.9,6.7-0.6c0,0-0.6-2.5-6.3-9.6C361.1,366.7,357.9,374.5,360.7,376.9z"/>
			<path class="st14" d="M367.4,376.3c0,0,4.5-0.4,3.1-4.8c-1.4-4.4-7.1-3.6-9.4-4.8C366.8,373.8,367.4,376.3,367.4,376.3z"/>
		</g>
		<g>
			<path class="st10" d="M391.8,376.4c-1.1,2-0.7,3.4,1.1,4.2c0,0,1.6-0.8,5.6-5.6C398.6,374.9,393.1,374.2,391.8,376.4z"/>
			<path class="st14" d="M393,380.5c0,0,0.8,2.8,3.5,1.2c2.7-1.7,1.6-5.1,2.1-6.8C394.5,379.7,393,380.5,393,380.5z"/>
		</g>
		<g>
			<path class="st10" d="M368.2,344.3c1,5.6,3.5,7.4,7,5.4c0,0,1.1-4.4,0.5-20.3C375.6,329.5,367.1,338.2,368.2,344.3z"/>
			<path class="st14" d="M375.2,349.8c0,0,4.8,3.6,6.4-4.3c1.6-8-4.5-12.1-6-15.9C376.3,345.4,375.2,349.8,375.2,349.8z"/>
		</g>
		<g>
			<path class="st10" d="M349.9,356.8c2.8,3.9,5.8,4.3,8.6,1.5c0,0-0.3-3.7-6-15.6C352.5,342.7,346.9,352.5,349.9,356.8z"/>
			<path class="st14" d="M358.5,358.3c0,0,5.9,1,5-5.7c-0.9-6.7-8.3-7.5-10.9-9.9C358.3,354.6,358.5,358.3,358.5,358.3z"/>
		</g>
		<g>
			<path class="st10" d="M299,354.9c3.7-2.9,4.1-6,1.2-8.6c0,0-3.7,0.4-15.3,6.6C284.9,352.8,294.9,358.1,299,354.9z"/>
			<path class="st14" d="M300.2,346.2c0,0,0.8-5.9-5.9-4.7c-6.6,1.2-7.2,8.6-9.5,11.3C296.5,346.6,300.2,346.2,300.2,346.2z"/>
		</g>
		<g>
			<path class="st10" d="M295,381.9c5.1,3.6,8.9,3,10.7-1.6c0,0-2.1-4.5-14.6-16.6C291.1,363.8,289.4,378,295,381.9z"/>
			<path class="st14" d="M305.7,380.4c0,0,7.2-1.1,2.9-8.9c-4.4-7.7-13.3-5.8-17.5-7.7C303.5,375.9,305.7,380.4,305.7,380.4z"/>
		</g>
		<g>
			<path class="st10" d="M299,425.9c3.6,5.1,7.4,5.7,10.6,2c0,0-0.6-4.9-8.3-20.5C301.2,407.4,294.9,420.2,299,425.9z"/>
			<path class="st14" d="M309.5,427.9c0,0,7.2,1.3,5.7-7.4c-1.6-8.7-10.6-9.9-14-13C309,423,309.5,427.9,309.5,427.9z"/>
		</g>
		<g>
			<path class="st10" d="M275.2,435.7c6.7,3.1,10.3,2,10.4-2.9c0,0-4-4.3-21.8-15.4C263.7,417.4,267.7,432.2,275.2,435.7z"/>
			<path class="st14" d="M285.6,432.8c0,0,7-2-0.6-9.5c-7.6-7.5-16.1-4.5-21.2-5.9C281.5,428.5,285.6,432.8,285.6,432.8z"/>
		</g>
		<g>
			<path class="st10" d="M294.2,400.3c-3-5.5-6.6-6.6-10.3-3.3c0,0,0,4.9,5.8,21.3C289.7,418.4,297.5,406.4,294.2,400.3z"/>
			<path class="st14" d="M283.9,397.1c0,0-7-2.2-6.5,6.7c0.5,8.9,9.3,11.1,12.3,14.6C283.9,402,283.9,397.1,283.9,397.1z"/>
		</g>
		<g>
			<path class="st10" d="M296.2,452.8c-0.4-7.6-3-10.3-7.1-7.9c0,0-1.9,5.8-3.2,27.5C285.9,472.4,296.7,461.3,296.2,452.8z"/>
			<path class="st14" d="M289.1,444.9c0,0-4.9-5.3-7.8,5.4c-2.9,10.7,3.5,16.7,4.6,22.1C287.2,450.8,289.1,444.9,289.1,444.9z"/>
		</g>
		<g>
			<path class="st10" d="M314.9,390.7c-4.7-4.1-8.5-3.9-10.8,0.4c0,0,1.7,4.7,12.7,18.1C316.9,409.2,320.1,395.3,314.9,390.7z"/>
			<path class="st14" d="M304.1,391.1c0,0-7.3,0.3-3.8,8.5c3.5,8.2,12.5,7.2,16.6,9.6C305.8,395.8,304.1,391.1,304.1,391.1z"/>
		</g>
		<g>
			<path class="st10" d="M327.1,438.4c-3.4-1.9-5.8-1.3-7,1.8c0,0,1.4,2.7,9.6,9.6C329.7,449.9,330.8,440.6,327.1,438.4z"/>
			<path class="st14" d="M320.1,440.2c0,0-4.8,1.3-1.9,5.9c2.9,4.7,8.7,2.8,11.5,3.7C321.5,442.9,320.1,440.2,320.1,440.2z"/>
		</g>
		<g>
			<path class="st10" d="M319.5,446.1c-0.8-6.2-3.9-8.5-8.4-6.7c0,0-1.8,4.6-2.2,22C308.9,461.4,320.4,452.9,319.5,446.1z"/>
			<path class="st14" d="M311,439.4c0,0-5.8-4.5-8.5,4c-2.7,8.5,4.8,13.7,6.3,18.1C309.3,444,311,439.4,311,439.4z"/>
		</g>
		<g>
			<path class="st10" d="M276.3,451.8c7.8-3.3,9.6-7.1,5.5-10.7c0,0-6.8,0.2-29.7,7C252,448.1,267.7,455.5,276.3,451.8z"/>
			<path class="st14" d="M281.8,441.2c0,0,3.6-7.3-8.5-6.3c-12.2,0.9-16,10.1-21.2,13.3C275,441.4,281.8,441.2,281.8,441.2z"/>
		</g>
		<g>
			<path class="st10" d="M305.6,341.2c2.4,3.1,4.9,3.4,7,0.9c0,0-0.4-3.1-5.7-12.7C306.9,329.5,302.9,337.8,305.6,341.2z"/>
			<path class="st14" d="M312.6,342.2c0,0,4.8,0.6,3.7-4.9c-1.1-5.5-7.1-5.9-9.4-7.8C312.2,339.1,312.6,342.2,312.6,342.2z"/>
		</g>
		<g>
			<path class="st10" d="M319.3,356.3c0.4-4.5-1.3-6.6-4.7-6.1c0,0-2,3-5.2,15.3C309.5,365.5,318.8,361.3,319.3,356.3z"/>
			<path class="st14" d="M314.6,350.2c0,0-3.2-4.1-6.5,1.5c-3.3,5.6,1,10.4,1.4,13.8C312.6,353.2,314.6,350.2,314.6,350.2z"/>
		</g>
		<g>
			<path class="st10" d="M332,356.5c-1.1-3.5-3.4-4.5-6.3-3.2c0,0-0.8,2.7,0.5,12.7C326.2,365.9,333.2,360.3,332,356.5z"/>
			<path class="st14" d="M325.7,353.3c0,0-4.3-2.2-5.3,2.8c-1.1,5,4.4,7.4,5.9,9.8C324.9,356,325.7,353.3,325.7,353.3z"/>
		</g>
		<g>
			<path class="st10" d="M382.4,346c-3.3,3.3-3.4,5.9-0.3,7.5c0,0,3.5-1.2,14-9C396.1,344.4,386.1,342.3,382.4,346z"/>
			<path class="st14" d="M382.1,353.4c0,0-0.2,5.1,6,2.6c6.2-2.5,6.1-8.8,8-11.6C385.6,352.2,382.1,353.4,382.1,353.4z"/>
		</g>
		<g>
			<path class="st10" d="M393.4,386.8c-0.9-1.3-1.9-1.4-2.8-0.6c0,0,0,1.2,1.8,5.1C392.3,391.3,394.4,388.2,393.4,386.8z"/>
			<path class="st14" d="M390.5,386.2c0,0-1.9-0.4-1.7,1.8c0.2,2.2,2.7,2.5,3.5,3.3C390.6,387.4,390.5,386.2,390.5,386.2z"/>
		</g>
		<g>
			<path class="st10" d="M388.5,391.7c-1.9-6.2-5.4-8-9.8-5.5c0,0-1.1,5,1.3,22.7C379.9,408.9,390.6,398.5,388.5,391.7z"/>
			<path class="st14" d="M378.6,386.2c0,0-6.7-3.7-8.2,5.3c-1.4,9,7.2,13.2,9.5,17.4C377.5,391.2,378.6,386.2,378.6,386.2z"/>
		</g>
		<g>
			<path class="st10" d="M373.3,367c0.2,6.4,3.4,9.3,8.7,8.3c0,0,2.6-4.4,5.1-21.9C387.1,353.4,373.1,359.9,373.3,367z"/>
			<path class="st14" d="M382,375.3c0,0,6,5.6,10-2.5c4-8.1-3.8-14.7-5-19.4C384.6,370.9,382,375.3,382,375.3z"/>
		</g>
		<g>
			<path class="st10" d="M404,369.9c-4.4,5.5-4.1,9.4,0.7,11.2c0,0,5.1-2.4,19.6-15.8C424.3,365.3,409,363.8,404,369.9z"/>
			<path class="st14" d="M404.7,381.1c0,0,0.5,7.6,9.4,2.9c8.9-4.8,7.7-14.2,10.2-18.7C409.8,378.8,404.7,381.1,404.7,381.1z"/>
		</g>
		<g>
			<path class="st10" d="M418.6,382.1c-8.5-0.8-11.9,1.6-10,6.7c0,0,6.1,3.1,29.7,8.2C438.4,396.9,428,383,418.6,382.1z"/>
			<path class="st14" d="M408.6,388.7c0,0-6.7,4.6,4.5,9.6c11.3,5,19.1-1.1,25.2-1.4C414.7,391.8,408.6,388.7,408.6,388.7z"/>
		</g>
		<g>
			<path class="st10" d="M409.3,396.4c-3.5-7.1-7.4-8.7-11.2-4.6c0,0,0.2,6.3,7.2,27.5C405.3,419.2,413.1,404.3,409.3,396.4z"/>
			<path class="st14" d="M398.1,391.7c0,0-7.6-3.1-6.7,8.3c0.9,11.3,10.5,14.5,13.9,19.2C398.3,398,398.1,391.7,398.1,391.7z"/>
		</g>
		<g>
			<path class="st10" d="M333,385.2c-3.4-1.9-5.8-1.3-7,1.8c0,0,1.4,2.7,9.6,9.6C335.7,396.6,336.7,387.3,333,385.2z"/>
			<path class="st14" d="M326,387c0,0-4.8,1.3-1.9,5.9c2.9,4.7,8.7,2.8,11.5,3.7C327.5,389.7,326,387,326,387z"/>
		</g>
	</g>
	<line class="st16" x1="312.6" y1="342.2" x2="314.4" y2="346.1"/>
	<line class="st16" x1="326.1" y1="346.2" x2="326" y2="348.8"/>
	<line class="st16" x1="325.7" y1="353.3" x2="325.5" y2="348.6"/>
	<line class="st16" x1="314.6" y1="350.2" x2="316.4" y2="346.1"/>
	<line class="st16" x1="305.7" y1="380.4" x2="309.1" y2="385.1"/>
	<line class="st16" x1="323.6" y1="379.3" x2="321.2" y2="382.7"/>
	<line class="st16" x1="326" y1="387" x2="322.4" y2="383.5"/>
	<line class="st16" x1="304.1" y1="391.1" x2="301.5" y2="387.6"/>
	<polyline class="st16" points="285.9,387.6 289.5,390.3 277.9,393.6 	"/>
	<line class="st16" x1="283.9" y1="397.1" x2="282.8" y2="392.2"/>
	<polyline class="st16" points="285.6,432.8 290.2,438.2 289.1,444.9 	"/>
	<line class="st16" x1="311" y1="439.4" x2="313.2" y2="432.8"/>
	<line class="st16" x1="309.5" y1="427.9" x2="310.5" y2="432.8"/>
	<line class="st16" x1="323" y1="430.5" x2="320.4" y2="433.7"/>
	<line class="st16" x1="320.1" y1="440.2" x2="316.9" y2="433.7"/>
	<line class="st16" x1="358.5" y1="358.3" x2="359.2" y2="362.6"/>
	<line class="st16" x1="375.2" y1="349.8" x2="374.3" y2="355.9"/>
	<polyline class="st16" points="382,375.3 379.3,381.1 378.6,386.2 	"/>
	<polyline class="st16" points="393,380.5 389.9,382.9 390.5,386.2 	"/>
	<polyline class="st16" points="404.7,381.1 398.6,385.4 411,389.9 	"/>
	<line class="st16" x1="398.1" y1="391.7" x2="398.1" y2="385.5"/>
	<polyline class="st16" points="367.1,385.7 369.2,380.5 367.4,376.3 	"/>
	<polyline class="st16" points="359.3,434.9 357.3,441.2 361.1,444.9 	"/>
	<polyline class="st16" points="384.4,441.3 382,433.7 383.2,428.6 	"/>
	<polyline class="st16" points="410.6,427.1 406.2,433.5 408,440.9 	"/>
	<g>
		<path class="st10" d="M273.2,404.2c7.8-3.3,9.6-7.1,5.5-10.7c0,0-6.8,0.2-29.7,7C248.9,400.5,264.5,407.9,273.2,404.2z"/>
		<path class="st14" d="M278.6,393.5c0,0,3.6-7.3-8.5-6.3c-12.2,0.9-16,10.1-21.2,13.3C271.9,393.7,278.6,393.5,278.6,393.5z"/>
	</g>
	<path class="st17" d="M207.2,68.1c15.7,0,28.5,12.7,28.5,28.5h-56.9C178.7,80.8,191.5,68.1,207.2,68.1z"/>
	<path class="st17" d="M373.2,202.9c15.7,0,28.5,12.7,28.5,28.5h-56.9C344.8,215.7,357.5,202.9,373.2,202.9z"/>
	<path class="st17" d="M150.8,156.4c-7.3,0-14,2.8-19,7.4c-7-11.4-19.6-19-33.9-19c-22,0-39.9,17.9-39.9,39.9h64.5h15.2H179
		C179,169,166.4,156.4,150.8,156.4z"/>
	<path class="st17" d="M566.5,134.8c-7.3,0-14,2.8-19,7.4c-7-11.4-19.6-19-33.9-19c-22,0-39.9,17.9-39.9,39.9h64.5h15.2h41.3
		C594.7,147.5,582.1,134.8,566.5,134.8z"/>
	<circle class="st18" cx="345.3" cy="83.8" r="29.3"/>
	<g>
		<g>
			<path class="st19" d="M640.9,64.5c-0.8-1.6-3.5-8.3-12.9-11.3l1-3.3c6.2,2,10,5.6,11.8,7.9c1.9-2.3,5.6-5.9,11.8-7.9l1,3.3
				c-8.2,2.6-11.3,8.4-11.4,8.5L640.9,64.5z"/>
		</g>
		<g>
			<path class="st19" d="M462.1,54c-0.8-1.6-3.5-8.3-12.9-11.3l1-3.3c6.2,2,10,5.6,11.8,7.9c1.9-2.3,5.6-5.9,11.8-7.9l1,3.3
				c-8.2,2.6-11.3,8.4-11.4,8.5L462.1,54z"/>
		</g>
		<g>
			<path class="st19" d="M602.2,86.7c-1.1-1.7-2.8-5.5-9.5-7.4l0.9-3.3c4.4,1.2,7.1,3.3,8.6,4.9c1.5-1.5,4.3-3.7,8.6-4.9l0.9,3.3
				C605.3,81,603.5,84.6,602.2,86.7z"/>
		</g>
	</g>
	<g>
		<path class="st20" d="M575,566.6C575,566.6,575,566.6,575,566.6L575,566.6c0.1-0.1,0.2-0.2,0.3-0.4c1.4-1.3,2.8-2.2,4.4-3.2
			c5.7-3.3,10.5-4.4,18.5-1.1c1.2,0.5,4.1,2.9,5.1,2.2c2.6-1.7,7.2-4.3,7.2-4.3s-3.1,5.8-3.7,6.6c0.7,0.8,3.2,5.6,3.2,5.6
			s-4.1-1.5-6.7-3.3c-1-0.7-3.9,1.7-5.1,2.2c-8.1,3.3-12.8,2.2-18.5-1.1c-1.6-0.9-3.1-1.9-4.4-3.2
			C575.2,566.8,575.1,566.7,575,566.6L575,566.6C575,566.6,575,566.6,575,566.6z"/>
		<path class="st20" d="M629.4,555C629.4,555,629.3,555,629.4,555L629.4,555c0.1-0.1,0.1-0.2,0.2-0.3c1-1,2.1-1.7,3.3-2.3
			c4.3-2.4,7.8-3.3,13.8-0.8c0.9,0.4,3,2.2,3.8,1.7c1.9-1.3,5.3-3.2,5.3-3.2s-2.3,4.3-2.8,4.9c0.5,0.6,2.4,4.2,2.4,4.2
			s-3-1.1-4.9-2.4c-0.8-0.5-2.9,1.3-3.8,1.7c-6,2.5-9.5,1.6-13.8-0.8c-1.2-0.7-2.3-1.4-3.3-2.3C629.5,555.2,629.4,555.1,629.4,555
			L629.4,555C629.3,555,629.4,555,629.4,555z"/>
		<path class="st20" d="M629.4,583C629.4,583,629.3,583,629.4,583L629.4,583c0.1-0.1,0.1-0.2,0.2-0.3c1-1,2.1-1.7,3.3-2.3
			c4.3-2.4,7.8-3.3,13.8-0.8c0.9,0.4,3,2.2,3.8,1.7c1.9-1.3,5.3-3.2,5.3-3.2s-2.3,4.3-2.8,4.9c0.5,0.6,2.4,4.2,2.4,4.2
			s-3-1.1-4.9-2.4c-0.8-0.5-2.9,1.3-3.8,1.7c-6,2.5-9.5,1.6-13.8-0.8c-1.2-0.7-2.3-1.4-3.3-2.3C629.5,583.2,629.4,583.1,629.4,583
			L629.4,583C629.3,583,629.4,583,629.4,583z"/>
	</g>
</g>
<g id="guy">
	<path class="st22" d="M329.6,302.2c2.4-2.4,6.2-2.4,8.5,0l-8.5,8.5C327.3,308.4,327.3,304.6,329.6,302.2z"/>
	<path class="st23" d="M57.2,307l-4.3-1c-1-0.2-1.6-1.2-1.4-2.2l1-4.3c0.2-1,1.2-1.6,2.2-1.4l4.3,1c1,0.2,1.6,1.2,1.4,2.2l-1,4.3
		C59.2,306.6,58.2,307.2,57.2,307z"/>
	<g>
		<g>
			
				<rect x="80.9" y="193.5" transform="matrix(0.9743 0.2252 -0.2252 0.9743 47.4572 -16.0034)" class="st24" width="26" height="13.1"/>
			<g>
				<path class="st25" d="M113.6,214.5c0.6-2.8-1.1-5.5-3.9-6.2L76,200.5c-2.8-0.6-5.5,1.1-6.2,3.9l-7.2,31.2l46.8-2.9L113.6,214.5z
					"/>
				<polygon class="st26" points="62.6,235.5 51.3,284.4 95.1,294.5 109.4,232.6 				"/>
				<path class="st24" d="M48.6,296.3c-0.6,2.8,1.1,5.5,3.9,6.2l33.7,7.8c2.8,0.6,5.5-1.1,6.2-3.9l2.7-11.8l-43.8-10.1L48.6,296.3z"
					/>
			</g>
			<path class="st25" d="M107.1,203.6l-26.6-6.2c-0.7-0.2-1.1-0.8-0.9-1.5l1.9-8.1c0.2-0.7,0.8-1.1,1.5-0.9l26.6,6.2
				c0.7,0.2,1.1,0.8,0.9,1.5l-1.9,8.1C108.4,203.3,107.7,203.7,107.1,203.6z"/>
		</g>
		<g>
			<g>
				<g>
					<polygon class="st27" points="148.1,200.7 148,225.7 126.4,211.2 139.3,198.8 					"/>
				</g>
			</g>
			<g>
				<g>
					<path class="st28" d="M138.9,333.6l6.8,69l-11.6,84.1l-9.9-0.9c0,0-21.2-56.5-10.5-82.1c0,0-20-42-9.7-69.5L138.9,333.6z"/>
					<g>
						<g>
							<path class="st29" d="M135.1,486.2l-10.8-0.3c0,0-4.1,4.5-3.1,11l31.6,1C147.9,489.3,135.1,486.2,135.1,486.2z"/>
						</g>
					</g>
				</g>
			</g>
			<g>
				<g>
					<path class="st30" d="M125.3,333.6l1.5,70.1l-6.4,83.2l-10.1,0.5c0,0-20.8-58.1-10.1-83.6c0,0-20-42-9.7-69.5L125.3,333.6z"/>
				</g>
			</g>
			<g>
				<g>
					<path class="st31" d="M126.4,211.2c0,0-49.3,49-47.2,124.7h62.6l6.2-110.2L126.4,211.2z"/>
				</g>
			</g>
			<g>
				<g>
					<path class="st27" d="M134.8,181.2c0.5-7.7,4.1-14.8,9.5-19.3c6.9-5.9,13.6-5,13.6-5c8.8,0.6,16.9,8.7,19.2,20l0,0
						c3.2,17.2-11,37.3-22.9,36.5c-8.6-0.6-15-10.9-17.6-19.1C135.1,189.5,134.6,185,134.8,181.2z"/>
				</g>
			</g>
			<g>
				<g>
					<polyline class="st21" points="183.8,293.4 320.9,293.4 330.1,302.6 					"/>
					<polygon class="st22" points="188.5,290.2 204.8,290.2 207.8,291.9 207.8,294.9 204.8,296.5 188.5,296.5 					"/>
				</g>
			</g>
			<g>
				<g>
					<path class="st32" d="M120.4,486.9l-10.1,0.5c0,0-4.2,5.3-2.8,11.2l33.7-0.1C136.4,490.4,120.4,486.9,120.4,486.9z"/>
				</g>
			</g>
			<g>
				<g>
					<path class="st33" d="M180.9,180.2l-18.1-6.9l-1.7,6.3l-9.2-2.5l-13.4,22.1l-8.6-16C134.1,138.8,180.2,149.1,180.9,180.2z"/>
				</g>
			</g>
		</g>
		
			<rect x="100.6" y="215.8" transform="matrix(0.9743 0.2252 -0.2252 0.9743 52.6618 -17.7737)" class="st22" width="7.3" height="12.2"/>
		<path class="st34" d="M104.2,222c0,0,36-0.9,38.8,19.2c2.9,20-28.1,52.8-59.4,45.8"/>
		<path class="st22" d="M174.3,196.2c0,0-14.6-0.6-23,16.6c4.4,5.8,12.8,5.7,12.8,5.7S178.5,220.3,174.3,196.2z"/>
		<line class="st35" x1="160" y1="203.5" x2="137.6" y2="161.1"/>
	</g>
	<path class="st36" d="M54.9,305.6c0,0-25,75.7,33.4,77.8c62.9,2.2-16.7-87,103.1-90.6"/>
	<path class="st27" d="M188.3,298.4c-7.6-2.3-13-2.8-11.8-7.6c0.4-1.6,1.8-2.8,3.5-3l9.5-0.9c3.4-0.3,6.7,2.3,6.6,5.7
		C196,296.7,192.1,299.5,188.3,298.4z"/>
	<g>
		<g>
			<path class="st27" d="M138.1,246c-3,6.7-8.3,20.5-13.1,24.1c11.4-4.7,53.8,18,53.8,18l-1.1,6.7c0,0-66.5-0.8-71.5-11.8
				c-3.5-7.6,5.6-34.8,10.6-46.3c2.1-4.8,7-7.6,12.2-6.9l0,0C136.7,230.8,141.2,238.9,138.1,246z"/>
		</g>
	</g>
</g>
<g id="bubble1">
	<circle class="st37" cx="303.5" cy="444" r="64.4"/>
</g>
<g id="bubble2">
	<circle class="st37" cx="346.1" cy="355.9" r="56.8"/>
</g>
<g id="bubble3">
	<circle class="st37" cx="356.7" cy="469.9" r="51"/>
</g>
<g id="bubble4">
	<circle class="st37" cx="387.1" cy="419.8" r="45.1"/>
</g>
<g id="bubble5">
	<circle class="st37" cx="376.7" cy="296.7" r="26"/>
</g>
<g id="bubble6">
	<circle class="st37" cx="352.3" cy="267.3" r="17.6"/>
</g>
<g id="bubble7">
	<circle class="st37" cx="427.3" cy="321.7" r="14.7"/>
</g>
<g id="bubble8">
	<circle class="st37" cx="405.1" cy="228.4" r="10.3"/>
</g>
<g id="bubble9">
	<circle class="st37" cx="342.1" cy="199" r="7.7"/>
</g>
<g id="bubble10">
	<circle class="st37" cx="273.1" cy="246.2" r="14.7"/>
</g>
<g id="fleche1">
	<g>
		<g>
			<g>
				<polygon class="st38" points="242,198.8 242,112.6 251.7,112.6 235.7,96.6 219.6,112.6 229.3,112.6 229.3,198.8 				"/>
			</g>
		</g>
	</g>
</g>
<g id="bullet1">
	<g>
		<circle class="st26" cx="235.7" cy="57.3" r="25.6"/>
		<g>
			<path class="st39" d="M226.7,45.5c1.1,0,2.1-0.1,3.2-0.3c1-0.2,1.9-0.5,2.8-0.9c0.8-0.4,1.5-1,2.1-1.6c0.6-0.7,1-1.5,1.1-2.4h4.2
				v31.5h-5.6V49.5h-7.7V45.5z"/>
		</g>
	</g>
</g>
<g id="fleche2">
	<g>
		<g>
			<g>
				<polygon class="st38" points="417.9,197.6 538.7,197.6 538.7,207.2 554.7,191.2 538.7,175.2 538.7,184.9 417.9,184.9 				"/>
			</g>
		</g>
	</g>
</g>
<g id="bullet2">
	<g>
		<circle class="st26" cx="592.6" cy="190.4" r="25.6"/>
		<g>
			<path class="st39" d="M603.5,204.9H582c0-2.6,0.7-4.9,1.9-6.8c1.2-1.9,2.9-3.6,5-5.1c1-0.7,2.1-1.5,3.2-2.2
				c1.1-0.7,2.1-1.5,3.1-2.3c0.9-0.8,1.7-1.7,2.3-2.6c0.6-0.9,0.9-2,0.9-3.3c0-0.6-0.1-1.2-0.2-1.8c-0.1-0.6-0.4-1.2-0.8-1.8
				c-0.4-0.6-0.9-1-1.6-1.4c-0.7-0.4-1.6-0.6-2.7-0.6c-1,0-1.9,0.2-2.5,0.6c-0.7,0.4-1.2,1-1.6,1.7c-0.4,0.7-0.7,1.5-0.9,2.5
				c-0.2,1-0.3,2-0.3,3.1h-5.1c0-1.7,0.2-3.4,0.7-4.8c0.5-1.5,1.2-2.8,2.1-3.8s2.1-1.9,3.4-2.5c1.3-0.6,2.9-0.9,4.7-0.9
				c1.9,0,3.5,0.3,4.8,0.9s2.3,1.4,3.1,2.4c0.8,1,1.4,2,1.7,3.1c0.3,1.1,0.5,2.2,0.5,3.2c0,1.3-0.2,2.4-0.6,3.4
				c-0.4,1-0.9,2-1.6,2.8c-0.7,0.9-1.4,1.6-2.2,2.4c-0.8,0.7-1.7,1.4-2.6,2c-0.9,0.6-1.8,1.2-2.7,1.8c-0.9,0.6-1.7,1.1-2.5,1.7
				c-0.8,0.6-1.4,1.2-2,1.8c-0.6,0.6-1,1.3-1.2,2h15.3V204.9z"/>
		</g>
	</g>
</g>
<g id="fleche3">
	<g>
		<g>
			<g>
				<polygon class="st38" points="463.1,462.1 500.1,462.1 503,462.1 503.1,462.1 503.2,462.1 503.3,462.1 503.5,462.4 503.9,463 
					504.8,464.1 509.7,470.6 521.1,485.7 555.6,531.4 547.9,537.2 570.4,540.3 573.5,517.9 565.8,523.7 531.3,478.1 519.8,462.9 
					513.2,454.2 511.2,451.5 510.2,450.2 509.7,449.5 509.5,449.4 509.3,449.4 508.9,449.4 502.3,449.4 463.1,449.4 				"/>
			</g>
		</g>
	</g>
</g>
<g id="bullet3">
	<g>
		<circle class="st26" cx="592.7" cy="569.7" r="25.6"/>
		<g>
			<path class="st39" d="M590.6,565.7c0.8,0,1.7,0,2.5-0.2s1.6-0.4,2.2-0.8c0.7-0.4,1.2-0.9,1.6-1.6c0.4-0.7,0.6-1.5,0.6-2.4
				c0-1.3-0.5-2.4-1.4-3.2c-0.9-0.8-2.1-1.2-3.5-1.2c-0.9,0-1.7,0.2-2.3,0.5c-0.7,0.4-1.2,0.8-1.6,1.5c-0.4,0.6-0.8,1.3-1,2.1
				c-0.2,0.8-0.3,1.6-0.3,2.4h-5.1c0.1-1.5,0.3-2.9,0.9-4.3c0.5-1.3,1.2-2.4,2.1-3.4c0.9-1,2-1.7,3.2-2.2s2.7-0.8,4.3-0.8
				c1.2,0,2.4,0.2,3.6,0.5c1.2,0.4,2.2,0.9,3.2,1.6c0.9,0.7,1.7,1.6,2.3,2.6c0.6,1.1,0.9,2.3,0.9,3.7c0,1.6-0.4,3-1.1,4.2
				c-0.7,1.2-1.8,2-3.4,2.6v0.1c1.8,0.4,3.2,1.3,4.2,2.7c1,1.4,1.5,3.2,1.5,5.2c0,1.5-0.3,2.8-0.9,4c-0.6,1.2-1.4,2.2-2.4,3
				c-1,0.8-2.2,1.5-3.6,1.9c-1.4,0.4-2.8,0.7-4.3,0.7c-1.8,0-3.4-0.3-4.8-0.8c-1.4-0.5-2.5-1.3-3.4-2.2s-1.6-2.1-2.1-3.5
				c-0.5-1.3-0.7-2.8-0.8-4.5h5.1c-0.1,1.9,0.4,3.5,1.4,4.8c1,1.3,2.5,1.9,4.5,1.9c1.7,0,3.1-0.5,4.3-1.5c1.2-1,1.7-2.4,1.7-4.2
				c0-1.2-0.2-2.2-0.7-2.9s-1.1-1.3-1.9-1.6c-0.8-0.4-1.7-0.6-2.6-0.7s-2-0.1-3-0.1V565.7z"/>
		</g>
	</g>
</g>
<g id="fleche4">
	<g>
		<g>
			<g>
				<path class="st38" d="M309.1,537.7c-4.4,5.4-8.5,11.1-12.5,16.6c-2,2.7-4,5.4-6,7.9c-2,2.5-4.1,4.9-6.3,7c-2.2,2.1-4.5,4-7,5.6
					c-1.2,0.8-2.6,1.5-3.9,2.3c-0.7,0.4-1.4,0.7-2.1,1l-1,0.5l-1.1,0.4c-5.7,2.4-11.9,4-18.4,5.2c-12.9,2.3-26.3,3.3-39.8,3.9
					l-10.1,0.4l-10.1,0.2l-3.7,0l-0.1-9.7c-5.2,5.4-10.5,10.8-15.8,16.1c5.3,5.3,10.7,10.7,16.2,15.9l-0.1-9.7l3.7,0l10.3-0.2
					l10.3-0.4c13.8-0.7,27.6-1.6,41.5-4.1c7-1.3,14-3.1,20.9-5.9c6.9-2.8,13.6-7.1,19-12.3c2.7-2.6,5.1-5.4,7.4-8.2
					c2.2-2.8,4.3-5.6,6.3-8.4c4-5.5,7.9-10.9,12.1-16.1L309.1,537.7z"/>
			</g>
		</g>
	</g>
</g>
<g id="bullet4">
	<g>
		<circle class="st26" cx="130.7" cy="595.3" r="25.6"/>
		<g>
			<path class="st39" d="M140.8,603.3h-4.1v7.5h-4.9v-7.5h-13.5v-5.1l13.5-18.9h4.9v20h4.1V603.3z M122.4,599.3h9.5v-13.9h-0.1
				L122.4,599.3z"/>
		</g>
	</g>
</g>
<g id="fleche5">
	<g>
		<g>
			<g>
				<polygon class="st38" points="338.7,557.4 338.7,602.4 329,602.4 345.1,618.4 361.1,602.4 351.4,602.4 351.4,557.4 				"/>
			</g>
		</g>
	</g>
</g>
<g id="bullet5">
	<g>
		<circle class="st26" cx="343.9" cy="656.7" r="25.6"/>
		<g>
			<path class="st39" d="M336.1,640.6h16.3v4.6h-12.5l-1.6,8l0.1,0.1c0.7-0.8,1.6-1.4,2.6-1.8c1.1-0.4,2.1-0.6,3.2-0.6
				c1.6,0,3,0.3,4.2,0.8c1.2,0.5,2.3,1.3,3.1,2.2c0.8,0.9,1.5,2.1,1.9,3.4c0.4,1.3,0.7,2.7,0.7,4.2c0,1.3-0.2,2.6-0.6,3.9
				s-1.1,2.5-1.9,3.6c-0.9,1.1-2,2-3.4,2.7s-3,1.1-4.9,1.1c-1.5,0-2.9-0.2-4.3-0.6c-1.3-0.4-2.5-1-3.4-1.8c-1-0.8-1.8-1.8-2.4-3
				c-0.6-1.2-0.9-2.6-1-4.2h5.1c0.1,1.7,0.7,3,1.8,3.9c1,0.9,2.4,1.4,4,1.4c1.1,0,2-0.2,2.7-0.5c0.7-0.4,1.4-0.9,1.8-1.5
				c0.5-0.6,0.8-1.4,1-2.2c0.2-0.8,0.3-1.7,0.3-2.7c0-0.9-0.1-1.7-0.4-2.5c-0.2-0.8-0.6-1.5-1.1-2.1c-0.5-0.6-1.1-1.1-1.9-1.4
				c-0.8-0.4-1.7-0.5-2.7-0.5c-1.1,0-2.1,0.2-3,0.6c-0.9,0.4-1.6,1.2-2,2.3h-5.1L336.1,640.6z"/>
		</g>
	</g>
</g>
</svg>
