<?xml version="1.0" encoding="utf-8"?>
<!-- Generator: Adobe Illustrator 22.0.0, SVG Export Plug-In . SVG Version: 6.00 Build 0)  -->
<svg version="1.1" id="Calque_1" xmlns="http://www.w3.org/2000/svg" xmlns:xlink="http://www.w3.org/1999/xlink" x="0px" y="0px"
	 viewBox="0 0 999.4 719" style="enable-background:new 0 0 999.4 719;" xml:space="preserve">
<style type="text/css">
	.st0{fill:#F2F2F2;stroke:#5FA99F;stroke-width:2;stroke-miterlimit:10;}
	.st1{fill:#5FA99F;stroke:#5FA99F;stroke-width:2;stroke-miterlimit:10;}
	.st2{fill:none;stroke:#5FA99F;stroke-width:2;stroke-miterlimit:10;}
	.st3{fill:#FFFFFF;stroke:#5FA99F;stroke-width:2;stroke-miterlimit:10;}
	.st4{fill:#FFFFFF;stroke:#5FA99F;stroke-miterlimit:10;}
	.st5{fill:#666666;}
	.st6{font-family:'Roboto-Regular';}
	.st7{font-size:24.8876px;}
	.st8{fill:#999999;}
	.st9{font-family:'Roboto-Medium';}
	.st10{font-size:12px;}
	.st11{fill:#1E2E37;}
	.st12{fill:#324D5B;}
	.st13{fill:#BF392B;}
	.st14{fill:#85C6DC;}
	.st15{fill:#85281E;}
	.st16{fill:#E4E7E7;}
	.st17{fill:#E2574C;}
	.st18{fill:#E87970;}
	.st19{fill:#E0E3E4;}
	.st20{fill:#C0C8CB;}
	.st21{fill:#F4B459;}
	.st22{fill:#92D2E8;}
	.st23{fill:#CCD0D2;}
	.st24{fill:#4EB9FF;}
	.st25{fill:#9AD7FF;}
	.st26{fill:#3B8BC0;}
	.st27{fill:#174461;}
	.st28{fill:#01121C;}
	.st29{fill:#BC9146;}
	.st30{fill:#AF8C3E;}
	.st31{opacity:0.2;}
	.st32{fill:#FFFFFF;}
	.st33{fill:#CCD1D9;}
	.st34{fill:#E6E9ED;}
	.st35{fill:#37BDD9;}
	.st36{fill:#33A3BF;}
	.st37{fill:#DBE1E5;}
	.st38{fill:#C9D3D9;}
	.st39{fill:#61DAF2;}
	.st40{fill:#45C7E6;}
	.st41{fill:#434A54;}
	.st42{fill:#5D9CEC;}
	.st43{fill:#4A89DC;}
	.st44{opacity:0.2;fill:#FFFFFF;enable-background:new    ;}
	.st45{fill:#0E4675;}
	.st46{fill:#3D7A94;}
	.st47{fill:#FFD37D;}
	.st48{fill:#292F33;}
	.st49{fill:#66757F;}
	.st50{fill:#F5F8FA;}
	.st51{fill:#FFAC33;}
	.st52{fill:#BF5F10;}
	.st53{fill:#FECB81;}
	.st54{fill:#FEB95A;}
	.st55{fill:#F4555B;}
	.st56{fill:#EA4356;}
	.st57{fill:#D66C20;}
	.st58{fill:#EFEDEE;}
	.st59{fill:#D4D2D3;}
	.st60{fill:#FFCC4A;}
	.st61{fill:#EAAE28;}
	.st62{fill:#50C4DF;}
	.st63{fill:#1AA5C4;}
	.st64{fill:#FF9DC7;}
	.st65{fill:#E670A9;}
	.st66{fill:#424242;}
	.st67{fill:#707070;}
	.st68{fill:#3DDB86;}
	.st69{fill:#048F46;}
	.st70{fill:#66FFAF;}
	.st71{fill:#8F8F8F;}
	.st72{fill:#606060;}
	.st73{fill:#BFBFBF;}
	.st74{fill:#FF3A00;}
	.st75{fill:#FF6A00;}
	.st76{fill:#E20004;}
	.st77{fill:#404040;}
	.st78{fill:#D8DBDB;}
	.st79{fill:#676767;}
	.st80{fill:#DDE0E0;}
	.st81{fill:#C7CACA;}
	.st82{fill:#3DB39E;}
	.st83{fill:#38A592;}
	.st84{fill:#075E2F;}
	.st85{fill:#94C122;}
</style>
<g>
	<circle class="st0" cx="901.8" cy="124.6" r="63.5"/>
	<path class="st1" d="M901.8,61.6c34.7,0,63,28.3,63,63s-28.3,63-63,63s-63-28.3-63-63S867.1,61.6,901.8,61.6 M901.8,60.6
		c-35.3,0-64,28.7-64,64s28.7,64,64,64s64-28.7,64-64S937.1,60.6,901.8,60.6L901.8,60.6z"/>
</g>
<g>
	<circle class="st0" cx="723.8" cy="124.6" r="63.5"/>
	<path class="st1" d="M723.8,61.6c34.7,0,63,28.3,63,63s-28.3,63-63,63s-63-28.3-63-63S689.1,61.6,723.8,61.6 M723.8,60.6
		c-35.3,0-64,28.7-64,64s28.7,64,64,64s64-28.7,64-64S759.1,60.6,723.8,60.6L723.8,60.6z"/>
</g>
<g>
	<circle class="st0" cx="545.8" cy="124.6" r="63.5"/>
	<path class="st1" d="M545.8,61.6c34.7,0,63,28.3,63,63s-28.3,63-63,63s-63-28.3-63-63S511.1,61.6,545.8,61.6 M545.8,60.6
		c-35.3,0-64,28.7-64,64s28.7,64,64,64s64-28.7,64-64S581.1,60.6,545.8,60.6L545.8,60.6z"/>
</g>
<g>
	<circle class="st0" cx="367.8" cy="124.6" r="63.5"/>
	<path class="st1" d="M367.8,61.6c34.7,0,63,28.3,63,63s-28.3,63-63,63s-63-28.3-63-63S333.1,61.6,367.8,61.6 M367.8,60.6
		c-35.3,0-64,28.7-64,64s28.7,64,64,64s64-28.7,64-64S403.1,60.6,367.8,60.6L367.8,60.6z"/>
</g>
<g>
	<circle class="st0" cx="189.8" cy="124.6" r="63.5"/>
	<path class="st1" d="M189.8,61.6c34.7,0,63,28.3,63,63s-28.3,63-63,63s-63-28.3-63-63S155.1,61.6,189.8,61.6 M189.8,60.6
		c-35.3,0-64,28.7-64,64s28.7,64,64,64s64-28.7,64-64S225.1,60.6,189.8,60.6L189.8,60.6z"/>
</g>
<g>
	<circle class="st0" cx="901.8" cy="596.6" r="63.5"/>
	<path class="st1" d="M901.8,533.6c34.7,0,63,28.3,63,63s-28.3,63-63,63s-63-28.3-63-63S867.1,533.6,901.8,533.6 M901.8,532.6
		c-35.3,0-64,28.7-64,64s28.7,64,64,64s64-28.7,64-64S937.1,532.6,901.8,532.6L901.8,532.6z"/>
</g>
<g>
	<circle class="st0" cx="723.8" cy="596.6" r="63.5"/>
	<path class="st1" d="M723.8,533.6c34.7,0,63,28.3,63,63s-28.3,63-63,63s-63-28.3-63-63S689.1,533.6,723.8,533.6 M723.8,532.6
		c-35.3,0-64,28.7-64,64s28.7,64,64,64s64-28.7,64-64S759.1,532.6,723.8,532.6L723.8,532.6z"/>
</g>
<g>
	<circle class="st0" cx="545.8" cy="596.6" r="63.5"/>
	<path class="st1" d="M545.8,533.6c34.7,0,63,28.3,63,63s-28.3,63-63,63s-63-28.3-63-63S511.1,533.6,545.8,533.6 M545.8,532.6
		c-35.3,0-64,28.7-64,64s28.7,64,64,64s64-28.7,64-64S581.1,532.6,545.8,532.6L545.8,532.6z"/>
</g>
<g>
	<circle class="st0" cx="367.8" cy="596.6" r="63.5"/>
	<path class="st1" d="M367.8,533.6c34.7,0,63,28.3,63,63s-28.3,63-63,63s-63-28.3-63-63S333.1,533.6,367.8,533.6 M367.8,532.6
		c-35.3,0-64,28.7-64,64s28.7,64,64,64s64-28.7,64-64S403.1,532.6,367.8,532.6L367.8,532.6z"/>
</g>
<g>
	<circle class="st0" cx="189.8" cy="596.6" r="63.5"/>
	<path class="st1" d="M189.8,533.6c34.7,0,63,28.3,63,63s-28.3,63-63,63s-63-28.3-63-63S155.1,533.6,189.8,533.6 M189.8,532.6
		c-35.3,0-64,28.7-64,64s28.7,64,64,64s64-28.7,64-64S225.1,532.6,189.8,532.6L189.8,532.6z"/>
</g>
<g>
	<circle class="st0" cx="811.8" cy="354.6" r="63.5"/>
	<path class="st1" d="M811.8,291.6c34.7,0,63,28.3,63,63s-28.3,63-63,63s-63-28.3-63-63S777.1,291.6,811.8,291.6 M811.8,290.6
		c-35.3,0-64,28.7-64,64s28.7,64,64,64s64-28.7,64-64S847.1,290.6,811.8,290.6L811.8,290.6z"/>
</g>
<g>
	<circle class="st0" cx="633.8" cy="354.6" r="63.5"/>
	<path class="st1" d="M633.8,291.6c34.7,0,63,28.3,63,63s-28.3,63-63,63s-63-28.3-63-63S599.1,291.6,633.8,291.6 M633.8,290.6
		c-35.3,0-64,28.7-64,64s28.7,64,64,64s64-28.7,64-64S669.1,290.6,633.8,290.6L633.8,290.6z"/>
</g>
<g>
	<circle class="st0" cx="455.8" cy="354.6" r="63.5"/>
	<path class="st1" d="M455.8,291.6c34.7,0,63,28.3,63,63s-28.3,63-63,63s-63-28.3-63-63S421.1,291.6,455.8,291.6 M455.8,290.6
		c-35.3,0-64,28.7-64,64s28.7,64,64,64s64-28.7,64-64S491.1,290.6,455.8,290.6L455.8,290.6z"/>
</g>
<g>
	<circle class="st0" cx="277.8" cy="354.6" r="63.5"/>
	<path class="st1" d="M277.8,291.6c34.7,0,63,28.3,63,63s-28.3,63-63,63s-63-28.3-63-63S243.1,291.6,277.8,291.6 M277.8,290.6
		c-35.3,0-64,28.7-64,64s28.7,64,64,64s64-28.7,64-64S313.1,290.6,277.8,290.6L277.8,290.6z"/>
</g>
<g>
	<circle class="st0" cx="99.8" cy="354.6" r="63.5"/>
	<path class="st1" d="M99.8,291.6c34.7,0,63,28.3,63,63s-28.3,63-63,63s-63-28.3-63-63S65.1,291.6,99.8,291.6 M99.8,290.6
		c-35.3,0-64,28.7-64,64s28.7,64,64,64s64-28.7,64-64S135.1,290.6,99.8,290.6L99.8,290.6z"/>
</g>
<polyline class="st2" points="189.8,188.1 189.8,226.6 966.3,226.6 966.3,456.6 36.3,456.6 36.3,697.6 901.8,697.6 901.8,659.1 "/>
<line class="st2" x1="367.8" y1="226.6" x2="367.8" y2="188.1"/>
<line class="st2" x1="545.8" y1="226.6" x2="545.8" y2="189.1"/>
<line class="st2" x1="723.8" y1="226.6" x2="723.8" y2="189.1"/>
<line class="st2" x1="901.8" y1="226.6" x2="901.8" y2="189.1"/>
<line class="st2" x1="811.8" y1="456.6" x2="811.8" y2="419.1"/>
<line class="st2" x1="633.8" y1="456.6" x2="633.8" y2="419.1"/>
<line class="st2" x1="455.8" y1="456.6" x2="455.8" y2="418.1"/>
<line class="st2" x1="277.8" y1="456.6" x2="277.8" y2="418.1"/>
<line class="st2" x1="99.8" y1="456.6" x2="99.8" y2="418.1"/>
<line class="st2" x1="189.8" y1="697.6" x2="189.8" y2="660.1"/>
<line class="st2" x1="367.8" y1="697.6" x2="367.8" y2="660.1"/>
<line class="st2" x1="545.8" y1="697.6" x2="545.8" y2="661.1"/>
<line class="st2" x1="723.8" y1="697.6" x2="723.8" y2="661.1"/>
<circle class="st3" cx="190.3" cy="226.1" r="8"/>
<circle class="st3" cx="368.3" cy="226.1" r="8"/>
<circle class="st3" cx="546.3" cy="226.1" r="8"/>
<circle class="st3" cx="724.3" cy="226.1" r="8"/>
<circle class="st3" cx="902.3" cy="226.1" r="8"/>
<circle class="st3" cx="812.3" cy="456.1" r="8"/>
<circle class="st3" cx="634.3" cy="456.1" r="8"/>
<circle class="st3" cx="456.3" cy="456.1" r="8"/>
<circle class="st3" cx="278.3" cy="456.1" r="8"/>
<circle class="st3" cx="100.3" cy="456.1" r="8"/>
<circle class="st3" cx="189.3" cy="698.1" r="8"/>
<circle class="st3" cx="367.3" cy="698.1" r="8"/>
<circle class="st3" cx="545.3" cy="698.1" r="8"/>
<circle class="st3" cx="724.3" cy="698.1" r="8"/>
<circle class="st3" cx="901.3" cy="698.1" r="8"/>
<path class="st4" d="M156.1,167.5h69.1c1.1,0,2,0.9,2,2v27.1c0,1.1-0.9,2-2,2h-69.1c-1.1,0-2-0.9-2-2v-27.1
	C154.1,168.4,155,167.5,156.1,167.5z"/>
<rect x="136.5" y="43.6" class="st4" width="108.2" height="32.4"/>
<text transform="matrix(1 0 0 1 162.3506 191.8247)" class="st5 st6 st7">1960</text>
<path class="st4" d="M333.9,167.5H403c1.1,0,2,0.9,2,2v27.1c0,1.1-0.9,2-2,2h-69.1c-1.1,0-2-0.9-2-2v-27.1
	C331.9,168.4,332.8,167.5,333.9,167.5z"/>
<text transform="matrix(1 0 0 1 340.1639 191.8247)" class="st5 st6 st7">1930</text>
<path class="st4" d="M511.8,167.5h69.1c1.1,0,2,0.9,2,2v27.1c0,1.1-0.9,2-2,2h-69.1c-1.1,0-2-0.9-2-2v-27.1
	C509.8,168.4,510.7,167.5,511.8,167.5z"/>
<text transform="matrix(1 0 0 1 518.0072 191.8247)" class="st5 st6 st7">1935</text>
<path class="st4" d="M689.3,167.5h69.1c1.1,0,2,0.9,2,2v27.1c0,1.1-0.9,2-2,2h-69.1c-1.1,0-2-0.9-2-2v-27.1
	C687.3,168.4,688.2,167.5,689.3,167.5z"/>
<text transform="matrix(1 0 0 1 695.5072 191.8247)" class="st5 st6 st7">1939</text>
<path class="st4" d="M867.3,167.5h69.1c1.1,0,2,0.9,2,2v27.1c0,1.1-0.9,2-2,2h-69.1c-1.1,0-2-0.9-2-2v-27.1
	C865.3,168.4,866.2,167.5,867.3,167.5z"/>
<text transform="matrix(1 0 0 1 873.5072 191.8247)" class="st5 st6 st7">1942</text>
<g>
	<text transform="matrix(1 0 0 1 157.7301 57.5698)"><tspan x="0" y="0" class="st8 st9 st10">INTÉRIEURS</tspan><tspan x="-0.1" y="13" class="st8 st9 st10">DE VOITURE</tspan></text>
</g>
<rect x="492.2" y="43.6" class="st4" width="108.2" height="32.4"/>
<g>
	<text transform="matrix(1 0 0 1 525.916 64.5698)" class="st8 st9 st10">NYLON</text>
</g>
<rect x="670.2" y="43.6" class="st4" width="108.2" height="32.4"/>
<g>
	<text transform="matrix(1 0 0 1 712.6113 64.5698)" class="st8 st9 st10">PET</text>
</g>
<rect x="847.7" y="43.6" class="st4" width="108.2" height="32.4"/>
<g>
	<text transform="matrix(1 0 0 1 866.3486 64.5698)" class="st8 st9 st10">SUPER GLUE</text>
</g>
<path class="st4" d="M777.8,397.5h69.1c1.1,0,2,0.9,2,2v27.1c0,1.1-0.9,2-2,2h-69.1c-1.1,0-2-0.9-2-2v-27.1
	C775.8,398.4,776.7,397.5,777.8,397.5z"/>
<text transform="matrix(1 0 0 1 784.0072 421.8801)" class="st5 st6 st7">1943</text>
<rect x="758.2" y="273.7" class="st4" width="108.2" height="32.4"/>
<g>
	<text transform="matrix(1 0 0 1 789.5019 294.6252)" class="st8 st9 st10">TEFLON</text>
</g>
<path class="st4" d="M154.8,639.7h69.1c1.1,0,2,0.9,2,2v27.1c0,1.1-0.9,2-2,2h-69.1c-1.1,0-2-0.9-2-2v-27.1
	C152.8,640.6,153.7,639.7,154.8,639.7z"/>
<text transform="matrix(1 0 0 1 161.0072 664.0785)" class="st5 st6 st7">1968</text>
<rect x="121.3" y="515.9" class="st4" width="136" height="32.4"/>
<g>
	<text transform="matrix(1 0 0 1 128.0878 529.8236)"><tspan x="0" y="0" class="st8 st9 st10">PREMIÈRE BOUTEILLE</tspan><tspan x="9.8" y="13" class="st8 st9 st10">DE VITTEL EN PVC</tspan></text>
</g>
<path class="st4" d="M332.8,639.7h69.1c1.1,0,2,0.9,2,2v27.1c0,1.1-0.9,2-2,2h-69.1c-1.1,0-2-0.9-2-2v-27.1
	C330.8,640.6,331.7,639.7,332.8,639.7z"/>
<text transform="matrix(1 0 0 1 339.0072 664.0785)" class="st5 st6 st7">1989</text>
<rect x="313.2" y="515.9" class="st4" width="108.2" height="32.4"/>
<g>
	<text transform="matrix(1 0 0 1 334.412 529.8236)"><tspan x="0" y="0" class="st8 st9 st10">PREMIÈRES</tspan><tspan x="17.9" y="13" class="st8 st9 st10">LEDS</tspan></text>
</g>
<path class="st4" d="M688.9,639.7H758c1.1,0,2,0.9,2,2v27.1c0,1.1-0.9,2-2,2h-69.1c-1.1,0-2-0.9-2-2v-27.1
	C686.9,640.6,687.8,639.7,688.9,639.7z"/>
<text transform="matrix(1 0 0 1 695.1639 664.0785)" class="st5 st6 st7">1989</text>
<rect x="669.4" y="515.9" class="st4" width="108.2" height="32.4"/>
<g>
	<text transform="matrix(1 0 0 1 690.5688 529.8236)"><tspan x="0" y="0" class="st8 st9 st10">PREMIÈRES</tspan><tspan x="-14.4" y="13" class="st8 st9 st10">BOUTEILLES PET</tspan></text>
</g>
<path class="st4" d="M866.8,639.7h69.1c1.1,0,2,0.9,2,2v27.1c0,1.1-0.9,2-2,2h-69.1c-1.1,0-2-0.9-2-2v-27.1
	C864.8,640.6,865.7,639.7,866.8,639.7z"/>
<text transform="matrix(1 0 0 1 873.0072 664.0785)" class="st5 st6 st7">1989</text>
<rect x="841.4" y="515.9" class="st4" width="119.8" height="32.4"/>
<g>
	<text transform="matrix(1 0 0 1 861.9111 529.8236)"><tspan x="0" y="0" class="st8 st9 st10">BOEING 787 À</tspan><tspan x="-14.8" y="13" class="st8 st9 st10">50% EN PLASTIQUE</tspan></text>
</g>
<path class="st4" d="M510.8,639.7h69.1c1.1,0,2,0.9,2,2v27.1c0,1.1-0.9,2-2,2h-69.1c-1.1,0-2-0.9-2-2v-27.1
	C508.8,640.6,509.7,639.7,510.8,639.7z"/>
<text transform="matrix(1 0 0 1 517.0072 664.0785)" class="st5 st6 st7">1990</text>
<rect x="452.3" y="515.9" class="st4" width="186.1" height="32.4"/>
<g>
	<text transform="matrix(1 0 0 1 473.371 529.8236)"><tspan x="0" y="0" class="st8 st9 st10">PREMIER PLASTIQUE BIO-</tspan><tspan x="-15.1" y="13" class="st8 st9 st10">DÉGRADABLE COMMERCIALISÉ</tspan></text>
</g>
<path class="st4" d="M421.8,397.5h69.1c1.1,0,2,0.9,2,2v27.1c0,1.1-0.9,2-2,2h-69.1c-1.1,0-2-0.9-2-2v-27.1
	C419.8,398.4,420.7,397.5,421.8,397.5z"/>
<text transform="matrix(1 0 0 1 428.0072 421.8801)" class="st5 st6 st7">1950</text>
<rect x="385.7" y="273.7" class="st4" width="141.2" height="32.4"/>
<g>
	<text transform="matrix(1 0 0 1 411.6288 287.6252)"><tspan x="0" y="0" class="st8 st9 st10">DISQUES VINYL,</tspan><tspan x="-20.6" y="13" class="st8 st9 st10">BARBIES, HOOLA HOOP</tspan></text>
</g>
<path class="st4" d="M243.8,397.5h69.1c1.1,0,2,0.9,2,2v27.1c0,1.1-0.9,2-2,2h-69.1c-1.1,0-2-0.9-2-2v-27.1
	C241.8,398.4,242.7,397.5,243.8,397.5z"/>
<text transform="matrix(1 0 0 1 250.0072 421.8801)" class="st5 st6 st7">1960</text>
<rect x="207.7" y="273.7" class="st4" width="141.2" height="32.4"/>
<g>
	<text transform="matrix(1 0 0 1 245.9892 287.6252)"><tspan x="0" y="0" class="st8 st9 st10">PEINTURES</tspan><tspan x="-3.8" y="13" class="st8 st9 st10">ACRYLIQUES</tspan></text>
</g>
<path class="st4" d="M65.3,397.5h69.1c1.1,0,2,0.9,2,2v27.1c0,1.1-0.9,2-2,2H65.3c-1.1,0-2-0.9-2-2v-27.1
	C63.3,398.4,64.2,397.5,65.3,397.5z"/>
<text transform="matrix(1 0 0 1 71.5072 421.8801)" class="st5 st6 st7">1965</text>
<rect x="29.2" y="273.7" class="st4" width="141.2" height="32.4"/>
<g>
	<text transform="matrix(1 0 0 1 50.3915 287.6252)"><tspan x="0" y="0" class="st8 st9 st10">PREMIER KEVLAR</tspan><tspan x="11.8" y="13" class="st8 st9 st10">PAR DUPONT</tspan></text>
</g>
<path class="st4" d="M599.3,397.5h69.1c1.1,0,2,0.9,2,2v27.1c0,1.1-0.9,2-2,2h-69.1c-1.1,0-2-0.9-2-2v-27.1
	C597.3,398.4,598.2,397.5,599.3,397.5z"/>
<text transform="matrix(1 0 0 1 605.5072 421.8801)" class="st5 st6 st7">1949</text>
<rect x="576" y="273.7" class="st4" width="115.6" height="32.4"/>
<g>
	<text transform="matrix(1 0 0 1 592.7236 287.6252)"><tspan x="0" y="0" class="st8 st9 st10">SAGEX, LYCRA</tspan><tspan x="-10.7" y="13" class="st8 st9 st10">ET TUPPERWARES</tspan></text>
</g>
<rect x="304.8" y="43.6" class="st4" width="127" height="32.4"/>
<g>
	<text transform="matrix(1 0 0 1 320.5126 57.5698)"><tspan x="0" y="0" class="st8 st9 st10">BANDES SCOTCH</tspan><tspan x="-4.7" y="13" class="st8 st9 st10">FILM CELLOPHANE</tspan></text>
</g>
<g>
	<path class="st11" d="M209.4,140.1v4.1c0,1.6,1.3,2.9,2.8,2.9h4.7v-7L209.4,140.1L209.4,140.1z M164.7,147.1h4.7
		c1.6,0,2.8-1.3,2.8-2.9v-4.1h-7.5C164.7,140.1,164.7,147.1,164.7,147.1z"/>
	<path class="st12" d="M214.6,140.1v9.5c0,2.1,1.7,3.9,3.8,3.9h2.1c2.1,0,3.8-1.7,3.8-3.9V139C224.4,139,214.6,140.1,214.6,140.1z
		 M157.2,149.6c0,2.1,1.7,3.9,3.8,3.9h2.1c2.1,0,3.8-1.7,3.8-3.9v-9.5l-9.8-1.2C157.2,139,157.2,149.6,157.2,149.6z"/>
	<path class="st13" d="M190.6,89.7h0.2c19.7,0,24.4,8.4,24.4,24.4h-48.7C166.5,98.1,171.3,89.7,190.6,89.7z"/>
	<path class="st14" d="M190.6,92.6h0.2c17.3,0,21.5,7.4,21.5,21.5h-42.9C169.4,100,173.6,92.6,190.6,92.6z"/>
	<path class="st15" d="M190.8,133.8c11.8,0,21.5,2.2,21.5,4.9c0,2.7-9.6,4.9-21.5,4.9c-11.8,0-21.5-2.2-21.5-4.9
		C169.4,136,179,133.8,190.8,133.8z"/>
	<path class="st13" d="M166.7,115.8l24.2-3.5l24.1,3.5c7.2,0,13,5.9,13,13.2v2.8c0,2.1-0.9,3.8-3.7,3.8h-66.8
		c-2.7-0.1-3.7-1.7-3.7-3.8v-2.8C153.7,121.6,159.5,115.8,166.7,115.8z"/>
	<path class="st16" d="M156.7,134.9h68.3c1,0,1.8,0.8,1.8,1.7c0,1.9-1.6,3.5-3.7,3.5h-64.6c-2,0-3.7-1.6-3.7-3.5
		C154.9,135.7,155.7,134.9,156.7,134.9L156.7,134.9z"/>
	<path class="st17" d="M215.9,114c0,0-6.7,2.7-10.3,14.4c0,0-2,6.5-6.5,6.5h-16.7c-4.5,0-6.5-6.5-6.5-6.5
		c-3.5-11.8-10.2-14.3-10.2-14.3c-2.3-0.9,0-2.3,0-2.3c9.4-5.3,25.1-4.7,25.1-4.7s15.6-0.7,25.1,4.7
		C215.9,111.8,218.1,113,215.9,114z"/>
	<path class="st13" d="M178.5,127.6c0.3,0.9,1.8,4.4,3.7,4.4h5.1v-22c-8.8,0-14.6,1.6-18,3.1C172,115.1,176,119.4,178.5,127.6z
		 M194.3,110v22h4.6c2,0,3.4-3.5,3.7-4.4c2.4-8.1,6.4-12.4,9-14.5C208.3,111.6,202.8,110,194.3,110z"/>
	<path class="st18" d="M189.7,107.1h2.3v27.8h-2.3V107.1z"/>
	<path class="st19" d="M164.1,121c-2.9,0-5.2,2.3-5.2,5.2c0,2.9,2.3,5.2,5.2,5.2s5.2-2.3,5.2-5.2C169.4,123.3,167,121,164.1,121z
		 M217.5,121c-2.9,0-5.2,2.3-5.2,5.2c0,2.9,2.3,5.2,5.2,5.2s5.2-2.3,5.2-5.2C222.7,123.3,220.4,121,217.5,121z"/>
	<path class="st20" d="M164.1,124.5c-1,0-1.7,0.8-1.7,1.7c0,1,0.8,1.7,1.7,1.7s1.7-0.8,1.7-1.7C165.9,125.2,165.1,124.5,164.1,124.5
		z M217.5,124.5c-1,0-1.7,0.8-1.7,1.7c0,1,0.8,1.7,1.7,1.7c1,0,1.7-0.8,1.7-1.7C219.2,125.2,218.5,124.5,217.5,124.5z"/>
	<path class="st21" d="M216.5,112.9h-1c-1.2,0-2.1,0.9-2.1,2v1c0,0.6,1.2,1,2.6,1c1.5,0,2.6-0.5,2.6-1v-1
		C218.6,113.8,217.7,112.9,216.5,112.9z M166.1,112.9h-1c-1.2,0-2.1,0.9-2.1,2v1c0,0.6,1.2,1,2.6,1c1.4,0,2.6-0.5,2.6-1v-1
		C168.1,113.8,167.2,112.9,166.1,112.9z"/>
	<path class="st22" d="M171,102.5c2.9-1.5,11.3-5.2,19.7-5.2c8.5,0,17,3.7,19.9,5.2c-2.4-6.6-8.1-9.9-19.8-9.9h-0.2
		C179.2,92.6,173.5,95.9,171,102.5z"/>
	<path class="st23" d="M217.5,122.2c2.3,0,4.1,1.8,4.1,4.1s-1.8,4.1-4.1,4.1c-2.3,0-4.1-1.8-4.1-4.1
		C213.4,124,215.2,122.2,217.5,122.2 M164.1,122.2c2.3,0,4.1,1.8,4.1,4.1s-1.8,4.1-4.1,4.1s-4.1-1.8-4.1-4.1
		C160.1,124,161.9,122.2,164.1,122.2 M217.5,121c-2.9,0-5.2,2.3-5.2,5.2c0,2.9,2.3,5.2,5.2,5.2s5.2-2.3,5.2-5.2
		C222.7,123.3,220.4,121,217.5,121z M164.1,121c-2.9,0-5.2,2.3-5.2,5.2c0,2.9,2.3,5.2,5.2,5.2s5.2-2.3,5.2-5.2
		C169.4,123.3,167,121,164.1,121z"/>
</g>
<g>
	<path class="st24" d="M381.7-99.1c-7.2,0-35.4,0-35.4,0v52.4c0,0,28.2,0,35.4,0v-26.2c7.2,0,13.1-5.9,13.1-13.1
		S388.9-99.1,381.7-99.1z"/>
	<path class="st25" d="M381.7-72.9h-35.4c12.2,0,22,13.4,22,29.9h35.4C403.8-59.5,393.9-72.9,381.7-72.9z"/>
	<circle class="st26" cx="346.3" cy="-86" r="13.1"/>
	<circle class="st27" cx="346.3" cy="-86" r="5.1"/>
	<circle class="st26" cx="346.3" cy="-59.8" r="13.1"/>
	<circle class="st27" cx="346.3" cy="-59.8" r="5.1"/>
	<g>
		<path class="st28" d="M346.3-92.9c-3.8,0-6.8,3.1-6.8,6.8s3.1,6.8,6.8,6.8c3.8,0,6.8-3.1,6.8-6.8S350.1-92.9,346.3-92.9z
			 M346.3-82.6c-1.9,0-3.4-1.5-3.4-3.4s1.5-3.4,3.4-3.4c1.9,0,3.4,1.5,3.4,3.4S348.2-82.6,346.3-82.6z"/>
		<path class="st28" d="M346.3-66.7c-3.8,0-6.8,3.1-6.8,6.8s3.1,6.8,6.8,6.8c3.8,0,6.8-3.1,6.8-6.8S350.1-66.7,346.3-66.7z
			 M346.3-56.4c-1.9,0-3.4-1.5-3.4-3.4c0-1.9,1.5-3.4,3.4-3.4c1.9,0,3.4,1.5,3.4,3.4C349.7-58,348.2-56.4,346.3-56.4z"/>
		<path class="st28" d="M398.7-65.2c-2.7-3.7-6.1-6.4-9.7-8c4.5-2.5,7.5-7.4,7.5-12.9c0-8.2-6.6-14.8-14.8-14.8h-35.4
			c-8.2,0-14.8,6.6-14.8,14.8c0,5.7,3.2,10.6,7.9,13.1c-4.7,2.5-7.9,7.4-7.9,13.1c0,8.2,6.6,14.8,14.8,14.8H363
			c0.9,0,1.7-0.8,1.7-1.7s-0.8-1.7-1.7-1.7h-7.3c3.3-2.7,5.3-6.8,5.3-11.4c0-1-0.1-2-0.3-2.9c3.6,5.1,5.8,12.1,5.8,19.8
			c0,0.9,0.8,1.7,1.7,1.7h35.4c0.9,0,1.7-0.8,1.7-1.7C405.5-51.3,403.1-59.2,398.7-65.2z M381.7-97.4c6.3,0,11.4,5.1,11.4,11.4
			c0,6.3-5.1,11.4-11.4,11.4h-26c3.3-2.7,5.3-6.8,5.3-11.4s-2.1-8.7-5.3-11.4C355.7-97.4,381.7-97.4,381.7-97.4z M334.9-86
			c0-6.3,5.1-11.4,11.4-11.4c6.3,0,11.4,5.1,11.4,11.4c0,6.3-5.1,11.4-11.4,11.4C340-74.6,334.9-79.7,334.9-86z M346.3-48.5
			c-6.3,0-11.4-5.1-11.4-11.4s5.1-11.4,11.4-11.4c6.3,0,11.4,5.1,11.4,11.4S352.6-48.5,346.3-48.5z M370-44.7
			c-0.3-7.7-2.7-14.9-6.8-20.5c-1.8-2.5-3.9-4.5-6.2-6h24.6c10.8,0,19.7,11.7,20.3,26.5H370z"/>
	</g>
</g>
<g>
	<path class="st29" d="M368,156.5h-40.7c-0.9,0-1.6-0.7-1.6-1.6c0-0.9,0.7-1.6,1.6-1.6H368c0.9,0,1.6,0.7,1.6,1.6
		C369.6,155.8,368.9,156.5,368,156.5z"/>
	<path class="st30" d="M391.2,100.4c-6.2-6.2-14.4-9.6-23.2-9.6c-8.8,0-17,3.4-23.2,9.6c-6.2,6.2-9.6,14.4-9.6,23.2
		c0,8.8,3.4,17,9.6,23.2c6.2,6.2,14.4,9.6,23.2,9.6c8.8,0,17-3.4,23.2-9.6c6.2-6.2,9.6-14.4,9.6-23.2
		C400.9,114.8,397.4,106.6,391.2,100.4z M368,131.4c-4.3,0-7.8-3.5-7.8-7.8s3.5-7.8,7.8-7.8c4.3,0,7.8,3.5,7.8,7.8
		C375.8,127.9,372.3,131.4,368,131.4z"/>
	<g class="st31">
		<path class="st32" d="M391.2,100.4c-6.2-6.2-14.4-9.6-23.2-9.6c-0.5,0-1,0-1.6,0c8.2,0.4,15.8,3.7,21.7,9.6
			c6.2,6.2,9.6,14.4,9.6,23.2c0,8.8-3.4,17-9.6,23.2c-5.8,5.8-13.5,9.2-21.7,9.6c0.5,0,1,0,1.6,0c8.8,0,17-3.4,23.2-9.6
			c6.2-6.2,9.6-14.4,9.6-23.2C400.9,114.8,397.4,106.6,391.2,100.4z"/>
	</g>
	<path class="st33" d="M368,109.5c-7.8,0-14.1,6.3-14.1,14.1c0,7.8,6.3,14.1,14.1,14.1c7.8,0,14.1-6.3,14.1-14.1
		C382.1,115.8,375.8,109.5,368,109.5z M368,131.4c-4.3,0-7.8-3.5-7.8-7.8s3.5-7.8,7.8-7.8c4.3,0,7.8,3.5,7.8,7.8
		C375.8,127.9,372.3,131.4,368,131.4z"/>
	<g>
		<path class="st34" d="M368,133c-5.2,0-9.4-4.2-9.4-9.4c0-5.2,4.2-9.4,9.4-9.4c5.2,0,9.4,4.2,9.4,9.4
			C377.4,128.8,373.2,133,368,133z M368,117.4c-3.4,0-6.3,2.8-6.3,6.3c0,3.4,2.8,6.3,6.3,6.3c3.4,0,6.3-2.8,6.3-6.3
			C374.3,120.2,371.5,117.4,368,117.4z"/>
		<path class="st34" d="M368,108c-0.9,0-1.6,0.7-1.6,1.6v1.6c0,0.9,0.7,1.6,1.6,1.6s1.6-0.7,1.6-1.6v-1.6
			C369.6,108.7,368.9,108,368,108z"/>
		<path class="st34" d="M368,134.6c-0.9,0-1.6,0.7-1.6,1.6v1.6c0,0.9,0.7,1.6,1.6,1.6s1.6-0.7,1.6-1.6v-1.6
			C369.6,135.3,368.9,134.6,368,134.6z"/>
		<path class="st34" d="M360.4,113.6c0.3,0.5,0.8,0.8,1.4,0.8c0.3,0,0.5-0.1,0.8-0.2c0.7-0.4,1-1.4,0.6-2.1l-0.8-1.4
			c-0.4-0.7-1.4-1-2.1-0.6c-0.7,0.4-1,1.4-0.6,2.1L360.4,113.6z"/>
		<path class="st34" d="M375.6,133.7c-0.4-0.7-1.4-1-2.1-0.6c-0.7,0.4-1,1.4-0.6,2.1l0.8,1.4c0.3,0.5,0.8,0.8,1.4,0.8
			c0.3,0,0.5-0.1,0.8-0.2c0.7-0.4,1-1.4,0.6-2.1L375.6,133.7z"/>
		<path class="st34" d="M355,117.9l1.4,0.8c0.2,0.1,0.5,0.2,0.8,0.2c0.5,0,1.1-0.3,1.4-0.8c0.4-0.7,0.2-1.7-0.6-2.1l-1.4-0.8
			c-0.7-0.4-1.7-0.2-2.1,0.6C354,116.5,354.3,117.5,355,117.9z"/>
		<path class="st34" d="M381,129.3l-1.4-0.8c-0.7-0.4-1.7-0.2-2.1,0.6c-0.4,0.7-0.2,1.7,0.6,2.1l1.4,0.8c0.2,0.1,0.5,0.2,0.8,0.2
			c0.5,0,1.1-0.3,1.4-0.8C382,130.7,381.7,129.7,381,129.3z"/>
		<path class="st34" d="M357.1,123.6c0-0.9-0.7-1.6-1.6-1.6h-1.6c-0.9,0-1.6,0.7-1.6,1.6c0,0.9,0.7,1.6,1.6,1.6h1.6
			C356.4,125.2,357.1,124.5,357.1,123.6z"/>
		<path class="st34" d="M382.1,122.1h-1.6c-0.9,0-1.6,0.7-1.6,1.6c0,0.9,0.7,1.6,1.6,1.6h1.6c0.9,0,1.6-0.7,1.6-1.6
			C383.7,122.8,383,122.1,382.1,122.1z"/>
		<path class="st34" d="M356.4,128.5l-1.4,0.8c-0.7,0.4-1,1.4-0.6,2.1c0.3,0.5,0.8,0.8,1.4,0.8c0.3,0,0.5-0.1,0.8-0.2l1.4-0.8
			c0.7-0.4,1-1.4,0.6-2.1C358.1,128.3,357.1,128.1,356.4,128.5z"/>
		<path class="st34" d="M378.9,118.9c0.3,0,0.5-0.1,0.8-0.2l1.4-0.8c0.7-0.4,1-1.4,0.6-2.1c-0.4-0.7-1.4-1-2.1-0.6l-1.4,0.8
			c-0.7,0.4-1,1.4-0.6,2.1C377.8,118.6,378.3,118.9,378.9,118.9z"/>
		<path class="st34" d="M362.5,133.1c-0.7-0.4-1.7-0.2-2.1,0.6l-0.8,1.4c-0.4,0.7-0.2,1.7,0.6,2.1c0.2,0.1,0.5,0.2,0.8,0.2
			c0.5,0,1.1-0.3,1.4-0.8l0.8-1.4C363.5,134.5,363.3,133.5,362.5,133.1z"/>
		<path class="st34" d="M375.8,110.1c-0.7-0.4-1.7-0.2-2.1,0.6l-0.8,1.4c-0.4,0.7-0.2,1.7,0.6,2.1c0.2,0.1,0.5,0.2,0.8,0.2
			c0.5,0,1.1-0.3,1.4-0.8l0.8-1.4C376.8,111.5,376.6,110.5,375.8,110.1z"/>
	</g>
	<g>
		<path class="st29" d="M368,101.7c0.4,0,0.8-0.2,1.1-0.5c0.6-0.6,0.6-1.6,0-2.2c-0.4-0.4-0.9-0.5-1.4-0.4
			c-6.6,0.1-12.7,2.7-17.4,7.3c-4.6,4.6-7.2,10.8-7.3,17.4c-0.1,0.5,0,1,0.4,1.4c0.6,0.6,1.6,0.6,2.2,0c0.3-0.3,0.5-0.7,0.5-1.1h0
			c0-5.8,2.3-11.3,6.4-15.5C356.7,104,362.2,101.7,368,101.7L368,101.7L368,101.7z"/>
		<path class="st29" d="M393,123.6L393,123.6c0-0.4-0.2-0.8-0.5-1.1c-0.6-0.6-1.6-0.6-2.2,0c-0.3,0.3-0.5,0.7-0.5,1.1
			c0,5.8-2.3,11.3-6.4,15.5c-4.1,4.1-9.6,6.4-15.5,6.4l0,0c-0.4,0-0.8,0.2-1.1,0.5c-0.6,0.6-0.6,1.6,0,2.2c0.3,0.3,0.7,0.5,1.1,0.5
			c6.7,0,13-2.6,17.7-7.3C390.4,136.6,393,130.3,393,123.6z"/>
	</g>
	<path class="st34" d="M368,139.3c-8.6,0-15.6-7-15.6-15.6c0-8.6,7-15.6,15.6-15.6c8.6,0,15.6,7,15.6,15.6
		C383.7,132.2,376.6,139.3,368,139.3z M368,111.1c-6.9,0-12.5,5.6-12.5,12.5c0,6.9,5.6,12.5,12.5,12.5c6.9,0,12.5-5.6,12.5-12.5
		C380.5,116.7,374.9,111.1,368,111.1z"/>
</g>
<g>
	<path class="st35" d="M560.7,100.7h-29.2c-1.2,0-2.1,0.9-2.1,2.1v41.7c0,1.2,0.9,2.1,2.1,2.1h29.2c1.2,0,2.1-0.9,2.1-2.1v-41.7
		C562.8,101.6,561.9,100.7,560.7,100.7z"/>
	<path class="st36" d="M546.1,146.5h14.6c1.2,0,2.1-0.9,2.1-2.1v-41.7c0-1.2-0.9-2.1-2.1-2.1h-14.6V146.5L546.1,146.5z"/>
	<g>
		<path class="st37" d="M564.9,104.8h-37.5c-3.4,0-6.3-2.8-6.3-6.3v-4.9c0-1.2,0.9-2.1,2.1-2.1h45.9c1.2,0,2.1,0.9,2.1,2.1v4.9
			C571.2,102,568.4,104.8,564.9,104.8z"/>
		<path class="st37" d="M569.1,155.6h-45.9c-1.2,0-2.1-0.9-2.1-2.1v-4.9c0-3.4,2.8-6.3,6.3-6.3h37.5c3.4,0,6.3,2.8,6.3,6.3v4.9
			C571.2,154.6,570.2,155.6,569.1,155.6z"/>
	</g>
	<g>
		<path class="st38" d="M564.9,142.4h-18.8v13.2h22.9c1.2,0,2.1-0.9,2.1-2.1v-4.9C571.2,145.2,568.4,142.4,564.9,142.4z"/>
		<path class="st38" d="M564.9,104.8c3.4,0,6.3-2.8,6.3-6.3v-4.9c0-1.2-0.9-2.1-2.1-2.1h-22.9v13.2H564.9z"/>
	</g>
	<path class="st39" d="M585.1,115.3c0,1.2-0.9,2.1-2.1,2.1h-3.5c-2.3,0-4.2,1.9-4.2,4.2v8.3c0,4.6-3.7,8.3-8.3,8.3h-37.5V134H567
		c2.3,0,4.2-1.9,4.2-4.2v-8.3c0-4.6,3.7-8.3,8.3-8.3h3.5C584.1,113.2,585.1,114.1,585.1,115.3z"/>
	<path class="st40" d="M583,113.2h-3.5c-4.6,0-8.3,3.7-8.3,8.3v8.3c0,2.3-1.9,4.2-4.2,4.2h-20.9v4.2H567c4.6,0,8.3-3.7,8.3-8.3v-8.3
		c0-2.3,1.9-4.2,4.2-4.2h3.5c1.2,0,2.1-0.9,2.1-2.1C585.1,114.1,584.1,113.2,583,113.2z"/>
	<rect x="529.5" y="125.7" class="st39" width="33.4" height="4.2"/>
	<rect x="546.1" y="125.7" class="st40" width="16.7" height="4.2"/>
	<rect x="529.5" y="117.3" class="st39" width="33.4" height="4.2"/>
	<rect x="546.1" y="117.3" class="st40" width="16.7" height="4.2"/>
	<rect x="529.5" y="109" class="st39" width="33.4" height="4.2"/>
	<rect x="546.1" y="109" class="st40" width="16.7" height="4.2"/>
</g>
<g>
	<path class="st33" d="M726.3,86h-5.8c-0.8,0-1.5,0.6-1.5,1.4v5.8c0,0.8,0.6,1.4,1.5,1.4h5.8c0.8,0,1.4-0.6,1.4-1.4v-5.8
		C727.7,86.6,727.1,86,726.3,86z"/>
	<path class="st34" d="M732,91.8h-17.4c-0.8,0-1.4,0.6-1.4,1.5V99c0,0.8,0.6,1.4,1.4,1.4H732c0.8,0,1.4-0.6,1.4-1.4v-5.8
		C733.5,92.4,732.8,91.8,732,91.8z"/>
	<path class="st41" d="M727.7,88.9H719c-0.8,0-1.5-0.6-1.5-1.5c0-0.8,0.7-1.4,1.5-1.4h8.7c0.8,0,1.4,0.6,1.4,1.4
		C729.2,88.2,728.5,88.9,727.7,88.9z"/>
	<g>
		<path class="st33" d="M719,100.5c-0.8,0-1.4-0.6-1.4-1.4v-1.4c0-0.8,0.6-1.5,1.4-1.5c0.8,0,1.5,0.6,1.5,1.5V99
			C720.4,99.8,719.8,100.5,719,100.5z"/>
		<path class="st33" d="M723.3,100.5c-0.8,0-1.4-0.6-1.4-1.4v-1.4c0-0.8,0.6-1.5,1.4-1.5s1.5,0.6,1.5,1.5V99
			C724.8,99.8,724.1,100.5,723.3,100.5z"/>
		<path class="st33" d="M727.7,100.5c-0.8,0-1.4-0.6-1.4-1.4v-1.4c0-0.8,0.6-1.5,1.4-1.5c0.8,0,1.5,0.6,1.5,1.5V99
			C729.1,99.8,728.5,100.5,727.7,100.5z"/>
	</g>
	<path class="st42" d="M737.8,113.5v-11.6c0-2.4-2-4.4-4.4-4.4h-20.3c-2.4,0-4.4,2-4.4,4.4v11.6c0,0.4,0.2,0.8,0.4,1l1.9,1.9
		l-1.9,1.9c-0.3,0.3-0.4,0.6-0.4,1v31.9c0,2.4,2,4.4,4.4,4.4h20.3c2.4,0,4.4-2,4.4-4.4v-31.9c0-0.4-0.2-0.8-0.4-1l-1.9-1.9l1.9-1.9
		C737.7,114.3,737.8,113.9,737.8,113.5z"/>
	<g>
		<path class="st43" d="M737.8,126.6H732c-0.8,0-1.4,0.6-1.4,1.5c0,0.8,0.6,1.4,1.4,1.4h5.8V126.6z"/>
		<path class="st43" d="M737.8,135.3H732c-0.8,0-1.4,0.6-1.4,1.5c0,0.8,0.6,1.4,1.4,1.4h5.8V135.3z"/>
		<path class="st43" d="M737.8,144H732c-0.8,0-1.4,0.6-1.4,1.5c0,0.8,0.6,1.4,1.4,1.4h5.8V144z"/>
		<path class="st43" d="M708.8,146.9h5.8c0.8,0,1.5-0.6,1.5-1.4c0-0.8-0.7-1.5-1.5-1.5h-5.8V146.9z"/>
		<path class="st43" d="M708.8,138.2h5.8c0.8,0,1.5-0.6,1.5-1.4c0-0.8-0.7-1.5-1.5-1.5h-5.8V138.2z"/>
		<path class="st43" d="M708.8,129.5h5.8c0.8,0,1.5-0.6,1.5-1.4c0-0.8-0.7-1.5-1.5-1.5h-5.8V129.5z"/>
	</g>
	<path class="st44" d="M737.8,113.5v-11.6c0-2.4-2-4.4-4.4-4.4h-2.9c2.4,0,4.4,2,4.4,4.4v11.6c0,0.4-0.2,0.8-0.4,1l-1.9,1.9l1.9,1.9
		c0.3,0.3,0.4,0.6,0.4,1v31.9c0,2.4-2,4.4-4.4,4.4h2.9c2.4,0,4.4-2,4.4-4.4v-31.9c0-0.4-0.2-0.8-0.4-1l-1.9-1.9l1.9-1.9
		C737.7,114.3,737.8,113.9,737.8,113.5z"/>
</g>
<g>
	<path class="st33" d="M725.3,559h-5.8c-0.8,0-1.5,0.6-1.5,1.4v5.8c0,0.8,0.6,1.4,1.5,1.4h5.8c0.8,0,1.4-0.6,1.4-1.4v-5.8
		C726.7,559.6,726.1,559,725.3,559z"/>
	<path class="st34" d="M731,564.8h-17.4c-0.8,0-1.4,0.7-1.4,1.5v5.8c0,0.8,0.6,1.4,1.4,1.4H731c0.8,0,1.4-0.6,1.4-1.4v-5.8
		C732.5,565.4,731.8,564.8,731,564.8z"/>
	<path class="st41" d="M726.7,561.9H718c-0.8,0-1.5-0.7-1.5-1.5c0-0.8,0.7-1.4,1.5-1.4h8.7c0.8,0,1.4,0.6,1.4,1.4
		C728.2,561.2,727.5,561.9,726.7,561.9z"/>
	<g>
		<path class="st33" d="M718,573.5c-0.8,0-1.4-0.6-1.4-1.4v-1.4c0-0.8,0.6-1.5,1.4-1.5c0.8,0,1.5,0.6,1.5,1.5v1.4
			C719.4,572.8,718.8,573.5,718,573.5z"/>
		<path class="st33" d="M722.3,573.5c-0.8,0-1.4-0.6-1.4-1.4v-1.4c0-0.8,0.6-1.5,1.4-1.5s1.5,0.6,1.5,1.5v1.4
			C723.8,572.8,723.1,573.5,722.3,573.5z"/>
		<path class="st33" d="M726.7,573.5c-0.8,0-1.4-0.6-1.4-1.4v-1.4c0-0.8,0.6-1.5,1.4-1.5c0.8,0,1.5,0.6,1.5,1.5v1.4
			C728.1,572.8,727.5,573.5,726.7,573.5z"/>
	</g>
	<path class="st42" d="M736.8,586.5v-11.6c0-2.4-2-4.4-4.4-4.4h-20.3c-2.4,0-4.4,2-4.4,4.4v11.6c0,0.4,0.2,0.8,0.4,1l1.9,1.9
		l-1.9,1.9c-0.3,0.3-0.4,0.6-0.4,1v31.9c0,2.4,2,4.4,4.4,4.4h20.3c2.4,0,4.4-2,4.4-4.4v-31.9c0-0.4-0.2-0.8-0.4-1l-1.9-1.9l1.9-1.9
		C736.7,587.3,736.8,586.9,736.8,586.5z"/>
	<g>
		<path class="st43" d="M736.8,599.6H731c-0.8,0-1.4,0.6-1.4,1.5c0,0.8,0.6,1.4,1.4,1.4h5.8V599.6z"/>
		<path class="st43" d="M736.8,608.3H731c-0.8,0-1.4,0.6-1.4,1.5c0,0.8,0.6,1.4,1.4,1.4h5.8V608.3z"/>
		<path class="st43" d="M736.8,617H731c-0.8,0-1.4,0.7-1.4,1.5c0,0.8,0.6,1.4,1.4,1.4h5.8V617z"/>
		<path class="st43" d="M707.8,619.9h5.8c0.8,0,1.5-0.6,1.5-1.4c0-0.8-0.7-1.5-1.5-1.5h-5.8V619.9z"/>
		<path class="st43" d="M707.8,611.2h5.8c0.8,0,1.5-0.7,1.5-1.4c0-0.8-0.7-1.5-1.5-1.5h-5.8V611.2z"/>
		<path class="st43" d="M707.8,602.5h5.8c0.8,0,1.5-0.6,1.5-1.4c0-0.8-0.7-1.5-1.5-1.5h-5.8V602.5z"/>
	</g>
	<path class="st44" d="M736.8,586.5v-11.6c0-2.4-2-4.4-4.4-4.4h-2.9c2.4,0,4.4,2,4.4,4.4v11.6c0,0.4-0.2,0.8-0.4,1l-1.9,1.9l1.9,1.9
		c0.3,0.3,0.4,0.6,0.4,1v31.9c0,2.4-2,4.4-4.4,4.4h2.9c2.4,0,4.4-2,4.4-4.4v-31.9c0-0.4-0.2-0.8-0.4-1l-1.9-1.9l1.9-1.9
		C736.7,587.3,736.8,586.9,736.8,586.5z"/>
</g>
<g>
	<path class="st33" d="M192.8,559H187c-0.8,0-1.5,0.6-1.5,1.4v5.8c0,0.8,0.6,1.4,1.5,1.4h5.8c0.8,0,1.4-0.6,1.4-1.4v-5.8
		C194.2,559.6,193.6,559,192.8,559z"/>
	<path class="st34" d="M198.6,564.8h-17.4c-0.8,0-1.4,0.7-1.4,1.5v5.8c0,0.8,0.6,1.4,1.4,1.4h17.4c0.8,0,1.4-0.6,1.4-1.4v-5.8
		C200,565.4,199.4,564.8,198.6,564.8z"/>
	<path class="st41" d="M194.2,561.9h-8.7c-0.8,0-1.5-0.7-1.5-1.5c0-0.8,0.6-1.4,1.5-1.4h8.7c0.8,0,1.4,0.6,1.4,1.4
		C195.7,561.2,195,561.9,194.2,561.9z"/>
	<g>
		<path class="st33" d="M185.5,573.5c-0.8,0-1.4-0.6-1.4-1.4v-1.4c0-0.8,0.6-1.5,1.4-1.5s1.5,0.6,1.5,1.5v1.4
			C187,572.8,186.3,573.5,185.5,573.5z"/>
		<path class="st33" d="M189.9,573.5c-0.8,0-1.4-0.6-1.4-1.4v-1.4c0-0.8,0.6-1.5,1.4-1.5s1.5,0.6,1.5,1.5v1.4
			C191.3,572.8,190.7,573.5,189.9,573.5z"/>
		<path class="st33" d="M194.2,573.5c-0.8,0-1.4-0.6-1.4-1.4v-1.4c0-0.8,0.6-1.5,1.4-1.5s1.5,0.6,1.5,1.5v1.4
			C195.7,572.8,195,573.5,194.2,573.5z"/>
	</g>
	<path class="st42" d="M204.4,586.5v-11.6c0-2.4-2-4.4-4.4-4.4h-20.3c-2.4,0-4.4,2-4.4,4.4v11.6c0,0.4,0.2,0.8,0.4,1l1.9,1.9
		l-1.9,1.9c-0.3,0.3-0.4,0.6-0.4,1v31.9c0,2.4,1.9,4.4,4.4,4.4H200c2.4,0,4.4-2,4.4-4.4v-31.9c0-0.4-0.2-0.8-0.4-1l-1.9-1.9l1.9-1.9
		C204.2,587.3,204.4,586.9,204.4,586.5z"/>
	<g>
		<path class="st43" d="M204.4,599.6h-5.8c-0.8,0-1.4,0.6-1.4,1.5c0,0.8,0.6,1.4,1.4,1.4h5.8V599.6z"/>
		<path class="st43" d="M204.4,608.3h-5.8c-0.8,0-1.4,0.6-1.4,1.5c0,0.8,0.6,1.4,1.4,1.4h5.8V608.3z"/>
		<path class="st43" d="M204.4,617h-5.8c-0.8,0-1.4,0.7-1.4,1.5c0,0.8,0.6,1.4,1.4,1.4h5.8V617z"/>
		<path class="st43" d="M175.4,619.9h5.8c0.8,0,1.5-0.6,1.5-1.4c0-0.8-0.6-1.5-1.5-1.5h-5.8V619.9z"/>
		<path class="st43" d="M175.4,611.2h5.8c0.8,0,1.5-0.7,1.5-1.4c0-0.8-0.6-1.5-1.5-1.5h-5.8V611.2z"/>
		<path class="st43" d="M175.4,602.5h5.8c0.8,0,1.5-0.6,1.5-1.4c0-0.8-0.6-1.5-1.5-1.5h-5.8V602.5z"/>
	</g>
	<path class="st44" d="M204.4,586.5v-11.6c0-2.4-2-4.4-4.4-4.4h-2.9c2.4,0,4.4,2,4.4,4.4v11.6c0,0.4-0.2,0.8-0.4,1l-1.9,1.9l1.9,1.9
		c0.3,0.3,0.4,0.6,0.4,1v31.9c0,2.4-2,4.4-4.4,4.4h2.9c2.4,0,4.4-2,4.4-4.4v-31.9c0-0.4-0.2-0.8-0.4-1l-1.9-1.9l1.9-1.9
		C204.2,587.3,204.4,586.9,204.4,586.5z"/>
</g>
<g>
	<path class="st45" d="M932.7,92.3c0,0,0.5-1.7-0.6-2.8c-1.1-1.1-2.8-0.6-2.8-0.6l-14.4,13.2l0.2,4.5l4.5,0.2L932.7,92.3z"/>
	<path class="st46" d="M900.7,111.5l9.4,9.4l10.1-10.1c0.9-0.9,0.9-2.4,0-3.3l-6-6c-0.9-0.9-2.4-0.9-3.3,0L900.7,111.5z"/>
	<path class="st47" d="M911,131.3c3.7-3.7,4.5-9.2,2.3-13.7l-9.4-9.4c-4.5-2.1-10-1.4-13.7,2.3l-18.5,18.5c-2.3,2.3-2.3,6.1,0,8.5
		l12.2,12.2c2.3,2.3,6.1,2.3,8.5,0L911,131.3z"/>
	
		<rect x="882.9" y="121" transform="matrix(0.7071 -0.7071 0.7071 0.7071 170.8882 669.2264)" class="st32" width="20.8" height="14.6"/>
</g>
<g>
	<path class="st48" d="M844.8,374.8c-1.5-1.5-8-5.5-14.5-9.1c3.5-5.1,5.6-11.2,5.6-17.9c0-17.3-14-31.3-31.3-31.3
		c-17.3,0-31.3,14-31.3,31.3c0,17.3,14,31.3,31.3,31.3c6.6,0,12.7-2,17.7-5.5c3.6,6.4,7.6,13,9.1,14.5c2.9,2.9,6.5,3.6,8.6,3.6
		c2.5,0,8.5-6,8.3-8.3C848.4,381.2,847.7,377.8,844.8,374.8"/>
	<path class="st49" d="M829.7,347.8c0,13.8-11.2,25-25,25s-25-11.2-25-25s11.2-25,25-25S829.7,334,829.7,347.8"/>
	<path class="st50" d="M806.8,368.7c10.1-3.2,8.3-10.4,8.3-18.8s8.3-14,0.7-20.3c-4.5-3.8-14.1-5-18.5-3.4
		c-4.1,1.5-9.3,4.6-9.3,10.9c0,6.3-0.1,6.1-3.6,11.7C779,357.8,792.4,373.2,806.8,368.7"/>
	<path class="st51" d="M808.8,354.1c0,4.6-3.7,8.3-8.3,8.3c-4.6,0-8.3-3.7-8.3-8.3s3.7-8.3,8.3-8.3
		C805.1,345.8,808.8,349.5,808.8,354.1"/>
</g>
<g>
	<path class="st35" d="M660.3,376.1v6c0,1.6-1.3,3-3,3h-48c-1.7,0-3-1.4-3-3v-6v-15h54V376.1z"/>
	<path class="st39" d="M664.8,350.6h-6v-21h3c1.7,0,3-1.3,3-3v-6c0-1.7-1.3-3-3-3h-57c-1.7,0-3,1.3-3,3v6c0,1.7,1.3,3,3,3h3v21h-6
		c-1.7,0-3,1.3-3,3v6c0,1.7,1.3,3,3,3h3v19.5c0,2.5,2,4.5,4.5,4.5h48c2.5,0,4.5-2,4.5-4.5v-19.5h3c1.7,0,3-1.3,3-3v-6
		C667.8,351.9,666.5,350.6,664.8,350.6z M604.8,320.6h57v6h-57V320.6z M610.8,344.6h25.5c0.8,0,1.5-0.7,1.5-1.5s-0.7-1.5-1.5-1.5
		h-25.5v-12h45v12h-10.5c-0.8,0-1.5,0.7-1.5,1.5s0.7,1.5,1.5,1.5h10.5v6h-45V344.6z M658.8,374.6h-16.5c-0.8,0-1.5,0.7-1.5,1.5
		c0,0.8,0.7,1.5,1.5,1.5h16.5v4.5c0,0.8-0.7,1.5-1.5,1.5h-48c-0.8,0-1.5-0.7-1.5-1.5v-4.5h25.5c0.8,0,1.5-0.7,1.5-1.5
		c0-0.8-0.7-1.5-1.5-1.5h-25.5v-12h51V374.6z M664.8,359.6h-63v-6h63V359.6z"/>
</g>
<g>
	<path class="st52" d="M437.3,338.4h-4.1c0-6.4,5.2-11.5,11.5-11.5v4.1C440.7,331,437.3,334.3,437.3,338.4z"/>
	<path class="st53" d="M444.1,373.3v9.5c0,2.2,1.8,4.1,4.1,4.1s4.1-1.8,4.1-4.1v-9.5H444.1z"/>
	<g>
		<path class="st54" d="M456.3,373.3v9.5c0,2.2,1.8,4.1,4.1,4.1c2.2,0,4.1-1.8,4.1-4.1v-9.5H456.3z"/>
		<path class="st54" d="M476.1,350.8l-13.7-13.7l4,15.5l4,4c1.6,1.6,4.2,1.6,5.8,0l0,0C477.7,354.9,477.7,352.4,476.1,350.8z"/>
	</g>
	<path class="st53" d="M432.5,350.8c-1.6,1.6-1.6,4.2,0,5.8l0,0c1.6,1.6,4.2,1.6,5.8,0l4-4l4-15.5L432.5,350.8z"/>
	<path class="st55" d="M454.3,376c-11.1,0-15.6-2.7-16.1-3.1l-1.2-0.8l8.9-35.8h16.8l8.9,35.8l-1.2,0.8
		C469.9,373.3,465.5,376,454.3,376z"/>
	<path class="st56" d="M462.7,336.4h-8.4V376c11.1,0,15.6-2.7,16.1-3.1l1.2-0.8L462.7,336.4z"/>
	<path class="st53" d="M454.3,340.5c-6.4,0-11.5-5.2-11.5-11.5c0-6.4,5.2-11.5,11.5-11.5c6.4,0,11.5,5.2,11.5,11.5
		C465.8,335.3,460.7,340.5,454.3,340.5z"/>
	<path class="st54" d="M454.3,317.4v23.1c6.4,0,11.5-5.2,11.5-11.5C465.8,322.6,460.7,317.4,454.3,317.4z"/>
	<path class="st57" d="M465.7,327.1c-0.9-5.5-5.7-9.7-11.4-9.7c-3.8,0-7.2,1.8-9.3,4.7c1,2.1,2.8,3.9,5.2,5.4
		c3.6,2.2,8.5,3.4,13.5,3.4c4.1,0,7.5,3.3,7.5,7.5h4.1C475.3,332.7,471.2,328,465.7,327.1z"/>
	<path class="st52" d="M465.7,327.1c-0.9-5.5-5.7-9.7-11.4-9.7v12c2.9,1,6.1,1.6,9.5,1.6c4.1,0,7.5,3.3,7.5,7.5h4.1
		C475.3,332.7,471.2,328,465.7,327.1z"/>
</g>
<g>
	<path class="st58" d="M258.9,323h-7.3c-1.3,0-2.4,1.1-2.4,2.4v3.2l6,2.4l6-2.4v-3.2C261.3,324.1,260.2,323,258.9,323z"/>
	<path class="st59" d="M253.6,328.6v-3.2c0-1.3,1.1-2.4,2.4-2.4h-4.4c-1.3,0-2.4,1.1-2.4,2.4v3.2l6,2.4l2.2-0.9L253.6,328.6z"/>
	<path class="st60" d="M265.4,330.6c-0.3-1.2-1.3-2-2.5-2h-15.3c-1.2,0-2.2,0.8-2.5,2l-1,4.7l11.2,3.4l11.2-3.4L265.4,330.6z"/>
	<path class="st61" d="M249.9,335.3l1-4.7c0.3-1.2,1.3-2,2.5-2h-5.8c-1.2,0-2.2,0.8-2.5,2l-1,4.7l11.2,3.4l2.9-0.9L249.9,335.3z"/>
	<polygon class="st60" points="242.8,369.1 242.8,345.6 255.3,340.9 267.7,345.6 267.7,369.1 255.3,374.3 	"/>
	<polygon class="st61" points="248.7,369.1 248.7,345.6 258.2,342 255.3,340.9 242.8,345.6 242.8,369.1 255.3,374.3 258.2,373.1 	
		"/>
	<path class="st58" d="M295.2,323h7.3c1.3,0,2.4,1.1,2.4,2.4v3.2l-6,2.4l-6-2.4v-3.2C292.8,324.1,293.9,323,295.2,323z"/>
	<path class="st59" d="M297.2,328.6v-3.2c0-1.3,1.1-2.4,2.4-2.4h-4.4c-1.3,0-2.4,1.1-2.4,2.4v3.2l6,2.4l2.2-0.9L297.2,328.6z"/>
	<path class="st62" d="M288.7,330.6c0.3-1.2,1.3-2,2.5-2h15.3c1.2,0,2.2,0.8,2.5,2l1,4.7l-11.2,3.4l-11.2-3.4L288.7,330.6z"/>
	<path class="st63" d="M293.5,335.3l1-4.7c0.3-1.2,1.3-2,2.5-2h-5.8c-1.2,0-2.2,0.8-2.5,2l-1,4.7l11.2,3.4l2.9-0.9L293.5,335.3z"/>
	<polygon class="st62" points="311.3,369.1 311.3,345.6 298.9,340.9 286.4,345.6 286.4,369.1 298.9,374.3 	"/>
	<polygon class="st63" points="292.2,369.1 292.2,345.6 301.8,342 298.9,340.9 286.4,345.6 286.4,369.1 298.9,374.3 301.8,373.1 	
		"/>
	<path class="st60" d="M269.6,343.5l-0.9-6.2c-0.2-1.1-1.1-2-2.3-2h-22.3c-1.1,0-2.1,0.8-2.3,2l-0.9,6.2c-0.2,1.1,0.7,2.1,1.9,2.1
		h24.9C268.9,345.6,269.7,344.6,269.6,343.5z"/>
	<path class="st61" d="M246.8,343.5l0.9-6.2c0.2-1.1,1.1-2,2.3-2h-5.8c-1.1,0-2.1,0.8-2.3,2l-0.9,6.2c-0.2,1.1,0.7,2.1,1.9,2.1h5.8
		C247.5,345.6,246.6,344.6,246.8,343.5z"/>
	<path class="st60" d="M241,371.3l0.9,6.2c0.2,1.1,1.1,2,2.3,2h22.3c1.1,0,2.1-0.8,2.3-2l0.9-6.2c0.2-1.1-0.7-2.1-1.9-2.1h-24.9
		C241.7,369.1,240.8,370.1,241,371.3z"/>
	<path class="st61" d="M247.7,377.4l-0.9-6.2c-0.2-1.1,0.7-2.1,1.9-2.1h-5.8c-1.1,0-2,1-1.9,2.1l0.9,6.2c0.2,1.1,1.1,2,2.3,2h5.8
		C248.8,379.4,247.8,378.5,247.7,377.4z"/>
	<path class="st62" d="M284.6,343.5l0.9-6.2c0.2-1.1,1.1-2,2.3-2H310c1.1,0,2.1,0.8,2.3,2l0.9,6.2c0.2,1.1-0.7,2.1-1.9,2.1h-24.9
		C285.3,345.6,284.4,344.6,284.6,343.5z"/>
	<path class="st63" d="M290.4,343.5l0.9-6.2c0.2-1.1,1.1-2,2.3-2h-5.8c-1.1,0-2.1,0.8-2.3,2l-0.9,6.2c-0.2,1.1,0.7,2.1,1.9,2.1h5.8
		C291.1,345.6,290.2,344.6,290.4,343.5z"/>
	<path class="st62" d="M313.2,371.3l-0.9,6.2c-0.2,1.1-1.1,2-2.3,2h-22.3c-1.1,0-2.1-0.8-2.3-2l-0.9-6.2c-0.2-1.1,0.7-2.1,1.9-2.1
		h24.9C312.5,369.1,313.3,370.1,313.2,371.3z"/>
	<path class="st63" d="M291.3,377.4l-0.9-6.2c-0.2-1.1,0.7-2.1,1.9-2.1h-5.8c-1.1,0-2,1-1.9,2.1l0.9,6.2c0.2,1.1,1.1,2,2.3,2h5.8
		C292.4,379.4,291.4,378.5,291.3,377.4z"/>
	<path class="st58" d="M280.7,327.4h-7.3c-1.3,0-2.4,1.1-2.4,2.4v3.2l6,2.4l6-2.4v-3.2C283.1,328.5,282,327.4,280.7,327.4z"/>
	<path class="st59" d="M275.4,332.9v-3.2c0-1.3,1.1-2.4,2.4-2.4h-4.4c-1.3,0-2.4,1.1-2.4,2.4v3.2l6,2.4l2.2-0.9L275.4,332.9z"/>
	<path class="st64" d="M287.2,335c-0.3-1.2-1.3-2-2.5-2h-15.3c-1.2,0-2.2,0.8-2.5,2l-1,4.7l11.2,3.4l11.2-3.4L287.2,335z"/>
	<path class="st65" d="M271.7,339.7l1-4.7c0.3-1.2,1.3-2,2.5-2h-5.8c-1.2,0-2.2,0.8-2.5,2l-1,4.7l11.2,3.4l2.9-0.9L271.7,339.7z"/>
	<polygon class="st64" points="264.6,373.5 264.6,350 277.1,345.2 289.5,350 289.5,373.5 277.1,378.6 	"/>
	<polygon class="st65" points="270.4,373.5 270.4,350 280,346.3 277.1,345.2 264.6,350 264.6,373.5 277.1,378.6 280,377.4 	"/>
	<path class="st64" d="M291.4,347.8l-0.9-6.2c-0.2-1.1-1.1-2-2.3-2h-22.3c-1.1,0-2.1,0.8-2.3,2l-0.9,6.2c-0.2,1.1,0.7,2.1,1.9,2.1
		h24.9C290.7,350,291.5,349,291.4,347.8z"/>
	<path class="st65" d="M268.6,347.8l0.9-6.2c0.2-1.1,1.1-2,2.3-2h-5.8c-1.1,0-2.1,0.8-2.3,2l-0.9,6.2c-0.2,1.1,0.7,2.1,1.9,2.1h5.8
		C269.3,350,268.4,349,268.6,347.8z"/>
	<path class="st64" d="M262.8,375.6l0.9,6.2c0.2,1.1,1.1,2,2.3,2h22.3c1.1,0,2.1-0.8,2.3-2l0.9-6.2c0.2-1.1-0.7-2.1-1.9-2.1h-24.9
		C263.5,373.5,262.6,374.5,262.8,375.6z"/>
	<path class="st65" d="M269.5,381.8l-0.9-6.2c-0.2-1.1,0.7-2.1,1.9-2.1h-5.8c-1.1,0-2,1-1.9,2.1l0.9,6.2c0.2,1.1,1.1,2,2.3,2h5.8
		C270.6,383.7,269.6,382.9,269.5,381.8z"/>
</g>
<g>
	<path class="st66" d="M130.5,339.7c-4.6,0-8.4-3.7-8.4-8.4v-14.4h-9.7v5.4c0,7-5.7,12.6-12.6,12.6s-12.6-5.7-12.6-12.6v-5.4h-9.7
		v14.4c0,4.6-3.7,8.4-8.4,8.4v44.7h61.4V339.7L130.5,339.7z"/>
	<path class="st67" d="M99.8,335c-7,0-12.6-5.7-12.6-12.6v-5.4h-9.7v14.4c0,4.6-3.7,8.4-8.4,8.4v44.7h30.7V335z"/>
	<rect x="66" y="367.1" class="st68" width="23.9" height="10.2"/>
	<rect x="109.6" y="367.1" class="st69" width="23.9" height="10.2"/>
	<rect x="66" y="348.4" class="st68" width="23.9" height="10.2"/>
	<rect x="109.6" y="348.4" class="st69" width="23.9" height="10.2"/>
	<rect x="66" y="367.1" class="st70" width="12.1" height="10.2"/>
	<rect x="109.6" y="367.1" class="st68" width="12" height="10.2"/>
	<rect x="66" y="348.4" class="st70" width="12.1" height="10.2"/>
	<rect x="109.6" y="348.4" class="st68" width="12" height="10.2"/>
</g>
<g>
	<path class="st71" d="M344.2,603.7l-5.4,5.4c-0.8,0.8-2,0.8-2.7,0c-0.8-0.8-0.8-2,0-2.7l5.4-5.4c0.8-0.8,2-0.8,2.7,0
		C345,601.7,345,602.9,344.2,603.7z"/>
	<path class="st72" d="M360.5,619.9l-5.4,5.4c-0.8,0.8-2,0.8-2.7,0s-0.8-2,0-2.7l5.4-5.4c0.8-0.8,2-0.8,2.7,0
		C361.2,618,361.2,619.2,360.5,619.9z"/>
	<path class="st73" d="M352.4,601l-5.4,5.4c-0.8,0.8-2,0.8-2.7,0l-5.4-5.4c-0.8-0.8-0.8-2,0-2.7l5.4-5.4c0.8-0.8,2-0.8,2.7,0
		l5.4,5.4C353.1,599,353.1,600.2,352.4,601z"/>
	<path class="st71" d="M368.6,617.2l-5.4,5.4c-0.8,0.8-2,0.8-2.7,0l-5.4-5.4c-0.8-0.8-0.8-2,0-2.7l5.4-5.4c0.8-0.8,2-0.8,2.7,0
		l5.4,5.4C369.4,615.3,369.4,616.5,368.6,617.2z"/>
	<path class="st74" d="M390.5,571c-6.7-6.7-17.7-6.7-24.4,0l-13.7,13.7c-0.8,0.8-0.8,2,0,2.7l21.7,21.7c0.8,0.8,2,0.8,2.7,0
		l13.7-13.7C397.2,588.6,397.2,577.7,390.5,571z"/>
	<g>
		<path class="st75" d="M382.3,581.8l-2.7,2.7c-0.8,0.8-2,0.8-2.7,0c-0.8-0.8-0.8-2,0-2.7l2.7-2.7c0.8-0.8,2-0.8,2.7,0
			C383.1,579.9,383.1,581,382.3,581.8z"/>
		<path class="st75" d="M374.2,589.9l-8.3,8.3c-0.8,0.8-2,0.8-2.7,0c-0.8-0.8-0.8-2,0-2.7l8.3-8.3c0.8-0.8,2-0.8,2.7,0
			C375,588,375,589.2,374.2,589.9z"/>
	</g>
	<path class="st76" d="M390.5,595.4l-13.7,13.7c-0.8,0.8-2,0.8-2.7,0l-10.8-10.8l27.3-27.3C397.2,577.7,397.2,588.6,390.5,595.4z"/>
	<g>
		<path class="st74" d="M376.9,584.5l5.4-5.4c0.8,0.8,0.8,2,0,2.7l-2.7,2.7C378.9,585.3,377.7,585.3,376.9,584.5z"/>
		<path class="st74" d="M363.2,598.2l11-11c0.8,0.8,0.8,2,0,2.7l-8.3,8.3C365.1,599,363.9,599,363.2,598.2z"/>
	</g>
	<path class="st75" d="M379.6,581.8c-2.2-2.2-5.9-2.2-8.1,0c-2.2,2.2-2.2,5.9,0,8.1c2.2,2.2,5.9,2.2,8.1,0
		C381.9,587.7,381.9,584.1,379.6,581.8z"/>
	<path class="st74" d="M371.5,589.9l8.1-8.1c2.2,2.2,2.2,5.9,0,8.1C377.4,592.2,373.7,592.2,371.5,589.9z"/>
	<polygon class="st72" points="372.7,618.6 342.9,588.8 353.7,583.3 378.1,607.7 	"/>
	<polygon class="st77" points="372.7,618.6 357.8,603.7 365.9,595.5 378.1,607.7 	"/>
	<path class="st74" d="M375.4,621.3c-1.5,1.5-3.9,1.5-5.4,0l-29.8-29.8c-1.5-1.5-1.5-3.9,0-5.4c1.5-1.5,3.9-1.5,5.4,0l29.8,29.8
		C376.9,617.3,376.9,619.8,375.4,621.3z"/>
	<path class="st76" d="M375.4,621.3c-1.5,1.5-3.9,1.5-5.4,0l-14.9-14.9l5.4-5.4l14.9,14.9C376.9,617.3,376.9,619.8,375.4,621.3z"/>
</g>
<g>
	<path class="st78" d="M880.5,605.1l10.5,10.5c0.6,0.6,1.6,8.9,1,9.4l-2.1,2.1c-0.6,0.6-1.5,0.6-2.1,0l-1.1-1.1l-8.3-8.3
		c-3.4-3.4-6.8-6.8-8.5-8.5l-1-1c-0.6-0.6-0.6-1.5,0-2.1l2.1-2.1C871.6,603.4,879.9,604.5,880.5,605.1z"/>
	<path class="st79" d="M884.4,567c-1.6,0-2.9,1.3-2.9,2.9c0,1.6,1.3,2.9,2.9,2.9c1.6,0,2.9-1.3,2.9-2.9
		C887.2,568.3,885.9,567,884.4,567z M893.2,570.1c-1.6,0-2.9,1.3-2.9,2.9c0,1.6,1.3,2.9,2.9,2.9c1.6,0,2.9-1.3,2.9-2.9
		C896.1,571.4,894.8,570.1,893.2,570.1z M925.9,602.2c0-1.6-1.3-2.9-2.9-2.9c-1.6,0-2.9,1.3-2.9,2.9c0,1.6,1.3,2.9,2.9,2.9
		C924.6,605.1,925.9,603.9,925.9,602.2z M926.1,608.2c-1.6,0-2.9,1.3-2.9,2.9c0,1.6,1.3,2.9,2.9,2.9c1.6,0,2.9-1.3,2.9-2.9
		C929,609.5,927.7,608.2,926.1,608.2z"/>
	<path class="st78" d="M907.5,578.2l10.3,10.3c1.1,1.1,12.5,32.9,11.4,34.1l-4.1,4.1c-1.1,1.1-3,1.1-4.1,0l-22.8-29L869.3,575
		c-1.1-1.1-1.1-3,0-4.1l4.1-4.1C874.6,565.7,906.4,577,907.5,578.2z"/>
	<path class="st16" d="M934.1,562c2.9,2.9,0.3,10-3.1,13.5l-37.3,37.3c-3.4,3.4-15.8,11.2-18.6,8.3c-2.9-2.9,4.9-15.2,8.3-18.6
		l37.3-37.3C924,561.6,931.2,559.1,934.1,562z"/>
	<path class="st80" d="M885.9,604.9l37.3-37.3c2.9-2.9,8.5-5.2,11.8-4.1c-0.2-0.6-0.5-1.1-0.9-1.6c-2.9-2.9-10-0.3-13.5,3.1
		l-37.3,37.3c-3.4,3.4-11.1,15.8-8.3,18.6c0.4,0.4,1.1,0.6,1.9,0.6C877,617.1,883,607.8,885.9,604.9z"/>
	<path class="st81" d="M886.7,588.7l5.9,4.6l15.1-15.1l-0.2-0.2c-0.3-0.3-3.2-1.5-7.2-3C900.3,575,886.7,588.7,886.7,588.7z"/>
	<path class="st82" d="M902.8,603.6l18.2,23.1c1,1,2.7,1.1,3.9,0.2l-20-25.3L902.8,603.6z M894.5,591.3L869,571.3
		c-0.8,1.1-0.7,2.7,0.3,3.7l23.2,18.2L894.5,591.3z"/>
	<path class="st83" d="M892.5,593.2l2-1.9l-5.7-4.5l-2,1.9L892.5,593.2z"/>
</g>
<g id="XMLID_1_">
	<polygon id="XMLID_9_" class="st84" points="573.3,623.6 573.3,623.7 583.1,606.6 	"/>
	<polygon id="XMLID_41_" class="st84" points="572.7,588.6 558,597 558.9,598.5 563.5,606.7 583.1,606.6 	"/>
	<polygon id="XMLID_43_" class="st85" points="563.5,606.7 554.1,606.7 552.4,606.7 552.4,600.9 540.5,615.1 552.4,629.4 
		552.4,623.7 573.3,623.7 573.3,623.6 583.1,606.6 	"/>
	<polygon id="XMLID_44_" class="st84" points="534.1,557.1 523.7,575.2 538.4,583.6 539.2,582.2 544,574 	"/>
	<polygon id="XMLID_45_" class="st84" points="553.8,557.1 534.1,557.1 553.8,557.1 	"/>
	<polygon id="XMLID_46_" class="st85" points="548.7,582.2 549.6,583.6 544.4,586.6 562.8,589.9 569.1,572.4 564.2,575.2 
		553.8,557.1 553.8,557.1 534.1,557.1 544,574 	"/>
	<polygon id="XMLID_47_" class="st84" points="505.7,606.6 515.6,623.7 505.8,606.6 	"/>
	<polygon id="XMLID_48_" class="st84" points="525.3,606.7 515.6,623.7 536.4,623.7 536.4,606.7 534.7,606.7 	"/>
	<polygon id="XMLID_50_" class="st85" points="530,598.5 530.9,597 535.9,599.9 529.5,582.4 511.2,585.7 516.2,588.5 505.7,606.6 
		505.8,606.6 515.6,623.7 525.3,606.7 	"/>
</g>
</svg>
